G75*
%MOIN*%
%OFA0B0*%
%FSLAX24Y24*%
%IPPOS*%
%LPD*%
%AMOC8*
5,1,8,0,0,1.08239X$1,22.5*
%
%ADD10C,0.0060*%
%ADD11C,0.0000*%
%ADD12R,0.0025X0.0005*%
%ADD13R,0.0035X0.0005*%
%ADD14R,0.0045X0.0005*%
%ADD15R,0.0055X0.0005*%
%ADD16R,0.0065X0.0005*%
%ADD17R,0.0075X0.0005*%
%ADD18R,0.0085X0.0005*%
%ADD19R,0.0095X0.0005*%
%ADD20R,0.0105X0.0005*%
%ADD21R,0.0115X0.0005*%
%ADD22R,0.0120X0.0005*%
%ADD23R,0.0130X0.0005*%
%ADD24R,0.0135X0.0005*%
%ADD25R,0.0140X0.0005*%
%ADD26R,0.0070X0.0005*%
%ADD27R,0.0125X0.0005*%
%ADD28R,0.0080X0.0005*%
%ADD29R,0.0090X0.0005*%
%ADD30R,0.0100X0.0005*%
%ADD31R,0.0110X0.0005*%
%ADD32R,0.0010X0.0005*%
%ADD33R,0.0145X0.0005*%
%ADD34R,0.0150X0.0005*%
%ADD35R,0.0155X0.0005*%
%ADD36R,0.0160X0.0005*%
%ADD37R,0.0165X0.0005*%
%ADD38R,0.0020X0.0005*%
%ADD39R,0.0030X0.0005*%
%ADD40R,0.0040X0.0005*%
%ADD41R,0.0050X0.0005*%
%ADD42R,0.0060X0.0005*%
%ADD43R,0.0015X0.0005*%
%ADD44R,0.0175X0.0005*%
%ADD45R,0.0190X0.0005*%
%ADD46R,0.0210X0.0005*%
%ADD47R,0.0225X0.0005*%
%ADD48R,0.0170X0.0005*%
%ADD49R,0.0240X0.0005*%
%ADD50R,0.0195X0.0005*%
%ADD51R,0.0205X0.0005*%
%ADD52R,0.0215X0.0005*%
%ADD53R,0.0230X0.0005*%
%ADD54R,0.0235X0.0005*%
%ADD55R,0.0200X0.0005*%
%ADD56R,0.0245X0.0005*%
%ADD57R,0.0255X0.0005*%
%ADD58R,0.0185X0.0005*%
%ADD59R,0.0295X0.0005*%
%ADD60R,0.0250X0.0005*%
%ADD61R,0.0290X0.0005*%
%ADD62R,0.0285X0.0005*%
%ADD63R,0.0265X0.0005*%
%ADD64R,0.0260X0.0005*%
%ADD65R,0.0180X0.0005*%
%ADD66R,0.0005X0.0005*%
D10*
X003753Y001336D02*
X004093Y001336D01*
X004093Y001507D01*
X004036Y001563D01*
X003923Y001563D01*
X003866Y001507D01*
X003866Y001336D01*
X003809Y001705D02*
X004036Y001932D01*
X003809Y001932D01*
X003753Y001875D01*
X003753Y001762D01*
X003809Y001705D01*
X004036Y001705D01*
X004093Y001762D01*
X004093Y001875D01*
X004036Y001932D01*
X003696Y002073D02*
X003696Y002300D01*
X003753Y002441D02*
X003809Y002441D01*
X004036Y002668D01*
X004093Y002668D01*
X004093Y002441D01*
X004696Y002300D02*
X004696Y002073D01*
X004809Y001932D02*
X004753Y001875D01*
X004753Y001762D01*
X004809Y001705D01*
X005036Y001932D01*
X004809Y001932D01*
X005036Y001932D02*
X005093Y001875D01*
X005093Y001762D01*
X005036Y001705D01*
X004809Y001705D01*
X004923Y001563D02*
X004866Y001507D01*
X004866Y001336D01*
X004753Y001336D02*
X005093Y001336D01*
X005093Y001507D01*
X005036Y001563D01*
X004923Y001563D01*
X005753Y001762D02*
X005809Y001705D01*
X006036Y001932D01*
X005809Y001932D01*
X005753Y001875D01*
X005753Y001762D01*
X005809Y001705D02*
X006036Y001705D01*
X006093Y001762D01*
X006093Y001875D01*
X006036Y001932D01*
X005696Y002073D02*
X005696Y002300D01*
X005809Y002441D02*
X005753Y002498D01*
X005753Y002612D01*
X005809Y002668D01*
X005866Y002668D01*
X005923Y002612D01*
X005923Y002555D01*
X005923Y002612D02*
X005980Y002668D01*
X006036Y002668D01*
X006093Y002612D01*
X006093Y002498D01*
X006036Y002441D01*
X006696Y002300D02*
X006696Y002073D01*
X006809Y001932D02*
X006753Y001875D01*
X006753Y001762D01*
X006809Y001705D01*
X007036Y001932D01*
X006809Y001932D01*
X007036Y001932D02*
X007093Y001875D01*
X007093Y001762D01*
X007036Y001705D01*
X006809Y001705D01*
X006923Y001563D02*
X006866Y001507D01*
X006866Y001336D01*
X006753Y001336D02*
X007093Y001336D01*
X007093Y001507D01*
X007036Y001563D01*
X006923Y001563D01*
X006093Y001507D02*
X006093Y001336D01*
X005753Y001336D01*
X005866Y001336D02*
X005866Y001507D01*
X005923Y001563D01*
X006036Y001563D01*
X006093Y001507D01*
X007696Y002073D02*
X007696Y002300D01*
X007809Y002441D02*
X007753Y002498D01*
X007753Y002612D01*
X007809Y002668D01*
X007923Y002668D01*
X007980Y002612D01*
X007980Y002555D01*
X007923Y002441D01*
X008093Y002441D01*
X008093Y002668D01*
X008753Y002612D02*
X008753Y002498D01*
X008809Y002441D01*
X008923Y002555D02*
X008923Y002612D01*
X008866Y002668D01*
X008809Y002668D01*
X008753Y002612D01*
X008923Y002612D02*
X008980Y002668D01*
X009036Y002668D01*
X009093Y002612D01*
X009093Y002498D01*
X009036Y002441D01*
X008696Y002300D02*
X008696Y002073D01*
X008753Y001932D02*
X008753Y001705D01*
X008980Y001932D01*
X009036Y001932D01*
X009093Y001875D01*
X009093Y001762D01*
X009036Y001705D01*
X009036Y001563D02*
X008923Y001563D01*
X008866Y001507D01*
X008866Y001336D01*
X008753Y001336D02*
X009093Y001336D01*
X009093Y001507D01*
X009036Y001563D01*
X009753Y001705D02*
X009980Y001932D01*
X010036Y001932D01*
X010093Y001875D01*
X010093Y001762D01*
X010036Y001705D01*
X010036Y001563D02*
X009923Y001563D01*
X009866Y001507D01*
X009866Y001336D01*
X009753Y001336D02*
X010093Y001336D01*
X010093Y001507D01*
X010036Y001563D01*
X009753Y001705D02*
X009753Y001932D01*
X009696Y002073D02*
X009696Y002300D01*
X009753Y002441D02*
X009753Y002668D01*
X009753Y002555D02*
X010093Y002555D01*
X009980Y002441D01*
X010696Y002300D02*
X010696Y002073D01*
X010753Y001932D02*
X010753Y001705D01*
X010753Y001818D02*
X011093Y001818D01*
X010980Y001705D01*
X011036Y001563D02*
X010923Y001563D01*
X010866Y001507D01*
X010866Y001336D01*
X010753Y001336D02*
X011093Y001336D01*
X011093Y001507D01*
X011036Y001563D01*
X011753Y001705D02*
X011753Y001932D01*
X011753Y001818D02*
X012093Y001818D01*
X011980Y001705D01*
X012036Y001563D02*
X011923Y001563D01*
X011866Y001507D01*
X011866Y001336D01*
X011753Y001336D02*
X012093Y001336D01*
X012093Y001507D01*
X012036Y001563D01*
X012753Y001705D02*
X012753Y001932D01*
X012753Y001818D02*
X013093Y001818D01*
X012980Y001705D01*
X013036Y001563D02*
X012923Y001563D01*
X012866Y001507D01*
X012866Y001336D01*
X012753Y001336D02*
X013093Y001336D01*
X013093Y001507D01*
X013036Y001563D01*
X013753Y001507D02*
X013753Y001393D01*
X013809Y001336D01*
X013923Y001450D02*
X013923Y001507D01*
X013866Y001563D01*
X013809Y001563D01*
X013753Y001507D01*
X013923Y001507D02*
X013980Y001563D01*
X014036Y001563D01*
X014093Y001507D01*
X014093Y001393D01*
X014036Y001336D01*
X014093Y001705D02*
X013866Y001705D01*
X013753Y001818D01*
X013866Y001932D01*
X014093Y001932D01*
X014036Y002073D02*
X014093Y002130D01*
X014093Y002243D01*
X014036Y002300D01*
X013980Y002300D01*
X013923Y002243D01*
X013866Y002300D01*
X013809Y002300D01*
X013753Y002243D01*
X013753Y002130D01*
X013809Y002073D01*
X013923Y002187D02*
X013923Y002243D01*
X013093Y002498D02*
X013093Y002612D01*
X013036Y002668D01*
X012980Y002668D01*
X012753Y002441D01*
X012753Y002668D01*
X013036Y002441D02*
X013093Y002498D01*
X012696Y002300D02*
X012696Y002073D01*
X012093Y002498D02*
X012093Y002612D01*
X012036Y002668D01*
X011980Y002668D01*
X011923Y002612D01*
X011866Y002668D01*
X011809Y002668D01*
X011753Y002612D01*
X011753Y002498D01*
X011809Y002441D01*
X011923Y002555D02*
X011923Y002612D01*
X012036Y002441D02*
X012093Y002498D01*
X011696Y002300D02*
X011696Y002073D01*
X011093Y002612D02*
X010923Y002441D01*
X010923Y002668D01*
X010753Y002612D02*
X011093Y002612D01*
X008093Y001875D02*
X008093Y001762D01*
X008036Y001705D01*
X008036Y001563D02*
X007923Y001563D01*
X007866Y001507D01*
X007866Y001336D01*
X007753Y001336D02*
X008093Y001336D01*
X008093Y001507D01*
X008036Y001563D01*
X007753Y001705D02*
X007980Y001932D01*
X008036Y001932D01*
X008093Y001875D01*
X007753Y001932D02*
X007753Y001705D01*
X006980Y002441D02*
X007093Y002555D01*
X006753Y002555D01*
X006753Y002668D02*
X006753Y002441D01*
X005093Y002441D02*
X004923Y002441D01*
X004980Y002555D01*
X004980Y002612D01*
X004923Y002668D01*
X004809Y002668D01*
X004753Y002612D01*
X004753Y002498D01*
X004809Y002441D01*
X005093Y002441D02*
X005093Y002668D01*
X001893Y005717D02*
X001893Y005944D01*
X001893Y005830D02*
X001553Y005830D01*
X001393Y005848D02*
X001393Y005678D01*
X001053Y005678D01*
X001166Y005678D02*
X001166Y005848D01*
X001223Y005905D01*
X001336Y005905D01*
X001393Y005848D01*
X001166Y006103D02*
X001109Y006046D01*
X001053Y006103D01*
X001053Y006273D01*
X001223Y006273D01*
X001280Y006217D01*
X001280Y006103D01*
X001166Y006103D02*
X001166Y006273D01*
X001280Y006415D02*
X001280Y006528D01*
X001336Y006471D02*
X001109Y006471D01*
X001053Y006528D01*
X001280Y006660D02*
X001280Y006774D01*
X001336Y006717D02*
X001109Y006717D01*
X001053Y006774D01*
X001109Y006906D02*
X001223Y006906D01*
X001280Y006963D01*
X001280Y007076D01*
X001223Y007133D01*
X001166Y007133D01*
X001166Y006906D01*
X001109Y006906D02*
X001053Y006963D01*
X001053Y007076D01*
X001053Y007274D02*
X001280Y007274D01*
X001166Y007274D02*
X001280Y007388D01*
X001280Y007444D01*
X001280Y007581D02*
X001053Y007581D01*
X001280Y007581D02*
X001280Y007751D01*
X001223Y007808D01*
X001053Y007808D01*
X001053Y007949D02*
X001280Y007949D01*
X001393Y008063D01*
X001280Y008176D01*
X001053Y008176D01*
X001109Y008318D02*
X001053Y008374D01*
X001053Y008545D01*
X000996Y008545D02*
X001280Y008545D01*
X001280Y008374D01*
X001223Y008318D01*
X001109Y008318D01*
X001223Y008176D02*
X001223Y007949D01*
X001553Y007927D02*
X001893Y007927D01*
X001553Y008153D01*
X001893Y008153D01*
X001836Y008295D02*
X001609Y008295D01*
X001553Y008352D01*
X001553Y008465D01*
X001609Y008522D01*
X001609Y008663D02*
X001553Y008720D01*
X001553Y008833D01*
X001609Y008890D01*
X001836Y008890D01*
X001893Y008833D01*
X001893Y008720D01*
X001836Y008663D01*
X001609Y008663D01*
X001836Y008522D02*
X001893Y008465D01*
X001893Y008352D01*
X001836Y008295D01*
X002309Y007795D02*
X002253Y007738D01*
X002253Y007625D01*
X002309Y007568D01*
X002536Y007795D01*
X002309Y007795D01*
X002536Y007795D02*
X002593Y007738D01*
X002593Y007625D01*
X002536Y007568D01*
X002309Y007568D01*
X002309Y007441D02*
X002253Y007441D01*
X002253Y007384D01*
X002309Y007384D01*
X002309Y007441D01*
X002309Y007243D02*
X002253Y007186D01*
X002253Y007072D01*
X002309Y007016D01*
X002423Y007129D02*
X002423Y007186D01*
X002366Y007243D01*
X002309Y007243D01*
X002423Y007186D02*
X002480Y007243D01*
X002536Y007243D01*
X002593Y007186D01*
X002593Y007072D01*
X002536Y007016D01*
X002480Y006874D02*
X002253Y006761D01*
X002480Y006647D01*
X002423Y006506D02*
X002366Y006506D01*
X002366Y006279D01*
X002309Y006279D02*
X002423Y006279D01*
X002480Y006336D01*
X002480Y006449D01*
X002423Y006506D01*
X002253Y006449D02*
X002253Y006336D01*
X002309Y006279D01*
X002253Y006138D02*
X002366Y006024D01*
X002366Y006081D02*
X002366Y005911D01*
X002253Y005911D02*
X002593Y005911D01*
X002593Y006081D01*
X002536Y006138D01*
X002423Y006138D01*
X002366Y006081D01*
X001893Y006142D02*
X001836Y006085D01*
X001780Y006085D01*
X001723Y006142D01*
X001723Y006255D01*
X001666Y006312D01*
X001609Y006312D01*
X001553Y006255D01*
X001553Y006142D01*
X001609Y006085D01*
X001893Y006142D02*
X001893Y006255D01*
X001836Y006312D01*
X001836Y006453D02*
X001609Y006453D01*
X001553Y006510D01*
X001553Y006623D01*
X001609Y006680D01*
X001836Y006680D01*
X001893Y006623D01*
X001893Y006510D01*
X001836Y006453D01*
X001836Y006822D02*
X001609Y006822D01*
X001553Y006878D01*
X001553Y006992D01*
X001609Y007049D01*
X001723Y007190D02*
X001723Y007417D01*
X001723Y007558D02*
X001723Y007672D01*
X001893Y007785D02*
X001893Y007558D01*
X001553Y007558D01*
X001553Y007785D01*
X001836Y007049D02*
X001893Y006992D01*
X001893Y006878D01*
X001836Y006822D01*
X003753Y008136D02*
X004093Y008136D01*
X004093Y008307D01*
X004036Y008363D01*
X003923Y008363D01*
X003866Y008307D01*
X003866Y008136D01*
X003809Y008505D02*
X004036Y008732D01*
X003809Y008732D01*
X003753Y008675D01*
X003753Y008562D01*
X003809Y008505D01*
X004036Y008505D01*
X004093Y008562D01*
X004093Y008675D01*
X004036Y008732D01*
X003696Y008873D02*
X003696Y009100D01*
X003809Y009241D02*
X003753Y009298D01*
X003753Y009412D01*
X003809Y009468D01*
X003866Y009468D01*
X003923Y009412D01*
X003923Y009241D01*
X003809Y009241D01*
X003923Y009241D02*
X004036Y009355D01*
X004093Y009468D01*
X004853Y009412D02*
X005193Y009412D01*
X005023Y009241D01*
X005023Y009468D01*
X004796Y009100D02*
X004796Y008873D01*
X004909Y008732D02*
X004853Y008675D01*
X004853Y008562D01*
X004909Y008505D01*
X005136Y008732D01*
X004909Y008732D01*
X004909Y008505D02*
X005136Y008505D01*
X005193Y008562D01*
X005193Y008675D01*
X005136Y008732D01*
X005136Y008363D02*
X005023Y008363D01*
X004966Y008307D01*
X004966Y008136D01*
X004853Y008136D02*
X005193Y008136D01*
X005193Y008307D01*
X005136Y008363D01*
X005753Y008562D02*
X005753Y008675D01*
X005809Y008732D01*
X006036Y008732D01*
X005809Y008505D01*
X005753Y008562D01*
X005809Y008505D02*
X006036Y008505D01*
X006093Y008562D01*
X006093Y008675D01*
X006036Y008732D01*
X005696Y008873D02*
X005696Y009100D01*
X005753Y009241D02*
X005980Y009468D01*
X006036Y009468D01*
X006093Y009412D01*
X006093Y009298D01*
X006036Y009241D01*
X005753Y009241D02*
X005753Y009468D01*
X006753Y009412D02*
X006753Y009298D01*
X006809Y009241D01*
X007036Y009468D01*
X006809Y009468D01*
X006753Y009412D01*
X006809Y009241D02*
X007036Y009241D01*
X007093Y009298D01*
X007093Y009412D01*
X007036Y009468D01*
X006696Y009100D02*
X006696Y008873D01*
X006809Y008732D02*
X006753Y008675D01*
X006753Y008562D01*
X006809Y008505D01*
X007036Y008732D01*
X006809Y008732D01*
X007036Y008732D02*
X007093Y008675D01*
X007093Y008562D01*
X007036Y008505D01*
X006809Y008505D01*
X006923Y008363D02*
X006866Y008307D01*
X006866Y008136D01*
X006753Y008136D02*
X007093Y008136D01*
X007093Y008307D01*
X007036Y008363D01*
X006923Y008363D01*
X006093Y008307D02*
X006093Y008136D01*
X005753Y008136D01*
X005866Y008136D02*
X005866Y008307D01*
X005923Y008363D01*
X006036Y008363D01*
X006093Y008307D01*
X007696Y008873D02*
X007696Y009100D01*
X007923Y009241D02*
X007923Y009468D01*
X007753Y009412D02*
X008093Y009412D01*
X007923Y009241D01*
X008696Y009100D02*
X008696Y008873D01*
X008753Y008732D02*
X008753Y008505D01*
X008980Y008732D01*
X009036Y008732D01*
X009093Y008675D01*
X009093Y008562D01*
X009036Y008505D01*
X009036Y008363D02*
X008923Y008363D01*
X008866Y008307D01*
X008866Y008136D01*
X008753Y008136D02*
X009093Y008136D01*
X009093Y008307D01*
X009036Y008363D01*
X009753Y008505D02*
X009980Y008732D01*
X010036Y008732D01*
X010093Y008675D01*
X010093Y008562D01*
X010036Y008505D01*
X010036Y008363D02*
X009923Y008363D01*
X009866Y008307D01*
X009866Y008136D01*
X009753Y008136D02*
X010093Y008136D01*
X010093Y008307D01*
X010036Y008363D01*
X009753Y008505D02*
X009753Y008732D01*
X009696Y008873D02*
X009696Y009100D01*
X009809Y009241D02*
X010036Y009468D01*
X009809Y009468D01*
X009753Y009412D01*
X009753Y009298D01*
X009809Y009241D01*
X010036Y009241D01*
X010093Y009298D01*
X010093Y009412D01*
X010036Y009468D01*
X010753Y009412D02*
X010753Y009298D01*
X010809Y009241D01*
X010923Y009241D01*
X010923Y009412D01*
X010866Y009468D01*
X010809Y009468D01*
X010753Y009412D01*
X010923Y009241D02*
X011036Y009355D01*
X011093Y009468D01*
X010696Y009100D02*
X010696Y008873D01*
X010753Y008732D02*
X010753Y008505D01*
X010753Y008618D02*
X011093Y008618D01*
X010980Y008505D01*
X011036Y008363D02*
X010923Y008363D01*
X010866Y008307D01*
X010866Y008136D01*
X010753Y008136D02*
X011093Y008136D01*
X011093Y008307D01*
X011036Y008363D01*
X011753Y008505D02*
X011753Y008732D01*
X011753Y008618D02*
X012093Y008618D01*
X011980Y008505D01*
X012036Y008363D02*
X011923Y008363D01*
X011866Y008307D01*
X011866Y008136D01*
X011753Y008136D02*
X012093Y008136D01*
X012093Y008307D01*
X012036Y008363D01*
X012753Y008505D02*
X012753Y008732D01*
X012753Y008618D02*
X013093Y008618D01*
X012980Y008505D01*
X013036Y008363D02*
X012923Y008363D01*
X012866Y008307D01*
X012866Y008136D01*
X012753Y008136D02*
X013093Y008136D01*
X013093Y008307D01*
X013036Y008363D01*
X013753Y008893D02*
X013809Y008836D01*
X013753Y008893D02*
X013753Y009007D01*
X013809Y009063D01*
X013923Y009063D01*
X013980Y009007D01*
X013980Y008950D01*
X013923Y008836D01*
X014093Y008836D01*
X014093Y009063D01*
X014093Y009205D02*
X013866Y009205D01*
X013753Y009318D01*
X013866Y009432D01*
X014093Y009432D01*
X014753Y009343D02*
X014753Y009173D01*
X015093Y009173D01*
X015093Y009343D01*
X015036Y009400D01*
X014809Y009400D01*
X014753Y009343D01*
X014753Y009032D02*
X015093Y009032D01*
X015093Y008805D02*
X014753Y008805D01*
X014809Y008663D02*
X014923Y008663D01*
X014923Y008550D01*
X015036Y008663D02*
X015093Y008607D01*
X015093Y008493D01*
X015036Y008436D01*
X014809Y008436D01*
X014753Y008493D01*
X014753Y008607D01*
X014809Y008663D01*
X015093Y008805D02*
X014753Y009032D01*
X015463Y009236D02*
X015463Y009407D01*
X015520Y009463D01*
X015690Y009463D01*
X015690Y009236D01*
X015827Y009463D02*
X015883Y009463D01*
X015997Y009350D01*
X015997Y009463D02*
X015997Y009236D01*
X016138Y009350D02*
X016365Y009350D01*
X016365Y009407D02*
X016308Y009463D01*
X016195Y009463D01*
X016138Y009407D01*
X016138Y009350D01*
X016195Y009236D02*
X016308Y009236D01*
X016365Y009293D01*
X016365Y009407D01*
X016497Y009463D02*
X016611Y009463D01*
X016554Y009520D02*
X016554Y009293D01*
X016497Y009236D01*
X016743Y009236D02*
X016799Y009293D01*
X016799Y009520D01*
X016743Y009463D02*
X016856Y009463D01*
X016998Y009407D02*
X016998Y009236D01*
X017168Y009236D01*
X017224Y009293D01*
X017168Y009350D01*
X016998Y009350D01*
X016998Y009407D02*
X017054Y009463D01*
X017168Y009463D01*
X017366Y009407D02*
X017423Y009350D01*
X017593Y009350D01*
X017593Y009236D02*
X017593Y009577D01*
X017423Y009577D01*
X017366Y009520D01*
X017366Y009407D01*
X017479Y008977D02*
X017366Y008863D01*
X017366Y008636D01*
X017224Y008693D02*
X017168Y008636D01*
X016998Y008636D01*
X016998Y008580D02*
X016998Y008863D01*
X017168Y008863D01*
X017224Y008807D01*
X017224Y008693D01*
X017366Y008807D02*
X017593Y008807D01*
X017593Y008863D02*
X017479Y008977D01*
X017593Y008863D02*
X017593Y008636D01*
X017111Y008523D02*
X017054Y008523D01*
X016998Y008580D01*
X016856Y008693D02*
X016856Y008807D01*
X016799Y008863D01*
X016686Y008863D01*
X016629Y008807D01*
X016629Y008750D01*
X016856Y008750D01*
X016856Y008693D02*
X016799Y008636D01*
X016686Y008636D01*
X016488Y008636D02*
X016488Y008863D01*
X016318Y008863D01*
X016261Y008807D01*
X016261Y008636D01*
X016063Y008693D02*
X016006Y008636D01*
X016063Y008693D02*
X016063Y008920D01*
X016119Y008863D02*
X016006Y008863D01*
X015874Y008807D02*
X015817Y008750D01*
X015704Y008750D01*
X015647Y008693D01*
X015704Y008636D01*
X015874Y008636D01*
X015874Y008807D02*
X015817Y008863D01*
X015647Y008863D01*
X015672Y008077D02*
X015672Y007850D01*
X015558Y007736D01*
X015445Y007850D01*
X015445Y008077D01*
X015813Y008020D02*
X015813Y007963D01*
X015870Y007907D01*
X015813Y007850D01*
X015813Y007793D01*
X015870Y007736D01*
X015983Y007736D01*
X016040Y007793D01*
X016168Y007793D02*
X016168Y007736D01*
X016224Y007736D01*
X016224Y007793D01*
X016168Y007793D01*
X016366Y007793D02*
X016423Y007736D01*
X016536Y007736D01*
X016593Y007793D01*
X016479Y007907D02*
X016423Y007907D01*
X016366Y007850D01*
X016366Y007793D01*
X016423Y007907D02*
X016366Y007963D01*
X016366Y008020D01*
X016423Y008077D01*
X016536Y008077D01*
X016593Y008020D01*
X016040Y008020D02*
X015983Y008077D01*
X015870Y008077D01*
X015813Y008020D01*
X015870Y007907D02*
X015927Y007907D01*
X015998Y006977D02*
X015998Y006636D01*
X016224Y006977D01*
X016224Y006636D01*
X016366Y006693D02*
X016366Y006807D01*
X016479Y006807D01*
X016366Y006920D02*
X016423Y006977D01*
X016536Y006977D01*
X016593Y006920D01*
X016593Y006693D01*
X016536Y006636D01*
X016423Y006636D01*
X016366Y006693D01*
X015856Y006636D02*
X015856Y006977D01*
X015686Y006977D01*
X015629Y006920D01*
X015629Y006693D01*
X015686Y006636D01*
X015856Y006636D01*
X015518Y006096D02*
X016623Y006096D01*
X016593Y005977D02*
X016423Y005977D01*
X016366Y005920D01*
X016366Y005807D01*
X016423Y005750D01*
X016593Y005750D01*
X016593Y005636D02*
X016593Y005977D01*
X016479Y005750D02*
X016366Y005636D01*
X016224Y005693D02*
X016168Y005636D01*
X016054Y005636D01*
X015998Y005693D01*
X015998Y005750D01*
X016054Y005807D01*
X016168Y005807D01*
X016224Y005863D01*
X016224Y005920D01*
X016168Y005977D01*
X016054Y005977D01*
X015998Y005920D01*
X015856Y005977D02*
X015629Y005977D01*
X015743Y005977D02*
X015743Y005636D01*
X015856Y005077D02*
X015856Y004736D01*
X015629Y004736D01*
X015998Y004793D02*
X016054Y004736D01*
X016168Y004736D01*
X016224Y004793D01*
X016224Y005020D01*
X016168Y005077D01*
X016054Y005077D01*
X015998Y005020D01*
X016366Y005020D02*
X016423Y005077D01*
X016536Y005077D01*
X016593Y005020D01*
X016593Y004963D01*
X016536Y004907D01*
X016423Y004907D01*
X016366Y004850D01*
X016366Y004793D01*
X016423Y004736D01*
X016536Y004736D01*
X016593Y004793D01*
X016536Y004077D02*
X016423Y004077D01*
X016366Y004020D01*
X016423Y003907D02*
X016366Y003850D01*
X016366Y003793D01*
X016423Y003736D01*
X016536Y003736D01*
X016593Y003793D01*
X016536Y003907D02*
X016423Y003907D01*
X016536Y003907D02*
X016593Y003963D01*
X016593Y004020D01*
X016536Y004077D01*
X016224Y004077D02*
X016054Y004077D01*
X015998Y004020D01*
X015998Y003793D01*
X016054Y003736D01*
X016224Y003736D01*
X016224Y004077D01*
X015856Y003963D02*
X015743Y004077D01*
X015629Y003963D01*
X015629Y003736D01*
X015856Y003736D02*
X015856Y003963D01*
X015856Y003907D02*
X015629Y003907D01*
X015698Y001077D02*
X015698Y000736D01*
X015924Y001077D01*
X015924Y000736D01*
X016066Y000793D02*
X016066Y000907D01*
X016179Y000907D01*
X016066Y001020D02*
X016123Y001077D01*
X016236Y001077D01*
X016293Y001020D01*
X016293Y000793D01*
X016236Y000736D01*
X016123Y000736D01*
X016066Y000793D01*
X015556Y000736D02*
X015386Y000736D01*
X015329Y000793D01*
X015329Y001020D01*
X015386Y001077D01*
X015556Y001077D01*
X015556Y000736D01*
X008093Y008136D02*
X007753Y008136D01*
X007866Y008136D02*
X007866Y008307D01*
X007923Y008363D01*
X008036Y008363D01*
X008093Y008307D01*
X008093Y008136D01*
X008036Y008505D02*
X008093Y008562D01*
X008093Y008675D01*
X008036Y008732D01*
X007980Y008732D01*
X007753Y008505D01*
X007753Y008732D01*
X008753Y009241D02*
X008980Y009468D01*
X009036Y009468D01*
X009093Y009412D01*
X009093Y009298D01*
X009036Y009241D01*
X008753Y009241D02*
X008753Y009468D01*
X011696Y009100D02*
X011696Y008873D01*
X011753Y009241D02*
X011809Y009241D01*
X012036Y009468D01*
X012093Y009468D01*
X012093Y009241D01*
X012696Y009100D02*
X012696Y008873D01*
X012809Y009241D02*
X012753Y009298D01*
X012753Y009412D01*
X012809Y009468D01*
X012923Y009468D01*
X012980Y009412D01*
X012980Y009355D01*
X012923Y009241D01*
X013093Y009241D01*
X013093Y009468D01*
X001893Y009400D02*
X001553Y009400D01*
X001553Y009627D01*
X001609Y009768D02*
X001553Y009825D01*
X001553Y009938D01*
X001609Y009995D01*
X001666Y009995D01*
X001723Y009938D01*
X001723Y009882D01*
X001723Y009938D02*
X001780Y009995D01*
X001836Y009995D01*
X001893Y009938D01*
X001893Y009825D01*
X001836Y009768D01*
X001893Y009627D02*
X001893Y009400D01*
X001836Y009258D02*
X001723Y009258D01*
X001666Y009202D01*
X001666Y009032D01*
X001666Y009145D02*
X001553Y009258D01*
X001723Y009400D02*
X001723Y009513D01*
X001836Y009258D02*
X001893Y009202D01*
X001893Y009032D01*
X001553Y009032D01*
X001280Y009054D02*
X001280Y009224D01*
X001223Y009281D01*
X001053Y009281D01*
X001109Y009479D02*
X001053Y009536D01*
X001109Y009479D02*
X001336Y009479D01*
X001280Y009423D02*
X001280Y009536D01*
X001223Y009668D02*
X001280Y009725D01*
X001280Y009895D01*
X001166Y009838D02*
X001109Y009895D01*
X001053Y009838D01*
X001053Y009668D01*
X001166Y009725D02*
X001166Y009838D01*
X001166Y009725D02*
X001223Y009668D01*
X001280Y009054D02*
X001053Y009054D01*
X001166Y008913D02*
X001166Y008686D01*
X001109Y008686D02*
X001223Y008686D01*
X001280Y008743D01*
X001280Y008856D01*
X001223Y008913D01*
X001166Y008913D01*
X001053Y008856D02*
X001053Y008743D01*
X001109Y008686D01*
X000996Y008545D02*
X000939Y008488D01*
X000939Y008431D01*
D11*
X000423Y010406D02*
X000423Y000406D01*
X000623Y000206D01*
X017923Y000206D01*
X018123Y000406D01*
X018123Y010406D01*
X017923Y010606D01*
X000623Y010606D01*
X000423Y010406D01*
D12*
X017223Y001216D03*
X017348Y001341D03*
X017473Y001466D03*
X017643Y001896D03*
X017348Y001971D03*
X017518Y002401D03*
X017488Y002566D03*
X017763Y002646D03*
X017488Y002946D03*
D13*
X017488Y002941D03*
X017763Y002641D03*
X017488Y002571D03*
X017518Y002396D03*
X017348Y001966D03*
X017643Y001901D03*
X017473Y001471D03*
X017348Y001346D03*
X017223Y001221D03*
X015788Y002156D03*
X016168Y002361D03*
X016733Y002511D03*
D14*
X016963Y002411D03*
X016963Y002406D03*
X016613Y002361D03*
X016048Y002361D03*
X015793Y002146D03*
X015798Y002136D03*
X014518Y002156D03*
X014518Y002161D03*
X014518Y002166D03*
X014518Y002171D03*
X014518Y002176D03*
X014518Y002356D03*
X014518Y002361D03*
X014518Y002366D03*
X014518Y002371D03*
X017223Y001226D03*
X017348Y001351D03*
X017473Y001476D03*
X017663Y001581D03*
X017663Y001731D03*
X017643Y001906D03*
X017348Y001961D03*
X017323Y002131D03*
X017518Y002391D03*
X017488Y002576D03*
X017763Y002636D03*
X017683Y002831D03*
X017488Y002936D03*
D15*
X017488Y002931D03*
X017763Y002631D03*
X017488Y002581D03*
X017518Y002386D03*
X016968Y002386D03*
X016968Y002391D03*
X016368Y002351D03*
X015798Y002126D03*
X015508Y002126D03*
X015508Y002121D03*
X015508Y002116D03*
X015508Y002111D03*
X015508Y002131D03*
X015508Y002136D03*
X015508Y002141D03*
X015508Y002146D03*
X015293Y002391D03*
X015293Y002396D03*
X015293Y002401D03*
X015293Y002406D03*
X015293Y002411D03*
X015293Y002416D03*
X014523Y002416D03*
X014523Y002411D03*
X014523Y002406D03*
X014523Y002421D03*
X014523Y002126D03*
X014523Y002121D03*
X014523Y002116D03*
X014523Y002111D03*
X014523Y002106D03*
X016943Y002051D03*
X017348Y001956D03*
X017518Y002036D03*
X017643Y001911D03*
X017473Y001831D03*
X017473Y001481D03*
X017348Y001356D03*
X017223Y001231D03*
D16*
X017223Y001236D03*
X017348Y001361D03*
X017473Y001486D03*
X017663Y001586D03*
X017663Y001726D03*
X017473Y001826D03*
X017643Y001916D03*
X017518Y002041D03*
X017348Y001951D03*
X016973Y002366D03*
X016973Y002371D03*
X016748Y002501D03*
X016183Y002351D03*
X015828Y002056D03*
X015823Y002061D03*
X015653Y001971D03*
X015043Y002051D03*
X015038Y002361D03*
X015298Y002426D03*
X014528Y002096D03*
X017763Y002626D03*
D17*
X017763Y002621D03*
X016978Y002306D03*
X016978Y002301D03*
X016978Y002296D03*
X016978Y002291D03*
X016978Y002286D03*
X016978Y002281D03*
X016978Y002276D03*
X016978Y002271D03*
X016978Y002266D03*
X016978Y002261D03*
X016978Y002256D03*
X016978Y002251D03*
X016978Y002246D03*
X016978Y002241D03*
X016978Y002236D03*
X016978Y002231D03*
X016978Y002226D03*
X016978Y002221D03*
X016978Y002216D03*
X016978Y002211D03*
X016978Y002206D03*
X016978Y002201D03*
X016978Y002196D03*
X016978Y002191D03*
X016978Y002186D03*
X016978Y002181D03*
X016978Y002176D03*
X016978Y002171D03*
X016978Y002166D03*
X016978Y002161D03*
X016978Y002156D03*
X016978Y002151D03*
X016978Y002146D03*
X016978Y002141D03*
X016978Y002136D03*
X016978Y002131D03*
X016978Y002126D03*
X016753Y002126D03*
X016753Y002121D03*
X016753Y002116D03*
X016753Y002111D03*
X016753Y002106D03*
X016753Y002101D03*
X016753Y002096D03*
X016753Y002091D03*
X016753Y002131D03*
X016753Y002136D03*
X016753Y002141D03*
X016753Y002146D03*
X016753Y002151D03*
X016753Y002156D03*
X016753Y002161D03*
X016753Y002166D03*
X016753Y002171D03*
X016753Y002176D03*
X016753Y002181D03*
X016753Y002186D03*
X016753Y002191D03*
X016753Y002196D03*
X016753Y002201D03*
X016753Y002206D03*
X016753Y002211D03*
X016753Y002216D03*
X016753Y002221D03*
X016753Y002226D03*
X016753Y002231D03*
X016753Y002236D03*
X016753Y002241D03*
X016753Y002246D03*
X016753Y002251D03*
X016753Y002256D03*
X016753Y002261D03*
X016753Y002266D03*
X016753Y002271D03*
X016753Y002276D03*
X016753Y002281D03*
X016753Y002286D03*
X016753Y002291D03*
X016753Y002296D03*
X016753Y002331D03*
X016753Y002336D03*
X016753Y002341D03*
X016753Y002346D03*
X016753Y002351D03*
X016753Y002356D03*
X016753Y002361D03*
X016753Y002366D03*
X016753Y002371D03*
X016753Y002376D03*
X016753Y002381D03*
X016753Y002386D03*
X016753Y002391D03*
X016753Y002396D03*
X016753Y002401D03*
X016753Y002406D03*
X016753Y002411D03*
X016753Y002416D03*
X016753Y002421D03*
X016753Y002426D03*
X016753Y002431D03*
X016753Y002436D03*
X016753Y002441D03*
X016753Y002446D03*
X016753Y002451D03*
X016753Y002456D03*
X016613Y002356D03*
X016568Y002266D03*
X016568Y002261D03*
X016568Y002256D03*
X016568Y002251D03*
X016568Y002246D03*
X016568Y002241D03*
X016568Y002236D03*
X016568Y002231D03*
X016568Y002226D03*
X016568Y002221D03*
X016568Y002216D03*
X016568Y002211D03*
X016568Y002206D03*
X016568Y002201D03*
X016568Y002196D03*
X016568Y002191D03*
X016568Y002186D03*
X016568Y002181D03*
X016568Y002176D03*
X016568Y002171D03*
X016568Y002166D03*
X016568Y002161D03*
X016568Y002156D03*
X016568Y002151D03*
X016568Y002146D03*
X016568Y002141D03*
X016568Y002136D03*
X016568Y002131D03*
X016568Y002126D03*
X016568Y002121D03*
X016568Y002116D03*
X016568Y002111D03*
X016568Y002106D03*
X016568Y002101D03*
X016568Y002096D03*
X016568Y002091D03*
X016378Y002091D03*
X016378Y002096D03*
X016378Y002101D03*
X016378Y002106D03*
X016378Y002111D03*
X016378Y002116D03*
X016378Y002121D03*
X016378Y002126D03*
X016378Y002131D03*
X016378Y002136D03*
X016378Y002141D03*
X016378Y002146D03*
X016378Y002151D03*
X016378Y002156D03*
X016378Y002161D03*
X016378Y002166D03*
X016378Y002171D03*
X016378Y002176D03*
X016378Y002181D03*
X016378Y002186D03*
X016378Y002191D03*
X016378Y002196D03*
X016378Y002201D03*
X016378Y002206D03*
X016378Y002211D03*
X016378Y002216D03*
X016378Y002221D03*
X016378Y002226D03*
X016378Y002231D03*
X016378Y002236D03*
X016378Y002241D03*
X016378Y002246D03*
X016378Y002251D03*
X016378Y002256D03*
X016378Y002261D03*
X016378Y002266D03*
X016378Y002271D03*
X016378Y002276D03*
X016378Y002281D03*
X016378Y002286D03*
X016378Y002291D03*
X016378Y002296D03*
X016378Y002301D03*
X016378Y002306D03*
X016188Y002296D03*
X016188Y002291D03*
X016188Y002286D03*
X016188Y002281D03*
X016188Y002276D03*
X016188Y002271D03*
X016188Y002266D03*
X016188Y002261D03*
X016188Y002256D03*
X016188Y002251D03*
X016188Y002246D03*
X016188Y002241D03*
X016188Y002236D03*
X016188Y002231D03*
X016188Y002226D03*
X016188Y002221D03*
X016188Y002216D03*
X016188Y002211D03*
X016188Y002206D03*
X016188Y002201D03*
X016188Y002196D03*
X016188Y002191D03*
X016188Y002186D03*
X016188Y002181D03*
X016188Y002176D03*
X016188Y002171D03*
X016188Y002166D03*
X016188Y002161D03*
X016188Y002156D03*
X016188Y002151D03*
X016188Y002146D03*
X016188Y002141D03*
X016188Y002136D03*
X016188Y002131D03*
X016188Y002126D03*
X016188Y002121D03*
X016188Y002116D03*
X016188Y002111D03*
X016188Y002106D03*
X016188Y002101D03*
X016188Y002096D03*
X016188Y002091D03*
X016003Y002091D03*
X016003Y002096D03*
X016003Y002101D03*
X016003Y002106D03*
X016003Y002111D03*
X016003Y002116D03*
X016003Y002121D03*
X016003Y002126D03*
X016003Y002131D03*
X016003Y002136D03*
X016003Y002141D03*
X016003Y002146D03*
X016003Y002151D03*
X016003Y002156D03*
X016003Y002161D03*
X016003Y002166D03*
X016003Y002171D03*
X016003Y002176D03*
X016003Y002181D03*
X016003Y002186D03*
X016003Y002191D03*
X016003Y002196D03*
X016003Y002201D03*
X016003Y002206D03*
X016003Y002211D03*
X016003Y002216D03*
X016003Y002221D03*
X016003Y002226D03*
X016003Y002231D03*
X016003Y002236D03*
X016003Y002241D03*
X016003Y002246D03*
X016003Y002251D03*
X016003Y002256D03*
X016003Y002261D03*
X016003Y002266D03*
X016048Y002356D03*
X015833Y002286D03*
X015833Y002281D03*
X015828Y002296D03*
X015828Y002301D03*
X015823Y002311D03*
X015818Y002316D03*
X015673Y002306D03*
X015668Y002296D03*
X015668Y002291D03*
X015663Y002281D03*
X015663Y002276D03*
X015663Y002271D03*
X015663Y002266D03*
X015663Y002261D03*
X015663Y002256D03*
X015663Y002251D03*
X015663Y002246D03*
X015663Y002241D03*
X015668Y002236D03*
X015668Y002231D03*
X015668Y002226D03*
X015673Y002216D03*
X015678Y002206D03*
X015683Y002201D03*
X015688Y002196D03*
X015793Y002116D03*
X015843Y002036D03*
X015843Y002031D03*
X015848Y002021D03*
X015848Y002016D03*
X015848Y002011D03*
X015848Y002006D03*
X015848Y002001D03*
X015633Y002011D03*
X015633Y002016D03*
X015633Y002021D03*
X015418Y002051D03*
X015308Y002121D03*
X015128Y002301D03*
X015473Y002411D03*
X015478Y002406D03*
X015478Y002401D03*
X015483Y002391D03*
X015483Y002386D03*
X015483Y002381D03*
X014618Y002476D03*
X014618Y002051D03*
X017223Y001241D03*
X017518Y002046D03*
D18*
X017518Y002051D03*
X017323Y002141D03*
X016973Y002111D03*
X016973Y002106D03*
X016753Y002086D03*
X016568Y002086D03*
X016378Y002086D03*
X016188Y002086D03*
X016003Y002086D03*
X015838Y001976D03*
X015638Y002036D03*
X015813Y002196D03*
X015833Y002236D03*
X015803Y002331D03*
X016008Y002291D03*
X016008Y002286D03*
X016013Y002296D03*
X016183Y002301D03*
X016383Y002341D03*
X016573Y002286D03*
X016578Y002296D03*
X016748Y002301D03*
X017368Y002476D03*
X017638Y002491D03*
X017763Y002616D03*
X017683Y002821D03*
X017663Y001721D03*
X017663Y001591D03*
X017223Y001246D03*
X015483Y002351D03*
X015483Y002356D03*
X015453Y002431D03*
X015308Y002436D03*
X015143Y002271D03*
X015148Y002256D03*
X015148Y002251D03*
X015148Y002246D03*
X015153Y002236D03*
X015153Y002231D03*
X015153Y002226D03*
X015153Y002221D03*
X015153Y002216D03*
X015153Y002211D03*
X015153Y002206D03*
X015153Y002201D03*
X015153Y002196D03*
X015153Y002191D03*
X015153Y002186D03*
X015153Y002181D03*
X015153Y002176D03*
X015148Y002166D03*
X015148Y002161D03*
X015148Y002156D03*
X015143Y002141D03*
X015138Y002126D03*
X015113Y002091D03*
X014938Y002141D03*
X014933Y002156D03*
X014933Y002161D03*
X014933Y002166D03*
X014928Y002176D03*
X014928Y002181D03*
X014928Y002186D03*
X014928Y002191D03*
X014928Y002196D03*
X014928Y002201D03*
X014928Y002206D03*
X014928Y002211D03*
X014928Y002216D03*
X014928Y002221D03*
X014928Y002226D03*
X014928Y002231D03*
X014928Y002236D03*
X014933Y002246D03*
X014933Y002251D03*
X014933Y002256D03*
X014938Y002271D03*
X014788Y002301D03*
X014783Y002326D03*
X014778Y002341D03*
X014773Y002356D03*
X014768Y002366D03*
X014763Y002376D03*
X014788Y002226D03*
X014783Y002201D03*
X014778Y002186D03*
X014773Y002171D03*
X014768Y002161D03*
X015298Y002161D03*
X015298Y002156D03*
X015298Y002151D03*
X015318Y002106D03*
X015323Y002101D03*
D19*
X015303Y002181D03*
X015473Y002331D03*
X015478Y002336D03*
X015478Y002341D03*
X015643Y002041D03*
X016018Y002301D03*
X016198Y002341D03*
X016583Y002301D03*
X016763Y002491D03*
X017368Y002481D03*
X017513Y002361D03*
X017638Y002486D03*
X017763Y002611D03*
X017368Y003031D03*
X016938Y002056D03*
X017223Y001251D03*
X014748Y002131D03*
X014738Y002121D03*
X014733Y002116D03*
X014728Y002111D03*
X014728Y002416D03*
X014723Y002421D03*
D20*
X014708Y002431D03*
X015038Y002356D03*
X015308Y002191D03*
X015313Y002196D03*
X015343Y002091D03*
X015043Y002056D03*
X014713Y002101D03*
X015468Y002326D03*
X015748Y002356D03*
X015753Y002166D03*
X015648Y002046D03*
X016023Y002306D03*
X016173Y002306D03*
X016203Y002336D03*
X016588Y002306D03*
X016963Y002096D03*
X017323Y002146D03*
X017513Y002066D03*
X017548Y002156D03*
X017548Y002161D03*
X017548Y002166D03*
X017553Y002176D03*
X017553Y002181D03*
X017553Y002186D03*
X017553Y002191D03*
X017558Y002201D03*
X017558Y002216D03*
X017558Y002221D03*
X017553Y002226D03*
X017553Y002231D03*
X017553Y002236D03*
X017553Y002241D03*
X017548Y002251D03*
X017548Y002256D03*
X017548Y002261D03*
X017548Y002266D03*
X017513Y002356D03*
X017638Y002481D03*
X017718Y002306D03*
X017718Y002301D03*
X017723Y002281D03*
X017723Y002276D03*
X017728Y002251D03*
X017728Y002246D03*
X017728Y002241D03*
X017728Y002236D03*
X017728Y002231D03*
X017728Y002226D03*
X017728Y002221D03*
X017728Y002216D03*
X017728Y002211D03*
X017728Y002206D03*
X017728Y002201D03*
X017728Y002196D03*
X017728Y002191D03*
X017728Y002186D03*
X017728Y002181D03*
X017728Y002176D03*
X017728Y002171D03*
X017728Y002166D03*
X017723Y002141D03*
X017723Y002136D03*
X017718Y002116D03*
X017718Y002111D03*
X017888Y002076D03*
X017893Y002101D03*
X017893Y002106D03*
X017898Y002116D03*
X017898Y002121D03*
X017898Y002126D03*
X017903Y002156D03*
X017903Y002161D03*
X017903Y002166D03*
X017903Y002171D03*
X017903Y002176D03*
X017903Y002181D03*
X017903Y002186D03*
X017903Y002191D03*
X017903Y002196D03*
X017903Y002201D03*
X017903Y002206D03*
X017903Y002211D03*
X017903Y002216D03*
X017903Y002221D03*
X017903Y002226D03*
X017903Y002231D03*
X017903Y002236D03*
X017903Y002241D03*
X017903Y002246D03*
X017903Y002251D03*
X017903Y002256D03*
X017903Y002261D03*
X017898Y002276D03*
X017898Y002281D03*
X017898Y002286D03*
X017898Y002291D03*
X017898Y002296D03*
X017898Y002301D03*
X017893Y002311D03*
X017893Y002316D03*
X017888Y002341D03*
X017763Y002606D03*
X017683Y002696D03*
X017493Y002611D03*
X017458Y002701D03*
X017458Y002706D03*
X017458Y002711D03*
X017458Y002716D03*
X017458Y002721D03*
X017453Y002731D03*
X017453Y002736D03*
X017453Y002741D03*
X017453Y002746D03*
X017453Y002751D03*
X017453Y002756D03*
X017453Y002761D03*
X017453Y002766D03*
X017453Y002771D03*
X017453Y002776D03*
X017453Y002781D03*
X017458Y002791D03*
X017458Y002796D03*
X017458Y002801D03*
X017458Y002806D03*
X017458Y002811D03*
X017493Y002901D03*
X017368Y003026D03*
X017293Y002861D03*
X017288Y002851D03*
X017288Y002846D03*
X017288Y002841D03*
X017283Y002826D03*
X017283Y002821D03*
X017283Y002816D03*
X017283Y002811D03*
X017283Y002806D03*
X017278Y002796D03*
X017278Y002791D03*
X017278Y002786D03*
X017278Y002781D03*
X017278Y002776D03*
X017278Y002771D03*
X017278Y002766D03*
X017278Y002761D03*
X017278Y002756D03*
X017278Y002751D03*
X017278Y002746D03*
X017278Y002741D03*
X017278Y002736D03*
X017278Y002731D03*
X017278Y002726D03*
X017278Y002721D03*
X017278Y002716D03*
X017283Y002706D03*
X017283Y002701D03*
X017283Y002696D03*
X017283Y002691D03*
X017283Y002686D03*
X017288Y002676D03*
X017288Y002671D03*
X017288Y002666D03*
X017288Y002661D03*
X017293Y002651D03*
X017113Y002656D03*
X017113Y002661D03*
X017113Y002666D03*
X017113Y002671D03*
X017108Y002701D03*
X017108Y002706D03*
X017108Y002711D03*
X017108Y002716D03*
X017108Y002721D03*
X017108Y002726D03*
X017108Y002731D03*
X017108Y002736D03*
X017108Y002741D03*
X017108Y002746D03*
X017108Y002751D03*
X017108Y002756D03*
X017108Y002761D03*
X017108Y002766D03*
X017108Y002771D03*
X017108Y002776D03*
X017108Y002781D03*
X017108Y002786D03*
X017108Y002791D03*
X017108Y002796D03*
X017108Y002801D03*
X017108Y002806D03*
X017113Y002821D03*
X017113Y002826D03*
X017113Y002831D03*
X017113Y002836D03*
X017113Y002841D03*
X017113Y002846D03*
X017113Y002851D03*
X017683Y002816D03*
X017368Y002486D03*
X017273Y001756D03*
X017268Y001736D03*
X017268Y001731D03*
X017268Y001726D03*
X017263Y001706D03*
X017263Y001701D03*
X017263Y001696D03*
X017263Y001616D03*
X017263Y001611D03*
X017268Y001596D03*
X017268Y001591D03*
X017268Y001586D03*
X017268Y001581D03*
X017268Y001576D03*
X017273Y001561D03*
X017273Y001556D03*
X017443Y001596D03*
X017443Y001601D03*
X017438Y001616D03*
X017438Y001621D03*
X017438Y001626D03*
X017433Y001636D03*
X017433Y001641D03*
X017433Y001646D03*
X017433Y001651D03*
X017433Y001656D03*
X017433Y001661D03*
X017433Y001666D03*
X017433Y001671D03*
X017433Y001676D03*
X017438Y001691D03*
X017438Y001696D03*
X017443Y001711D03*
X017443Y001716D03*
X017663Y001716D03*
X017663Y001596D03*
X017223Y001256D03*
X017093Y001556D03*
X017093Y001751D03*
X017093Y001756D03*
D21*
X017103Y001801D03*
X017103Y001806D03*
X017108Y001816D03*
X017113Y001831D03*
X017113Y001836D03*
X017118Y001851D03*
X017123Y001861D03*
X017128Y001871D03*
X017128Y001876D03*
X017128Y001881D03*
X017133Y001886D03*
X017138Y001896D03*
X017293Y001816D03*
X017293Y001811D03*
X017288Y001801D03*
X017283Y001786D03*
X017298Y001821D03*
X017298Y001826D03*
X017303Y001831D03*
X017303Y001836D03*
X017308Y001841D03*
X017308Y001846D03*
X017313Y001851D03*
X017353Y001921D03*
X017478Y001796D03*
X017468Y001771D03*
X017463Y001761D03*
X017458Y001751D03*
X017453Y001741D03*
X017663Y001711D03*
X017663Y001601D03*
X017478Y001516D03*
X017468Y001541D03*
X017458Y001561D03*
X017453Y001571D03*
X017288Y001516D03*
X017288Y001511D03*
X017293Y001501D03*
X017293Y001496D03*
X017298Y001491D03*
X017298Y001486D03*
X017303Y001481D03*
X017308Y001471D03*
X017313Y001461D03*
X017353Y001391D03*
X017223Y001261D03*
X017128Y001436D03*
X017118Y001461D03*
X017113Y001471D03*
X017113Y001476D03*
X017113Y001481D03*
X017108Y001491D03*
X017108Y001496D03*
X017108Y001501D03*
X017103Y001506D03*
X017103Y001511D03*
X017098Y001526D03*
X017098Y001531D03*
X017088Y001576D03*
X017088Y001581D03*
X017088Y001586D03*
X017088Y001591D03*
X017763Y001821D03*
X017833Y001936D03*
X017848Y001966D03*
X017853Y001971D03*
X017853Y001976D03*
X017858Y001981D03*
X017858Y001986D03*
X017863Y001996D03*
X017863Y002001D03*
X017868Y002006D03*
X017868Y002011D03*
X017873Y002021D03*
X017873Y002026D03*
X017708Y002081D03*
X017703Y002071D03*
X017703Y002066D03*
X017698Y002061D03*
X017698Y002056D03*
X017693Y002046D03*
X017688Y002036D03*
X017683Y002021D03*
X017638Y001946D03*
X017513Y002071D03*
X017533Y002116D03*
X017538Y002126D03*
X017323Y002151D03*
X017538Y002291D03*
X017533Y002301D03*
X017533Y002306D03*
X017528Y002311D03*
X017513Y002346D03*
X017678Y002401D03*
X017688Y002381D03*
X017693Y002371D03*
X017698Y002366D03*
X017698Y002361D03*
X017698Y002356D03*
X017703Y002351D03*
X017703Y002346D03*
X017708Y002336D03*
X017713Y002321D03*
X017638Y002476D03*
X017833Y002481D03*
X017848Y002451D03*
X017853Y002446D03*
X017853Y002441D03*
X017858Y002436D03*
X017858Y002431D03*
X017863Y002421D03*
X017863Y002416D03*
X017868Y002411D03*
X017868Y002406D03*
X017873Y002391D03*
X017883Y002361D03*
X017763Y002601D03*
X017683Y002701D03*
X017478Y002656D03*
X017473Y002666D03*
X017468Y002676D03*
X017313Y002596D03*
X017313Y002591D03*
X017318Y002586D03*
X017318Y002581D03*
X017323Y002576D03*
X017328Y002566D03*
X017308Y002606D03*
X017303Y002616D03*
X017368Y002491D03*
X017158Y002516D03*
X017153Y002526D03*
X017153Y002531D03*
X017148Y002536D03*
X017148Y002541D03*
X017148Y002546D03*
X017143Y002551D03*
X017143Y002556D03*
X017138Y002561D03*
X017138Y002566D03*
X017138Y002571D03*
X017133Y002576D03*
X017133Y002581D03*
X017133Y002586D03*
X017128Y002601D03*
X017118Y002636D03*
X017118Y002641D03*
X017118Y002866D03*
X017118Y002871D03*
X017118Y002876D03*
X017123Y002891D03*
X017128Y002906D03*
X017128Y002911D03*
X017128Y002916D03*
X017133Y002921D03*
X017133Y002926D03*
X017133Y002931D03*
X017138Y002936D03*
X017138Y002941D03*
X017143Y002951D03*
X017143Y002956D03*
X017148Y002971D03*
X017153Y002981D03*
X017313Y002921D03*
X017313Y002916D03*
X017308Y002906D03*
X017308Y002901D03*
X017318Y002926D03*
X017318Y002931D03*
X017323Y002936D03*
X017328Y002946D03*
X017368Y003021D03*
X017483Y002866D03*
X017478Y002856D03*
X017473Y002846D03*
X017468Y002836D03*
X017683Y002811D03*
X016618Y002346D03*
X016398Y002331D03*
X016398Y002326D03*
X016398Y002321D03*
X016398Y002316D03*
X016398Y002311D03*
X016208Y002331D03*
X016053Y002346D03*
X015658Y002051D03*
X015318Y002206D03*
D22*
X015320Y002211D03*
X015455Y002311D03*
X015375Y002471D03*
X014695Y002436D03*
X015760Y001926D03*
X016775Y002461D03*
X016775Y002466D03*
X016775Y002471D03*
X016775Y002476D03*
X016775Y002481D03*
X017155Y002521D03*
X017160Y002511D03*
X017165Y002506D03*
X017165Y002501D03*
X017170Y002496D03*
X017170Y002491D03*
X017175Y002486D03*
X017175Y002481D03*
X017180Y002476D03*
X017245Y002366D03*
X017325Y002261D03*
X017520Y002326D03*
X017525Y002316D03*
X017680Y002396D03*
X017685Y002391D03*
X017685Y002386D03*
X017690Y002376D03*
X017675Y002406D03*
X017670Y002416D03*
X017825Y002496D03*
X017830Y002486D03*
X017835Y002476D03*
X017840Y002471D03*
X017840Y002466D03*
X017845Y002461D03*
X017845Y002456D03*
X017760Y002596D03*
X017495Y002621D03*
X017495Y002626D03*
X017485Y002641D03*
X017480Y002646D03*
X017480Y002651D03*
X017335Y002556D03*
X017335Y002551D03*
X017340Y002546D03*
X017340Y002541D03*
X017345Y002536D03*
X017330Y002561D03*
X017325Y002571D03*
X017370Y002496D03*
X017480Y002861D03*
X017485Y002871D03*
X017495Y002886D03*
X017495Y002891D03*
X017340Y002966D03*
X017340Y002971D03*
X017335Y002961D03*
X017335Y002956D03*
X017330Y002951D03*
X017325Y002941D03*
X017370Y003016D03*
X017175Y003026D03*
X017170Y003016D03*
X017165Y003006D03*
X017160Y002996D03*
X017155Y002991D03*
X017155Y002986D03*
X017150Y002976D03*
X017145Y002966D03*
X017145Y002961D03*
X017245Y003146D03*
X017530Y002111D03*
X017525Y002106D03*
X017525Y002101D03*
X017520Y002091D03*
X017510Y002076D03*
X017670Y002001D03*
X017675Y002011D03*
X017680Y002016D03*
X017685Y002026D03*
X017685Y002031D03*
X017690Y002041D03*
X017695Y002051D03*
X017845Y001961D03*
X017845Y001956D03*
X017840Y001951D03*
X017840Y001946D03*
X017835Y001941D03*
X017830Y001931D03*
X017825Y001926D03*
X017470Y001776D03*
X017465Y001766D03*
X017460Y001756D03*
X017315Y001856D03*
X017320Y001866D03*
X017155Y001926D03*
X017155Y001931D03*
X017150Y001921D03*
X017145Y001916D03*
X017145Y001911D03*
X017140Y001906D03*
X017140Y001901D03*
X017135Y001891D03*
X017125Y001866D03*
X017120Y001856D03*
X017225Y002046D03*
X016930Y002061D03*
X017460Y001556D03*
X017465Y001551D03*
X017465Y001546D03*
X017470Y001536D03*
X017475Y001531D03*
X017475Y001526D03*
X017475Y001521D03*
X017325Y001441D03*
X017320Y001446D03*
X017320Y001451D03*
X017315Y001456D03*
X017310Y001466D03*
X017305Y001476D03*
X017140Y001411D03*
X017140Y001406D03*
X017135Y001416D03*
X017135Y001421D03*
X017130Y001426D03*
X017130Y001431D03*
X017125Y001441D03*
X017125Y001446D03*
X017120Y001451D03*
X017120Y001456D03*
X017115Y001466D03*
X017155Y001381D03*
X017225Y001266D03*
D23*
X017225Y001271D03*
X017185Y001331D03*
X017180Y001341D03*
X017175Y001346D03*
X017170Y001351D03*
X017170Y001356D03*
X017165Y001361D03*
X017335Y001426D03*
X017340Y001421D03*
X017345Y001411D03*
X017350Y001406D03*
X017350Y001401D03*
X017665Y001611D03*
X017660Y001701D03*
X017765Y001831D03*
X017780Y001856D03*
X017785Y001861D03*
X017790Y001871D03*
X017795Y001876D03*
X017800Y001881D03*
X017815Y001906D03*
X017660Y001986D03*
X017655Y001981D03*
X017650Y001976D03*
X017640Y001961D03*
X017640Y001956D03*
X017350Y001911D03*
X017350Y001906D03*
X017345Y001901D03*
X017340Y001891D03*
X017335Y001886D03*
X017330Y001881D03*
X017185Y001976D03*
X017185Y001981D03*
X017190Y001986D03*
X017195Y001991D03*
X017205Y002006D03*
X017225Y002036D03*
X017180Y001971D03*
X017175Y001966D03*
X017170Y001956D03*
X017325Y002161D03*
X017325Y002256D03*
X017245Y002376D03*
X017230Y002401D03*
X017225Y002406D03*
X017215Y002421D03*
X017210Y002426D03*
X017200Y002441D03*
X017195Y002451D03*
X017355Y002521D03*
X017360Y002516D03*
X017365Y002511D03*
X017365Y002506D03*
X017640Y002461D03*
X017650Y002441D03*
X017655Y002436D03*
X017660Y002431D03*
X017790Y002546D03*
X017795Y002541D03*
X017800Y002536D03*
X017810Y002521D03*
X017785Y002556D03*
X017780Y002561D03*
X017765Y002586D03*
X017680Y002801D03*
X017365Y003001D03*
X017365Y003006D03*
X017360Y002996D03*
X017355Y002991D03*
X017200Y003066D03*
X017200Y003071D03*
X017205Y003076D03*
X017195Y003061D03*
X017190Y003051D03*
X017245Y003136D03*
X016620Y002341D03*
X016055Y002341D03*
X015745Y002351D03*
X015450Y002306D03*
X015420Y002056D03*
X014615Y002471D03*
D24*
X014618Y002056D03*
X015043Y002061D03*
X015333Y002221D03*
X015443Y002301D03*
X015753Y002171D03*
X015038Y002351D03*
X017218Y002416D03*
X017223Y002411D03*
X017233Y002396D03*
X017238Y002391D03*
X017243Y002381D03*
X017323Y002166D03*
X017223Y002031D03*
X017218Y002021D03*
X017213Y002016D03*
X017208Y002011D03*
X017203Y002001D03*
X017198Y001996D03*
X017343Y001896D03*
X017643Y001966D03*
X017648Y001971D03*
X017788Y001866D03*
X017778Y001851D03*
X017773Y001846D03*
X017768Y001841D03*
X017768Y001836D03*
X017663Y001696D03*
X017663Y001616D03*
X017343Y001416D03*
X017198Y001316D03*
X017193Y001321D03*
X017188Y001326D03*
X017183Y001336D03*
X017203Y001306D03*
X017208Y001301D03*
X017223Y001276D03*
X017648Y002446D03*
X017643Y002451D03*
X017643Y002456D03*
X017788Y002551D03*
X017778Y002566D03*
X017773Y002571D03*
X017768Y002576D03*
X017768Y002581D03*
X017683Y002711D03*
X017683Y002716D03*
X017683Y002796D03*
X017228Y003106D03*
X017223Y003101D03*
X017218Y003091D03*
X017213Y003086D03*
X017208Y003081D03*
X017243Y003131D03*
D25*
X017240Y003126D03*
X017240Y003121D03*
X017235Y003116D03*
X017230Y003111D03*
X017220Y003096D03*
X017240Y002386D03*
X017325Y002251D03*
X017325Y002246D03*
X017220Y002026D03*
X017200Y001311D03*
X017210Y001296D03*
X017215Y001291D03*
X017220Y001286D03*
X017220Y001281D03*
X015760Y002106D03*
X015670Y002056D03*
X015640Y002311D03*
X015435Y002296D03*
X015340Y002226D03*
D26*
X015500Y002096D03*
X015635Y002006D03*
X015635Y002001D03*
X015635Y001996D03*
X015640Y001991D03*
X015640Y001986D03*
X015645Y001981D03*
X015650Y001976D03*
X015660Y001966D03*
X015665Y001961D03*
X015760Y001921D03*
X015845Y002026D03*
X015840Y002041D03*
X015835Y002046D03*
X015830Y002051D03*
X015675Y002211D03*
X015670Y002221D03*
X015665Y002286D03*
X015670Y002301D03*
X015380Y002476D03*
X015300Y002431D03*
X014530Y002431D03*
X016375Y002426D03*
X016375Y002481D03*
X016375Y002346D03*
X016975Y002356D03*
X016975Y002361D03*
X017245Y002341D03*
X017365Y002466D03*
X017515Y002376D03*
X017640Y002501D03*
X017490Y002591D03*
X017680Y002686D03*
X017680Y002826D03*
X017490Y002921D03*
X017365Y003046D03*
X017245Y003171D03*
X017320Y002136D03*
X017225Y002071D03*
X017350Y001946D03*
X017475Y001821D03*
X017640Y001921D03*
X017765Y001796D03*
X017475Y001491D03*
X017350Y001366D03*
D27*
X017353Y001396D03*
X017333Y001431D03*
X017328Y001436D03*
X017163Y001371D03*
X017163Y001366D03*
X017158Y001376D03*
X017153Y001386D03*
X017148Y001391D03*
X017148Y001396D03*
X017143Y001401D03*
X017663Y001606D03*
X017663Y001706D03*
X017763Y001826D03*
X017803Y001886D03*
X017808Y001891D03*
X017808Y001896D03*
X017813Y001901D03*
X017818Y001911D03*
X017823Y001916D03*
X017823Y001921D03*
X017668Y001996D03*
X017663Y001991D03*
X017673Y002006D03*
X017638Y001951D03*
X017513Y002081D03*
X017518Y002086D03*
X017523Y002096D03*
X017323Y002156D03*
X017228Y002041D03*
X017173Y001961D03*
X017168Y001951D03*
X017163Y001946D03*
X017163Y001941D03*
X017158Y001936D03*
X017318Y001861D03*
X017323Y001871D03*
X017328Y001876D03*
X017353Y001916D03*
X017478Y001791D03*
X017478Y001786D03*
X017473Y001781D03*
X017523Y002321D03*
X017518Y002331D03*
X017513Y002336D03*
X017513Y002341D03*
X017663Y002426D03*
X017668Y002421D03*
X017673Y002411D03*
X017638Y002466D03*
X017638Y002471D03*
X017763Y002591D03*
X017803Y002531D03*
X017808Y002526D03*
X017813Y002516D03*
X017818Y002511D03*
X017818Y002506D03*
X017823Y002501D03*
X017828Y002491D03*
X017683Y002706D03*
X017683Y002806D03*
X017493Y002881D03*
X017488Y002876D03*
X017348Y002976D03*
X017348Y002981D03*
X017353Y002986D03*
X017368Y003011D03*
X017193Y003056D03*
X017188Y003046D03*
X017183Y003041D03*
X017183Y003036D03*
X017178Y003031D03*
X017173Y003021D03*
X017168Y003011D03*
X017163Y003001D03*
X017248Y003141D03*
X017488Y002636D03*
X017493Y002631D03*
X017353Y002526D03*
X017348Y002531D03*
X017368Y002501D03*
X017208Y002431D03*
X017203Y002436D03*
X017198Y002446D03*
X017193Y002456D03*
X017188Y002461D03*
X017188Y002466D03*
X017183Y002471D03*
X017248Y002371D03*
X015328Y002216D03*
X014693Y002091D03*
D28*
X014535Y002091D03*
X014930Y002171D03*
X014935Y002151D03*
X014935Y002146D03*
X014940Y002136D03*
X014940Y002131D03*
X014945Y002126D03*
X014945Y002121D03*
X014950Y002116D03*
X014950Y002111D03*
X014955Y002106D03*
X014960Y002101D03*
X014965Y002096D03*
X014970Y002091D03*
X015115Y002096D03*
X015120Y002101D03*
X015125Y002106D03*
X015130Y002111D03*
X015130Y002116D03*
X015135Y002121D03*
X015140Y002131D03*
X015140Y002136D03*
X015145Y002146D03*
X015145Y002151D03*
X015150Y002171D03*
X015150Y002241D03*
X015145Y002261D03*
X015145Y002266D03*
X015140Y002276D03*
X015140Y002281D03*
X015135Y002286D03*
X015135Y002291D03*
X015130Y002296D03*
X015125Y002306D03*
X015120Y002311D03*
X015115Y002316D03*
X015110Y002321D03*
X014965Y002316D03*
X014960Y002311D03*
X014955Y002306D03*
X014950Y002301D03*
X014950Y002296D03*
X014945Y002291D03*
X014945Y002286D03*
X014940Y002281D03*
X014940Y002276D03*
X014935Y002266D03*
X014935Y002261D03*
X014930Y002241D03*
X015300Y002146D03*
X015300Y002141D03*
X015300Y002136D03*
X015305Y002131D03*
X015305Y002126D03*
X015310Y002116D03*
X015315Y002111D03*
X015485Y002361D03*
X015485Y002366D03*
X015485Y002371D03*
X015485Y002376D03*
X015480Y002396D03*
X015470Y002416D03*
X015465Y002421D03*
X015460Y002426D03*
X015695Y002191D03*
X015760Y002161D03*
X015815Y002201D03*
X015820Y002206D03*
X015825Y002211D03*
X015825Y002216D03*
X015830Y002221D03*
X015830Y002226D03*
X015830Y002231D03*
X015835Y002241D03*
X015835Y002246D03*
X015835Y002251D03*
X015835Y002256D03*
X015835Y002261D03*
X015835Y002266D03*
X015835Y002271D03*
X015835Y002276D03*
X015830Y002291D03*
X015825Y002306D03*
X015815Y002321D03*
X015810Y002326D03*
X016005Y002281D03*
X016005Y002276D03*
X016005Y002271D03*
X016190Y002346D03*
X016375Y002431D03*
X016375Y002436D03*
X016375Y002471D03*
X016375Y002476D03*
X016575Y002291D03*
X016570Y002281D03*
X016570Y002276D03*
X016570Y002271D03*
X016755Y002496D03*
X016980Y002351D03*
X016975Y002121D03*
X016975Y002116D03*
X017225Y002066D03*
X017350Y001941D03*
X017475Y001816D03*
X017640Y001926D03*
X017765Y001801D03*
X017475Y001496D03*
X017350Y001371D03*
X015845Y001986D03*
X015845Y001991D03*
X015845Y001996D03*
X015840Y001981D03*
X015675Y001956D03*
X015635Y002026D03*
X015635Y002031D03*
X017245Y002346D03*
X017325Y002276D03*
X017365Y002471D03*
X017515Y002371D03*
X017640Y002496D03*
X017490Y002596D03*
X017490Y002916D03*
X017365Y003041D03*
X017245Y003166D03*
D29*
X017245Y003161D03*
X017365Y003036D03*
X017490Y002911D03*
X017680Y002691D03*
X017490Y002601D03*
X017515Y002366D03*
X017245Y002351D03*
X016985Y002346D03*
X016970Y002101D03*
X017225Y002061D03*
X017350Y001936D03*
X017475Y001811D03*
X017640Y001931D03*
X017765Y001806D03*
X017515Y002056D03*
X017475Y001501D03*
X017350Y001376D03*
X015835Y001971D03*
X015830Y001966D03*
X015825Y001961D03*
X015805Y002191D03*
X015490Y002091D03*
X015330Y002096D03*
X015300Y002166D03*
X015300Y002171D03*
X015300Y002176D03*
X015100Y002086D03*
X014980Y002086D03*
X014775Y002176D03*
X014775Y002181D03*
X014780Y002191D03*
X014780Y002196D03*
X014785Y002206D03*
X014785Y002211D03*
X014785Y002216D03*
X014785Y002221D03*
X014790Y002231D03*
X014790Y002236D03*
X014790Y002241D03*
X014790Y002246D03*
X014790Y002251D03*
X014790Y002256D03*
X014790Y002261D03*
X014790Y002266D03*
X014790Y002271D03*
X014790Y002276D03*
X014790Y002281D03*
X014790Y002286D03*
X014790Y002291D03*
X014790Y002296D03*
X014785Y002306D03*
X014785Y002311D03*
X014785Y002316D03*
X014785Y002321D03*
X014780Y002331D03*
X014780Y002336D03*
X014775Y002346D03*
X014775Y002351D03*
X014770Y002361D03*
X014765Y002371D03*
X014760Y002381D03*
X014755Y002386D03*
X014755Y002391D03*
X014750Y002396D03*
X014745Y002401D03*
X014740Y002406D03*
X014735Y002411D03*
X014540Y002436D03*
X014770Y002166D03*
X014765Y002156D03*
X014760Y002151D03*
X014760Y002146D03*
X014755Y002141D03*
X014750Y002136D03*
X014745Y002126D03*
X014970Y002321D03*
X014980Y002326D03*
X015100Y002326D03*
X015480Y002346D03*
X016375Y002441D03*
X016375Y002446D03*
X016375Y002451D03*
X016375Y002456D03*
X016375Y002461D03*
X016375Y002466D03*
D30*
X016390Y002336D03*
X016615Y002351D03*
X016050Y002351D03*
X015820Y001956D03*
X015305Y002186D03*
X015445Y002436D03*
X014715Y002426D03*
X014720Y002106D03*
X017225Y002056D03*
X017350Y001931D03*
X017475Y001806D03*
X017440Y001706D03*
X017440Y001701D03*
X017440Y001611D03*
X017440Y001606D03*
X017475Y001506D03*
X017350Y001381D03*
X017260Y001621D03*
X017260Y001626D03*
X017260Y001631D03*
X017260Y001636D03*
X017260Y001641D03*
X017260Y001646D03*
X017260Y001651D03*
X017260Y001656D03*
X017260Y001661D03*
X017260Y001666D03*
X017260Y001671D03*
X017260Y001676D03*
X017260Y001681D03*
X017260Y001686D03*
X017260Y001691D03*
X017640Y001936D03*
X017765Y001811D03*
X017895Y002111D03*
X017895Y002306D03*
X017550Y002246D03*
X017555Y002211D03*
X017555Y002206D03*
X017555Y002196D03*
X017550Y002171D03*
X017515Y002061D03*
X017325Y002271D03*
X017245Y002356D03*
X017490Y002606D03*
X017490Y002906D03*
X017245Y003156D03*
D31*
X017245Y003151D03*
X017140Y002946D03*
X017125Y002901D03*
X017125Y002896D03*
X017120Y002886D03*
X017120Y002881D03*
X017115Y002861D03*
X017115Y002856D03*
X017110Y002816D03*
X017110Y002811D03*
X017110Y002696D03*
X017110Y002691D03*
X017110Y002686D03*
X017110Y002681D03*
X017110Y002676D03*
X017115Y002651D03*
X017115Y002646D03*
X017120Y002631D03*
X017120Y002626D03*
X017120Y002621D03*
X017125Y002616D03*
X017125Y002611D03*
X017125Y002606D03*
X017130Y002596D03*
X017130Y002591D03*
X017295Y002636D03*
X017295Y002641D03*
X017295Y002646D03*
X017290Y002656D03*
X017285Y002681D03*
X017280Y002711D03*
X017300Y002631D03*
X017300Y002626D03*
X017300Y002621D03*
X017305Y002611D03*
X017310Y002601D03*
X017465Y002681D03*
X017465Y002686D03*
X017460Y002691D03*
X017460Y002696D03*
X017470Y002671D03*
X017475Y002661D03*
X017495Y002616D03*
X017455Y002726D03*
X017455Y002786D03*
X017460Y002816D03*
X017460Y002821D03*
X017465Y002826D03*
X017465Y002831D03*
X017470Y002841D03*
X017475Y002851D03*
X017495Y002896D03*
X017310Y002911D03*
X017305Y002896D03*
X017300Y002891D03*
X017300Y002886D03*
X017300Y002881D03*
X017295Y002876D03*
X017295Y002871D03*
X017295Y002866D03*
X017290Y002856D03*
X017285Y002836D03*
X017285Y002831D03*
X017280Y002801D03*
X016770Y002486D03*
X016735Y002306D03*
X017245Y002361D03*
X017325Y002266D03*
X017510Y002351D03*
X017535Y002296D03*
X017540Y002286D03*
X017540Y002281D03*
X017545Y002276D03*
X017545Y002271D03*
X017710Y002326D03*
X017710Y002331D03*
X017705Y002341D03*
X017715Y002316D03*
X017715Y002311D03*
X017720Y002296D03*
X017720Y002291D03*
X017720Y002286D03*
X017725Y002271D03*
X017725Y002266D03*
X017725Y002261D03*
X017725Y002256D03*
X017725Y002161D03*
X017725Y002156D03*
X017725Y002151D03*
X017725Y002146D03*
X017720Y002131D03*
X017720Y002126D03*
X017720Y002121D03*
X017715Y002106D03*
X017715Y002101D03*
X017710Y002096D03*
X017710Y002091D03*
X017710Y002086D03*
X017705Y002076D03*
X017545Y002141D03*
X017545Y002146D03*
X017545Y002151D03*
X017540Y002136D03*
X017540Y002131D03*
X017535Y002121D03*
X017640Y001941D03*
X017765Y001816D03*
X017475Y001801D03*
X017455Y001746D03*
X017450Y001736D03*
X017450Y001731D03*
X017445Y001726D03*
X017445Y001721D03*
X017435Y001686D03*
X017435Y001681D03*
X017435Y001631D03*
X017445Y001591D03*
X017445Y001586D03*
X017450Y001581D03*
X017450Y001576D03*
X017455Y001566D03*
X017475Y001511D03*
X017350Y001386D03*
X017290Y001506D03*
X017285Y001521D03*
X017285Y001526D03*
X017280Y001531D03*
X017280Y001536D03*
X017275Y001541D03*
X017275Y001546D03*
X017275Y001551D03*
X017270Y001566D03*
X017270Y001571D03*
X017265Y001601D03*
X017265Y001606D03*
X017265Y001711D03*
X017265Y001716D03*
X017265Y001721D03*
X017270Y001741D03*
X017270Y001746D03*
X017270Y001751D03*
X017275Y001761D03*
X017275Y001766D03*
X017275Y001771D03*
X017280Y001776D03*
X017280Y001781D03*
X017285Y001791D03*
X017285Y001796D03*
X017290Y001806D03*
X017350Y001926D03*
X017225Y002051D03*
X017115Y001846D03*
X017115Y001841D03*
X017110Y001826D03*
X017110Y001821D03*
X017105Y001811D03*
X017100Y001796D03*
X017100Y001791D03*
X017100Y001786D03*
X017095Y001781D03*
X017095Y001776D03*
X017095Y001771D03*
X017095Y001766D03*
X017095Y001761D03*
X017090Y001746D03*
X017090Y001741D03*
X017090Y001736D03*
X017090Y001731D03*
X017090Y001726D03*
X017090Y001721D03*
X017085Y001716D03*
X017085Y001711D03*
X017085Y001706D03*
X017085Y001701D03*
X017085Y001696D03*
X017085Y001691D03*
X017085Y001686D03*
X017085Y001681D03*
X017085Y001676D03*
X017085Y001671D03*
X017085Y001666D03*
X017085Y001661D03*
X017085Y001656D03*
X017085Y001651D03*
X017085Y001646D03*
X017085Y001641D03*
X017085Y001636D03*
X017085Y001631D03*
X017085Y001626D03*
X017085Y001621D03*
X017085Y001616D03*
X017085Y001611D03*
X017085Y001606D03*
X017085Y001601D03*
X017085Y001596D03*
X017090Y001571D03*
X017090Y001566D03*
X017090Y001561D03*
X017095Y001551D03*
X017095Y001546D03*
X017095Y001541D03*
X017095Y001536D03*
X017100Y001521D03*
X017100Y001516D03*
X017110Y001486D03*
X017860Y001991D03*
X017870Y002016D03*
X017875Y002031D03*
X017875Y002036D03*
X017875Y002041D03*
X017880Y002046D03*
X017880Y002051D03*
X017880Y002056D03*
X017885Y002061D03*
X017885Y002066D03*
X017885Y002071D03*
X017890Y002081D03*
X017890Y002086D03*
X017890Y002091D03*
X017890Y002096D03*
X017900Y002131D03*
X017900Y002136D03*
X017900Y002141D03*
X017900Y002146D03*
X017900Y002151D03*
X017900Y002266D03*
X017900Y002271D03*
X017890Y002321D03*
X017890Y002326D03*
X017890Y002331D03*
X017890Y002336D03*
X017885Y002346D03*
X017885Y002351D03*
X017885Y002356D03*
X017880Y002366D03*
X017880Y002371D03*
X017875Y002376D03*
X017875Y002381D03*
X017875Y002386D03*
X017870Y002396D03*
X017870Y002401D03*
X017860Y002426D03*
X015775Y002111D03*
X015465Y002321D03*
X015460Y002316D03*
X015315Y002201D03*
X014705Y002096D03*
D32*
X016855Y002096D03*
X017350Y001976D03*
X017470Y001461D03*
D33*
X017663Y001621D03*
X017663Y001626D03*
X017663Y001631D03*
X017663Y001681D03*
X017663Y001686D03*
X017663Y001691D03*
X016928Y002066D03*
X016563Y002081D03*
X016623Y002336D03*
X016058Y002336D03*
X015998Y002081D03*
X015643Y002316D03*
X015348Y002231D03*
X017323Y002171D03*
X017683Y002721D03*
X017683Y002726D03*
X017683Y002791D03*
D34*
X017680Y002786D03*
X017680Y002781D03*
X017680Y002731D03*
X017325Y002241D03*
X017325Y002236D03*
X017325Y002231D03*
X017325Y002226D03*
X017325Y002191D03*
X017325Y002186D03*
X017325Y002181D03*
X017325Y002176D03*
X016755Y002081D03*
X016755Y002076D03*
X016755Y002071D03*
X016755Y002066D03*
X016755Y002061D03*
X016755Y002056D03*
X016565Y002056D03*
X016565Y002061D03*
X016565Y002066D03*
X016565Y002071D03*
X016565Y002076D03*
X016190Y002076D03*
X016190Y002071D03*
X016190Y002066D03*
X016190Y002061D03*
X016190Y002056D03*
X016190Y002081D03*
X016000Y002076D03*
X016000Y002071D03*
X016000Y002066D03*
X016000Y002061D03*
X016000Y002056D03*
X015760Y001931D03*
X015645Y002321D03*
X015430Y002291D03*
X017665Y001676D03*
X017665Y001641D03*
X017665Y001636D03*
D35*
X017663Y001646D03*
X017663Y001666D03*
X017663Y001671D03*
X016928Y002071D03*
X016928Y002076D03*
X016378Y002081D03*
X015753Y002176D03*
X015743Y002346D03*
X015648Y002326D03*
X015423Y002286D03*
X015353Y002236D03*
X015038Y002346D03*
X015373Y002466D03*
X015043Y002066D03*
X017683Y002736D03*
X017683Y002741D03*
X017683Y002746D03*
X017683Y002771D03*
X017683Y002776D03*
D36*
X017680Y002766D03*
X017680Y002761D03*
X017325Y002221D03*
X017325Y002216D03*
X017325Y002201D03*
X017325Y002196D03*
X016930Y002086D03*
X016930Y002081D03*
X016625Y002331D03*
X016375Y002076D03*
X016375Y002071D03*
X016375Y002066D03*
X016375Y002061D03*
X016375Y002056D03*
X016060Y002331D03*
X015750Y002101D03*
X015415Y002281D03*
X015360Y002241D03*
X017660Y001661D03*
X017665Y001651D03*
D37*
X017663Y001656D03*
X016933Y002091D03*
X017323Y002206D03*
X017323Y002211D03*
X017683Y002751D03*
X017683Y002756D03*
X015753Y002181D03*
X015688Y002061D03*
X015653Y002331D03*
X015408Y002276D03*
X015373Y002251D03*
X015368Y002246D03*
D38*
X017225Y002096D03*
X017245Y002316D03*
X017365Y002441D03*
X017640Y002526D03*
X017520Y002016D03*
X017765Y001771D03*
X017365Y003071D03*
X017245Y003196D03*
D39*
X017245Y003191D03*
X017365Y003066D03*
X017640Y002521D03*
X017365Y002446D03*
X017245Y002321D03*
X017225Y002091D03*
X017520Y002021D03*
X017470Y001846D03*
X017765Y001776D03*
X016375Y002411D03*
X016375Y002496D03*
D40*
X016360Y002356D03*
X016960Y002416D03*
X016960Y002421D03*
X017245Y002326D03*
X017325Y002286D03*
X017365Y002451D03*
X017640Y002516D03*
X017225Y002086D03*
X017520Y002026D03*
X017470Y001841D03*
X017765Y001781D03*
X015795Y002141D03*
X015790Y002151D03*
X015290Y002356D03*
X017245Y003186D03*
X017365Y003061D03*
D41*
X017365Y003056D03*
X017245Y003181D03*
X017680Y002681D03*
X017640Y002511D03*
X017365Y002456D03*
X017245Y002331D03*
X017225Y002081D03*
X017520Y002031D03*
X017470Y001836D03*
X017765Y001786D03*
X016965Y002396D03*
X016965Y002401D03*
X016740Y002506D03*
X016375Y002491D03*
X016375Y002416D03*
X016175Y002356D03*
X015800Y002131D03*
X015510Y002151D03*
X015510Y002156D03*
X015510Y002161D03*
X015510Y002166D03*
X015510Y002171D03*
X015510Y002176D03*
X015290Y002361D03*
X015290Y002366D03*
X015290Y002371D03*
X015290Y002376D03*
X015290Y002381D03*
X015290Y002386D03*
X014520Y002386D03*
X014520Y002381D03*
X014520Y002376D03*
X014520Y002391D03*
X014520Y002396D03*
X014520Y002401D03*
X014520Y002151D03*
X014520Y002146D03*
X014520Y002141D03*
X014520Y002136D03*
X014520Y002131D03*
D42*
X014525Y002101D03*
X014525Y002426D03*
X015295Y002421D03*
X015745Y002361D03*
X015800Y002121D03*
X015505Y002106D03*
X015505Y002101D03*
X016375Y002421D03*
X016375Y002486D03*
X016970Y002381D03*
X016970Y002376D03*
X017245Y002336D03*
X017325Y002281D03*
X017365Y002461D03*
X017515Y002381D03*
X017640Y002506D03*
X017490Y002586D03*
X017490Y002926D03*
X017365Y003051D03*
X017245Y003176D03*
X017225Y002076D03*
X017765Y001791D03*
D43*
X017643Y001891D03*
X017473Y001851D03*
X017488Y002561D03*
X017763Y002651D03*
X017488Y002951D03*
D44*
X015743Y002096D03*
X015758Y001936D03*
X015038Y002341D03*
X014613Y002466D03*
X014613Y002061D03*
D45*
X015040Y002076D03*
X015040Y002336D03*
X015735Y002091D03*
X015755Y001941D03*
D46*
X015755Y001946D03*
X015720Y002076D03*
X015370Y002451D03*
D47*
X015378Y002441D03*
X015423Y002076D03*
X015753Y001951D03*
D48*
X015425Y002061D03*
X015380Y002256D03*
X015385Y002261D03*
X015395Y002266D03*
X015400Y002271D03*
X015040Y002071D03*
D49*
X015415Y002086D03*
X015725Y002066D03*
X014615Y002076D03*
D50*
X015428Y002066D03*
X016948Y002336D03*
D51*
X016953Y002331D03*
X016953Y002326D03*
X016953Y002321D03*
X016953Y002316D03*
X016953Y002311D03*
X015728Y002081D03*
X014613Y002066D03*
D52*
X015373Y002446D03*
X015428Y002071D03*
X015718Y002071D03*
D53*
X014610Y002071D03*
X014610Y002456D03*
D54*
X014613Y002451D03*
X015418Y002081D03*
D55*
X015730Y002086D03*
X015370Y002456D03*
X015040Y002331D03*
X015040Y002081D03*
X014610Y002461D03*
D56*
X014618Y002446D03*
X014618Y002081D03*
X016668Y002326D03*
D57*
X016663Y002311D03*
X014623Y002441D03*
X014623Y002086D03*
D58*
X015753Y002186D03*
X016943Y002341D03*
D59*
X016118Y002311D03*
D60*
X016665Y002316D03*
X016665Y002321D03*
D61*
X016120Y002321D03*
X016120Y002316D03*
D62*
X016123Y002326D03*
D63*
X015703Y002336D03*
D64*
X015700Y002341D03*
D65*
X015370Y002461D03*
D66*
X017368Y003076D03*
M02*
