%
M48
M72
T01C0.0140
T02C0.0400
%
T01
X723Y1706
X723Y2506
X3623Y2106
X3923Y1706
X4923Y2506
X3623Y3606
X2923Y4606
X3323Y5306
X3623Y5906
X4923Y5706
X5323Y5306
X4923Y4906
X6723Y5306
X7223Y6706
X9123Y5306
X9923Y5306
X11723Y4606
X12223Y4606
X12723Y4606
X13323Y4906
X13123Y5306
X13323Y5706
X13823Y6206
X14923Y6806
X13823Y7506
X14923Y8206
X15523Y7806
X14223Y8706
X14523Y9106
X12923Y9106
X11923Y8706
X12523Y8206
X9623Y6706
X4823Y7506
X3623Y8106
X723Y8306
X723Y9106
X11523Y2406
X12023Y2406
X12323Y2706
X13323Y3106
X12823Y3506
X14223Y2406
X14523Y2706
X13823Y2006
X16323Y3506
X16623Y4506
X16323Y4806
X14923Y5306
T02
X17323Y4806
X17323Y3806
X17323Y5806
X17323Y6806
X17323Y7806
X14923Y9906
X13923Y9906
X12923Y9906
X11923Y9906
X10923Y9906
X9923Y9906
X8923Y9906
X7923Y9906
X6923Y9906
X5923Y9906
X4923Y9906
X3923Y9906
X3923Y906
X4923Y906
X5923Y906
X6923Y906
X7923Y906
X8923Y906
X9923Y906
X10923Y906
X11923Y906
X12923Y906
X13923Y906
X14923Y906
M30
