G75*
%MOIN*%
%OFA0B0*%
%FSLAX24Y24*%
%IPPOS*%
%LPD*%
%AMOC8*
5,1,8,0,0,1.08239X$1,22.5*
%
%ADD10R,0.0552X0.0474*%
%ADD11R,0.0631X0.0237*%
%ADD12R,0.0828X0.0867*%
%ADD13R,0.0828X0.0946*%
%ADD14R,0.0600X0.0300*%
%ADD15R,0.0395X0.0237*%
%ADD16R,0.0720X0.0720*%
%ADD17OC8,0.0720*%
%ADD18R,0.0552X0.0297*%
%ADD19R,0.0474X0.0513*%
%ADD20R,0.0513X0.0474*%
%ADD21C,0.0142*%
%ADD22C,0.0500*%
%ADD23C,0.0671*%
%ADD24R,0.0200X0.0570*%
%ADD25C,0.0820*%
D10*
X002990Y004106D03*
X003856Y004106D03*
D11*
X002345Y004695D03*
X002345Y004951D03*
X002345Y005206D03*
X002345Y005462D03*
X002345Y005718D03*
D12*
X001223Y005699D03*
X001223Y004714D03*
D13*
X001223Y003632D03*
X001223Y006781D03*
D14*
X003653Y006706D03*
X003653Y007076D03*
X004593Y007076D03*
X004593Y006336D03*
X003653Y006336D03*
D15*
X003808Y005562D03*
X003808Y005306D03*
X003808Y005051D03*
X004438Y005051D03*
X004438Y005306D03*
X004438Y005562D03*
D16*
X003923Y000906D03*
D17*
X004923Y000906D03*
X005923Y000906D03*
X006923Y000906D03*
X007923Y000906D03*
X008923Y000906D03*
X009923Y000906D03*
X010923Y000906D03*
X011923Y000906D03*
X012923Y000906D03*
X013923Y000906D03*
X014923Y000906D03*
X014923Y009906D03*
X013923Y009906D03*
X012923Y009906D03*
X011923Y009906D03*
X010923Y009906D03*
X009923Y009906D03*
X008923Y009906D03*
X007923Y009906D03*
X006923Y009906D03*
X005923Y009906D03*
X004923Y009906D03*
X003923Y009906D03*
D18*
X006211Y007081D03*
X006211Y006706D03*
X006211Y006332D03*
X007235Y006332D03*
X007235Y007081D03*
D19*
X005423Y007041D03*
X005423Y006372D03*
X013223Y007472D03*
X013223Y008141D03*
X016223Y007641D03*
X016223Y006972D03*
D20*
X016357Y005806D03*
X015688Y005806D03*
X009157Y006106D03*
X008488Y006106D03*
X007857Y005706D03*
X007188Y005706D03*
X008488Y006906D03*
X009157Y006906D03*
X004857Y008106D03*
X004188Y008106D03*
X003057Y008306D03*
X002388Y008306D03*
X002388Y009106D03*
X003057Y009106D03*
X003057Y002506D03*
X002388Y002506D03*
X002388Y001706D03*
X003057Y001706D03*
D21*
X002034Y001872D02*
X002034Y001540D01*
X001702Y001540D01*
X001702Y001872D01*
X002034Y001872D01*
X002034Y001681D02*
X001702Y001681D01*
X001702Y001822D02*
X002034Y001822D01*
X001343Y001872D02*
X001343Y001540D01*
X001011Y001540D01*
X001011Y001872D01*
X001343Y001872D01*
X001343Y001681D02*
X001011Y001681D01*
X001011Y001822D02*
X001343Y001822D01*
X001343Y002340D02*
X001343Y002672D01*
X001343Y002340D02*
X001011Y002340D01*
X001011Y002672D01*
X001343Y002672D01*
X001343Y002481D02*
X001011Y002481D01*
X001011Y002622D02*
X001343Y002622D01*
X002034Y002672D02*
X002034Y002340D01*
X001702Y002340D01*
X001702Y002672D01*
X002034Y002672D01*
X002034Y002481D02*
X001702Y002481D01*
X001702Y002622D02*
X002034Y002622D01*
X002034Y008140D02*
X002034Y008472D01*
X002034Y008140D02*
X001702Y008140D01*
X001702Y008472D01*
X002034Y008472D01*
X002034Y008281D02*
X001702Y008281D01*
X001702Y008422D02*
X002034Y008422D01*
X001343Y008472D02*
X001343Y008140D01*
X001011Y008140D01*
X001011Y008472D01*
X001343Y008472D01*
X001343Y008281D02*
X001011Y008281D01*
X001011Y008422D02*
X001343Y008422D01*
X001343Y008940D02*
X001343Y009272D01*
X001343Y008940D02*
X001011Y008940D01*
X001011Y009272D01*
X001343Y009272D01*
X001343Y009081D02*
X001011Y009081D01*
X001011Y009222D02*
X001343Y009222D01*
X002034Y009272D02*
X002034Y008940D01*
X001702Y008940D01*
X001702Y009272D01*
X002034Y009272D01*
X002034Y009081D02*
X001702Y009081D01*
X001702Y009222D02*
X002034Y009222D01*
D22*
X000567Y010106D02*
X000569Y010143D01*
X000575Y010180D01*
X000584Y010216D01*
X000598Y010251D01*
X000615Y010284D01*
X000635Y010315D01*
X000658Y010344D01*
X000685Y010371D01*
X000714Y010394D01*
X000745Y010414D01*
X000778Y010431D01*
X000813Y010445D01*
X000849Y010454D01*
X000886Y010460D01*
X000923Y010462D01*
X000960Y010460D01*
X000997Y010454D01*
X001033Y010445D01*
X001068Y010431D01*
X001101Y010414D01*
X001132Y010394D01*
X001161Y010371D01*
X001188Y010344D01*
X001211Y010315D01*
X001231Y010284D01*
X001248Y010251D01*
X001262Y010216D01*
X001271Y010180D01*
X001277Y010143D01*
X001279Y010106D01*
X001277Y010069D01*
X001271Y010032D01*
X001262Y009996D01*
X001248Y009961D01*
X001231Y009928D01*
X001211Y009897D01*
X001188Y009868D01*
X001161Y009841D01*
X001132Y009818D01*
X001101Y009798D01*
X001068Y009781D01*
X001033Y009767D01*
X000997Y009758D01*
X000960Y009752D01*
X000923Y009750D01*
X000886Y009752D01*
X000849Y009758D01*
X000813Y009767D01*
X000778Y009781D01*
X000745Y009798D01*
X000714Y009818D01*
X000685Y009841D01*
X000658Y009868D01*
X000635Y009897D01*
X000615Y009928D01*
X000598Y009961D01*
X000584Y009996D01*
X000575Y010032D01*
X000569Y010069D01*
X000567Y010106D01*
X000567Y000706D02*
X000569Y000743D01*
X000575Y000780D01*
X000584Y000816D01*
X000598Y000851D01*
X000615Y000884D01*
X000635Y000915D01*
X000658Y000944D01*
X000685Y000971D01*
X000714Y000994D01*
X000745Y001014D01*
X000778Y001031D01*
X000813Y001045D01*
X000849Y001054D01*
X000886Y001060D01*
X000923Y001062D01*
X000960Y001060D01*
X000997Y001054D01*
X001033Y001045D01*
X001068Y001031D01*
X001101Y001014D01*
X001132Y000994D01*
X001161Y000971D01*
X001188Y000944D01*
X001211Y000915D01*
X001231Y000884D01*
X001248Y000851D01*
X001262Y000816D01*
X001271Y000780D01*
X001277Y000743D01*
X001279Y000706D01*
X001277Y000669D01*
X001271Y000632D01*
X001262Y000596D01*
X001248Y000561D01*
X001231Y000528D01*
X001211Y000497D01*
X001188Y000468D01*
X001161Y000441D01*
X001132Y000418D01*
X001101Y000398D01*
X001068Y000381D01*
X001033Y000367D01*
X000997Y000358D01*
X000960Y000352D01*
X000923Y000350D01*
X000886Y000352D01*
X000849Y000358D01*
X000813Y000367D01*
X000778Y000381D01*
X000745Y000398D01*
X000714Y000418D01*
X000685Y000441D01*
X000658Y000468D01*
X000635Y000497D01*
X000615Y000528D01*
X000598Y000561D01*
X000584Y000596D01*
X000575Y000632D01*
X000569Y000669D01*
X000567Y000706D01*
X017267Y000706D02*
X017269Y000743D01*
X017275Y000780D01*
X017284Y000816D01*
X017298Y000851D01*
X017315Y000884D01*
X017335Y000915D01*
X017358Y000944D01*
X017385Y000971D01*
X017414Y000994D01*
X017445Y001014D01*
X017478Y001031D01*
X017513Y001045D01*
X017549Y001054D01*
X017586Y001060D01*
X017623Y001062D01*
X017660Y001060D01*
X017697Y001054D01*
X017733Y001045D01*
X017768Y001031D01*
X017801Y001014D01*
X017832Y000994D01*
X017861Y000971D01*
X017888Y000944D01*
X017911Y000915D01*
X017931Y000884D01*
X017948Y000851D01*
X017962Y000816D01*
X017971Y000780D01*
X017977Y000743D01*
X017979Y000706D01*
X017977Y000669D01*
X017971Y000632D01*
X017962Y000596D01*
X017948Y000561D01*
X017931Y000528D01*
X017911Y000497D01*
X017888Y000468D01*
X017861Y000441D01*
X017832Y000418D01*
X017801Y000398D01*
X017768Y000381D01*
X017733Y000367D01*
X017697Y000358D01*
X017660Y000352D01*
X017623Y000350D01*
X017586Y000352D01*
X017549Y000358D01*
X017513Y000367D01*
X017478Y000381D01*
X017445Y000398D01*
X017414Y000418D01*
X017385Y000441D01*
X017358Y000468D01*
X017335Y000497D01*
X017315Y000528D01*
X017298Y000561D01*
X017284Y000596D01*
X017275Y000632D01*
X017269Y000669D01*
X017267Y000706D01*
X017267Y010106D02*
X017269Y010143D01*
X017275Y010180D01*
X017284Y010216D01*
X017298Y010251D01*
X017315Y010284D01*
X017335Y010315D01*
X017358Y010344D01*
X017385Y010371D01*
X017414Y010394D01*
X017445Y010414D01*
X017478Y010431D01*
X017513Y010445D01*
X017549Y010454D01*
X017586Y010460D01*
X017623Y010462D01*
X017660Y010460D01*
X017697Y010454D01*
X017733Y010445D01*
X017768Y010431D01*
X017801Y010414D01*
X017832Y010394D01*
X017861Y010371D01*
X017888Y010344D01*
X017911Y010315D01*
X017931Y010284D01*
X017948Y010251D01*
X017962Y010216D01*
X017971Y010180D01*
X017977Y010143D01*
X017979Y010106D01*
X017977Y010069D01*
X017971Y010032D01*
X017962Y009996D01*
X017948Y009961D01*
X017931Y009928D01*
X017911Y009897D01*
X017888Y009868D01*
X017861Y009841D01*
X017832Y009818D01*
X017801Y009798D01*
X017768Y009781D01*
X017733Y009767D01*
X017697Y009758D01*
X017660Y009752D01*
X017623Y009750D01*
X017586Y009752D01*
X017549Y009758D01*
X017513Y009767D01*
X017478Y009781D01*
X017445Y009798D01*
X017414Y009818D01*
X017385Y009841D01*
X017358Y009868D01*
X017335Y009897D01*
X017315Y009928D01*
X017298Y009961D01*
X017284Y009996D01*
X017275Y010032D01*
X017269Y010069D01*
X017267Y010106D01*
D23*
X000923Y000706D03*
X000923Y010106D03*
X017623Y010106D03*
X017623Y000706D03*
D24*
X013287Y004052D03*
X013031Y004052D03*
X012775Y004052D03*
X012519Y004052D03*
X012263Y004052D03*
X012007Y004052D03*
X011751Y004052D03*
X011495Y004052D03*
X011239Y004052D03*
X010983Y004052D03*
X010727Y004052D03*
X010472Y004052D03*
X010216Y004052D03*
X009960Y004052D03*
X009959Y006761D03*
X010215Y006761D03*
X010471Y006761D03*
X010727Y006761D03*
X010982Y006761D03*
X011238Y006761D03*
X011494Y006761D03*
X011750Y006761D03*
X012006Y006761D03*
X012262Y006761D03*
X012518Y006761D03*
X012774Y006761D03*
X013030Y006761D03*
X013286Y006761D03*
D25*
X017323Y006806D03*
X017323Y005806D03*
X017323Y004806D03*
X017323Y003806D03*
X017323Y007806D03*
M02*
