G75*
%MOIN*%
%OFA0B0*%
%FSLAX24Y24*%
%IPPOS*%
%LPD*%
%AMOC8*
5,1,8,0,0,1.08239X$1,22.5*
%
%ADD10C,0.0050*%
%ADD11C,0.0000*%
%ADD12C,0.0060*%
%ADD13C,0.0028*%
%ADD14R,0.0276X0.0118*%
%ADD15C,0.0100*%
%ADD16C,0.0080*%
%ADD17C,0.0118*%
%ADD18C,0.0100*%
%ADD19R,0.0300X0.0180*%
%ADD20C,0.0220*%
%ADD21C,0.0010*%
%ADD22R,0.0180X0.0300*%
%ADD23R,0.0128X0.0512*%
%ADD24C,0.0024*%
%ADD25R,0.0025X0.0005*%
%ADD26R,0.0035X0.0005*%
%ADD27R,0.0045X0.0005*%
%ADD28R,0.0055X0.0005*%
%ADD29R,0.0065X0.0005*%
%ADD30R,0.0075X0.0005*%
%ADD31R,0.0085X0.0005*%
%ADD32R,0.0095X0.0005*%
%ADD33R,0.0105X0.0005*%
%ADD34R,0.0115X0.0005*%
%ADD35R,0.0120X0.0005*%
%ADD36R,0.0130X0.0005*%
%ADD37R,0.0135X0.0005*%
%ADD38R,0.0140X0.0005*%
%ADD39R,0.0070X0.0005*%
%ADD40R,0.0125X0.0005*%
%ADD41R,0.0080X0.0005*%
%ADD42R,0.0090X0.0005*%
%ADD43R,0.0100X0.0005*%
%ADD44R,0.0110X0.0005*%
%ADD45R,0.0010X0.0005*%
%ADD46R,0.0145X0.0005*%
%ADD47R,0.0150X0.0005*%
%ADD48R,0.0155X0.0005*%
%ADD49R,0.0160X0.0005*%
%ADD50R,0.0165X0.0005*%
%ADD51R,0.0020X0.0005*%
%ADD52R,0.0030X0.0005*%
%ADD53R,0.0040X0.0005*%
%ADD54R,0.0050X0.0005*%
%ADD55R,0.0060X0.0005*%
%ADD56R,0.0015X0.0005*%
%ADD57R,0.0175X0.0005*%
%ADD58R,0.0190X0.0005*%
%ADD59R,0.0210X0.0005*%
%ADD60R,0.0225X0.0005*%
%ADD61R,0.0170X0.0005*%
%ADD62R,0.0240X0.0005*%
%ADD63R,0.0195X0.0005*%
%ADD64R,0.0205X0.0005*%
%ADD65R,0.0215X0.0005*%
%ADD66R,0.0230X0.0005*%
%ADD67R,0.0235X0.0005*%
%ADD68R,0.0200X0.0005*%
%ADD69R,0.0245X0.0005*%
%ADD70R,0.0255X0.0005*%
%ADD71R,0.0185X0.0005*%
%ADD72R,0.0295X0.0005*%
%ADD73R,0.0250X0.0005*%
%ADD74R,0.0290X0.0005*%
%ADD75R,0.0285X0.0005*%
%ADD76R,0.0265X0.0005*%
%ADD77R,0.0260X0.0005*%
%ADD78R,0.0180X0.0005*%
%ADD79R,0.0005X0.0005*%
D10*
X000548Y001931D02*
X000548Y002202D01*
X000683Y002202D01*
X000728Y002157D01*
X000728Y002067D01*
X000683Y002022D01*
X000548Y002022D01*
X000842Y001977D02*
X000887Y001931D01*
X000977Y001931D01*
X001022Y001977D01*
X001022Y002157D01*
X000842Y001977D01*
X000842Y002157D01*
X000887Y002202D01*
X000977Y002202D01*
X001022Y002157D01*
X001137Y001886D02*
X001317Y001886D01*
X001432Y001931D02*
X001432Y001977D01*
X001612Y002157D01*
X001612Y002202D01*
X001432Y002202D01*
X001317Y002786D02*
X001137Y002786D01*
X001022Y002877D02*
X000977Y002831D01*
X000887Y002831D01*
X000842Y002877D01*
X001022Y003057D01*
X001022Y002877D01*
X000842Y002877D02*
X000842Y003057D01*
X000887Y003102D01*
X000977Y003102D01*
X001022Y003057D01*
X000728Y003057D02*
X000728Y002967D01*
X000683Y002922D01*
X000548Y002922D01*
X000548Y002831D02*
X000548Y003102D01*
X000683Y003102D01*
X000728Y003057D01*
X001432Y003102D02*
X001432Y002967D01*
X001522Y003012D01*
X001567Y003012D01*
X001612Y002967D01*
X001612Y002877D01*
X001567Y002831D01*
X001477Y002831D01*
X001432Y002877D01*
X001432Y003102D02*
X001612Y003102D01*
X002708Y003436D02*
X002708Y003707D01*
X003003Y003617D02*
X003093Y003707D01*
X003093Y003436D01*
X003003Y003436D02*
X003183Y003436D01*
X002889Y003436D02*
X002708Y003436D01*
X002911Y004106D02*
X003895Y004106D01*
X003838Y002782D02*
X003703Y002647D01*
X003883Y002647D01*
X003838Y002782D02*
X003838Y002511D01*
X003589Y002511D02*
X003498Y002602D01*
X003543Y002602D02*
X003408Y002602D01*
X003408Y002511D02*
X003408Y002782D01*
X003543Y002782D01*
X003589Y002737D01*
X003589Y002647D01*
X003543Y002602D01*
X003543Y001982D02*
X003408Y001982D01*
X003408Y001711D01*
X003408Y001802D02*
X003543Y001802D01*
X003589Y001847D01*
X003589Y001937D01*
X003543Y001982D01*
X003703Y001937D02*
X003748Y001982D01*
X003838Y001982D01*
X003883Y001937D01*
X003883Y001892D01*
X003838Y001847D01*
X003883Y001802D01*
X003883Y001757D01*
X003838Y001711D01*
X003748Y001711D01*
X003703Y001757D01*
X003589Y001711D02*
X003498Y001802D01*
X003793Y001847D02*
X003838Y001847D01*
X007058Y004957D02*
X007103Y004911D01*
X007193Y004911D01*
X007239Y004957D01*
X007353Y004911D02*
X007533Y005092D01*
X007533Y005137D01*
X007488Y005182D01*
X007398Y005182D01*
X007353Y005137D01*
X007239Y005137D02*
X007193Y005182D01*
X007103Y005182D01*
X007058Y005137D01*
X007058Y004957D01*
X007353Y004911D02*
X007533Y004911D01*
X008348Y005377D02*
X008393Y005331D01*
X008483Y005331D01*
X008528Y005377D01*
X008642Y005377D02*
X008687Y005331D01*
X008777Y005331D01*
X008822Y005377D01*
X008822Y005422D01*
X008777Y005467D01*
X008732Y005467D01*
X008777Y005467D02*
X008822Y005512D01*
X008822Y005557D01*
X008777Y005602D01*
X008687Y005602D01*
X008642Y005557D01*
X008528Y005557D02*
X008483Y005602D01*
X008393Y005602D01*
X008348Y005557D01*
X008348Y005377D01*
X009044Y004809D02*
X009044Y004584D01*
X009089Y004539D01*
X009179Y004539D01*
X009224Y004584D01*
X009224Y004809D01*
X009338Y004674D02*
X009518Y004674D01*
X009473Y004809D02*
X009338Y004674D01*
X009473Y004539D02*
X009473Y004809D01*
X009792Y004767D02*
X009794Y004797D01*
X009800Y004827D01*
X009810Y004855D01*
X009823Y004882D01*
X009840Y004908D01*
X009860Y004930D01*
X009882Y004950D01*
X009907Y004967D01*
X009935Y004980D01*
X009963Y004990D01*
X009993Y004996D01*
X010023Y004998D01*
X010053Y004996D01*
X010083Y004990D01*
X010111Y004980D01*
X010138Y004967D01*
X010164Y004950D01*
X010186Y004930D01*
X010206Y004908D01*
X010223Y004883D01*
X010236Y004855D01*
X010246Y004827D01*
X010252Y004797D01*
X010254Y004767D01*
X010252Y004737D01*
X010246Y004707D01*
X010236Y004679D01*
X010223Y004652D01*
X010206Y004626D01*
X010186Y004604D01*
X010164Y004584D01*
X010139Y004567D01*
X010111Y004554D01*
X010083Y004544D01*
X010053Y004538D01*
X010023Y004536D01*
X009993Y004538D01*
X009963Y004544D01*
X009935Y004554D01*
X009908Y004567D01*
X009882Y004584D01*
X009860Y004604D01*
X009840Y004626D01*
X009823Y004651D01*
X009810Y004679D01*
X009800Y004707D01*
X009794Y004737D01*
X009792Y004767D01*
X009615Y004363D02*
X009615Y006450D01*
X013631Y006450D01*
X013631Y004363D01*
X009615Y004363D01*
X005772Y007377D02*
X005727Y007331D01*
X005637Y007331D01*
X005592Y007377D01*
X005592Y007467D02*
X005682Y007512D01*
X005727Y007512D01*
X005772Y007467D01*
X005772Y007377D01*
X005592Y007467D02*
X005592Y007602D01*
X005772Y007602D01*
X005478Y007557D02*
X005478Y007467D01*
X005433Y007422D01*
X005298Y007422D01*
X005388Y007422D02*
X005478Y007331D01*
X005298Y007331D02*
X005298Y007602D01*
X005433Y007602D01*
X005478Y007557D01*
X005542Y008231D02*
X005722Y008231D01*
X005632Y008231D02*
X005632Y008502D01*
X005542Y008412D01*
X005428Y008457D02*
X005383Y008502D01*
X005293Y008502D01*
X005248Y008457D01*
X005248Y008277D01*
X005293Y008231D01*
X005383Y008231D01*
X005428Y008277D01*
X006698Y007752D02*
X006698Y007527D01*
X006743Y007481D01*
X006833Y007481D01*
X006878Y007527D01*
X006878Y007752D01*
X006992Y007707D02*
X007037Y007752D01*
X007127Y007752D01*
X007172Y007707D01*
X007172Y007662D01*
X007127Y007617D01*
X007172Y007572D01*
X007172Y007527D01*
X007127Y007481D01*
X007037Y007481D01*
X006992Y007527D01*
X007082Y007617D02*
X007127Y007617D01*
X008158Y007637D02*
X008158Y007457D01*
X008203Y007411D01*
X008293Y007411D01*
X008339Y007457D01*
X008453Y007457D02*
X008498Y007411D01*
X008588Y007411D01*
X008633Y007457D01*
X008633Y007547D01*
X008588Y007592D01*
X008543Y007592D01*
X008453Y007547D01*
X008453Y007682D01*
X008633Y007682D01*
X008339Y007637D02*
X008293Y007682D01*
X008203Y007682D01*
X008158Y007637D01*
X003883Y008411D02*
X003703Y008411D01*
X003793Y008411D02*
X003793Y008682D01*
X003703Y008592D01*
X003589Y008637D02*
X003543Y008682D01*
X003408Y008682D01*
X003408Y008411D01*
X003408Y008502D02*
X003543Y008502D01*
X003589Y008547D01*
X003589Y008637D01*
X003498Y008502D02*
X003589Y008411D01*
X003577Y007602D02*
X003487Y007602D01*
X003442Y007557D01*
X003328Y007602D02*
X003328Y007377D01*
X003283Y007331D01*
X003193Y007331D01*
X003148Y007377D01*
X003148Y007602D01*
X003442Y007331D02*
X003622Y007512D01*
X003622Y007557D01*
X003577Y007602D01*
X003622Y007331D02*
X003442Y007331D01*
X001317Y008531D02*
X001227Y008622D01*
X001272Y008622D02*
X001137Y008622D01*
X001137Y008531D02*
X001137Y008802D01*
X001272Y008802D01*
X001317Y008757D01*
X001317Y008667D01*
X001272Y008622D01*
X001022Y008531D02*
X001022Y008802D01*
X000842Y008802D02*
X000842Y008531D01*
X000932Y008622D01*
X001022Y008531D01*
X000728Y008667D02*
X000683Y008622D01*
X000548Y008622D01*
X000548Y008531D02*
X000548Y008802D01*
X000683Y008802D01*
X000728Y008757D01*
X000728Y008667D01*
X001137Y009386D02*
X001317Y009386D01*
X001432Y009477D02*
X001477Y009431D01*
X001567Y009431D01*
X001612Y009477D01*
X001612Y009522D01*
X001567Y009567D01*
X001432Y009567D01*
X001432Y009477D01*
X001432Y009567D02*
X001522Y009657D01*
X001612Y009702D01*
X001022Y009657D02*
X001022Y009477D01*
X000977Y009431D01*
X000887Y009431D01*
X000842Y009477D01*
X001022Y009657D01*
X000977Y009702D01*
X000887Y009702D01*
X000842Y009657D01*
X000842Y009477D01*
X000728Y009567D02*
X000683Y009522D01*
X000548Y009522D01*
X000548Y009431D02*
X000548Y009702D01*
X000683Y009702D01*
X000728Y009657D01*
X000728Y009567D01*
X003408Y009482D02*
X003408Y009211D01*
X003408Y009302D02*
X003543Y009302D01*
X003589Y009347D01*
X003589Y009437D01*
X003543Y009482D01*
X003408Y009482D01*
X003498Y009302D02*
X003589Y009211D01*
X003703Y009211D02*
X003883Y009392D01*
X003883Y009437D01*
X003838Y009482D01*
X003748Y009482D01*
X003703Y009437D01*
X003703Y009211D02*
X003883Y009211D01*
X003499Y005673D02*
X003499Y005402D01*
X003409Y005402D02*
X003589Y005402D01*
X003409Y005583D02*
X003499Y005673D01*
X003295Y005673D02*
X003295Y005447D01*
X003250Y005402D01*
X003160Y005402D01*
X003115Y005447D01*
X003115Y005673D01*
X013048Y008577D02*
X013093Y008531D01*
X013183Y008531D01*
X013228Y008577D01*
X013342Y008577D02*
X013387Y008531D01*
X013477Y008531D01*
X013522Y008577D01*
X013522Y008622D01*
X013477Y008667D01*
X013342Y008667D01*
X013342Y008577D01*
X013342Y008667D02*
X013432Y008757D01*
X013522Y008802D01*
X013228Y008757D02*
X013183Y008802D01*
X013093Y008802D01*
X013048Y008757D01*
X013048Y008577D01*
X015958Y008237D02*
X015958Y008057D01*
X016003Y008011D01*
X016093Y008011D01*
X016139Y008057D01*
X016253Y008147D02*
X016433Y008147D01*
X016388Y008282D02*
X016388Y008011D01*
X016253Y008147D02*
X016388Y008282D01*
X016139Y008237D02*
X016093Y008282D01*
X016003Y008282D01*
X015958Y008237D01*
X016198Y006502D02*
X016333Y006502D01*
X016378Y006457D01*
X016378Y006367D01*
X016333Y006322D01*
X016198Y006322D01*
X016288Y006322D02*
X016378Y006231D01*
X016492Y006277D02*
X016537Y006231D01*
X016627Y006231D01*
X016672Y006277D01*
X016672Y006322D01*
X016627Y006367D01*
X016492Y006367D01*
X016492Y006277D01*
X016492Y006367D02*
X016582Y006457D01*
X016672Y006502D01*
X016198Y006502D02*
X016198Y006231D01*
D11*
X000423Y010406D02*
X000423Y000406D01*
X000623Y000206D01*
X017923Y000206D01*
X018123Y000406D01*
X018123Y010406D01*
X017923Y010606D01*
X000623Y010606D01*
X000423Y010406D01*
D12*
X000553Y007727D02*
X000553Y007443D01*
X000609Y007386D01*
X000723Y007386D01*
X000780Y007443D01*
X000780Y007727D01*
X000921Y007670D02*
X000921Y007613D01*
X000978Y007557D01*
X001091Y007557D01*
X001148Y007500D01*
X001148Y007443D01*
X001091Y007386D01*
X000978Y007386D01*
X000921Y007443D01*
X000921Y007670D02*
X000978Y007727D01*
X001091Y007727D01*
X001148Y007670D01*
X001289Y007727D02*
X001459Y007727D01*
X001516Y007670D01*
X001516Y007613D01*
X001459Y007557D01*
X001289Y007557D01*
X001289Y007727D02*
X001289Y007386D01*
X001459Y007386D01*
X001516Y007443D01*
X001516Y007500D01*
X001459Y007557D01*
X001658Y007613D02*
X001771Y007727D01*
X001771Y007386D01*
X001658Y007386D02*
X001884Y007386D01*
X003983Y007296D02*
X004263Y007296D01*
X004213Y007216D02*
X004198Y007203D01*
X004181Y007193D01*
X004162Y007185D01*
X004143Y007181D01*
X004123Y007179D01*
X004103Y007181D01*
X004084Y007185D01*
X004065Y007193D01*
X004048Y007203D01*
X004033Y007216D01*
X003983Y006116D02*
X004263Y006116D01*
X004453Y004177D02*
X004623Y004177D01*
X004680Y004120D01*
X004680Y004007D01*
X004623Y003950D01*
X004453Y003950D01*
X004453Y003836D02*
X004453Y004177D01*
X004878Y004063D02*
X004991Y004063D01*
X005048Y004007D01*
X005048Y003836D01*
X004878Y003836D01*
X004821Y003893D01*
X004878Y003950D01*
X005048Y003950D01*
X005189Y004063D02*
X005303Y004063D01*
X005246Y004120D02*
X005246Y003893D01*
X005303Y003836D01*
X005492Y003893D02*
X005548Y003836D01*
X005492Y003893D02*
X005492Y004120D01*
X005548Y004063D02*
X005435Y004063D01*
X005680Y004007D02*
X005680Y003893D01*
X005737Y003836D01*
X005851Y003836D01*
X005907Y003950D02*
X005680Y003950D01*
X005680Y004007D02*
X005737Y004063D01*
X005851Y004063D01*
X005907Y004007D01*
X005907Y003950D01*
X006049Y003950D02*
X006162Y004063D01*
X006219Y004063D01*
X006356Y004063D02*
X006526Y004063D01*
X006582Y004007D01*
X006582Y003836D01*
X006724Y003836D02*
X006724Y004063D01*
X006837Y004177D01*
X006951Y004063D01*
X006951Y003836D01*
X007092Y003893D02*
X007149Y003836D01*
X007319Y003836D01*
X007319Y003780D02*
X007319Y004063D01*
X007149Y004063D01*
X007092Y004007D01*
X007092Y003893D01*
X006951Y004007D02*
X006724Y004007D01*
X006356Y004063D02*
X006356Y003836D01*
X006049Y003836D02*
X006049Y004063D01*
X006028Y003577D02*
X005914Y003577D01*
X005858Y003520D01*
X005858Y003293D01*
X005914Y003236D01*
X006028Y003236D01*
X006084Y003293D01*
X006226Y003407D02*
X006453Y003407D01*
X006594Y003407D02*
X006708Y003407D01*
X006821Y003577D02*
X006594Y003577D01*
X006594Y003236D01*
X006821Y003236D01*
X006963Y003236D02*
X006963Y003577D01*
X007189Y003236D01*
X007189Y003577D01*
X007206Y003723D02*
X007262Y003723D01*
X007319Y003780D01*
X007388Y003577D02*
X007331Y003520D01*
X007331Y003293D01*
X007388Y003236D01*
X007501Y003236D01*
X007558Y003293D01*
X007699Y003293D02*
X007756Y003236D01*
X007869Y003236D01*
X007926Y003293D01*
X007926Y003520D01*
X007869Y003577D01*
X007756Y003577D01*
X007699Y003520D01*
X007699Y003293D01*
X007558Y003520D02*
X007501Y003577D01*
X007388Y003577D01*
X007517Y003836D02*
X007461Y003893D01*
X007461Y004007D01*
X007517Y004063D01*
X007631Y004063D01*
X007687Y004007D01*
X007687Y003950D01*
X007461Y003950D01*
X007517Y003836D02*
X007631Y003836D01*
X007829Y003836D02*
X007829Y004063D01*
X007999Y004063D01*
X008056Y004007D01*
X008056Y003836D01*
X008254Y003893D02*
X008311Y003836D01*
X008254Y003893D02*
X008254Y004120D01*
X008197Y004063D02*
X008311Y004063D01*
X008443Y004007D02*
X008499Y003950D01*
X008613Y003950D01*
X008670Y003893D01*
X008613Y003836D01*
X008443Y003836D01*
X008443Y004007D02*
X008499Y004063D01*
X008670Y004063D01*
X008663Y003577D02*
X008436Y003577D01*
X008436Y003236D01*
X008663Y003236D01*
X008804Y003293D02*
X008861Y003236D01*
X008974Y003236D01*
X009031Y003293D01*
X009031Y003350D01*
X008974Y003407D01*
X008918Y003407D01*
X008974Y003407D02*
X009031Y003463D01*
X009031Y003520D01*
X008974Y003577D01*
X008861Y003577D01*
X008804Y003520D01*
X008549Y003407D02*
X008436Y003407D01*
X008294Y003407D02*
X008294Y003520D01*
X008238Y003577D01*
X008068Y003577D01*
X008068Y003236D01*
X008068Y003350D02*
X008238Y003350D01*
X008294Y003407D01*
X008181Y003350D02*
X008294Y003236D01*
X008199Y002977D02*
X008199Y002807D01*
X008313Y002863D01*
X008369Y002863D01*
X008426Y002807D01*
X008426Y002693D01*
X008369Y002636D01*
X008256Y002636D01*
X008199Y002693D01*
X008058Y002636D02*
X007831Y002636D01*
X007944Y002636D02*
X007944Y002977D01*
X007831Y002863D01*
X007689Y002863D02*
X007689Y002920D01*
X007633Y002977D01*
X007519Y002977D01*
X007463Y002920D01*
X007264Y002977D02*
X007094Y002807D01*
X007321Y002807D01*
X007264Y002977D02*
X007264Y002636D01*
X007463Y002636D02*
X007689Y002863D01*
X007689Y002636D02*
X007463Y002636D01*
X006953Y002693D02*
X006953Y002750D01*
X006896Y002807D01*
X006726Y002807D01*
X006726Y002693D01*
X006783Y002636D01*
X006896Y002636D01*
X006953Y002693D01*
X006839Y002920D02*
X006726Y002807D01*
X006584Y002693D02*
X006528Y002636D01*
X006414Y002636D01*
X006358Y002693D01*
X006358Y002920D01*
X006414Y002977D01*
X006528Y002977D01*
X006584Y002920D01*
X006839Y002920D02*
X006953Y002977D01*
X006216Y002977D02*
X006216Y002920D01*
X005989Y002693D01*
X005989Y002636D01*
X005734Y002636D02*
X005734Y002807D01*
X005848Y002920D01*
X005848Y002977D01*
X005989Y002977D02*
X006216Y002977D01*
X005734Y002807D02*
X005621Y002920D01*
X005621Y002977D01*
X005480Y002920D02*
X005423Y002977D01*
X005309Y002977D01*
X005253Y002920D01*
X005253Y002693D01*
X005309Y002636D01*
X005423Y002636D01*
X005480Y002693D01*
X005546Y003236D02*
X005659Y003236D01*
X005716Y003293D01*
X005716Y003520D01*
X005659Y003577D01*
X005546Y003577D01*
X005489Y003520D01*
X005489Y003293D01*
X005546Y003236D01*
X005348Y003293D02*
X005291Y003236D01*
X005178Y003236D01*
X005121Y003293D01*
X005178Y003407D02*
X005291Y003407D01*
X005348Y003350D01*
X005348Y003293D01*
X005178Y003407D02*
X005121Y003463D01*
X005121Y003520D01*
X005178Y003577D01*
X005291Y003577D01*
X005348Y003520D01*
X004980Y003577D02*
X004753Y003577D01*
X004866Y003577D02*
X004866Y003236D01*
X006028Y003577D02*
X006084Y003520D01*
X008199Y002977D02*
X008426Y002977D01*
X008568Y002807D02*
X008794Y002807D01*
X008936Y002636D02*
X009163Y002863D01*
X009163Y002920D01*
X009106Y002977D01*
X008993Y002977D01*
X008936Y002920D01*
X009304Y002920D02*
X009304Y002863D01*
X009361Y002807D01*
X009474Y002807D01*
X009531Y002750D01*
X009531Y002693D01*
X009474Y002636D01*
X009361Y002636D01*
X009304Y002693D01*
X009304Y002750D01*
X009361Y002807D01*
X009474Y002807D02*
X009531Y002863D01*
X009531Y002920D01*
X009474Y002977D01*
X009361Y002977D01*
X009304Y002920D01*
X009672Y002977D02*
X009843Y002977D01*
X009899Y002920D01*
X009899Y002807D01*
X009843Y002750D01*
X009672Y002750D01*
X009672Y002636D02*
X009672Y002977D01*
X010041Y002977D02*
X010041Y002750D01*
X010154Y002636D01*
X010268Y002750D01*
X010268Y002977D01*
X010409Y002977D02*
X010636Y002636D01*
X010777Y002693D02*
X010834Y002636D01*
X010948Y002636D01*
X011004Y002693D01*
X010777Y002693D02*
X010777Y002920D01*
X010834Y002977D01*
X010948Y002977D01*
X011004Y002920D01*
X010636Y002977D02*
X010409Y002636D01*
X009163Y002636D02*
X008936Y002636D01*
X015934Y008523D02*
X015991Y008523D01*
X016048Y008580D01*
X016048Y008863D01*
X015878Y008863D01*
X015821Y008807D01*
X015821Y008693D01*
X015878Y008636D01*
X016048Y008636D01*
X016189Y008693D02*
X016189Y008807D01*
X016246Y008863D01*
X016359Y008863D01*
X016416Y008807D01*
X016416Y008750D01*
X016189Y008750D01*
X016189Y008693D02*
X016246Y008636D01*
X016359Y008636D01*
X016558Y008636D02*
X016558Y008863D01*
X016728Y008863D01*
X016784Y008807D01*
X016784Y008636D01*
X016983Y008693D02*
X017039Y008636D01*
X016983Y008693D02*
X016983Y008920D01*
X017039Y008863D02*
X016926Y008863D01*
X017171Y008807D02*
X017228Y008750D01*
X017342Y008750D01*
X017398Y008693D01*
X017342Y008636D01*
X017171Y008636D01*
X017171Y008807D02*
X017228Y008863D01*
X017398Y008863D01*
X017356Y009236D02*
X017356Y009463D01*
X017526Y009463D01*
X017582Y009407D01*
X017582Y009236D01*
X017219Y009463D02*
X017162Y009463D01*
X017049Y009350D01*
X017049Y009463D02*
X017049Y009236D01*
X016907Y009350D02*
X016680Y009350D01*
X016680Y009407D02*
X016737Y009463D01*
X016851Y009463D01*
X016907Y009407D01*
X016907Y009350D01*
X016851Y009236D02*
X016737Y009236D01*
X016680Y009293D01*
X016680Y009407D01*
X016548Y009463D02*
X016435Y009463D01*
X016492Y009520D02*
X016492Y009293D01*
X016548Y009236D01*
X016303Y009236D02*
X016246Y009293D01*
X016246Y009520D01*
X016189Y009463D02*
X016303Y009463D01*
X016048Y009407D02*
X016048Y009236D01*
X015878Y009236D01*
X015821Y009293D01*
X015878Y009350D01*
X016048Y009350D01*
X016048Y009407D02*
X015991Y009463D01*
X015878Y009463D01*
X015680Y009407D02*
X015623Y009350D01*
X015453Y009350D01*
X015453Y009236D02*
X015453Y009577D01*
X015623Y009577D01*
X015680Y009520D01*
X015680Y009407D01*
X015566Y008977D02*
X015680Y008863D01*
X015680Y008636D01*
X015453Y008636D02*
X015453Y008863D01*
X015566Y008977D01*
X015453Y008807D02*
X015680Y008807D01*
D13*
X003816Y004353D02*
X003029Y004353D01*
X003029Y003860D02*
X003816Y003860D01*
D14*
X003423Y004106D03*
D15*
X002404Y004498D02*
X002404Y003592D01*
X001695Y003592D01*
X000750Y003592D02*
X000475Y003592D01*
X002404Y005915D02*
X002404Y006821D01*
X001695Y006821D01*
X000750Y006821D02*
X000475Y006821D01*
D16*
X001456Y008125D02*
X001456Y008306D01*
X001578Y008399D01*
X001456Y008488D02*
X001456Y008306D01*
X001462Y008296D02*
X001578Y008221D01*
X001456Y008925D02*
X001456Y009106D01*
X001578Y009199D01*
X001456Y009288D02*
X001456Y009106D01*
X001462Y009096D02*
X001578Y009021D01*
X006554Y007206D02*
X006892Y007206D01*
X007002Y006812D02*
X007002Y006601D01*
X006892Y006206D02*
X006554Y006206D01*
X004339Y005700D02*
X003906Y005700D01*
X003906Y004913D02*
X004339Y004913D01*
X001578Y002599D02*
X001456Y002506D01*
X001456Y002325D01*
X001578Y002421D02*
X001462Y002496D01*
X001456Y002506D02*
X001456Y002688D01*
X001456Y001888D02*
X001456Y001706D01*
X001578Y001799D01*
X001456Y001706D02*
X001456Y001525D01*
X001578Y001621D02*
X001462Y001696D01*
X016823Y003556D02*
X016823Y004056D01*
X017073Y004306D01*
X016823Y004556D01*
X016823Y005056D01*
X017073Y005306D01*
X016823Y005556D01*
X016823Y006056D01*
X017073Y006306D01*
X016823Y006556D01*
X016823Y007056D01*
X017073Y007306D01*
X016823Y007556D01*
X016823Y008056D01*
X017073Y008306D01*
X017573Y008306D01*
X017823Y008056D01*
X017823Y007556D01*
X017573Y007306D01*
X017823Y007056D01*
X017823Y006556D01*
X017573Y006306D01*
X017823Y006056D01*
X017823Y005556D01*
X017573Y005306D01*
X017823Y005056D01*
X017823Y004556D01*
X017573Y004306D01*
X017823Y004056D01*
X017823Y003556D01*
X017573Y003306D01*
X017073Y003306D01*
X016823Y003556D01*
D17*
X004024Y005582D03*
D18*
X006323Y007336D03*
D19*
X005423Y006706D03*
D20*
X004523Y008094D02*
X004523Y008119D01*
X007523Y005719D02*
X007523Y005694D01*
X008823Y006094D02*
X008823Y006119D01*
X008823Y006894D02*
X008823Y006919D01*
X013211Y007806D02*
X013235Y007806D01*
X016211Y007306D02*
X016235Y007306D01*
D21*
X001930Y008576D02*
X001830Y008576D01*
X001880Y008576D02*
X001880Y008727D01*
X001830Y008677D01*
X001783Y008702D02*
X001758Y008727D01*
X001683Y008727D01*
X001683Y008576D01*
X001758Y008576D01*
X001783Y008602D01*
X001783Y008702D01*
X001758Y009376D02*
X001783Y009402D01*
X001783Y009502D01*
X001758Y009527D01*
X001683Y009527D01*
X001683Y009376D01*
X001758Y009376D01*
X001830Y009376D02*
X001930Y009477D01*
X001930Y009502D01*
X001905Y009527D01*
X001855Y009527D01*
X001830Y009502D01*
X001830Y009376D02*
X001930Y009376D01*
X001905Y002927D02*
X001830Y002852D01*
X001930Y002852D01*
X001905Y002927D02*
X001905Y002776D01*
X001783Y002802D02*
X001783Y002902D01*
X001758Y002927D01*
X001683Y002927D01*
X001683Y002776D01*
X001758Y002776D01*
X001783Y002802D01*
X001758Y002127D02*
X001683Y002127D01*
X001683Y001976D01*
X001758Y001976D01*
X001783Y002002D01*
X001783Y002102D01*
X001758Y002127D01*
X001830Y002102D02*
X001855Y002127D01*
X001905Y002127D01*
X001930Y002102D01*
X001930Y002077D01*
X001905Y002052D01*
X001930Y002027D01*
X001930Y002002D01*
X001905Y001976D01*
X001855Y001976D01*
X001830Y002002D01*
X001880Y002052D02*
X001905Y002052D01*
D22*
X002723Y001706D03*
X002723Y002506D03*
X002723Y008306D03*
X002723Y009106D03*
X016023Y005806D03*
D23*
X013286Y006686D03*
X013030Y006686D03*
X012774Y006686D03*
X012518Y006686D03*
X012262Y006686D03*
X012007Y006686D03*
X011751Y006686D03*
X011495Y006686D03*
X011239Y006686D03*
X010983Y006686D03*
X010727Y006686D03*
X010471Y006686D03*
X010215Y006686D03*
X009959Y006686D03*
X009959Y004127D03*
X010215Y004127D03*
X010471Y004127D03*
X010727Y004127D03*
X010983Y004127D03*
X011239Y004127D03*
X011495Y004127D03*
X011751Y004127D03*
X012007Y004127D03*
X012262Y004127D03*
X012518Y004127D03*
X012774Y004127D03*
X013030Y004127D03*
X013286Y004127D03*
D24*
X013411Y005375D02*
X011891Y005375D01*
X011891Y005451D01*
X012932Y005451D01*
X012967Y005416D01*
X012974Y005409D01*
X013404Y005409D01*
X013411Y005375D01*
X013409Y005383D02*
X011891Y005383D01*
X011891Y005405D02*
X013405Y005405D01*
X012956Y005427D02*
X011891Y005427D01*
X011891Y005449D02*
X012933Y005449D01*
D25*
X014958Y003046D03*
X014683Y002746D03*
X014958Y002666D03*
X014928Y002501D03*
X015098Y002071D03*
X014803Y001996D03*
X014973Y001566D03*
X015098Y001441D03*
X015223Y001316D03*
D26*
X015223Y001321D03*
X015098Y001446D03*
X014973Y001571D03*
X014803Y002001D03*
X015098Y002066D03*
X014928Y002496D03*
X014958Y002671D03*
X014683Y002741D03*
X014958Y003041D03*
X015713Y002611D03*
X016278Y002461D03*
X016658Y002256D03*
D27*
X016653Y002246D03*
X016648Y002236D03*
X016398Y002461D03*
X015833Y002461D03*
X015483Y002506D03*
X015483Y002511D03*
X015123Y002231D03*
X015098Y002061D03*
X014803Y002006D03*
X014783Y001831D03*
X014783Y001681D03*
X014973Y001576D03*
X015098Y001451D03*
X015223Y001326D03*
X014928Y002491D03*
X014958Y002676D03*
X014683Y002736D03*
X014763Y002931D03*
X014958Y003036D03*
X017928Y002471D03*
X017928Y002466D03*
X017928Y002461D03*
X017928Y002456D03*
X017928Y002276D03*
X017928Y002271D03*
X017928Y002266D03*
X017928Y002261D03*
X017928Y002256D03*
D28*
X017923Y002226D03*
X017923Y002221D03*
X017923Y002216D03*
X017923Y002211D03*
X017923Y002206D03*
X017923Y002506D03*
X017923Y002511D03*
X017923Y002516D03*
X017923Y002521D03*
X017153Y002516D03*
X017153Y002511D03*
X017153Y002506D03*
X017153Y002501D03*
X017153Y002496D03*
X017153Y002491D03*
X016938Y002246D03*
X016938Y002241D03*
X016938Y002236D03*
X016938Y002231D03*
X016938Y002226D03*
X016938Y002221D03*
X016938Y002216D03*
X016938Y002211D03*
X016648Y002226D03*
X016078Y002451D03*
X015478Y002486D03*
X015478Y002491D03*
X014928Y002486D03*
X014958Y002681D03*
X014683Y002731D03*
X014958Y003031D03*
X014928Y002136D03*
X014803Y002011D03*
X014973Y001931D03*
X015098Y002056D03*
X015503Y002151D03*
X014973Y001581D03*
X015098Y001456D03*
X015223Y001331D03*
D29*
X015223Y001336D03*
X015098Y001461D03*
X014973Y001586D03*
X014783Y001686D03*
X014783Y001826D03*
X014973Y001926D03*
X015098Y002051D03*
X014928Y002141D03*
X014803Y002016D03*
X015473Y002466D03*
X015473Y002471D03*
X015698Y002601D03*
X016263Y002451D03*
X016618Y002156D03*
X016623Y002161D03*
X016793Y002071D03*
X017403Y002151D03*
X017408Y002461D03*
X017148Y002526D03*
X017918Y002196D03*
X014683Y002726D03*
D30*
X014683Y002721D03*
X015468Y002406D03*
X015468Y002401D03*
X015468Y002396D03*
X015468Y002391D03*
X015468Y002386D03*
X015468Y002381D03*
X015468Y002376D03*
X015468Y002371D03*
X015468Y002366D03*
X015468Y002361D03*
X015468Y002356D03*
X015468Y002351D03*
X015468Y002346D03*
X015468Y002341D03*
X015468Y002336D03*
X015468Y002331D03*
X015468Y002326D03*
X015468Y002321D03*
X015468Y002316D03*
X015468Y002311D03*
X015468Y002306D03*
X015468Y002301D03*
X015468Y002296D03*
X015468Y002291D03*
X015468Y002286D03*
X015468Y002281D03*
X015468Y002276D03*
X015468Y002271D03*
X015468Y002266D03*
X015468Y002261D03*
X015468Y002256D03*
X015468Y002251D03*
X015468Y002246D03*
X015468Y002241D03*
X015468Y002236D03*
X015468Y002231D03*
X015468Y002226D03*
X015693Y002226D03*
X015693Y002221D03*
X015693Y002216D03*
X015693Y002211D03*
X015693Y002206D03*
X015693Y002201D03*
X015693Y002196D03*
X015693Y002191D03*
X015693Y002231D03*
X015693Y002236D03*
X015693Y002241D03*
X015693Y002246D03*
X015693Y002251D03*
X015693Y002256D03*
X015693Y002261D03*
X015693Y002266D03*
X015693Y002271D03*
X015693Y002276D03*
X015693Y002281D03*
X015693Y002286D03*
X015693Y002291D03*
X015693Y002296D03*
X015693Y002301D03*
X015693Y002306D03*
X015693Y002311D03*
X015693Y002316D03*
X015693Y002321D03*
X015693Y002326D03*
X015693Y002331D03*
X015693Y002336D03*
X015693Y002341D03*
X015693Y002346D03*
X015693Y002351D03*
X015693Y002356D03*
X015693Y002361D03*
X015693Y002366D03*
X015693Y002371D03*
X015693Y002376D03*
X015693Y002381D03*
X015693Y002386D03*
X015693Y002391D03*
X015693Y002396D03*
X015693Y002431D03*
X015693Y002436D03*
X015693Y002441D03*
X015693Y002446D03*
X015693Y002451D03*
X015693Y002456D03*
X015693Y002461D03*
X015693Y002466D03*
X015693Y002471D03*
X015693Y002476D03*
X015693Y002481D03*
X015693Y002486D03*
X015693Y002491D03*
X015693Y002496D03*
X015693Y002501D03*
X015693Y002506D03*
X015693Y002511D03*
X015693Y002516D03*
X015693Y002521D03*
X015693Y002526D03*
X015693Y002531D03*
X015693Y002536D03*
X015693Y002541D03*
X015693Y002546D03*
X015693Y002551D03*
X015693Y002556D03*
X015833Y002456D03*
X015878Y002366D03*
X015878Y002361D03*
X015878Y002356D03*
X015878Y002351D03*
X015878Y002346D03*
X015878Y002341D03*
X015878Y002336D03*
X015878Y002331D03*
X015878Y002326D03*
X015878Y002321D03*
X015878Y002316D03*
X015878Y002311D03*
X015878Y002306D03*
X015878Y002301D03*
X015878Y002296D03*
X015878Y002291D03*
X015878Y002286D03*
X015878Y002281D03*
X015878Y002276D03*
X015878Y002271D03*
X015878Y002266D03*
X015878Y002261D03*
X015878Y002256D03*
X015878Y002251D03*
X015878Y002246D03*
X015878Y002241D03*
X015878Y002236D03*
X015878Y002231D03*
X015878Y002226D03*
X015878Y002221D03*
X015878Y002216D03*
X015878Y002211D03*
X015878Y002206D03*
X015878Y002201D03*
X015878Y002196D03*
X015878Y002191D03*
X016068Y002191D03*
X016068Y002196D03*
X016068Y002201D03*
X016068Y002206D03*
X016068Y002211D03*
X016068Y002216D03*
X016068Y002221D03*
X016068Y002226D03*
X016068Y002231D03*
X016068Y002236D03*
X016068Y002241D03*
X016068Y002246D03*
X016068Y002251D03*
X016068Y002256D03*
X016068Y002261D03*
X016068Y002266D03*
X016068Y002271D03*
X016068Y002276D03*
X016068Y002281D03*
X016068Y002286D03*
X016068Y002291D03*
X016068Y002296D03*
X016068Y002301D03*
X016068Y002306D03*
X016068Y002311D03*
X016068Y002316D03*
X016068Y002321D03*
X016068Y002326D03*
X016068Y002331D03*
X016068Y002336D03*
X016068Y002341D03*
X016068Y002346D03*
X016068Y002351D03*
X016068Y002356D03*
X016068Y002361D03*
X016068Y002366D03*
X016068Y002371D03*
X016068Y002376D03*
X016068Y002381D03*
X016068Y002386D03*
X016068Y002391D03*
X016068Y002396D03*
X016068Y002401D03*
X016068Y002406D03*
X016258Y002396D03*
X016258Y002391D03*
X016258Y002386D03*
X016258Y002381D03*
X016258Y002376D03*
X016258Y002371D03*
X016258Y002366D03*
X016258Y002361D03*
X016258Y002356D03*
X016258Y002351D03*
X016258Y002346D03*
X016258Y002341D03*
X016258Y002336D03*
X016258Y002331D03*
X016258Y002326D03*
X016258Y002321D03*
X016258Y002316D03*
X016258Y002311D03*
X016258Y002306D03*
X016258Y002301D03*
X016258Y002296D03*
X016258Y002291D03*
X016258Y002286D03*
X016258Y002281D03*
X016258Y002276D03*
X016258Y002271D03*
X016258Y002266D03*
X016258Y002261D03*
X016258Y002256D03*
X016258Y002251D03*
X016258Y002246D03*
X016258Y002241D03*
X016258Y002236D03*
X016258Y002231D03*
X016258Y002226D03*
X016258Y002221D03*
X016258Y002216D03*
X016258Y002211D03*
X016258Y002206D03*
X016258Y002201D03*
X016258Y002196D03*
X016258Y002191D03*
X016443Y002191D03*
X016443Y002196D03*
X016443Y002201D03*
X016443Y002206D03*
X016443Y002211D03*
X016443Y002216D03*
X016443Y002221D03*
X016443Y002226D03*
X016443Y002231D03*
X016443Y002236D03*
X016443Y002241D03*
X016443Y002246D03*
X016443Y002251D03*
X016443Y002256D03*
X016443Y002261D03*
X016443Y002266D03*
X016443Y002271D03*
X016443Y002276D03*
X016443Y002281D03*
X016443Y002286D03*
X016443Y002291D03*
X016443Y002296D03*
X016443Y002301D03*
X016443Y002306D03*
X016443Y002311D03*
X016443Y002316D03*
X016443Y002321D03*
X016443Y002326D03*
X016443Y002331D03*
X016443Y002336D03*
X016443Y002341D03*
X016443Y002346D03*
X016443Y002351D03*
X016443Y002356D03*
X016443Y002361D03*
X016443Y002366D03*
X016398Y002456D03*
X016613Y002386D03*
X016613Y002381D03*
X016618Y002396D03*
X016618Y002401D03*
X016623Y002411D03*
X016628Y002416D03*
X016773Y002406D03*
X016778Y002396D03*
X016778Y002391D03*
X016783Y002381D03*
X016783Y002376D03*
X016783Y002371D03*
X016783Y002366D03*
X016783Y002361D03*
X016783Y002356D03*
X016783Y002351D03*
X016783Y002346D03*
X016783Y002341D03*
X016778Y002336D03*
X016778Y002331D03*
X016778Y002326D03*
X016773Y002316D03*
X016768Y002306D03*
X016763Y002301D03*
X016758Y002296D03*
X016653Y002216D03*
X016603Y002136D03*
X016603Y002131D03*
X016598Y002121D03*
X016598Y002116D03*
X016598Y002111D03*
X016598Y002106D03*
X016598Y002101D03*
X016813Y002111D03*
X016813Y002116D03*
X016813Y002121D03*
X017028Y002151D03*
X017138Y002221D03*
X017318Y002401D03*
X016973Y002511D03*
X016968Y002506D03*
X016968Y002501D03*
X016963Y002491D03*
X016963Y002486D03*
X016963Y002481D03*
X017828Y002576D03*
X017828Y002151D03*
X015223Y001341D03*
X014928Y002146D03*
D31*
X014928Y002151D03*
X015123Y002241D03*
X015473Y002211D03*
X015473Y002206D03*
X015693Y002186D03*
X015878Y002186D03*
X016068Y002186D03*
X016258Y002186D03*
X016443Y002186D03*
X016608Y002076D03*
X016808Y002136D03*
X016633Y002296D03*
X016613Y002336D03*
X016643Y002431D03*
X016438Y002391D03*
X016438Y002386D03*
X016433Y002396D03*
X016263Y002401D03*
X016063Y002441D03*
X015873Y002386D03*
X015868Y002396D03*
X015698Y002401D03*
X015078Y002576D03*
X014808Y002591D03*
X014683Y002716D03*
X014763Y002921D03*
X014783Y001821D03*
X014783Y001691D03*
X015223Y001346D03*
X016963Y002451D03*
X016963Y002456D03*
X016993Y002531D03*
X017138Y002536D03*
X017303Y002371D03*
X017298Y002356D03*
X017298Y002351D03*
X017298Y002346D03*
X017293Y002336D03*
X017293Y002331D03*
X017293Y002326D03*
X017293Y002321D03*
X017293Y002316D03*
X017293Y002311D03*
X017293Y002306D03*
X017293Y002301D03*
X017293Y002296D03*
X017293Y002291D03*
X017293Y002286D03*
X017293Y002281D03*
X017293Y002276D03*
X017298Y002266D03*
X017298Y002261D03*
X017298Y002256D03*
X017303Y002241D03*
X017308Y002226D03*
X017333Y002191D03*
X017508Y002241D03*
X017513Y002256D03*
X017513Y002261D03*
X017513Y002266D03*
X017518Y002276D03*
X017518Y002281D03*
X017518Y002286D03*
X017518Y002291D03*
X017518Y002296D03*
X017518Y002301D03*
X017518Y002306D03*
X017518Y002311D03*
X017518Y002316D03*
X017518Y002321D03*
X017518Y002326D03*
X017518Y002331D03*
X017518Y002336D03*
X017513Y002346D03*
X017513Y002351D03*
X017513Y002356D03*
X017508Y002371D03*
X017658Y002401D03*
X017663Y002426D03*
X017668Y002441D03*
X017673Y002456D03*
X017678Y002466D03*
X017683Y002476D03*
X017658Y002326D03*
X017663Y002301D03*
X017668Y002286D03*
X017673Y002271D03*
X017678Y002261D03*
X017148Y002261D03*
X017148Y002256D03*
X017148Y002251D03*
X017128Y002206D03*
X017123Y002201D03*
D32*
X017143Y002281D03*
X016973Y002431D03*
X016968Y002436D03*
X016968Y002441D03*
X016803Y002141D03*
X016428Y002401D03*
X016248Y002441D03*
X015863Y002401D03*
X015683Y002591D03*
X015078Y002581D03*
X014933Y002461D03*
X014808Y002586D03*
X014683Y002711D03*
X015078Y003131D03*
X015508Y002156D03*
X015223Y001351D03*
X017698Y002231D03*
X017708Y002221D03*
X017713Y002216D03*
X017718Y002211D03*
X017718Y002516D03*
X017723Y002521D03*
D33*
X017738Y002531D03*
X017408Y002456D03*
X017138Y002291D03*
X017133Y002296D03*
X017103Y002191D03*
X017403Y002156D03*
X017733Y002201D03*
X016978Y002426D03*
X016698Y002456D03*
X016693Y002266D03*
X016798Y002146D03*
X016423Y002406D03*
X016273Y002406D03*
X016243Y002436D03*
X015858Y002406D03*
X015483Y002196D03*
X015123Y002246D03*
X014933Y002166D03*
X014898Y002256D03*
X014898Y002261D03*
X014898Y002266D03*
X014893Y002276D03*
X014893Y002281D03*
X014893Y002286D03*
X014893Y002291D03*
X014888Y002301D03*
X014888Y002316D03*
X014888Y002321D03*
X014893Y002326D03*
X014893Y002331D03*
X014893Y002336D03*
X014893Y002341D03*
X014898Y002351D03*
X014898Y002356D03*
X014898Y002361D03*
X014898Y002366D03*
X014933Y002456D03*
X014808Y002581D03*
X014728Y002406D03*
X014728Y002401D03*
X014723Y002381D03*
X014723Y002376D03*
X014718Y002351D03*
X014718Y002346D03*
X014718Y002341D03*
X014718Y002336D03*
X014718Y002331D03*
X014718Y002326D03*
X014718Y002321D03*
X014718Y002316D03*
X014718Y002311D03*
X014718Y002306D03*
X014718Y002301D03*
X014718Y002296D03*
X014718Y002291D03*
X014718Y002286D03*
X014718Y002281D03*
X014718Y002276D03*
X014718Y002271D03*
X014718Y002266D03*
X014723Y002241D03*
X014723Y002236D03*
X014728Y002216D03*
X014728Y002211D03*
X014558Y002176D03*
X014553Y002201D03*
X014553Y002206D03*
X014548Y002216D03*
X014548Y002221D03*
X014548Y002226D03*
X014543Y002256D03*
X014543Y002261D03*
X014543Y002266D03*
X014543Y002271D03*
X014543Y002276D03*
X014543Y002281D03*
X014543Y002286D03*
X014543Y002291D03*
X014543Y002296D03*
X014543Y002301D03*
X014543Y002306D03*
X014543Y002311D03*
X014543Y002316D03*
X014543Y002321D03*
X014543Y002326D03*
X014543Y002331D03*
X014543Y002336D03*
X014543Y002341D03*
X014543Y002346D03*
X014543Y002351D03*
X014543Y002356D03*
X014543Y002361D03*
X014548Y002376D03*
X014548Y002381D03*
X014548Y002386D03*
X014548Y002391D03*
X014548Y002396D03*
X014548Y002401D03*
X014553Y002411D03*
X014553Y002416D03*
X014558Y002441D03*
X014683Y002706D03*
X014763Y002796D03*
X014763Y002916D03*
X014953Y003001D03*
X014988Y002911D03*
X014988Y002906D03*
X014988Y002901D03*
X014988Y002896D03*
X014988Y002891D03*
X014993Y002881D03*
X014993Y002876D03*
X014993Y002871D03*
X014993Y002866D03*
X014993Y002861D03*
X014993Y002856D03*
X014993Y002851D03*
X014993Y002846D03*
X014993Y002841D03*
X014993Y002836D03*
X014993Y002831D03*
X014988Y002821D03*
X014988Y002816D03*
X014988Y002811D03*
X014988Y002806D03*
X014988Y002801D03*
X014953Y002711D03*
X015153Y002751D03*
X015158Y002761D03*
X015158Y002766D03*
X015158Y002771D03*
X015158Y002776D03*
X015163Y002786D03*
X015163Y002791D03*
X015163Y002796D03*
X015163Y002801D03*
X015163Y002806D03*
X015168Y002816D03*
X015168Y002821D03*
X015168Y002826D03*
X015168Y002831D03*
X015168Y002836D03*
X015168Y002841D03*
X015168Y002846D03*
X015168Y002851D03*
X015168Y002856D03*
X015168Y002861D03*
X015168Y002866D03*
X015168Y002871D03*
X015168Y002876D03*
X015168Y002881D03*
X015168Y002886D03*
X015168Y002891D03*
X015168Y002896D03*
X015163Y002906D03*
X015163Y002911D03*
X015163Y002916D03*
X015163Y002921D03*
X015163Y002926D03*
X015158Y002941D03*
X015158Y002946D03*
X015158Y002951D03*
X015153Y002961D03*
X015333Y002951D03*
X015333Y002946D03*
X015333Y002941D03*
X015333Y002936D03*
X015333Y002931D03*
X015333Y002926D03*
X015333Y002921D03*
X015338Y002906D03*
X015338Y002901D03*
X015338Y002896D03*
X015338Y002891D03*
X015338Y002886D03*
X015338Y002881D03*
X015338Y002876D03*
X015338Y002871D03*
X015338Y002866D03*
X015338Y002861D03*
X015338Y002856D03*
X015338Y002851D03*
X015338Y002846D03*
X015338Y002841D03*
X015338Y002836D03*
X015338Y002831D03*
X015338Y002826D03*
X015338Y002821D03*
X015338Y002816D03*
X015338Y002811D03*
X015338Y002806D03*
X015338Y002801D03*
X015333Y002771D03*
X015333Y002766D03*
X015333Y002761D03*
X015333Y002756D03*
X015078Y002586D03*
X015078Y003126D03*
X015173Y001856D03*
X015178Y001836D03*
X015178Y001831D03*
X015178Y001826D03*
X015183Y001806D03*
X015183Y001801D03*
X015183Y001796D03*
X015183Y001716D03*
X015183Y001711D03*
X015178Y001696D03*
X015178Y001691D03*
X015178Y001686D03*
X015178Y001681D03*
X015178Y001676D03*
X015173Y001661D03*
X015173Y001656D03*
X015003Y001696D03*
X015003Y001701D03*
X015008Y001716D03*
X015008Y001721D03*
X015008Y001726D03*
X015013Y001736D03*
X015013Y001741D03*
X015013Y001746D03*
X015013Y001751D03*
X015013Y001756D03*
X015013Y001761D03*
X015013Y001766D03*
X015013Y001771D03*
X015013Y001776D03*
X015008Y001791D03*
X015008Y001796D03*
X015003Y001811D03*
X015003Y001816D03*
X014783Y001816D03*
X014783Y001696D03*
X015223Y001356D03*
X015353Y001656D03*
X015353Y001851D03*
X015353Y001856D03*
D34*
X015343Y001901D03*
X015343Y001906D03*
X015338Y001916D03*
X015333Y001931D03*
X015333Y001936D03*
X015328Y001951D03*
X015323Y001961D03*
X015318Y001971D03*
X015318Y001976D03*
X015318Y001981D03*
X015313Y001986D03*
X015308Y001996D03*
X015153Y001916D03*
X015153Y001911D03*
X015158Y001901D03*
X015163Y001886D03*
X015148Y001921D03*
X015148Y001926D03*
X015143Y001931D03*
X015143Y001936D03*
X015138Y001941D03*
X015138Y001946D03*
X015133Y001951D03*
X015093Y002021D03*
X014968Y001896D03*
X014978Y001871D03*
X014983Y001861D03*
X014988Y001851D03*
X014993Y001841D03*
X014783Y001811D03*
X014783Y001701D03*
X014968Y001616D03*
X014978Y001641D03*
X014988Y001661D03*
X014993Y001671D03*
X015158Y001616D03*
X015158Y001611D03*
X015153Y001601D03*
X015153Y001596D03*
X015148Y001591D03*
X015148Y001586D03*
X015143Y001581D03*
X015138Y001571D03*
X015133Y001561D03*
X015093Y001491D03*
X015223Y001361D03*
X015318Y001536D03*
X015328Y001561D03*
X015333Y001571D03*
X015333Y001576D03*
X015333Y001581D03*
X015338Y001591D03*
X015338Y001596D03*
X015338Y001601D03*
X015343Y001606D03*
X015343Y001611D03*
X015348Y001626D03*
X015348Y001631D03*
X015358Y001676D03*
X015358Y001681D03*
X015358Y001686D03*
X015358Y001691D03*
X014808Y002046D03*
X014763Y002121D03*
X014758Y002136D03*
X014753Y002146D03*
X014748Y002156D03*
X014748Y002161D03*
X014743Y002166D03*
X014743Y002171D03*
X014738Y002181D03*
X014573Y002126D03*
X014573Y002121D03*
X014578Y002111D03*
X014578Y002106D03*
X014583Y002101D03*
X014583Y002096D03*
X014588Y002086D03*
X014588Y002081D03*
X014593Y002076D03*
X014593Y002071D03*
X014598Y002066D03*
X014613Y002036D03*
X014683Y001921D03*
X014933Y002171D03*
X014913Y002216D03*
X014908Y002226D03*
X015123Y002251D03*
X014908Y002391D03*
X014913Y002401D03*
X014913Y002406D03*
X014918Y002411D03*
X014933Y002446D03*
X014768Y002501D03*
X014758Y002481D03*
X014753Y002471D03*
X014748Y002466D03*
X014748Y002461D03*
X014748Y002456D03*
X014743Y002451D03*
X014743Y002446D03*
X014738Y002436D03*
X014733Y002421D03*
X014808Y002576D03*
X014683Y002701D03*
X014763Y002801D03*
X014763Y002911D03*
X014963Y002966D03*
X014968Y002956D03*
X014973Y002946D03*
X014978Y002936D03*
X015138Y003001D03*
X015138Y003006D03*
X015133Y003016D03*
X015133Y003021D03*
X015128Y003026D03*
X015128Y003031D03*
X015123Y003036D03*
X015118Y003046D03*
X015078Y003121D03*
X015293Y003081D03*
X015298Y003071D03*
X015303Y003056D03*
X015303Y003051D03*
X015308Y003041D03*
X015308Y003036D03*
X015313Y003031D03*
X015313Y003026D03*
X015313Y003021D03*
X015318Y003016D03*
X015318Y003011D03*
X015318Y003006D03*
X015323Y002991D03*
X015328Y002976D03*
X015328Y002971D03*
X015328Y002966D03*
X015328Y002741D03*
X015328Y002736D03*
X015318Y002701D03*
X015313Y002686D03*
X015313Y002681D03*
X015313Y002676D03*
X015308Y002671D03*
X015308Y002666D03*
X015308Y002661D03*
X015303Y002656D03*
X015303Y002651D03*
X015298Y002646D03*
X015298Y002641D03*
X015298Y002636D03*
X015293Y002631D03*
X015293Y002626D03*
X015288Y002616D03*
X015133Y002691D03*
X015133Y002696D03*
X015128Y002686D03*
X015128Y002681D03*
X015123Y002676D03*
X015118Y002666D03*
X015138Y002706D03*
X015143Y002716D03*
X014978Y002776D03*
X014973Y002766D03*
X014968Y002756D03*
X015078Y002591D03*
X014613Y002581D03*
X014598Y002551D03*
X014593Y002546D03*
X014593Y002541D03*
X014588Y002536D03*
X014588Y002531D03*
X014583Y002521D03*
X014583Y002516D03*
X014578Y002511D03*
X014578Y002506D03*
X014573Y002491D03*
X014563Y002461D03*
X015828Y002446D03*
X016048Y002431D03*
X016048Y002426D03*
X016048Y002421D03*
X016048Y002416D03*
X016048Y002411D03*
X016238Y002431D03*
X016393Y002446D03*
X016788Y002151D03*
X017128Y002306D03*
D35*
X017125Y002311D03*
X016990Y002411D03*
X017070Y002571D03*
X017750Y002536D03*
X016685Y002026D03*
X015670Y002561D03*
X015670Y002566D03*
X015670Y002571D03*
X015670Y002576D03*
X015670Y002581D03*
X015290Y002621D03*
X015285Y002611D03*
X015280Y002606D03*
X015280Y002601D03*
X015275Y002596D03*
X015275Y002591D03*
X015270Y002586D03*
X015270Y002581D03*
X015265Y002576D03*
X015200Y002466D03*
X015120Y002361D03*
X014925Y002426D03*
X014920Y002416D03*
X014765Y002496D03*
X014760Y002491D03*
X014760Y002486D03*
X014755Y002476D03*
X014770Y002506D03*
X014775Y002516D03*
X014620Y002596D03*
X014615Y002586D03*
X014610Y002576D03*
X014605Y002571D03*
X014605Y002566D03*
X014600Y002561D03*
X014600Y002556D03*
X014685Y002696D03*
X014950Y002721D03*
X014950Y002726D03*
X014960Y002741D03*
X014965Y002746D03*
X014965Y002751D03*
X015110Y002656D03*
X015110Y002651D03*
X015105Y002646D03*
X015105Y002641D03*
X015100Y002636D03*
X015115Y002661D03*
X015120Y002671D03*
X015075Y002596D03*
X014965Y002961D03*
X014960Y002971D03*
X014950Y002986D03*
X014950Y002991D03*
X015105Y003066D03*
X015105Y003071D03*
X015110Y003061D03*
X015110Y003056D03*
X015115Y003051D03*
X015120Y003041D03*
X015075Y003116D03*
X015270Y003126D03*
X015275Y003116D03*
X015280Y003106D03*
X015285Y003096D03*
X015290Y003091D03*
X015290Y003086D03*
X015295Y003076D03*
X015300Y003066D03*
X015300Y003061D03*
X015200Y003246D03*
X014915Y002211D03*
X014920Y002206D03*
X014920Y002201D03*
X014925Y002191D03*
X014935Y002176D03*
X014775Y002101D03*
X014770Y002111D03*
X014765Y002116D03*
X014760Y002126D03*
X014760Y002131D03*
X014755Y002141D03*
X014750Y002151D03*
X014600Y002061D03*
X014600Y002056D03*
X014605Y002051D03*
X014605Y002046D03*
X014610Y002041D03*
X014615Y002031D03*
X014620Y002026D03*
X014975Y001876D03*
X014980Y001866D03*
X014985Y001856D03*
X015130Y001956D03*
X015125Y001966D03*
X015290Y002026D03*
X015290Y002031D03*
X015295Y002021D03*
X015300Y002016D03*
X015300Y002011D03*
X015305Y002006D03*
X015305Y002001D03*
X015310Y001991D03*
X015320Y001966D03*
X015325Y001956D03*
X015220Y002146D03*
X015515Y002161D03*
X014985Y001656D03*
X014980Y001651D03*
X014980Y001646D03*
X014975Y001636D03*
X014970Y001631D03*
X014970Y001626D03*
X014970Y001621D03*
X015120Y001541D03*
X015125Y001546D03*
X015125Y001551D03*
X015130Y001556D03*
X015135Y001566D03*
X015140Y001576D03*
X015305Y001511D03*
X015305Y001506D03*
X015310Y001516D03*
X015310Y001521D03*
X015315Y001526D03*
X015315Y001531D03*
X015320Y001541D03*
X015320Y001546D03*
X015325Y001551D03*
X015325Y001556D03*
X015330Y001566D03*
X015290Y001481D03*
X015220Y001366D03*
D36*
X015220Y001371D03*
X015260Y001431D03*
X015265Y001441D03*
X015270Y001446D03*
X015275Y001451D03*
X015275Y001456D03*
X015280Y001461D03*
X015110Y001526D03*
X015105Y001521D03*
X015100Y001511D03*
X015095Y001506D03*
X015095Y001501D03*
X014780Y001711D03*
X014785Y001801D03*
X014680Y001931D03*
X014665Y001956D03*
X014660Y001961D03*
X014655Y001971D03*
X014650Y001976D03*
X014645Y001981D03*
X014630Y002006D03*
X014785Y002086D03*
X014790Y002081D03*
X014795Y002076D03*
X014805Y002061D03*
X014805Y002056D03*
X015095Y002011D03*
X015095Y002006D03*
X015100Y002001D03*
X015105Y001991D03*
X015110Y001986D03*
X015115Y001981D03*
X015260Y002076D03*
X015260Y002081D03*
X015255Y002086D03*
X015250Y002091D03*
X015240Y002106D03*
X015220Y002136D03*
X015265Y002071D03*
X015270Y002066D03*
X015275Y002056D03*
X015120Y002261D03*
X015120Y002356D03*
X015200Y002476D03*
X015215Y002501D03*
X015220Y002506D03*
X015230Y002521D03*
X015235Y002526D03*
X015245Y002541D03*
X015250Y002551D03*
X015090Y002621D03*
X015085Y002616D03*
X015080Y002611D03*
X015080Y002606D03*
X014805Y002561D03*
X014795Y002541D03*
X014790Y002536D03*
X014785Y002531D03*
X014655Y002646D03*
X014650Y002641D03*
X014645Y002636D03*
X014635Y002621D03*
X014660Y002656D03*
X014665Y002661D03*
X014680Y002686D03*
X014765Y002901D03*
X015080Y003101D03*
X015080Y003106D03*
X015085Y003096D03*
X015090Y003091D03*
X015245Y003166D03*
X015245Y003171D03*
X015240Y003176D03*
X015250Y003161D03*
X015255Y003151D03*
X015200Y003236D03*
X015825Y002441D03*
X016390Y002441D03*
X016700Y002451D03*
X016995Y002406D03*
X017025Y002156D03*
X017830Y002571D03*
D37*
X017408Y002451D03*
X017113Y002321D03*
X017003Y002401D03*
X016693Y002271D03*
X017403Y002161D03*
X017828Y002156D03*
X015248Y002096D03*
X015243Y002101D03*
X015238Y002111D03*
X015233Y002116D03*
X015228Y002121D03*
X015223Y002131D03*
X015123Y002266D03*
X015203Y002481D03*
X015208Y002491D03*
X015213Y002496D03*
X015223Y002511D03*
X015228Y002516D03*
X014803Y002551D03*
X014803Y002556D03*
X014798Y002546D03*
X014658Y002651D03*
X014668Y002666D03*
X014673Y002671D03*
X014678Y002676D03*
X014678Y002681D03*
X014763Y002811D03*
X014763Y002816D03*
X014763Y002896D03*
X015218Y003206D03*
X015223Y003201D03*
X015228Y003191D03*
X015233Y003186D03*
X015238Y003181D03*
X015203Y003231D03*
X014798Y002071D03*
X014803Y002066D03*
X014658Y001966D03*
X014668Y001951D03*
X014673Y001946D03*
X014678Y001941D03*
X014678Y001936D03*
X014783Y001796D03*
X014783Y001716D03*
X015103Y001516D03*
X015248Y001416D03*
X015253Y001421D03*
X015258Y001426D03*
X015263Y001436D03*
X015243Y001406D03*
X015238Y001401D03*
X015223Y001376D03*
X015103Y001996D03*
D38*
X015225Y002126D03*
X015120Y002346D03*
X015120Y002351D03*
X015205Y002486D03*
X015225Y003196D03*
X015215Y003211D03*
X015210Y003216D03*
X015205Y003221D03*
X015205Y003226D03*
X016805Y002411D03*
X017010Y002396D03*
X017105Y002326D03*
X016775Y002156D03*
X016685Y002206D03*
X015245Y001411D03*
X015235Y001396D03*
X015230Y001391D03*
X015225Y001386D03*
X015225Y001381D03*
D39*
X015095Y001466D03*
X014970Y001591D03*
X014970Y001921D03*
X015095Y002046D03*
X015220Y002171D03*
X015125Y002236D03*
X015200Y002441D03*
X015080Y002566D03*
X014930Y002476D03*
X014805Y002601D03*
X014955Y002691D03*
X014765Y002786D03*
X014765Y002926D03*
X014955Y003021D03*
X015080Y003146D03*
X015200Y003271D03*
X016070Y002581D03*
X016070Y002526D03*
X016070Y002446D03*
X015470Y002456D03*
X015470Y002461D03*
X014805Y002021D03*
X014680Y001896D03*
X016600Y002126D03*
X016605Y002141D03*
X016610Y002146D03*
X016615Y002151D03*
X016685Y002021D03*
X016780Y002061D03*
X016785Y002066D03*
X016795Y002076D03*
X016800Y002081D03*
X016805Y002086D03*
X016805Y002091D03*
X016810Y002096D03*
X016810Y002101D03*
X016810Y002106D03*
X016945Y002196D03*
X016770Y002311D03*
X016775Y002321D03*
X016780Y002386D03*
X016775Y002401D03*
X017065Y002576D03*
X017145Y002531D03*
X017915Y002531D03*
D40*
X017753Y002191D03*
X017118Y002316D03*
X015288Y002036D03*
X015283Y002041D03*
X015283Y002046D03*
X015278Y002051D03*
X015273Y002061D03*
X015218Y002141D03*
X015123Y002256D03*
X014933Y002181D03*
X014928Y002186D03*
X014923Y002196D03*
X014773Y002106D03*
X014778Y002096D03*
X014783Y002091D03*
X014808Y002051D03*
X014683Y001926D03*
X014643Y001986D03*
X014638Y001991D03*
X014638Y001996D03*
X014633Y002001D03*
X014628Y002011D03*
X014623Y002016D03*
X014623Y002021D03*
X014783Y001806D03*
X014783Y001706D03*
X014968Y001886D03*
X014968Y001891D03*
X014973Y001881D03*
X015118Y001976D03*
X015123Y001971D03*
X015128Y001961D03*
X015093Y002016D03*
X014923Y002421D03*
X014928Y002431D03*
X014933Y002436D03*
X014933Y002441D03*
X014783Y002526D03*
X014778Y002521D03*
X014773Y002511D03*
X014808Y002566D03*
X014808Y002571D03*
X014683Y002691D03*
X014643Y002631D03*
X014638Y002626D03*
X014633Y002616D03*
X014628Y002611D03*
X014628Y002606D03*
X014623Y002601D03*
X014618Y002591D03*
X014763Y002806D03*
X014763Y002906D03*
X014953Y002981D03*
X014958Y002976D03*
X015098Y003076D03*
X015098Y003081D03*
X015093Y003086D03*
X015078Y003111D03*
X015198Y003241D03*
X015253Y003156D03*
X015258Y003146D03*
X015263Y003141D03*
X015263Y003136D03*
X015268Y003131D03*
X015273Y003121D03*
X015278Y003111D03*
X015283Y003101D03*
X014958Y002736D03*
X014953Y002731D03*
X015093Y002626D03*
X015098Y002631D03*
X015078Y002601D03*
X015238Y002531D03*
X015243Y002536D03*
X015248Y002546D03*
X015253Y002556D03*
X015258Y002561D03*
X015258Y002566D03*
X015263Y002571D03*
X015198Y002471D03*
X015118Y001536D03*
X015113Y001531D03*
X015093Y001496D03*
X015283Y001471D03*
X015283Y001466D03*
X015288Y001476D03*
X015293Y001486D03*
X015298Y001491D03*
X015298Y001496D03*
X015303Y001501D03*
D41*
X015095Y001471D03*
X014970Y001596D03*
X014970Y001916D03*
X015095Y002041D03*
X015220Y002166D03*
X015120Y002376D03*
X015200Y002446D03*
X015080Y002571D03*
X014955Y002696D03*
X014805Y002596D03*
X014930Y002471D03*
X015465Y002451D03*
X015470Y002221D03*
X015470Y002216D03*
X015875Y002371D03*
X015875Y002376D03*
X015875Y002381D03*
X015870Y002391D03*
X016070Y002531D03*
X016070Y002536D03*
X016070Y002571D03*
X016070Y002576D03*
X016255Y002446D03*
X016440Y002381D03*
X016440Y002376D03*
X016440Y002371D03*
X016610Y002371D03*
X016610Y002366D03*
X016610Y002361D03*
X016610Y002356D03*
X016610Y002351D03*
X016610Y002346D03*
X016610Y002341D03*
X016615Y002331D03*
X016615Y002326D03*
X016615Y002321D03*
X016620Y002316D03*
X016620Y002311D03*
X016625Y002306D03*
X016630Y002301D03*
X016685Y002261D03*
X016750Y002291D03*
X016610Y002376D03*
X016615Y002391D03*
X016620Y002406D03*
X016630Y002421D03*
X016635Y002426D03*
X016960Y002461D03*
X016960Y002466D03*
X016960Y002471D03*
X016960Y002476D03*
X016965Y002496D03*
X016975Y002516D03*
X016980Y002521D03*
X016985Y002526D03*
X017305Y002381D03*
X017305Y002376D03*
X017300Y002366D03*
X017300Y002361D03*
X017295Y002341D03*
X017310Y002386D03*
X017310Y002391D03*
X017315Y002396D03*
X017320Y002406D03*
X017325Y002411D03*
X017330Y002416D03*
X017335Y002421D03*
X017480Y002416D03*
X017485Y002411D03*
X017490Y002406D03*
X017495Y002401D03*
X017495Y002396D03*
X017500Y002391D03*
X017500Y002386D03*
X017505Y002381D03*
X017505Y002376D03*
X017510Y002366D03*
X017510Y002361D03*
X017515Y002341D03*
X017515Y002271D03*
X017510Y002251D03*
X017510Y002246D03*
X017505Y002236D03*
X017505Y002231D03*
X017500Y002226D03*
X017500Y002221D03*
X017495Y002216D03*
X017495Y002211D03*
X017490Y002206D03*
X017485Y002201D03*
X017480Y002196D03*
X017475Y002191D03*
X017330Y002196D03*
X017325Y002201D03*
X017320Y002206D03*
X017315Y002211D03*
X017315Y002216D03*
X017310Y002221D03*
X017305Y002231D03*
X017305Y002236D03*
X017300Y002246D03*
X017300Y002251D03*
X017295Y002271D03*
X017145Y002246D03*
X017145Y002241D03*
X017145Y002236D03*
X017140Y002231D03*
X017140Y002226D03*
X017135Y002216D03*
X017130Y002211D03*
X016810Y002131D03*
X016810Y002126D03*
X016770Y002056D03*
X016605Y002081D03*
X016600Y002086D03*
X016600Y002091D03*
X016600Y002096D03*
X015690Y002596D03*
X014955Y003016D03*
X015080Y003141D03*
X015200Y003266D03*
X014805Y002026D03*
X014680Y001901D03*
X017910Y002191D03*
D42*
X017700Y002226D03*
X017695Y002236D03*
X017690Y002241D03*
X017685Y002246D03*
X017685Y002251D03*
X017680Y002256D03*
X017675Y002266D03*
X017670Y002276D03*
X017670Y002281D03*
X017665Y002291D03*
X017665Y002296D03*
X017660Y002306D03*
X017660Y002311D03*
X017660Y002316D03*
X017660Y002321D03*
X017655Y002331D03*
X017655Y002336D03*
X017655Y002341D03*
X017655Y002346D03*
X017655Y002351D03*
X017655Y002356D03*
X017655Y002361D03*
X017655Y002366D03*
X017655Y002371D03*
X017655Y002376D03*
X017655Y002381D03*
X017655Y002386D03*
X017655Y002391D03*
X017655Y002396D03*
X017660Y002406D03*
X017660Y002411D03*
X017660Y002416D03*
X017660Y002421D03*
X017665Y002431D03*
X017665Y002436D03*
X017670Y002446D03*
X017670Y002451D03*
X017675Y002461D03*
X017680Y002471D03*
X017685Y002481D03*
X017690Y002486D03*
X017690Y002491D03*
X017695Y002496D03*
X017700Y002501D03*
X017705Y002506D03*
X017710Y002511D03*
X017905Y002536D03*
X017475Y002421D03*
X017465Y002426D03*
X017345Y002426D03*
X017145Y002276D03*
X017145Y002271D03*
X017145Y002266D03*
X017115Y002196D03*
X016955Y002191D03*
X016965Y002446D03*
X016640Y002291D03*
X016610Y002071D03*
X016615Y002066D03*
X016620Y002061D03*
X016070Y002541D03*
X016070Y002546D03*
X016070Y002551D03*
X016070Y002556D03*
X016070Y002561D03*
X016070Y002566D03*
X015460Y002446D03*
X015475Y002201D03*
X015220Y002161D03*
X015095Y002036D03*
X014970Y001911D03*
X014805Y002031D03*
X014680Y001906D03*
X014930Y002156D03*
X014930Y002466D03*
X015200Y002451D03*
X014955Y002701D03*
X014765Y002791D03*
X014955Y003011D03*
X015080Y003136D03*
X015200Y003261D03*
X017345Y002186D03*
X017465Y002186D03*
X015095Y001476D03*
X014970Y001601D03*
D43*
X014970Y001606D03*
X015005Y001706D03*
X015005Y001711D03*
X015005Y001801D03*
X015005Y001806D03*
X014970Y001906D03*
X015095Y002031D03*
X015220Y002156D03*
X015120Y002371D03*
X015200Y002456D03*
X014895Y002346D03*
X014890Y002311D03*
X014890Y002306D03*
X014890Y002296D03*
X014895Y002271D03*
X014930Y002161D03*
X014805Y002036D03*
X014680Y001911D03*
X015185Y001791D03*
X015185Y001786D03*
X015185Y001781D03*
X015185Y001776D03*
X015185Y001771D03*
X015185Y001766D03*
X015185Y001761D03*
X015185Y001756D03*
X015185Y001751D03*
X015185Y001746D03*
X015185Y001741D03*
X015185Y001736D03*
X015185Y001731D03*
X015185Y001726D03*
X015185Y001721D03*
X015095Y001481D03*
X014550Y002211D03*
X014550Y002406D03*
X014955Y002706D03*
X014955Y003006D03*
X015200Y003256D03*
X015830Y002451D03*
X016055Y002436D03*
X016395Y002451D03*
X016625Y002056D03*
X017140Y002286D03*
X017000Y002536D03*
X017730Y002526D03*
X017725Y002206D03*
D44*
X017740Y002196D03*
X017130Y002301D03*
X016985Y002416D03*
X016980Y002421D03*
X016670Y002211D03*
X015710Y002406D03*
X015675Y002586D03*
X015320Y002706D03*
X015320Y002711D03*
X015320Y002716D03*
X015325Y002721D03*
X015325Y002726D03*
X015325Y002731D03*
X015330Y002746D03*
X015330Y002751D03*
X015335Y002776D03*
X015335Y002781D03*
X015335Y002786D03*
X015335Y002791D03*
X015335Y002796D03*
X015315Y002696D03*
X015315Y002691D03*
X015150Y002736D03*
X015150Y002741D03*
X015150Y002746D03*
X015155Y002756D03*
X015160Y002781D03*
X015165Y002811D03*
X015145Y002731D03*
X015145Y002726D03*
X015145Y002721D03*
X015140Y002711D03*
X015135Y002701D03*
X014980Y002781D03*
X014980Y002786D03*
X014985Y002791D03*
X014985Y002796D03*
X014975Y002771D03*
X014970Y002761D03*
X014950Y002716D03*
X014990Y002826D03*
X014990Y002886D03*
X014985Y002916D03*
X014985Y002921D03*
X014980Y002926D03*
X014980Y002931D03*
X014975Y002941D03*
X014970Y002951D03*
X014950Y002996D03*
X015135Y003011D03*
X015140Y002996D03*
X015145Y002991D03*
X015145Y002986D03*
X015145Y002981D03*
X015150Y002976D03*
X015150Y002971D03*
X015150Y002966D03*
X015155Y002956D03*
X015160Y002936D03*
X015160Y002931D03*
X015165Y002901D03*
X015335Y002911D03*
X015335Y002916D03*
X015330Y002956D03*
X015330Y002961D03*
X015325Y002981D03*
X015325Y002986D03*
X015320Y002996D03*
X015320Y003001D03*
X015305Y003046D03*
X015200Y003251D03*
X014585Y002526D03*
X014575Y002501D03*
X014575Y002496D03*
X014570Y002486D03*
X014570Y002481D03*
X014570Y002476D03*
X014565Y002471D03*
X014565Y002466D03*
X014560Y002456D03*
X014560Y002451D03*
X014560Y002446D03*
X014555Y002436D03*
X014555Y002431D03*
X014555Y002426D03*
X014555Y002421D03*
X014545Y002371D03*
X014545Y002366D03*
X014545Y002251D03*
X014545Y002246D03*
X014545Y002241D03*
X014545Y002236D03*
X014545Y002231D03*
X014555Y002196D03*
X014555Y002191D03*
X014555Y002186D03*
X014555Y002181D03*
X014560Y002171D03*
X014560Y002166D03*
X014560Y002161D03*
X014565Y002156D03*
X014565Y002151D03*
X014565Y002146D03*
X014570Y002141D03*
X014570Y002136D03*
X014570Y002131D03*
X014575Y002116D03*
X014585Y002091D03*
X014740Y002176D03*
X014735Y002186D03*
X014735Y002191D03*
X014735Y002196D03*
X014730Y002201D03*
X014730Y002206D03*
X014725Y002221D03*
X014725Y002226D03*
X014725Y002231D03*
X014720Y002246D03*
X014720Y002251D03*
X014720Y002256D03*
X014720Y002261D03*
X014720Y002356D03*
X014720Y002361D03*
X014720Y002366D03*
X014720Y002371D03*
X014725Y002386D03*
X014725Y002391D03*
X014725Y002396D03*
X014730Y002411D03*
X014730Y002416D03*
X014735Y002426D03*
X014735Y002431D03*
X014740Y002441D03*
X014900Y002376D03*
X014900Y002371D03*
X014905Y002381D03*
X014905Y002386D03*
X014910Y002396D03*
X014935Y002451D03*
X015120Y002366D03*
X015200Y002461D03*
X014900Y002251D03*
X014900Y002246D03*
X014900Y002241D03*
X014905Y002236D03*
X014905Y002231D03*
X014910Y002221D03*
X014805Y002041D03*
X014680Y001916D03*
X014970Y001901D03*
X014990Y001846D03*
X014995Y001836D03*
X014995Y001831D03*
X015000Y001826D03*
X015000Y001821D03*
X015010Y001786D03*
X015010Y001781D03*
X015010Y001731D03*
X015000Y001691D03*
X015000Y001686D03*
X014995Y001681D03*
X014995Y001676D03*
X014990Y001666D03*
X014970Y001611D03*
X015095Y001486D03*
X015155Y001606D03*
X015160Y001621D03*
X015160Y001626D03*
X015165Y001631D03*
X015165Y001636D03*
X015170Y001641D03*
X015170Y001646D03*
X015170Y001651D03*
X015175Y001666D03*
X015175Y001671D03*
X015180Y001701D03*
X015180Y001706D03*
X015180Y001811D03*
X015180Y001816D03*
X015180Y001821D03*
X015175Y001841D03*
X015175Y001846D03*
X015175Y001851D03*
X015170Y001861D03*
X015170Y001866D03*
X015170Y001871D03*
X015165Y001876D03*
X015165Y001881D03*
X015160Y001891D03*
X015160Y001896D03*
X015155Y001906D03*
X015095Y002026D03*
X015220Y002151D03*
X015330Y001946D03*
X015330Y001941D03*
X015335Y001926D03*
X015335Y001921D03*
X015340Y001911D03*
X015345Y001896D03*
X015345Y001891D03*
X015345Y001886D03*
X015350Y001881D03*
X015350Y001876D03*
X015350Y001871D03*
X015350Y001866D03*
X015350Y001861D03*
X015355Y001846D03*
X015355Y001841D03*
X015355Y001836D03*
X015355Y001831D03*
X015355Y001826D03*
X015355Y001821D03*
X015360Y001816D03*
X015360Y001811D03*
X015360Y001806D03*
X015360Y001801D03*
X015360Y001796D03*
X015360Y001791D03*
X015360Y001786D03*
X015360Y001781D03*
X015360Y001776D03*
X015360Y001771D03*
X015360Y001766D03*
X015360Y001761D03*
X015360Y001756D03*
X015360Y001751D03*
X015360Y001746D03*
X015360Y001741D03*
X015360Y001736D03*
X015360Y001731D03*
X015360Y001726D03*
X015360Y001721D03*
X015360Y001716D03*
X015360Y001711D03*
X015360Y001706D03*
X015360Y001701D03*
X015360Y001696D03*
X015355Y001671D03*
X015355Y001666D03*
X015355Y001661D03*
X015350Y001651D03*
X015350Y001646D03*
X015350Y001641D03*
X015350Y001636D03*
X015345Y001621D03*
X015345Y001616D03*
X015335Y001586D03*
D45*
X014975Y001561D03*
X015095Y002076D03*
X015590Y002196D03*
D46*
X015518Y002166D03*
X015883Y002181D03*
X015823Y002436D03*
X016388Y002436D03*
X016448Y002181D03*
X016803Y002416D03*
X017098Y002331D03*
X015123Y002271D03*
X014783Y001791D03*
X014783Y001786D03*
X014783Y001781D03*
X014783Y001731D03*
X014783Y001726D03*
X014783Y001721D03*
X014763Y002821D03*
X014763Y002826D03*
X014763Y002891D03*
D47*
X014765Y002886D03*
X014765Y002881D03*
X014765Y002831D03*
X015120Y002341D03*
X015120Y002336D03*
X015120Y002331D03*
X015120Y002326D03*
X015120Y002291D03*
X015120Y002286D03*
X015120Y002281D03*
X015120Y002276D03*
X015690Y002181D03*
X015690Y002176D03*
X015690Y002171D03*
X015690Y002166D03*
X015690Y002161D03*
X015690Y002156D03*
X015880Y002156D03*
X015880Y002161D03*
X015880Y002166D03*
X015880Y002171D03*
X015880Y002176D03*
X016255Y002176D03*
X016255Y002171D03*
X016255Y002166D03*
X016255Y002161D03*
X016255Y002156D03*
X016255Y002181D03*
X016445Y002176D03*
X016445Y002171D03*
X016445Y002166D03*
X016445Y002161D03*
X016445Y002156D03*
X016685Y002031D03*
X016800Y002421D03*
X017015Y002391D03*
X014780Y001776D03*
X014780Y001741D03*
X014780Y001736D03*
D48*
X014783Y001746D03*
X014783Y001766D03*
X014783Y001771D03*
X015518Y002171D03*
X015518Y002176D03*
X016068Y002181D03*
X016693Y002276D03*
X016703Y002446D03*
X016798Y002426D03*
X017023Y002386D03*
X017093Y002336D03*
X017408Y002446D03*
X017073Y002566D03*
X017403Y002166D03*
X014763Y002836D03*
X014763Y002841D03*
X014763Y002846D03*
X014763Y002871D03*
X014763Y002876D03*
D49*
X014765Y002866D03*
X014765Y002861D03*
X015120Y002321D03*
X015120Y002316D03*
X015120Y002301D03*
X015120Y002296D03*
X015515Y002186D03*
X015515Y002181D03*
X015820Y002431D03*
X016070Y002176D03*
X016070Y002171D03*
X016070Y002166D03*
X016070Y002161D03*
X016070Y002156D03*
X016385Y002431D03*
X016695Y002201D03*
X017030Y002381D03*
X017085Y002341D03*
X014785Y001761D03*
X014780Y001751D03*
D50*
X014783Y001756D03*
X015513Y002191D03*
X015123Y002306D03*
X015123Y002311D03*
X014763Y002851D03*
X014763Y002856D03*
X016693Y002281D03*
X016793Y002431D03*
X017038Y002376D03*
X017073Y002351D03*
X017078Y002346D03*
X016758Y002161D03*
D51*
X015220Y002196D03*
X015200Y002416D03*
X015080Y002541D03*
X014805Y002626D03*
X014925Y002116D03*
X014680Y001871D03*
X015080Y003171D03*
X015200Y003296D03*
D52*
X015200Y003291D03*
X015080Y003166D03*
X014805Y002621D03*
X015080Y002546D03*
X015200Y002421D03*
X015220Y002191D03*
X014925Y002121D03*
X014975Y001946D03*
X014680Y001876D03*
X016070Y002511D03*
X016070Y002596D03*
D53*
X016085Y002456D03*
X015485Y002516D03*
X015485Y002521D03*
X015200Y002426D03*
X015120Y002386D03*
X015080Y002551D03*
X014805Y002616D03*
X015220Y002186D03*
X014925Y002126D03*
X014975Y001941D03*
X014680Y001881D03*
X016650Y002241D03*
X016655Y002251D03*
X017155Y002456D03*
X015200Y003286D03*
X015080Y003161D03*
D54*
X015080Y003156D03*
X015200Y003281D03*
X014765Y002781D03*
X014805Y002611D03*
X015080Y002556D03*
X015200Y002431D03*
X015220Y002181D03*
X014925Y002131D03*
X014975Y001936D03*
X014680Y001886D03*
X015480Y002496D03*
X015480Y002501D03*
X015705Y002606D03*
X016070Y002591D03*
X016070Y002516D03*
X016270Y002456D03*
X016645Y002231D03*
X016935Y002251D03*
X016935Y002256D03*
X016935Y002261D03*
X016935Y002266D03*
X016935Y002271D03*
X016935Y002276D03*
X017155Y002461D03*
X017155Y002466D03*
X017155Y002471D03*
X017155Y002476D03*
X017155Y002481D03*
X017155Y002486D03*
X017925Y002486D03*
X017925Y002481D03*
X017925Y002476D03*
X017925Y002491D03*
X017925Y002496D03*
X017925Y002501D03*
X017925Y002251D03*
X017925Y002246D03*
X017925Y002241D03*
X017925Y002236D03*
X017925Y002231D03*
D55*
X017920Y002201D03*
X017920Y002526D03*
X017150Y002521D03*
X016700Y002461D03*
X016645Y002221D03*
X016940Y002206D03*
X016940Y002201D03*
X016070Y002521D03*
X016070Y002586D03*
X015475Y002481D03*
X015475Y002476D03*
X015200Y002436D03*
X015120Y002381D03*
X015080Y002561D03*
X014930Y002481D03*
X014805Y002606D03*
X014955Y002686D03*
X014955Y003026D03*
X015080Y003151D03*
X015200Y003276D03*
X015220Y002176D03*
X014680Y001891D03*
D56*
X014803Y001991D03*
X014973Y001951D03*
X014958Y002661D03*
X014683Y002751D03*
X014958Y003051D03*
D57*
X016703Y002196D03*
X016688Y002036D03*
X017408Y002441D03*
X017833Y002566D03*
X017833Y002161D03*
D58*
X017405Y002176D03*
X017405Y002436D03*
X016710Y002191D03*
X016690Y002041D03*
D59*
X016690Y002046D03*
X016725Y002176D03*
X017075Y002551D03*
D60*
X017068Y002541D03*
X017023Y002176D03*
X016693Y002051D03*
D61*
X017020Y002161D03*
X017065Y002356D03*
X017060Y002361D03*
X017050Y002366D03*
X017045Y002371D03*
X017405Y002171D03*
D62*
X017030Y002186D03*
X016720Y002166D03*
X017830Y002176D03*
D63*
X017018Y002166D03*
X015498Y002436D03*
D64*
X015493Y002431D03*
X015493Y002426D03*
X015493Y002421D03*
X015493Y002416D03*
X015493Y002411D03*
X016718Y002181D03*
X017833Y002166D03*
D65*
X017073Y002546D03*
X017018Y002171D03*
X016728Y002171D03*
D66*
X017835Y002171D03*
X017835Y002556D03*
D67*
X017833Y002551D03*
X017028Y002181D03*
D68*
X016715Y002186D03*
X017075Y002556D03*
X017405Y002431D03*
X017405Y002181D03*
X017835Y002561D03*
D69*
X017828Y002546D03*
X017828Y002181D03*
X015778Y002426D03*
D70*
X015783Y002411D03*
X017823Y002541D03*
X017823Y002186D03*
D71*
X016693Y002286D03*
X015503Y002441D03*
D72*
X016328Y002411D03*
D73*
X015780Y002416D03*
X015780Y002421D03*
D74*
X016325Y002421D03*
X016325Y002416D03*
D75*
X016323Y002426D03*
D76*
X016743Y002436D03*
D77*
X016745Y002441D03*
D78*
X017075Y002561D03*
D79*
X015078Y003176D03*
M02*
