G75*
%MOIN*%
%OFA0B0*%
%FSLAX24Y24*%
%IPPOS*%
%LPD*%
%AMOC8*
5,1,8,0,0,1.08239X$1,22.5*
%
%ADD10R,0.0472X0.0394*%
%ADD11R,0.0551X0.0157*%
%ADD12R,0.0748X0.0787*%
%ADD13R,0.0748X0.0866*%
%ADD14R,0.0520X0.0220*%
%ADD15R,0.0315X0.0157*%
%ADD16R,0.0472X0.0217*%
%ADD17R,0.0394X0.0433*%
%ADD18R,0.0433X0.0394*%
%ADD19C,0.0118*%
%ADD20R,0.0120X0.0490*%
D10*
X002990Y004106D03*
X003856Y004106D03*
D11*
X002345Y004695D03*
X002345Y004951D03*
X002345Y005206D03*
X002345Y005462D03*
X002345Y005718D03*
D12*
X001223Y005699D03*
X001223Y004714D03*
D13*
X001223Y003632D03*
X001223Y006781D03*
D14*
X003653Y006706D03*
X003653Y007076D03*
X004593Y007076D03*
X004593Y006336D03*
X003653Y006336D03*
D15*
X003808Y005562D03*
X003808Y005306D03*
X003808Y005051D03*
X004438Y005051D03*
X004438Y005306D03*
X004438Y005562D03*
D16*
X006211Y006332D03*
X006211Y006706D03*
X006211Y007081D03*
X007235Y007081D03*
X007235Y006332D03*
D17*
X005423Y006372D03*
X005423Y007041D03*
X013223Y007472D03*
X013223Y008141D03*
X016223Y007641D03*
X016223Y006972D03*
D18*
X016357Y005806D03*
X015688Y005806D03*
X009157Y006106D03*
X008488Y006106D03*
X007857Y005706D03*
X007188Y005706D03*
X008488Y006906D03*
X009157Y006906D03*
X004857Y008106D03*
X004188Y008106D03*
X003057Y008306D03*
X002388Y008306D03*
X002388Y009106D03*
X003057Y009106D03*
X003057Y002506D03*
X002388Y002506D03*
X002388Y001706D03*
X003057Y001706D03*
D19*
X001315Y001844D02*
X001315Y001568D01*
X001039Y001568D01*
X001039Y001844D01*
X001315Y001844D01*
X001315Y001685D02*
X001039Y001685D01*
X001039Y001802D02*
X001315Y001802D01*
X002006Y001844D02*
X002006Y001568D01*
X001730Y001568D01*
X001730Y001844D01*
X002006Y001844D01*
X002006Y001685D02*
X001730Y001685D01*
X001730Y001802D02*
X002006Y001802D01*
X002006Y002368D02*
X002006Y002644D01*
X002006Y002368D02*
X001730Y002368D01*
X001730Y002644D01*
X002006Y002644D01*
X002006Y002485D02*
X001730Y002485D01*
X001730Y002602D02*
X002006Y002602D01*
X001315Y002644D02*
X001315Y002368D01*
X001039Y002368D01*
X001039Y002644D01*
X001315Y002644D01*
X001315Y002485D02*
X001039Y002485D01*
X001039Y002602D02*
X001315Y002602D01*
X001315Y008168D02*
X001315Y008444D01*
X001315Y008168D02*
X001039Y008168D01*
X001039Y008444D01*
X001315Y008444D01*
X001315Y008285D02*
X001039Y008285D01*
X001039Y008402D02*
X001315Y008402D01*
X002006Y008444D02*
X002006Y008168D01*
X001730Y008168D01*
X001730Y008444D01*
X002006Y008444D01*
X002006Y008285D02*
X001730Y008285D01*
X001730Y008402D02*
X002006Y008402D01*
X002006Y008968D02*
X002006Y009244D01*
X002006Y008968D02*
X001730Y008968D01*
X001730Y009244D01*
X002006Y009244D01*
X002006Y009085D02*
X001730Y009085D01*
X001730Y009202D02*
X002006Y009202D01*
X001315Y009244D02*
X001315Y008968D01*
X001039Y008968D01*
X001039Y009244D01*
X001315Y009244D01*
X001315Y009085D02*
X001039Y009085D01*
X001039Y009202D02*
X001315Y009202D01*
D20*
X009959Y006761D03*
X010215Y006761D03*
X010471Y006761D03*
X010727Y006761D03*
X010982Y006761D03*
X011238Y006761D03*
X011494Y006761D03*
X011750Y006761D03*
X012006Y006761D03*
X012262Y006761D03*
X012518Y006761D03*
X012774Y006761D03*
X013030Y006761D03*
X013286Y006761D03*
X013287Y004052D03*
X013031Y004052D03*
X012775Y004052D03*
X012519Y004052D03*
X012263Y004052D03*
X012007Y004052D03*
X011751Y004052D03*
X011495Y004052D03*
X011239Y004052D03*
X010983Y004052D03*
X010727Y004052D03*
X010472Y004052D03*
X010216Y004052D03*
X009960Y004052D03*
M02*
