G75*
%MOIN*%
%OFA0B0*%
%FSLAX24Y24*%
%IPPOS*%
%LPD*%
%AMOC8*
5,1,8,0,0,1.08239X$1,22.5*
%
%ADD10R,0.0335X0.0354*%
%ADD11R,0.0390X0.0118*%
%ADD12R,0.0394X0.0984*%
%ADD13R,0.0472X0.0276*%
D10*
X001922Y002050D03*
X002378Y002050D03*
X002378Y002550D03*
X001922Y002550D03*
X003222Y002950D03*
X003678Y002950D03*
X003678Y003450D03*
X003222Y003450D03*
X003222Y003950D03*
X003678Y003950D03*
X005022Y003950D03*
X005478Y003950D03*
X005478Y003450D03*
X005022Y003450D03*
X005422Y004950D03*
X005878Y004950D03*
X005878Y005650D03*
X005422Y005650D03*
X005178Y006250D03*
X004722Y006250D03*
X003778Y006750D03*
X003322Y006750D03*
X003322Y007250D03*
X003778Y007250D03*
X003878Y007750D03*
X003422Y007750D03*
X003322Y008250D03*
X003778Y008250D03*
X004722Y007250D03*
X005178Y007250D03*
X002378Y006250D03*
X001922Y006250D03*
X001922Y005750D03*
X002378Y005750D03*
X001678Y008050D03*
X001222Y008050D03*
X001222Y008650D03*
X001678Y008650D03*
X001678Y009250D03*
X001222Y009250D03*
D11*
X003431Y005606D03*
X003431Y005350D03*
X003431Y005094D03*
X004065Y005094D03*
X004065Y005350D03*
X004065Y005606D03*
D12*
X007351Y008729D03*
X008151Y008729D03*
X008938Y008729D03*
X009726Y008729D03*
X010513Y008729D03*
X011300Y008729D03*
X012088Y008729D03*
X012875Y008729D03*
X012875Y002168D03*
X012088Y002168D03*
X011300Y002168D03*
X010513Y002168D03*
X009726Y002168D03*
X008938Y002168D03*
X008132Y002151D03*
X007332Y002151D03*
D13*
X002541Y003274D03*
X002541Y003826D03*
X001359Y003826D03*
X001359Y003274D03*
M02*
