%
M48
M72
T01C0.0140
T02C0.0400
%
T01
X3350Y2050
X3850Y2350
X4250Y2050
X4550Y1550
X4850Y2650
X5850Y2950
X6050Y3450
X4550Y3750
X4250Y3450
X4350Y4250
X3950Y4550
X4550Y5650
X5850Y6250
X5750Y7250
X5850Y8250
X4850Y8550
X3850Y8750
X2850Y8950
X2750Y8250
X2950Y6250
X2950Y5750
X950Y2850
X7850Y5650
X8550Y5350
X9750Y4550
X9350Y4250
X8950Y2950
X8150Y2950
X9750Y2950
X10513Y2950
X11300Y2950
X11750Y4350
X10550Y6550
X11650Y7350
X10550Y7850
X8150Y7350
T02
X850Y950
X1850Y950
X2850Y950
X3850Y950
X4850Y950
X5850Y950
X6850Y950
X7850Y950
X8850Y950
X9850Y950
X10850Y950
X11850Y950
X11850Y9950
X10850Y9950
X9850Y9950
X8850Y9950
X7850Y9950
X6850Y9950
X5850Y9950
X4850Y9950
X3850Y9950
X2850Y9950
X1850Y9950
X850Y9950
M30
