G75*
%MOIN*%
%OFA0B0*%
%FSLAX24Y24*%
%IPPOS*%
%LPD*%
%AMOC8*
5,1,8,0,0,1.08239X$1,22.5*
%
%ADD10C,0.0000*%
%ADD11C,0.0060*%
%ADD12R,0.0160X0.0280*%
%ADD13C,0.0010*%
%ADD14R,0.0005X0.0025*%
%ADD15R,0.0005X0.0035*%
%ADD16R,0.0005X0.0045*%
%ADD17R,0.0005X0.0055*%
%ADD18R,0.0005X0.0065*%
%ADD19R,0.0005X0.0075*%
%ADD20R,0.0005X0.0085*%
%ADD21R,0.0005X0.0095*%
%ADD22R,0.0005X0.0105*%
%ADD23R,0.0005X0.0115*%
%ADD24R,0.0005X0.0120*%
%ADD25R,0.0005X0.0130*%
%ADD26R,0.0005X0.0135*%
%ADD27R,0.0005X0.0140*%
%ADD28R,0.0005X0.0070*%
%ADD29R,0.0005X0.0125*%
%ADD30R,0.0005X0.0080*%
%ADD31R,0.0005X0.0090*%
%ADD32R,0.0005X0.0100*%
%ADD33R,0.0005X0.0110*%
%ADD34R,0.0005X0.0010*%
%ADD35R,0.0005X0.0145*%
%ADD36R,0.0005X0.0150*%
%ADD37R,0.0005X0.0155*%
%ADD38R,0.0005X0.0160*%
%ADD39R,0.0005X0.0165*%
%ADD40R,0.0005X0.0020*%
%ADD41R,0.0005X0.0030*%
%ADD42R,0.0005X0.0040*%
%ADD43R,0.0005X0.0050*%
%ADD44R,0.0005X0.0060*%
%ADD45R,0.0005X0.0015*%
%ADD46R,0.0005X0.0175*%
%ADD47R,0.0005X0.0190*%
%ADD48R,0.0005X0.0210*%
%ADD49R,0.0005X0.0225*%
%ADD50R,0.0005X0.0170*%
%ADD51R,0.0005X0.0240*%
%ADD52R,0.0005X0.0195*%
%ADD53R,0.0005X0.0205*%
%ADD54R,0.0005X0.0215*%
%ADD55R,0.0005X0.0230*%
%ADD56R,0.0005X0.0235*%
%ADD57R,0.0005X0.0200*%
%ADD58R,0.0005X0.0245*%
%ADD59R,0.0005X0.0255*%
%ADD60R,0.0005X0.0185*%
%ADD61R,0.0005X0.0295*%
%ADD62R,0.0005X0.0250*%
%ADD63R,0.0005X0.0290*%
%ADD64R,0.0005X0.0285*%
%ADD65R,0.0005X0.0265*%
%ADD66R,0.0005X0.0260*%
%ADD67R,0.0005X0.0180*%
%ADD68R,0.0005X0.0005*%
%ADD69C,0.0160*%
%ADD70C,0.0080*%
%ADD71C,0.0050*%
%ADD72C,0.0030*%
%ADD73C,0.0040*%
D10*
X000250Y000250D02*
X000250Y010650D01*
X015350Y010650D01*
X015350Y000250D01*
X000250Y000250D01*
D11*
X000480Y002937D02*
X000820Y002937D01*
X000707Y003050D01*
X000820Y003164D01*
X000480Y003164D01*
X000480Y003305D02*
X000480Y003532D01*
X000820Y003532D01*
X000820Y003305D01*
X000650Y003418D02*
X000650Y003532D01*
X000650Y003673D02*
X000650Y003900D01*
X000593Y004042D02*
X000650Y004098D01*
X000650Y004269D01*
X000537Y004269D01*
X000480Y004212D01*
X000480Y004098D01*
X000537Y004042D01*
X000593Y004042D01*
X000764Y004155D02*
X000650Y004269D01*
X000593Y004410D02*
X000650Y004467D01*
X000650Y004637D01*
X000537Y004637D01*
X000480Y004580D01*
X000480Y004467D01*
X000537Y004410D01*
X000593Y004410D01*
X000764Y004523D02*
X000650Y004637D01*
X000707Y004778D02*
X000764Y004778D01*
X000820Y004835D01*
X000820Y004948D01*
X000764Y005005D01*
X000707Y004778D02*
X000480Y005005D01*
X000480Y004778D01*
X000764Y004523D02*
X000820Y004410D01*
X000764Y004155D02*
X000820Y004042D01*
X000764Y005147D02*
X000707Y005147D01*
X000650Y005203D01*
X000650Y005317D01*
X000707Y005373D01*
X000764Y005373D01*
X000820Y005317D01*
X000820Y005203D01*
X000764Y005147D01*
X000650Y005203D02*
X000593Y005147D01*
X000537Y005147D01*
X000480Y005203D01*
X000480Y005317D01*
X000537Y005373D01*
X000593Y005373D01*
X000650Y005317D01*
X000650Y005515D02*
X000593Y005572D01*
X000593Y005742D01*
X000480Y005742D02*
X000820Y005742D01*
X000820Y005572D01*
X000764Y005515D01*
X000650Y005515D01*
X000593Y005883D02*
X000537Y005883D01*
X000480Y005940D01*
X000480Y006053D01*
X000537Y006110D01*
X000650Y006053D02*
X000650Y005940D01*
X000593Y005883D01*
X000764Y005883D02*
X000820Y005940D01*
X000820Y006053D01*
X000764Y006110D01*
X000707Y006110D01*
X000650Y006053D01*
X000480Y006252D02*
X000480Y006478D01*
X000820Y006478D01*
X000820Y006252D01*
X000650Y006365D02*
X000650Y006478D01*
X000650Y006620D02*
X000650Y006847D01*
X000537Y006988D02*
X000480Y007045D01*
X000480Y007158D01*
X000537Y007215D01*
X000764Y007215D01*
X000820Y007158D01*
X000820Y007045D01*
X000764Y006988D01*
X000764Y007357D02*
X000537Y007357D01*
X000480Y007413D01*
X000480Y007527D01*
X000537Y007583D01*
X000764Y007583D01*
X000820Y007527D01*
X000820Y007413D01*
X000764Y007357D01*
X000764Y007725D02*
X000820Y007782D01*
X000820Y007895D01*
X000764Y007952D01*
X000707Y007952D01*
X000650Y007895D01*
X000650Y007782D01*
X000593Y007725D01*
X000537Y007725D01*
X000480Y007782D01*
X000480Y007895D01*
X000537Y007952D01*
X000820Y008093D02*
X000820Y008320D01*
X000820Y008207D02*
X000480Y008207D01*
X012580Y009580D02*
X012580Y009807D01*
X012693Y009920D01*
X012807Y009807D01*
X012807Y009580D01*
X012948Y009637D02*
X013005Y009580D01*
X013175Y009580D01*
X013175Y009523D02*
X013175Y009807D01*
X013005Y009807D01*
X012948Y009750D01*
X012948Y009637D01*
X012807Y009750D02*
X012580Y009750D01*
X013062Y009467D02*
X013118Y009467D01*
X013175Y009523D01*
X013317Y009637D02*
X013317Y009750D01*
X013373Y009807D01*
X013487Y009807D01*
X013543Y009750D01*
X013543Y009693D01*
X013317Y009693D01*
X013317Y009637D02*
X013373Y009580D01*
X013487Y009580D01*
X013685Y009580D02*
X013685Y009807D01*
X013855Y009807D01*
X013912Y009750D01*
X013912Y009580D01*
X014110Y009637D02*
X014167Y009580D01*
X014110Y009637D02*
X014110Y009864D01*
X014053Y009807D02*
X014167Y009807D01*
X014299Y009750D02*
X014356Y009693D01*
X014469Y009693D01*
X014526Y009637D01*
X014469Y009580D01*
X014299Y009580D01*
X014299Y009750D02*
X014356Y009807D01*
X014526Y009807D01*
X014483Y010180D02*
X014483Y010407D01*
X014653Y010407D01*
X014710Y010350D01*
X014710Y010180D01*
X014346Y010407D02*
X014289Y010407D01*
X014176Y010293D01*
X014176Y010180D02*
X014176Y010407D01*
X014035Y010350D02*
X014035Y010293D01*
X013808Y010293D01*
X013808Y010237D02*
X013808Y010350D01*
X013864Y010407D01*
X013978Y010407D01*
X014035Y010350D01*
X013978Y010180D02*
X013864Y010180D01*
X013808Y010237D01*
X013676Y010180D02*
X013619Y010237D01*
X013619Y010464D01*
X013562Y010407D02*
X013676Y010407D01*
X013430Y010407D02*
X013317Y010407D01*
X013373Y010464D02*
X013373Y010237D01*
X013430Y010180D01*
X013175Y010180D02*
X013175Y010350D01*
X013118Y010407D01*
X013005Y010407D01*
X013005Y010293D02*
X013175Y010293D01*
X013175Y010180D02*
X013005Y010180D01*
X012948Y010237D01*
X013005Y010293D01*
X012807Y010350D02*
X012807Y010464D01*
X012750Y010520D01*
X012580Y010520D01*
X012580Y010180D01*
X012580Y010293D02*
X012750Y010293D01*
X012807Y010350D01*
X012750Y001420D02*
X012580Y001420D01*
X012580Y001080D01*
X012580Y001193D02*
X012750Y001193D01*
X012807Y001250D01*
X012807Y001364D01*
X012750Y001420D01*
X013005Y001307D02*
X013118Y001307D01*
X013175Y001250D01*
X013175Y001080D01*
X013005Y001080D01*
X012948Y001137D01*
X013005Y001193D01*
X013175Y001193D01*
X013317Y001307D02*
X013430Y001307D01*
X013373Y001364D02*
X013373Y001137D01*
X013430Y001080D01*
X013619Y001137D02*
X013676Y001080D01*
X013619Y001137D02*
X013619Y001364D01*
X013562Y001307D02*
X013676Y001307D01*
X013808Y001250D02*
X013808Y001137D01*
X013864Y001080D01*
X013978Y001080D01*
X014035Y001193D02*
X013808Y001193D01*
X013808Y001250D02*
X013864Y001307D01*
X013978Y001307D01*
X014035Y001250D01*
X014035Y001193D01*
X014176Y001193D02*
X014289Y001307D01*
X014346Y001307D01*
X014483Y001307D02*
X014653Y001307D01*
X014710Y001250D01*
X014710Y001080D01*
X014483Y001080D02*
X014483Y001307D01*
X014176Y001307D02*
X014176Y001080D01*
X014110Y000764D02*
X014110Y000537D01*
X014167Y000480D01*
X014299Y000480D02*
X014469Y000480D01*
X014526Y000537D01*
X014469Y000593D01*
X014356Y000593D01*
X014299Y000650D01*
X014356Y000707D01*
X014526Y000707D01*
X014167Y000707D02*
X014053Y000707D01*
X013912Y000650D02*
X013912Y000480D01*
X013912Y000650D02*
X013855Y000707D01*
X013685Y000707D01*
X013685Y000480D01*
X013543Y000593D02*
X013317Y000593D01*
X013317Y000537D02*
X013317Y000650D01*
X013373Y000707D01*
X013487Y000707D01*
X013543Y000650D01*
X013543Y000593D01*
X013487Y000480D02*
X013373Y000480D01*
X013317Y000537D01*
X013175Y000480D02*
X013005Y000480D01*
X012948Y000537D01*
X012948Y000650D01*
X013005Y000707D01*
X013175Y000707D01*
X013175Y000423D01*
X013118Y000367D01*
X013062Y000367D01*
X012807Y000480D02*
X012807Y000707D01*
X012693Y000820D01*
X012580Y000707D01*
X012580Y000480D01*
X012580Y000650D02*
X012807Y000650D01*
D12*
X005650Y004950D03*
X005650Y005650D03*
X004950Y006250D03*
X004950Y007250D03*
X003650Y007750D03*
X003550Y008250D03*
X003550Y007250D03*
X003550Y006750D03*
X002150Y006250D03*
X002150Y005750D03*
X003450Y003950D03*
X003450Y003450D03*
X003450Y002950D03*
X002150Y002550D03*
X002150Y002050D03*
X005250Y003450D03*
X005250Y003950D03*
X001450Y008050D03*
D13*
X001475Y008330D02*
X001425Y008330D01*
X001400Y008355D01*
X001400Y008405D02*
X001450Y008430D01*
X001475Y008430D01*
X001500Y008405D01*
X001500Y008355D01*
X001475Y008330D01*
X001400Y008405D02*
X001400Y008480D01*
X001500Y008480D01*
X001302Y008480D02*
X001302Y008330D01*
X001252Y008330D02*
X001352Y008330D01*
X001252Y008430D02*
X001302Y008480D01*
X001205Y008455D02*
X001205Y008405D01*
X001180Y008380D01*
X001105Y008380D01*
X001105Y008330D02*
X001105Y008480D01*
X001180Y008480D01*
X001205Y008455D01*
X001155Y008380D02*
X001205Y008330D01*
X001235Y008820D02*
X001285Y008820D01*
X001310Y008845D01*
X001358Y008820D02*
X001458Y008920D01*
X001458Y008945D01*
X001433Y008970D01*
X001383Y008970D01*
X001358Y008945D01*
X001310Y008945D02*
X001285Y008970D01*
X001235Y008970D01*
X001210Y008945D01*
X001210Y008845D01*
X001235Y008820D01*
X001358Y008820D02*
X001458Y008820D01*
X001458Y009420D02*
X001358Y009420D01*
X001408Y009420D02*
X001408Y009570D01*
X001358Y009520D01*
X001310Y009545D02*
X001285Y009570D01*
X001235Y009570D01*
X001210Y009545D01*
X001210Y009445D01*
X001235Y009420D01*
X001285Y009420D01*
X001310Y009445D01*
X004110Y008570D02*
X004110Y008420D01*
X004110Y008470D02*
X004185Y008470D01*
X004210Y008495D01*
X004210Y008545D01*
X004185Y008570D01*
X004110Y008570D01*
X004160Y008470D02*
X004210Y008420D01*
X004258Y008495D02*
X004358Y008495D01*
X004333Y008420D02*
X004333Y008570D01*
X004258Y008495D01*
X004238Y008070D02*
X004163Y008070D01*
X004163Y007920D01*
X004163Y007970D02*
X004238Y007970D01*
X004263Y007995D01*
X004263Y008045D01*
X004238Y008070D01*
X004310Y008020D02*
X004360Y008070D01*
X004360Y007920D01*
X004310Y007920D02*
X004410Y007920D01*
X004458Y007920D02*
X004558Y008020D01*
X004558Y008045D01*
X004533Y008070D01*
X004483Y008070D01*
X004458Y008045D01*
X004458Y007920D02*
X004558Y007920D01*
X004263Y007920D02*
X004213Y007970D01*
X004185Y007570D02*
X004110Y007570D01*
X004110Y007420D01*
X004110Y007470D02*
X004185Y007470D01*
X004210Y007495D01*
X004210Y007545D01*
X004185Y007570D01*
X004258Y007545D02*
X004258Y007520D01*
X004283Y007495D01*
X004333Y007495D01*
X004358Y007470D01*
X004358Y007445D01*
X004333Y007420D01*
X004283Y007420D01*
X004258Y007445D01*
X004258Y007470D01*
X004283Y007495D01*
X004333Y007495D02*
X004358Y007520D01*
X004358Y007545D01*
X004333Y007570D01*
X004283Y007570D01*
X004258Y007545D01*
X004160Y007470D02*
X004210Y007420D01*
X004260Y006970D02*
X004260Y006820D01*
X004210Y006820D02*
X004310Y006820D01*
X004358Y006845D02*
X004383Y006820D01*
X004433Y006820D01*
X004458Y006845D01*
X004458Y006870D01*
X004433Y006895D01*
X004408Y006895D01*
X004433Y006895D02*
X004458Y006920D01*
X004458Y006945D01*
X004433Y006970D01*
X004383Y006970D01*
X004358Y006945D01*
X004260Y006970D02*
X004210Y006920D01*
X004163Y006895D02*
X004138Y006870D01*
X004063Y006870D01*
X004063Y006820D02*
X004063Y006970D01*
X004138Y006970D01*
X004163Y006945D01*
X004163Y006895D01*
X004113Y006870D02*
X004163Y006820D01*
X002958Y006420D02*
X002858Y006420D01*
X002810Y006420D02*
X002760Y006470D01*
X002785Y006470D02*
X002710Y006470D01*
X002710Y006420D02*
X002710Y006570D01*
X002785Y006570D01*
X002810Y006545D01*
X002810Y006495D01*
X002785Y006470D01*
X002858Y006520D02*
X002908Y006570D01*
X002908Y006420D01*
X002958Y005970D02*
X002858Y005970D01*
X002858Y005895D01*
X002908Y005920D01*
X002933Y005920D01*
X002958Y005895D01*
X002958Y005845D01*
X002933Y005820D01*
X002883Y005820D01*
X002858Y005845D01*
X002810Y005820D02*
X002760Y005870D01*
X002785Y005870D02*
X002710Y005870D01*
X002710Y005820D02*
X002710Y005970D01*
X002785Y005970D01*
X002810Y005945D01*
X002810Y005895D01*
X002785Y005870D01*
X003963Y004170D02*
X004038Y004170D01*
X004063Y004145D01*
X004063Y004095D01*
X004038Y004070D01*
X003963Y004070D01*
X003963Y004020D02*
X003963Y004170D01*
X004013Y004070D02*
X004063Y004020D01*
X004110Y004020D02*
X004210Y004020D01*
X004160Y004020D02*
X004160Y004170D01*
X004110Y004120D01*
X004258Y004120D02*
X004258Y004145D01*
X004283Y004170D01*
X004333Y004170D01*
X004358Y004145D01*
X004358Y004120D01*
X004333Y004095D01*
X004283Y004095D01*
X004258Y004120D01*
X004283Y004095D02*
X004258Y004070D01*
X004258Y004045D01*
X004283Y004020D01*
X004333Y004020D01*
X004358Y004045D01*
X004358Y004070D01*
X004333Y004095D01*
X004258Y003770D02*
X004208Y003745D01*
X004158Y003695D01*
X004233Y003695D01*
X004258Y003670D01*
X004258Y003645D01*
X004233Y003620D01*
X004183Y003620D01*
X004158Y003645D01*
X004158Y003695D01*
X004110Y003620D02*
X004010Y003620D01*
X003963Y003620D02*
X003913Y003670D01*
X003938Y003670D02*
X003863Y003670D01*
X003863Y003620D02*
X003863Y003770D01*
X003938Y003770D01*
X003963Y003745D01*
X003963Y003695D01*
X003938Y003670D01*
X004010Y003720D02*
X004060Y003770D01*
X004060Y003620D01*
X004060Y003170D02*
X004060Y003020D01*
X004010Y003020D02*
X004110Y003020D01*
X004158Y003020D02*
X004158Y003045D01*
X004258Y003145D01*
X004258Y003170D01*
X004158Y003170D01*
X004060Y003170D02*
X004010Y003120D01*
X003963Y003095D02*
X003938Y003070D01*
X003863Y003070D01*
X003863Y003020D02*
X003863Y003170D01*
X003938Y003170D01*
X003963Y003145D01*
X003963Y003095D01*
X003913Y003070D02*
X003963Y003020D01*
X002958Y002845D02*
X002958Y002820D01*
X002933Y002795D01*
X002958Y002770D01*
X002958Y002745D01*
X002933Y002720D01*
X002883Y002720D01*
X002858Y002745D01*
X002810Y002720D02*
X002760Y002770D01*
X002785Y002770D02*
X002710Y002770D01*
X002710Y002720D02*
X002710Y002870D01*
X002785Y002870D01*
X002810Y002845D01*
X002810Y002795D01*
X002785Y002770D01*
X002858Y002845D02*
X002883Y002870D01*
X002933Y002870D01*
X002958Y002845D01*
X002933Y002795D02*
X002908Y002795D01*
X002933Y002370D02*
X002883Y002370D01*
X002858Y002345D01*
X002810Y002345D02*
X002810Y002295D01*
X002785Y002270D01*
X002710Y002270D01*
X002710Y002220D02*
X002710Y002370D01*
X002785Y002370D01*
X002810Y002345D01*
X002760Y002270D02*
X002810Y002220D01*
X002858Y002220D02*
X002958Y002320D01*
X002958Y002345D01*
X002933Y002370D01*
X002958Y002220D02*
X002858Y002220D01*
X001155Y002666D02*
X001155Y002766D01*
X001155Y002813D02*
X001155Y002913D01*
X001155Y002960D02*
X001005Y002960D01*
X001005Y003035D01*
X001030Y003060D01*
X001130Y003060D01*
X001155Y003035D01*
X001155Y002960D01*
X001080Y002863D02*
X001080Y002813D01*
X001005Y002813D02*
X001155Y002813D01*
X001155Y002666D02*
X001005Y002666D01*
X001005Y002813D02*
X001005Y002913D01*
X001055Y003108D02*
X001005Y003158D01*
X001155Y003158D01*
X001155Y003108D02*
X001155Y003208D01*
X005563Y006420D02*
X005563Y006570D01*
X005638Y006570D01*
X005663Y006545D01*
X005663Y006495D01*
X005638Y006470D01*
X005563Y006470D01*
X005613Y006470D02*
X005663Y006420D01*
X005710Y006420D02*
X005810Y006420D01*
X005760Y006420D02*
X005760Y006570D01*
X005710Y006520D01*
X005858Y006495D02*
X005958Y006495D01*
X005933Y006420D02*
X005933Y006570D01*
X005858Y006495D01*
X006263Y005970D02*
X006338Y005970D01*
X006363Y005945D01*
X006363Y005895D01*
X006338Y005870D01*
X006263Y005870D01*
X006263Y005820D02*
X006263Y005970D01*
X006313Y005870D02*
X006363Y005820D01*
X006410Y005820D02*
X006510Y005820D01*
X006460Y005820D02*
X006460Y005970D01*
X006410Y005920D01*
X006558Y005945D02*
X006558Y005845D01*
X006658Y005945D01*
X006658Y005845D01*
X006633Y005820D01*
X006583Y005820D01*
X006558Y005845D01*
X006558Y005945D02*
X006583Y005970D01*
X006633Y005970D01*
X006658Y005945D01*
X006433Y005170D02*
X006383Y005170D01*
X006358Y005145D01*
X006358Y005120D01*
X006383Y005095D01*
X006458Y005095D01*
X006458Y005045D02*
X006458Y005145D01*
X006433Y005170D01*
X006310Y005145D02*
X006310Y005095D01*
X006285Y005070D01*
X006210Y005070D01*
X006210Y005020D02*
X006210Y005170D01*
X006285Y005170D01*
X006310Y005145D01*
X006260Y005070D02*
X006310Y005020D01*
X006358Y005045D02*
X006383Y005020D01*
X006433Y005020D01*
X006458Y005045D01*
X006058Y004170D02*
X005958Y004170D01*
X005910Y004145D02*
X005910Y004095D01*
X005885Y004070D01*
X005810Y004070D01*
X005810Y004020D02*
X005810Y004170D01*
X005885Y004170D01*
X005910Y004145D01*
X005860Y004070D02*
X005910Y004020D01*
X005958Y004020D02*
X005958Y004045D01*
X006058Y004145D01*
X006058Y004170D01*
X006058Y003770D02*
X006008Y003745D01*
X005958Y003695D01*
X006033Y003695D01*
X006058Y003670D01*
X006058Y003645D01*
X006033Y003620D01*
X005983Y003620D01*
X005958Y003645D01*
X005958Y003695D01*
X005910Y003695D02*
X005885Y003670D01*
X005810Y003670D01*
X005810Y003620D02*
X005810Y003770D01*
X005885Y003770D01*
X005910Y003745D01*
X005910Y003695D01*
X005860Y003670D02*
X005910Y003620D01*
X005858Y007420D02*
X005758Y007420D01*
X005710Y007420D02*
X005610Y007420D01*
X005563Y007420D02*
X005513Y007470D01*
X005538Y007470D02*
X005463Y007470D01*
X005463Y007420D02*
X005463Y007570D01*
X005538Y007570D01*
X005563Y007545D01*
X005563Y007495D01*
X005538Y007470D01*
X005610Y007520D02*
X005660Y007570D01*
X005660Y007420D01*
X005758Y007520D02*
X005808Y007570D01*
X005808Y007420D01*
D14*
X013260Y006650D03*
X013385Y006775D03*
X013510Y006900D03*
X013940Y007070D03*
X014015Y006775D03*
X014445Y006945D03*
X014610Y006915D03*
X014690Y007190D03*
X014990Y006915D03*
D15*
X014985Y006915D03*
X014615Y006915D03*
X014440Y006945D03*
X014685Y007190D03*
X013945Y007070D03*
X014010Y006775D03*
X013515Y006900D03*
X013390Y006775D03*
X013265Y006650D03*
X014555Y006160D03*
X014405Y005595D03*
X014200Y005215D03*
D16*
X014190Y005220D03*
X014180Y005225D03*
X014405Y005475D03*
X014405Y006040D03*
X014450Y006390D03*
X014455Y006390D03*
X014175Y006750D03*
X014005Y006775D03*
X013950Y007070D03*
X013775Y007090D03*
X013625Y007090D03*
X013520Y006900D03*
X013395Y006775D03*
X013270Y006650D03*
X014435Y006945D03*
X014620Y006915D03*
X014680Y007190D03*
X014875Y007110D03*
X014980Y006915D03*
X014415Y003945D03*
X014410Y003945D03*
X014405Y003945D03*
X014400Y003945D03*
X014220Y003945D03*
X014215Y003945D03*
X014210Y003945D03*
X014205Y003945D03*
X014200Y003945D03*
D17*
X014170Y003950D03*
X014165Y003950D03*
X014160Y003950D03*
X014155Y003950D03*
X014150Y003950D03*
X014450Y003950D03*
X014455Y003950D03*
X014460Y003950D03*
X014465Y003950D03*
X014460Y004720D03*
X014455Y004720D03*
X014450Y004720D03*
X014445Y004720D03*
X014440Y004720D03*
X014435Y004720D03*
X014190Y004935D03*
X014185Y004935D03*
X014180Y004935D03*
X014175Y004935D03*
X014170Y004935D03*
X014165Y004935D03*
X014160Y004935D03*
X014155Y004935D03*
X014170Y005225D03*
X014395Y005795D03*
X014430Y006395D03*
X014435Y006395D03*
X014095Y006370D03*
X014000Y006775D03*
X013875Y006900D03*
X013955Y007070D03*
X014080Y006945D03*
X014430Y006945D03*
X014625Y006915D03*
X014675Y007190D03*
X014975Y006915D03*
X013525Y006900D03*
X013400Y006775D03*
X013275Y006650D03*
D18*
X013280Y006650D03*
X013405Y006775D03*
X013530Y006900D03*
X013630Y007090D03*
X013770Y007090D03*
X013960Y007070D03*
X014085Y006945D03*
X013995Y006775D03*
X013870Y006900D03*
X014410Y006400D03*
X014415Y006400D03*
X014545Y006175D03*
X014395Y005610D03*
X014100Y005255D03*
X014105Y005250D03*
X014015Y005080D03*
X014470Y004725D03*
X014095Y004470D03*
X014405Y004465D03*
X014140Y003955D03*
X014670Y007190D03*
D19*
X014665Y007190D03*
X014090Y006945D03*
X014170Y006405D03*
X014175Y006405D03*
X014180Y006405D03*
X014185Y006405D03*
X014190Y006405D03*
X014195Y006405D03*
X014200Y006405D03*
X014205Y006405D03*
X014210Y006405D03*
X014215Y006405D03*
X014220Y006405D03*
X014225Y006405D03*
X014230Y006405D03*
X014235Y006405D03*
X014240Y006405D03*
X014245Y006405D03*
X014250Y006405D03*
X014255Y006405D03*
X014260Y006405D03*
X014265Y006405D03*
X014270Y006405D03*
X014275Y006405D03*
X014280Y006405D03*
X014285Y006405D03*
X014290Y006405D03*
X014295Y006405D03*
X014300Y006405D03*
X014305Y006405D03*
X014310Y006405D03*
X014315Y006405D03*
X014320Y006405D03*
X014325Y006405D03*
X014330Y006405D03*
X014335Y006405D03*
X014340Y006405D03*
X014345Y006405D03*
X014350Y006405D03*
X014340Y006180D03*
X014335Y006180D03*
X014330Y006180D03*
X014325Y006180D03*
X014320Y006180D03*
X014315Y006180D03*
X014310Y006180D03*
X014305Y006180D03*
X014300Y006180D03*
X014295Y006180D03*
X014290Y006180D03*
X014285Y006180D03*
X014280Y006180D03*
X014275Y006180D03*
X014270Y006180D03*
X014265Y006180D03*
X014260Y006180D03*
X014255Y006180D03*
X014250Y006180D03*
X014245Y006180D03*
X014240Y006180D03*
X014235Y006180D03*
X014230Y006180D03*
X014225Y006180D03*
X014220Y006180D03*
X014215Y006180D03*
X014210Y006180D03*
X014205Y006180D03*
X014200Y006180D03*
X014195Y006180D03*
X014190Y006180D03*
X014185Y006180D03*
X014180Y006180D03*
X014175Y006180D03*
X014170Y006180D03*
X014165Y006180D03*
X014160Y006180D03*
X014155Y006180D03*
X014150Y006180D03*
X014145Y006180D03*
X014140Y006180D03*
X014135Y006180D03*
X014135Y005995D03*
X014140Y005995D03*
X014145Y005995D03*
X014150Y005995D03*
X014155Y005995D03*
X014160Y005995D03*
X014165Y005995D03*
X014170Y005995D03*
X014175Y005995D03*
X014180Y005995D03*
X014185Y005995D03*
X014190Y005995D03*
X014195Y005995D03*
X014200Y005995D03*
X014205Y005995D03*
X014210Y005995D03*
X014215Y005995D03*
X014220Y005995D03*
X014225Y005995D03*
X014230Y005995D03*
X014235Y005995D03*
X014240Y005995D03*
X014245Y005995D03*
X014250Y005995D03*
X014255Y005995D03*
X014260Y005995D03*
X014265Y005995D03*
X014270Y005995D03*
X014275Y005995D03*
X014280Y005995D03*
X014285Y005995D03*
X014290Y005995D03*
X014295Y005995D03*
X014300Y005995D03*
X014305Y005995D03*
X014310Y005995D03*
X014400Y006040D03*
X014400Y006180D03*
X014405Y006180D03*
X014410Y006180D03*
X014415Y006180D03*
X014420Y006180D03*
X014425Y006180D03*
X014430Y006180D03*
X014435Y006180D03*
X014440Y006180D03*
X014445Y006180D03*
X014450Y006180D03*
X014455Y006180D03*
X014460Y006180D03*
X014465Y006180D03*
X014470Y006180D03*
X014475Y006180D03*
X014480Y006180D03*
X014485Y006180D03*
X014490Y006180D03*
X014495Y006180D03*
X014500Y006180D03*
X014395Y006180D03*
X014390Y006180D03*
X014385Y006180D03*
X014380Y006180D03*
X014375Y006180D03*
X014350Y005805D03*
X014345Y005805D03*
X014340Y005805D03*
X014335Y005805D03*
X014330Y005805D03*
X014325Y005805D03*
X014320Y005805D03*
X014315Y005805D03*
X014310Y005805D03*
X014305Y005805D03*
X014300Y005805D03*
X014295Y005805D03*
X014290Y005805D03*
X014285Y005805D03*
X014280Y005805D03*
X014275Y005805D03*
X014270Y005805D03*
X014265Y005805D03*
X014260Y005805D03*
X014255Y005805D03*
X014250Y005805D03*
X014245Y005805D03*
X014240Y005805D03*
X014235Y005805D03*
X014230Y005805D03*
X014225Y005805D03*
X014220Y005805D03*
X014215Y005805D03*
X014210Y005805D03*
X014205Y005805D03*
X014200Y005805D03*
X014195Y005805D03*
X014190Y005805D03*
X014185Y005805D03*
X014180Y005805D03*
X014175Y005805D03*
X014170Y005805D03*
X014165Y005805D03*
X014160Y005805D03*
X014155Y005805D03*
X014150Y005805D03*
X014145Y005805D03*
X014140Y005805D03*
X014135Y005805D03*
X014135Y005615D03*
X014140Y005615D03*
X014145Y005615D03*
X014150Y005615D03*
X014155Y005615D03*
X014160Y005615D03*
X014165Y005615D03*
X014170Y005615D03*
X014175Y005615D03*
X014180Y005615D03*
X014185Y005615D03*
X014190Y005615D03*
X014195Y005615D03*
X014200Y005615D03*
X014205Y005615D03*
X014210Y005615D03*
X014215Y005615D03*
X014220Y005615D03*
X014225Y005615D03*
X014230Y005615D03*
X014235Y005615D03*
X014240Y005615D03*
X014245Y005615D03*
X014250Y005615D03*
X014255Y005615D03*
X014260Y005615D03*
X014265Y005615D03*
X014270Y005615D03*
X014275Y005615D03*
X014280Y005615D03*
X014285Y005615D03*
X014290Y005615D03*
X014295Y005615D03*
X014300Y005615D03*
X014305Y005615D03*
X014310Y005615D03*
X014315Y005615D03*
X014320Y005615D03*
X014325Y005615D03*
X014330Y005615D03*
X014335Y005615D03*
X014340Y005615D03*
X014400Y005475D03*
X014310Y005430D03*
X014305Y005430D03*
X014300Y005430D03*
X014295Y005430D03*
X014290Y005430D03*
X014285Y005430D03*
X014280Y005430D03*
X014275Y005430D03*
X014270Y005430D03*
X014265Y005430D03*
X014260Y005430D03*
X014255Y005430D03*
X014250Y005430D03*
X014245Y005430D03*
X014240Y005430D03*
X014235Y005430D03*
X014230Y005430D03*
X014225Y005430D03*
X014220Y005430D03*
X014215Y005430D03*
X014210Y005430D03*
X014205Y005430D03*
X014200Y005430D03*
X014195Y005430D03*
X014190Y005430D03*
X014185Y005430D03*
X014180Y005430D03*
X014175Y005430D03*
X014170Y005430D03*
X014165Y005430D03*
X014160Y005430D03*
X014155Y005430D03*
X014150Y005430D03*
X014145Y005430D03*
X014140Y005430D03*
X014135Y005430D03*
X014080Y005270D03*
X014075Y005270D03*
X014065Y005275D03*
X014060Y005275D03*
X014055Y005275D03*
X014050Y005275D03*
X014045Y005275D03*
X014160Y005220D03*
X014240Y005115D03*
X014245Y005110D03*
X014250Y005105D03*
X014260Y005100D03*
X014270Y005095D03*
X014275Y005095D03*
X014280Y005095D03*
X014285Y005090D03*
X014290Y005090D03*
X014295Y005090D03*
X014300Y005090D03*
X014305Y005090D03*
X014310Y005090D03*
X014315Y005090D03*
X014320Y005090D03*
X014325Y005090D03*
X014335Y005095D03*
X014340Y005095D03*
X014350Y005100D03*
X014425Y004910D03*
X014430Y004910D03*
X014435Y004910D03*
X014445Y004905D03*
X014450Y004905D03*
X014455Y004900D03*
X014165Y004735D03*
X014095Y004845D03*
X014065Y005060D03*
X014060Y005060D03*
X014055Y005060D03*
X014325Y005260D03*
X014330Y005260D03*
X014340Y005255D03*
X014345Y005255D03*
X014355Y005250D03*
X014360Y005245D03*
X014345Y004555D03*
X014520Y004045D03*
X014095Y004045D03*
X013285Y006650D03*
D20*
X013290Y006650D03*
X013635Y007090D03*
X013765Y007090D03*
X014095Y006945D03*
X014185Y006750D03*
X014520Y006795D03*
X014535Y007065D03*
X014660Y007190D03*
X014865Y007110D03*
X014155Y006400D03*
X014150Y006400D03*
X014130Y006180D03*
X014130Y005995D03*
X014330Y006000D03*
X014340Y006005D03*
X014345Y006175D03*
X014385Y005810D03*
X014130Y005805D03*
X014130Y005615D03*
X014345Y005610D03*
X014340Y005440D03*
X014335Y005435D03*
X014330Y005435D03*
X014280Y005260D03*
X014240Y005240D03*
X014375Y005230D03*
X014130Y005430D03*
X014020Y005265D03*
X014080Y005065D03*
X014395Y004910D03*
X014400Y004910D03*
X014475Y004880D03*
X014480Y004735D03*
X014280Y004580D03*
X014275Y004580D03*
X014270Y004580D03*
X014265Y004580D03*
X014260Y004580D03*
X014255Y004580D03*
X014250Y004580D03*
X014245Y004580D03*
X014240Y004580D03*
X014235Y004580D03*
X014230Y004580D03*
X014225Y004580D03*
X014220Y004580D03*
X014210Y004575D03*
X014205Y004575D03*
X014200Y004575D03*
X014185Y004570D03*
X014170Y004565D03*
X014135Y004540D03*
X014290Y004575D03*
X014295Y004575D03*
X014300Y004575D03*
X014315Y004570D03*
X014315Y004365D03*
X014300Y004360D03*
X014295Y004360D03*
X014290Y004360D03*
X014280Y004355D03*
X014275Y004355D03*
X014270Y004355D03*
X014265Y004355D03*
X014260Y004355D03*
X014255Y004355D03*
X014250Y004355D03*
X014245Y004355D03*
X014240Y004355D03*
X014235Y004355D03*
X014230Y004355D03*
X014225Y004355D03*
X014220Y004355D03*
X014210Y004360D03*
X014205Y004360D03*
X014200Y004360D03*
X014185Y004365D03*
X014230Y004205D03*
X014215Y004200D03*
X014205Y004195D03*
X014245Y004210D03*
X014270Y004215D03*
X014345Y004215D03*
X014370Y004210D03*
X014385Y004205D03*
X014400Y004200D03*
X014410Y004195D03*
X014420Y004190D03*
X014205Y004725D03*
X014200Y004725D03*
X014195Y004725D03*
X014150Y004745D03*
X014145Y004750D03*
D21*
X014225Y004730D03*
X014375Y004900D03*
X014380Y004905D03*
X014385Y004905D03*
X014085Y005070D03*
X014345Y005445D03*
X014385Y005625D03*
X014345Y006010D03*
X014535Y006190D03*
X014100Y006365D03*
X014525Y006795D03*
X014405Y006940D03*
X014530Y007065D03*
X014655Y007190D03*
X015075Y006795D03*
X013295Y006650D03*
X014175Y004175D03*
X014165Y004165D03*
X014160Y004160D03*
X014155Y004155D03*
X014460Y004155D03*
X014465Y004150D03*
D22*
X014475Y004135D03*
X014145Y004140D03*
X014400Y004465D03*
X014100Y004470D03*
X014235Y004735D03*
X014240Y004740D03*
X014135Y004770D03*
X014370Y004895D03*
X014090Y005075D03*
X014210Y005180D03*
X014400Y005175D03*
X014350Y005450D03*
X014350Y005600D03*
X014380Y005630D03*
X014350Y006015D03*
X014140Y006390D03*
X013800Y006520D03*
X013795Y006520D03*
X013780Y006695D03*
X013775Y006695D03*
X013770Y006695D03*
X013750Y006690D03*
X013745Y006690D03*
X013740Y006690D03*
X013800Y006700D03*
X013660Y006690D03*
X013655Y006690D03*
X013640Y006695D03*
X013635Y006695D03*
X013630Y006695D03*
X013625Y006695D03*
X013620Y006695D03*
X013605Y006700D03*
X013600Y006700D03*
X013660Y006865D03*
X013665Y006865D03*
X013670Y006865D03*
X013680Y006860D03*
X013685Y006860D03*
X013690Y006860D03*
X013695Y006860D03*
X013700Y006860D03*
X013705Y006860D03*
X013710Y006860D03*
X013715Y006860D03*
X013720Y006860D03*
X013735Y006865D03*
X013740Y006865D03*
X013755Y006870D03*
X013760Y006870D03*
X013645Y006870D03*
X013640Y006870D03*
X013640Y007090D03*
X013760Y007090D03*
X014110Y006940D03*
X014200Y006975D03*
X014205Y006975D03*
X014210Y006975D03*
X014220Y006980D03*
X014225Y006980D03*
X014230Y006980D03*
X014235Y006980D03*
X014245Y006985D03*
X014260Y006985D03*
X014265Y006985D03*
X014270Y006980D03*
X014275Y006980D03*
X014280Y006980D03*
X014285Y006980D03*
X014295Y006975D03*
X014300Y006975D03*
X014305Y006975D03*
X014310Y006975D03*
X014400Y006940D03*
X014525Y007065D03*
X014650Y007190D03*
X014740Y007110D03*
X014860Y007110D03*
X014945Y006920D03*
X014855Y006885D03*
X014850Y006885D03*
X014845Y006885D03*
X014840Y006885D03*
X014835Y006885D03*
X014825Y006880D03*
X014820Y006880D03*
X014815Y006880D03*
X014810Y006880D03*
X014805Y006880D03*
X014800Y006880D03*
X014795Y006880D03*
X014790Y006880D03*
X014785Y006880D03*
X014780Y006880D03*
X014775Y006880D03*
X014765Y006885D03*
X014760Y006885D03*
X014755Y006885D03*
X014750Y006885D03*
X014745Y006885D03*
X014655Y006920D03*
X014530Y006795D03*
X014695Y006720D03*
X014705Y006715D03*
X014710Y006715D03*
X014715Y006715D03*
X014720Y006715D03*
X014730Y006710D03*
X014735Y006710D03*
X014740Y006710D03*
X014745Y006710D03*
X014750Y006710D03*
X014760Y006705D03*
X014765Y006705D03*
X014770Y006705D03*
X014775Y006705D03*
X014780Y006705D03*
X014785Y006705D03*
X014790Y006705D03*
X014795Y006705D03*
X014800Y006705D03*
X014805Y006705D03*
X014810Y006705D03*
X014815Y006705D03*
X014820Y006705D03*
X014825Y006705D03*
X014830Y006705D03*
X014835Y006705D03*
X014840Y006705D03*
X014850Y006710D03*
X014855Y006710D03*
X014860Y006710D03*
X014865Y006710D03*
X014870Y006710D03*
X014885Y006715D03*
X014890Y006715D03*
X014895Y006715D03*
X014905Y006720D03*
X014895Y006540D03*
X014890Y006540D03*
X014885Y006540D03*
X014880Y006540D03*
X014875Y006540D03*
X014870Y006540D03*
X014865Y006540D03*
X014850Y006535D03*
X014845Y006535D03*
X014840Y006535D03*
X014835Y006535D03*
X014830Y006535D03*
X014825Y006535D03*
X014820Y006535D03*
X014815Y006535D03*
X014810Y006535D03*
X014805Y006535D03*
X014800Y006535D03*
X014795Y006535D03*
X014790Y006535D03*
X014785Y006535D03*
X014780Y006535D03*
X014775Y006535D03*
X014770Y006535D03*
X014765Y006535D03*
X014760Y006535D03*
X014755Y006535D03*
X014750Y006535D03*
X014745Y006535D03*
X014715Y006540D03*
X014710Y006540D03*
X014705Y006540D03*
X014700Y006540D03*
X015070Y006795D03*
X014350Y007145D03*
X014345Y007145D03*
X014325Y007150D03*
X014320Y007150D03*
X014295Y007155D03*
X014290Y007155D03*
X014285Y007155D03*
X014280Y007155D03*
X014275Y007155D03*
X014270Y007155D03*
X014265Y007155D03*
X014260Y007155D03*
X014255Y007155D03*
X014250Y007155D03*
X014245Y007155D03*
X014240Y007155D03*
X014235Y007155D03*
X014230Y007155D03*
X014225Y007155D03*
X014220Y007155D03*
X014215Y007155D03*
X014210Y007155D03*
X014185Y007150D03*
X014180Y007150D03*
X014160Y007145D03*
X014155Y007145D03*
X014120Y007315D03*
X014145Y007320D03*
X014150Y007320D03*
X014160Y007325D03*
X014165Y007325D03*
X014170Y007325D03*
X014200Y007330D03*
X014205Y007330D03*
X014210Y007330D03*
X014215Y007330D03*
X014220Y007330D03*
X014225Y007330D03*
X014230Y007330D03*
X014235Y007330D03*
X014240Y007330D03*
X014245Y007330D03*
X014250Y007330D03*
X014255Y007330D03*
X014260Y007330D03*
X014265Y007330D03*
X014270Y007330D03*
X014275Y007330D03*
X014280Y007330D03*
X014285Y007330D03*
X014290Y007330D03*
X014295Y007330D03*
X014300Y007330D03*
X014305Y007330D03*
X014320Y007325D03*
X014325Y007325D03*
X014330Y007325D03*
X014335Y007325D03*
X014340Y007325D03*
X014345Y007325D03*
X014355Y007320D03*
X014360Y007320D03*
X014385Y007315D03*
X014190Y006750D03*
X013600Y006520D03*
X013300Y006650D03*
D23*
X013305Y006650D03*
X013435Y006780D03*
X013505Y006740D03*
X013515Y006735D03*
X013525Y006730D03*
X013530Y006725D03*
X013535Y006725D03*
X013540Y006720D03*
X013545Y006720D03*
X013555Y006715D03*
X013560Y006715D03*
X013525Y006540D03*
X013520Y006540D03*
X013515Y006540D03*
X013505Y006545D03*
X013480Y006555D03*
X013535Y006535D03*
X013540Y006535D03*
X013545Y006535D03*
X013550Y006530D03*
X013555Y006530D03*
X013570Y006525D03*
X013575Y006525D03*
X013620Y006515D03*
X013625Y006515D03*
X013630Y006515D03*
X013635Y006515D03*
X013845Y006530D03*
X013850Y006530D03*
X013860Y006535D03*
X013875Y006540D03*
X013880Y006540D03*
X013895Y006545D03*
X013905Y006550D03*
X013915Y006555D03*
X013920Y006555D03*
X013925Y006555D03*
X013930Y006560D03*
X013940Y006565D03*
X013860Y006720D03*
X013855Y006720D03*
X013865Y006725D03*
X013870Y006725D03*
X013875Y006730D03*
X013880Y006730D03*
X013885Y006735D03*
X013890Y006735D03*
X013895Y006740D03*
X013845Y006715D03*
X013830Y006710D03*
X013965Y006780D03*
X013840Y006905D03*
X013815Y006895D03*
X013805Y006890D03*
X013795Y006885D03*
X013785Y006880D03*
X013990Y007065D03*
X014065Y007110D03*
X014080Y007115D03*
X014090Y007120D03*
X014100Y007125D03*
X014105Y007125D03*
X014110Y007130D03*
X014115Y007130D03*
X014125Y007135D03*
X014070Y007300D03*
X014065Y007300D03*
X014055Y007295D03*
X014050Y007295D03*
X014045Y007290D03*
X014040Y007290D03*
X014030Y007285D03*
X014025Y007285D03*
X014020Y007280D03*
X014015Y007280D03*
X014010Y007275D03*
X013980Y007260D03*
X013865Y007190D03*
X013755Y007090D03*
X013645Y007090D03*
X013560Y006905D03*
X013585Y006895D03*
X013605Y006885D03*
X013615Y006880D03*
X014115Y006940D03*
X014160Y006960D03*
X014170Y006965D03*
X014335Y006965D03*
X014345Y006960D03*
X014350Y006960D03*
X014355Y006955D03*
X014390Y006940D03*
X014520Y007065D03*
X014445Y007105D03*
X014425Y007115D03*
X014415Y007120D03*
X014410Y007125D03*
X014405Y007125D03*
X014400Y007125D03*
X014395Y007130D03*
X014390Y007130D03*
X014380Y007135D03*
X014365Y007140D03*
X014435Y007300D03*
X014450Y007295D03*
X014455Y007295D03*
X014460Y007290D03*
X014465Y007290D03*
X014475Y007285D03*
X014480Y007285D03*
X014485Y007280D03*
X014490Y007280D03*
X014495Y007275D03*
X014525Y007260D03*
X014405Y007310D03*
X014645Y007190D03*
X014745Y007110D03*
X014855Y007110D03*
X014910Y006910D03*
X014900Y006905D03*
X014890Y006900D03*
X014880Y006895D03*
X014720Y006895D03*
X014710Y006900D03*
X014700Y006905D03*
X014535Y006795D03*
X014610Y006755D03*
X014620Y006750D03*
X014625Y006745D03*
X014630Y006745D03*
X014635Y006740D03*
X014640Y006740D03*
X014650Y006735D03*
X014660Y006730D03*
X014590Y006575D03*
X014585Y006575D03*
X014580Y006575D03*
X014575Y006580D03*
X014570Y006580D03*
X014560Y006585D03*
X014595Y006570D03*
X014600Y006570D03*
X014605Y006565D03*
X014610Y006565D03*
X014615Y006565D03*
X014620Y006560D03*
X014625Y006560D03*
X014630Y006560D03*
X014645Y006555D03*
X014680Y006545D03*
X014685Y006545D03*
X014910Y006545D03*
X014915Y006545D03*
X014920Y006545D03*
X014935Y006550D03*
X014950Y006555D03*
X014955Y006555D03*
X014960Y006555D03*
X014965Y006560D03*
X014970Y006560D03*
X014975Y006560D03*
X014980Y006565D03*
X014985Y006565D03*
X014995Y006570D03*
X015000Y006570D03*
X015015Y006575D03*
X015025Y006580D03*
X014965Y006740D03*
X014960Y006740D03*
X014970Y006745D03*
X014975Y006745D03*
X014980Y006750D03*
X014990Y006755D03*
X014950Y006735D03*
X014945Y006735D03*
X015065Y006795D03*
X014195Y006750D03*
X014390Y006045D03*
X014375Y005825D03*
X014370Y005825D03*
X014365Y005825D03*
X014360Y005825D03*
X014355Y005825D03*
X014375Y005635D03*
X014390Y005480D03*
X014095Y005085D03*
X014250Y004745D03*
D24*
X014255Y004748D03*
X014355Y004883D03*
X014515Y004803D03*
X013970Y005188D03*
X014505Y006203D03*
X014510Y006203D03*
X014515Y006203D03*
X014520Y006203D03*
X014525Y006203D03*
X014105Y006358D03*
X013960Y006573D03*
X013955Y006573D03*
X013950Y006568D03*
X013945Y006568D03*
X013935Y006563D03*
X013910Y006553D03*
X013900Y006548D03*
X013965Y006578D03*
X013970Y006583D03*
X013975Y006583D03*
X014090Y006653D03*
X014305Y006753D03*
X014410Y006673D03*
X014520Y006608D03*
X014525Y006603D03*
X014530Y006603D03*
X014535Y006598D03*
X014540Y006598D03*
X014545Y006593D03*
X014550Y006593D03*
X014555Y006588D03*
X014565Y006583D03*
X014615Y006753D03*
X014605Y006758D03*
X014600Y006763D03*
X014595Y006763D03*
X014590Y006768D03*
X014585Y006768D03*
X014580Y006773D03*
X014540Y006798D03*
X014665Y006923D03*
X014670Y006923D03*
X014685Y006913D03*
X014690Y006908D03*
X014695Y006908D03*
X014905Y006908D03*
X014915Y006913D03*
X014930Y006923D03*
X014935Y006923D03*
X015010Y006768D03*
X015015Y006768D03*
X015005Y006763D03*
X015000Y006763D03*
X014995Y006758D03*
X014985Y006753D03*
X015060Y006798D03*
X015190Y006673D03*
X015070Y006603D03*
X015060Y006598D03*
X015050Y006593D03*
X015040Y006588D03*
X015035Y006583D03*
X015030Y006583D03*
X015020Y006578D03*
X015010Y006573D03*
X015005Y006573D03*
X014370Y006948D03*
X014360Y006953D03*
X014155Y006958D03*
X014150Y006953D03*
X014145Y006953D03*
X014135Y006948D03*
X014120Y006938D03*
X014045Y007098D03*
X014055Y007103D03*
X014060Y007108D03*
X014070Y007113D03*
X014075Y007113D03*
X014085Y007118D03*
X014095Y007123D03*
X014005Y007273D03*
X014000Y007273D03*
X013995Y007268D03*
X013990Y007268D03*
X013985Y007263D03*
X013975Y007258D03*
X013970Y007253D03*
X013820Y006898D03*
X013810Y006893D03*
X013800Y006888D03*
X013900Y006743D03*
X013910Y006748D03*
X013600Y006888D03*
X013595Y006893D03*
X013590Y006893D03*
X013580Y006898D03*
X013575Y006903D03*
X013570Y006903D03*
X013565Y006903D03*
X013485Y006753D03*
X013490Y006748D03*
X013495Y006748D03*
X013500Y006743D03*
X013510Y006738D03*
X013520Y006733D03*
X013455Y006568D03*
X013450Y006568D03*
X013460Y006563D03*
X013465Y006563D03*
X013470Y006558D03*
X013475Y006558D03*
X013485Y006553D03*
X013490Y006553D03*
X013495Y006548D03*
X013500Y006548D03*
X013510Y006543D03*
X013425Y006583D03*
X013310Y006653D03*
X014420Y007118D03*
X014430Y007113D03*
X014435Y007113D03*
X014440Y007108D03*
X014450Y007103D03*
X014460Y007098D03*
X014540Y007253D03*
X014530Y007258D03*
X014520Y007263D03*
X014515Y007268D03*
X014510Y007268D03*
X014505Y007273D03*
X014500Y007273D03*
X014640Y007188D03*
X014480Y004123D03*
D25*
X014515Y004043D03*
X014350Y004878D03*
X014100Y004848D03*
X014395Y005173D03*
X014385Y005483D03*
X014385Y006048D03*
X014495Y006623D03*
X014485Y006628D03*
X014470Y006638D03*
X014465Y006643D03*
X014450Y006653D03*
X014445Y006658D03*
X014420Y006673D03*
X014300Y006753D03*
X014205Y006753D03*
X014080Y006653D03*
X014050Y006633D03*
X014035Y006623D03*
X014030Y006618D03*
X014025Y006613D03*
X014020Y006613D03*
X014015Y006608D03*
X014010Y006603D03*
X014000Y006598D03*
X013925Y006758D03*
X013930Y006763D03*
X013935Y006768D03*
X013945Y006773D03*
X013950Y006778D03*
X013955Y006778D03*
X014000Y007068D03*
X014005Y007068D03*
X014020Y007078D03*
X014025Y007083D03*
X014030Y007088D03*
X013915Y007218D03*
X013920Y007223D03*
X013925Y007228D03*
X013905Y007213D03*
X013900Y007208D03*
X013875Y007193D03*
X013950Y007243D03*
X013745Y007088D03*
X013655Y007093D03*
X013450Y006778D03*
X013445Y006778D03*
X013455Y006773D03*
X013465Y006768D03*
X013470Y006763D03*
X013315Y006653D03*
X013375Y006613D03*
X013385Y006608D03*
X013390Y006603D03*
X013395Y006598D03*
X013400Y006598D03*
X013405Y006593D03*
X014550Y006793D03*
X014555Y006793D03*
X014560Y006788D03*
X014565Y006783D03*
X014505Y007068D03*
X014485Y007078D03*
X014480Y007083D03*
X014475Y007088D03*
X014590Y007218D03*
X014585Y007223D03*
X014580Y007228D03*
X014565Y007238D03*
X014600Y007213D03*
X014605Y007208D03*
X014630Y007193D03*
X014845Y007108D03*
X015045Y006793D03*
X015050Y006793D03*
X015040Y006788D03*
X015035Y006783D03*
X015180Y006673D03*
X015120Y006633D03*
X015115Y006628D03*
X015110Y006628D03*
X015105Y006623D03*
X015095Y006618D03*
D26*
X015125Y006635D03*
X015130Y006640D03*
X015135Y006645D03*
X015145Y006650D03*
X015150Y006655D03*
X015175Y006670D03*
X014840Y007110D03*
X014760Y007110D03*
X014755Y007110D03*
X014625Y007195D03*
X014620Y007195D03*
X014615Y007200D03*
X014610Y007205D03*
X014595Y007215D03*
X014500Y007070D03*
X014495Y007070D03*
X014490Y007075D03*
X014425Y006670D03*
X014435Y006665D03*
X014440Y006660D03*
X014455Y006650D03*
X014460Y006645D03*
X014210Y006750D03*
X014075Y006650D03*
X014065Y006645D03*
X014060Y006640D03*
X014055Y006635D03*
X014045Y006630D03*
X014040Y006625D03*
X013940Y006770D03*
X014010Y007070D03*
X014015Y007075D03*
X013910Y007215D03*
X013895Y007205D03*
X013890Y007200D03*
X013885Y007195D03*
X013880Y007195D03*
X013740Y007090D03*
X013660Y007090D03*
X013460Y006770D03*
X013320Y006650D03*
X013345Y006635D03*
X013350Y006630D03*
X013360Y006625D03*
X013365Y006620D03*
X013370Y006615D03*
X013380Y006610D03*
X014215Y005180D03*
X014345Y004870D03*
X014265Y004760D03*
X014105Y004470D03*
X014395Y004465D03*
X014100Y004045D03*
D27*
X014270Y004768D03*
X014340Y004863D03*
X014355Y005068D03*
X014150Y005188D03*
X014100Y005098D03*
X014070Y006648D03*
X014290Y006753D03*
X014295Y006753D03*
X014430Y006668D03*
X015140Y006648D03*
X015155Y006658D03*
X015160Y006663D03*
X015165Y006668D03*
X015170Y006668D03*
X013355Y006628D03*
X013340Y006638D03*
X013335Y006643D03*
X013330Y006648D03*
X013325Y006648D03*
D28*
X013410Y006778D03*
X013535Y006903D03*
X013865Y006903D03*
X013990Y006778D03*
X014115Y006653D03*
X014180Y006748D03*
X014385Y006673D03*
X014510Y006793D03*
X014420Y006943D03*
X014545Y007068D03*
X014635Y006918D03*
X014730Y007108D03*
X014870Y007108D03*
X014965Y006918D03*
X015090Y006793D03*
X015215Y006673D03*
X014405Y006403D03*
X014400Y006403D03*
X014390Y005803D03*
X014470Y005803D03*
X014525Y005803D03*
X014085Y005268D03*
X014090Y005263D03*
X014095Y005258D03*
X014070Y005273D03*
X013965Y005188D03*
X014005Y005093D03*
X014010Y005088D03*
X014020Y005078D03*
X014025Y005073D03*
X014030Y005068D03*
X014035Y005068D03*
X014040Y005063D03*
X014045Y005063D03*
X014050Y005063D03*
X014140Y004928D03*
X014255Y005103D03*
X014265Y005098D03*
X014330Y005093D03*
X014345Y005098D03*
X014520Y004808D03*
X014475Y004728D03*
X014475Y003958D03*
X013965Y007068D03*
X013840Y007193D03*
D29*
X013870Y007190D03*
X013930Y007230D03*
X013935Y007235D03*
X013940Y007235D03*
X013945Y007240D03*
X013955Y007245D03*
X013960Y007250D03*
X013965Y007250D03*
X014040Y007095D03*
X014035Y007090D03*
X014050Y007100D03*
X013995Y007065D03*
X014125Y006940D03*
X014130Y006945D03*
X014140Y006950D03*
X014365Y006950D03*
X014375Y006945D03*
X014380Y006940D03*
X014385Y006940D03*
X014510Y007065D03*
X014515Y007065D03*
X014470Y007090D03*
X014465Y007095D03*
X014455Y007100D03*
X014550Y007245D03*
X014555Y007245D03*
X014560Y007240D03*
X014570Y007235D03*
X014575Y007230D03*
X014545Y007250D03*
X014535Y007255D03*
X014635Y007190D03*
X014750Y007110D03*
X014850Y007110D03*
X014925Y006920D03*
X014920Y006915D03*
X015020Y006775D03*
X015025Y006775D03*
X015030Y006780D03*
X015055Y006795D03*
X015185Y006675D03*
X015100Y006620D03*
X015090Y006615D03*
X015085Y006610D03*
X015080Y006610D03*
X015075Y006605D03*
X015065Y006600D03*
X015055Y006595D03*
X015045Y006590D03*
X014680Y006915D03*
X014675Y006920D03*
X014570Y006780D03*
X014575Y006775D03*
X014545Y006795D03*
X014415Y006675D03*
X014475Y006635D03*
X014480Y006630D03*
X014490Y006625D03*
X014500Y006620D03*
X014505Y006615D03*
X014510Y006615D03*
X014515Y006610D03*
X014200Y006750D03*
X014085Y006655D03*
X014005Y006600D03*
X013995Y006595D03*
X013990Y006590D03*
X013985Y006590D03*
X013980Y006585D03*
X013905Y006745D03*
X013915Y006750D03*
X013920Y006755D03*
X013960Y006780D03*
X013835Y006905D03*
X013830Y006905D03*
X013825Y006900D03*
X013750Y007090D03*
X013650Y007090D03*
X013475Y006760D03*
X013480Y006755D03*
X013440Y006780D03*
X013415Y006590D03*
X013410Y006590D03*
X013420Y006585D03*
X013430Y006580D03*
X013435Y006575D03*
X013440Y006575D03*
X013445Y006570D03*
X014260Y004755D03*
X014135Y004120D03*
D30*
X014135Y003963D03*
X014215Y004358D03*
X014195Y004363D03*
X014190Y004363D03*
X014180Y004368D03*
X014175Y004368D03*
X014170Y004373D03*
X014165Y004373D03*
X014160Y004378D03*
X014155Y004378D03*
X014150Y004383D03*
X014145Y004388D03*
X014140Y004393D03*
X014135Y004398D03*
X014140Y004543D03*
X014145Y004548D03*
X014150Y004553D03*
X014155Y004558D03*
X014160Y004558D03*
X014165Y004563D03*
X014175Y004568D03*
X014180Y004568D03*
X014190Y004573D03*
X014195Y004573D03*
X014215Y004578D03*
X014285Y004578D03*
X014305Y004573D03*
X014310Y004573D03*
X014320Y004568D03*
X014325Y004568D03*
X014330Y004563D03*
X014335Y004563D03*
X014340Y004558D03*
X014350Y004553D03*
X014355Y004548D03*
X014360Y004543D03*
X014365Y004538D03*
X014360Y004393D03*
X014355Y004388D03*
X014350Y004383D03*
X014345Y004378D03*
X014340Y004378D03*
X014335Y004373D03*
X014330Y004373D03*
X014325Y004368D03*
X014320Y004368D03*
X014310Y004363D03*
X014305Y004363D03*
X014285Y004358D03*
X014190Y004728D03*
X014185Y004728D03*
X014180Y004728D03*
X014175Y004733D03*
X014170Y004733D03*
X014160Y004738D03*
X014155Y004743D03*
X014405Y004913D03*
X014410Y004913D03*
X014415Y004913D03*
X014420Y004913D03*
X014440Y004908D03*
X014460Y004898D03*
X014465Y004893D03*
X014470Y004888D03*
X014235Y005123D03*
X014205Y005188D03*
X014245Y005243D03*
X014250Y005248D03*
X014255Y005253D03*
X014260Y005253D03*
X014265Y005258D03*
X014270Y005258D03*
X014275Y005258D03*
X014285Y005263D03*
X014290Y005263D03*
X014295Y005263D03*
X014300Y005263D03*
X014305Y005263D03*
X014310Y005263D03*
X014315Y005263D03*
X014320Y005263D03*
X014335Y005258D03*
X014350Y005253D03*
X014365Y005243D03*
X014370Y005238D03*
X014325Y005433D03*
X014320Y005433D03*
X014315Y005433D03*
X014390Y005618D03*
X014475Y005803D03*
X014480Y005803D03*
X014515Y005803D03*
X014520Y005803D03*
X014335Y006003D03*
X014325Y005998D03*
X014320Y005998D03*
X014315Y005998D03*
X014540Y006183D03*
X014395Y006408D03*
X014165Y006403D03*
X014160Y006403D03*
X014110Y006653D03*
X013985Y006778D03*
X013860Y006903D03*
X013970Y007068D03*
X013845Y007193D03*
X013540Y006903D03*
X013415Y006778D03*
X014320Y006753D03*
X014390Y006673D03*
X014515Y006793D03*
X014640Y006918D03*
X014540Y007068D03*
X014415Y006943D03*
X014960Y006918D03*
X015085Y006793D03*
X015210Y006673D03*
X014040Y005273D03*
X014035Y005273D03*
X014030Y005273D03*
X014025Y005268D03*
X014000Y005103D03*
X014070Y005063D03*
X014075Y005063D03*
D31*
X014135Y004918D03*
X014390Y004908D03*
X014220Y004728D03*
X014215Y004728D03*
X014210Y004728D03*
X014140Y004758D03*
X014130Y004528D03*
X014130Y004408D03*
X014365Y004398D03*
X014370Y004408D03*
X014370Y004528D03*
X014340Y004218D03*
X014335Y004218D03*
X014330Y004218D03*
X014325Y004218D03*
X014320Y004218D03*
X014315Y004218D03*
X014310Y004218D03*
X014305Y004218D03*
X014300Y004218D03*
X014295Y004218D03*
X014290Y004218D03*
X014285Y004218D03*
X014280Y004218D03*
X014275Y004218D03*
X014265Y004213D03*
X014260Y004213D03*
X014255Y004213D03*
X014250Y004213D03*
X014240Y004208D03*
X014235Y004208D03*
X014225Y004203D03*
X014220Y004203D03*
X014210Y004198D03*
X014200Y004193D03*
X014195Y004188D03*
X014190Y004188D03*
X014185Y004183D03*
X014180Y004178D03*
X014170Y004173D03*
X014350Y004213D03*
X014355Y004213D03*
X014360Y004213D03*
X014365Y004213D03*
X014375Y004208D03*
X014380Y004208D03*
X014390Y004203D03*
X014395Y004203D03*
X014405Y004198D03*
X014415Y004193D03*
X014425Y004188D03*
X014430Y004183D03*
X014435Y004183D03*
X014440Y004178D03*
X014445Y004173D03*
X014450Y004168D03*
X014455Y004163D03*
X014480Y003968D03*
X014235Y005233D03*
X014015Y005263D03*
X014010Y005258D03*
X014005Y005253D03*
X014485Y005803D03*
X014490Y005803D03*
X014495Y005803D03*
X014500Y005803D03*
X014505Y005803D03*
X014510Y005803D03*
X014390Y006413D03*
X014145Y006398D03*
X014105Y006653D03*
X013980Y006778D03*
X013855Y006903D03*
X013975Y007068D03*
X013850Y007193D03*
X014100Y006943D03*
X014410Y006943D03*
X014645Y006918D03*
X014735Y007108D03*
X014955Y006918D03*
X015080Y006793D03*
X015205Y006673D03*
X014395Y006673D03*
X013545Y006903D03*
X013420Y006778D03*
D32*
X013425Y006778D03*
X013550Y006903D03*
X013650Y006868D03*
X013655Y006868D03*
X013745Y006868D03*
X013750Y006868D03*
X013850Y006903D03*
X013975Y006778D03*
X014100Y006653D03*
X014315Y006753D03*
X014400Y006673D03*
X014650Y006918D03*
X014950Y006918D03*
X015200Y006673D03*
X014290Y006978D03*
X014255Y006983D03*
X014250Y006983D03*
X014240Y006983D03*
X014215Y006978D03*
X014105Y006943D03*
X013980Y007068D03*
X013855Y007193D03*
X014155Y007323D03*
X014350Y007323D03*
X013735Y006688D03*
X013730Y006688D03*
X013725Y006688D03*
X013720Y006688D03*
X013715Y006688D03*
X013710Y006688D03*
X013705Y006688D03*
X013700Y006688D03*
X013695Y006688D03*
X013690Y006688D03*
X013685Y006688D03*
X013680Y006688D03*
X013675Y006688D03*
X013670Y006688D03*
X013665Y006688D03*
X014395Y006043D03*
X014380Y005818D03*
X014395Y005478D03*
X014000Y005248D03*
X014480Y004873D03*
X014230Y004733D03*
X014150Y004148D03*
X014470Y004143D03*
D33*
X014140Y004133D03*
X014245Y004743D03*
X014360Y004888D03*
X014365Y004893D03*
X014155Y005203D03*
X014350Y006163D03*
X014530Y006198D03*
X014720Y006538D03*
X014725Y006538D03*
X014730Y006538D03*
X014735Y006538D03*
X014740Y006538D03*
X014695Y006543D03*
X014690Y006543D03*
X014675Y006548D03*
X014670Y006548D03*
X014665Y006548D03*
X014660Y006553D03*
X014655Y006553D03*
X014650Y006553D03*
X014640Y006558D03*
X014635Y006558D03*
X014680Y006723D03*
X014685Y006723D03*
X014690Y006723D03*
X014700Y006718D03*
X014725Y006713D03*
X014755Y006708D03*
X014675Y006728D03*
X014670Y006728D03*
X014665Y006728D03*
X014655Y006733D03*
X014645Y006738D03*
X014845Y006708D03*
X014875Y006713D03*
X014880Y006713D03*
X014900Y006718D03*
X014910Y006723D03*
X014915Y006723D03*
X014920Y006723D03*
X014925Y006728D03*
X014930Y006728D03*
X014935Y006728D03*
X014940Y006733D03*
X014955Y006738D03*
X014990Y006568D03*
X014945Y006553D03*
X014940Y006553D03*
X014930Y006548D03*
X014925Y006548D03*
X014905Y006543D03*
X014900Y006543D03*
X014860Y006538D03*
X014855Y006538D03*
X014405Y006673D03*
X014310Y006753D03*
X014095Y006653D03*
X013970Y006778D03*
X013850Y006718D03*
X013840Y006713D03*
X013835Y006713D03*
X013825Y006708D03*
X013820Y006708D03*
X013815Y006703D03*
X013810Y006703D03*
X013805Y006703D03*
X013795Y006698D03*
X013790Y006698D03*
X013785Y006698D03*
X013765Y006693D03*
X013760Y006693D03*
X013755Y006693D03*
X013650Y006693D03*
X013645Y006693D03*
X013615Y006698D03*
X013610Y006698D03*
X013595Y006703D03*
X013590Y006703D03*
X013585Y006703D03*
X013580Y006708D03*
X013575Y006708D03*
X013570Y006713D03*
X013565Y006713D03*
X013550Y006718D03*
X013430Y006778D03*
X013555Y006903D03*
X013610Y006883D03*
X013620Y006878D03*
X013625Y006878D03*
X013630Y006873D03*
X013635Y006873D03*
X013675Y006863D03*
X013725Y006863D03*
X013730Y006863D03*
X013765Y006873D03*
X013770Y006873D03*
X013775Y006878D03*
X013780Y006878D03*
X013790Y006883D03*
X013845Y006903D03*
X013985Y007068D03*
X014120Y007133D03*
X014130Y007138D03*
X014135Y007138D03*
X014140Y007138D03*
X014145Y007143D03*
X014150Y007143D03*
X014165Y007148D03*
X014170Y007148D03*
X014175Y007148D03*
X014190Y007153D03*
X014195Y007153D03*
X014200Y007153D03*
X014205Y007153D03*
X014300Y007153D03*
X014305Y007153D03*
X014310Y007153D03*
X014315Y007153D03*
X014330Y007148D03*
X014335Y007148D03*
X014340Y007148D03*
X014355Y007143D03*
X014360Y007143D03*
X014370Y007138D03*
X014375Y007138D03*
X014385Y007133D03*
X014420Y007303D03*
X014425Y007303D03*
X014430Y007303D03*
X014440Y007298D03*
X014445Y007298D03*
X014470Y007288D03*
X014415Y007308D03*
X014410Y007308D03*
X014400Y007313D03*
X014395Y007313D03*
X014390Y007313D03*
X014380Y007318D03*
X014375Y007318D03*
X014370Y007318D03*
X014365Y007318D03*
X014315Y007328D03*
X014310Y007328D03*
X014195Y007328D03*
X014190Y007328D03*
X014185Y007328D03*
X014180Y007328D03*
X014175Y007328D03*
X014140Y007318D03*
X014135Y007318D03*
X014130Y007318D03*
X014125Y007318D03*
X014115Y007313D03*
X014110Y007313D03*
X014105Y007313D03*
X014100Y007308D03*
X014095Y007308D03*
X014090Y007308D03*
X014085Y007303D03*
X014080Y007303D03*
X014075Y007303D03*
X014060Y007298D03*
X014035Y007288D03*
X013860Y007193D03*
X014165Y006963D03*
X014175Y006968D03*
X014180Y006968D03*
X014185Y006973D03*
X014190Y006973D03*
X014195Y006973D03*
X014315Y006973D03*
X014320Y006973D03*
X014325Y006968D03*
X014330Y006968D03*
X014340Y006963D03*
X014395Y006938D03*
X014660Y006923D03*
X014705Y006903D03*
X014715Y006898D03*
X014725Y006893D03*
X014730Y006893D03*
X014735Y006888D03*
X014740Y006888D03*
X014770Y006883D03*
X014830Y006883D03*
X014860Y006888D03*
X014865Y006888D03*
X014870Y006893D03*
X014875Y006893D03*
X014885Y006898D03*
X014895Y006903D03*
X014940Y006923D03*
X015195Y006673D03*
X013890Y006543D03*
X013885Y006543D03*
X013870Y006538D03*
X013865Y006538D03*
X013855Y006533D03*
X013840Y006528D03*
X013835Y006528D03*
X013830Y006528D03*
X013825Y006523D03*
X013820Y006523D03*
X013815Y006523D03*
X013810Y006523D03*
X013805Y006523D03*
X013790Y006518D03*
X013785Y006518D03*
X013780Y006518D03*
X013775Y006518D03*
X013770Y006518D03*
X013765Y006518D03*
X013760Y006513D03*
X013755Y006513D03*
X013750Y006513D03*
X013745Y006513D03*
X013740Y006513D03*
X013735Y006513D03*
X013730Y006513D03*
X013725Y006513D03*
X013720Y006513D03*
X013715Y006513D03*
X013710Y006513D03*
X013705Y006513D03*
X013700Y006513D03*
X013695Y006513D03*
X013690Y006513D03*
X013685Y006513D03*
X013680Y006513D03*
X013675Y006513D03*
X013670Y006513D03*
X013665Y006513D03*
X013660Y006513D03*
X013655Y006513D03*
X013650Y006513D03*
X013645Y006513D03*
X013640Y006513D03*
X013615Y006518D03*
X013610Y006518D03*
X013605Y006518D03*
X013595Y006523D03*
X013590Y006523D03*
X013585Y006523D03*
X013580Y006523D03*
X013565Y006528D03*
X013560Y006528D03*
X013530Y006538D03*
D34*
X014020Y006778D03*
X013505Y006898D03*
X014140Y006283D03*
D35*
X014110Y006355D03*
X014380Y006050D03*
X014125Y005990D03*
X014380Y005485D03*
X014125Y005425D03*
X014360Y005070D03*
X014275Y004775D03*
X014215Y006750D03*
X013735Y007090D03*
X013730Y007090D03*
X013725Y007090D03*
X013675Y007090D03*
X013670Y007090D03*
X013665Y007090D03*
X014765Y007110D03*
X014770Y007110D03*
X014835Y007110D03*
D36*
X014830Y007108D03*
X014825Y007108D03*
X014775Y007108D03*
X014285Y006753D03*
X014280Y006753D03*
X014275Y006753D03*
X014270Y006753D03*
X014235Y006753D03*
X014230Y006753D03*
X014225Y006753D03*
X014220Y006753D03*
X013720Y007093D03*
X013685Y007093D03*
X013680Y007093D03*
X014100Y006183D03*
X014105Y006183D03*
X014110Y006183D03*
X014115Y006183D03*
X014120Y006183D03*
X014125Y006183D03*
X014120Y005993D03*
X014115Y005993D03*
X014110Y005993D03*
X014105Y005993D03*
X014100Y005993D03*
X014100Y005618D03*
X014105Y005618D03*
X014110Y005618D03*
X014115Y005618D03*
X014120Y005618D03*
X014125Y005618D03*
X014120Y005428D03*
X014115Y005428D03*
X014110Y005428D03*
X014105Y005428D03*
X014100Y005428D03*
X013975Y005188D03*
X014365Y005073D03*
X014335Y004858D03*
D37*
X014330Y004850D03*
X014280Y004780D03*
X014510Y004800D03*
X014370Y005075D03*
X014390Y005170D03*
X014220Y005180D03*
X014125Y005805D03*
X014120Y006355D03*
X014115Y006355D03*
X013715Y007090D03*
X013710Y007090D03*
X013690Y007090D03*
X014780Y007110D03*
X014785Y007110D03*
X014790Y007110D03*
X014815Y007110D03*
X014820Y007110D03*
X014110Y004470D03*
X014390Y004465D03*
D38*
X014285Y004788D03*
X014325Y004843D03*
X014145Y005178D03*
X014375Y005488D03*
X014120Y005803D03*
X014115Y005803D03*
X014110Y005803D03*
X014105Y005803D03*
X014100Y005803D03*
X014375Y006053D03*
X014130Y006358D03*
X014125Y006358D03*
X014240Y006753D03*
X014245Y006753D03*
X014260Y006753D03*
X014265Y006753D03*
X014805Y007108D03*
X014810Y007108D03*
X013705Y007088D03*
X013695Y007093D03*
D39*
X013700Y007090D03*
X014250Y006750D03*
X014255Y006750D03*
X014135Y006360D03*
X014795Y007110D03*
X014800Y007110D03*
X014225Y005180D03*
X014105Y005115D03*
X014375Y005080D03*
X014320Y004835D03*
X014295Y004800D03*
X014290Y004795D03*
D40*
X014140Y006653D03*
X014360Y006673D03*
X014485Y006793D03*
X014570Y007068D03*
X015115Y006793D03*
X015240Y006673D03*
X014060Y006948D03*
X013815Y007193D03*
D41*
X013820Y007193D03*
X013890Y006898D03*
X014065Y006948D03*
X014135Y006653D03*
X014365Y006673D03*
X014490Y006793D03*
X014565Y007068D03*
X015110Y006793D03*
X015235Y006673D03*
X014540Y005803D03*
X014455Y005803D03*
D42*
X014400Y005788D03*
X014460Y006388D03*
X014465Y006388D03*
X014370Y006673D03*
X014330Y006753D03*
X014495Y006793D03*
X014560Y007068D03*
X014130Y006653D03*
X014070Y006948D03*
X013885Y006898D03*
X013825Y007193D03*
X015105Y006793D03*
X015230Y006673D03*
X014195Y005218D03*
X014185Y005223D03*
X014400Y004718D03*
D43*
X014405Y004718D03*
X014410Y004718D03*
X014415Y004718D03*
X014420Y004718D03*
X014425Y004718D03*
X014430Y004718D03*
X014220Y004938D03*
X014215Y004938D03*
X014210Y004938D03*
X014205Y004938D03*
X014200Y004938D03*
X014195Y004938D03*
X014175Y005228D03*
X014400Y005603D03*
X014460Y005803D03*
X014535Y005803D03*
X014550Y006168D03*
X014445Y006393D03*
X014440Y006393D03*
X014375Y006673D03*
X014500Y006793D03*
X014555Y007068D03*
X014725Y007108D03*
X015100Y006793D03*
X015225Y006673D03*
X014125Y006653D03*
X014075Y006948D03*
X013880Y006898D03*
X013830Y007193D03*
X014175Y003948D03*
X014180Y003948D03*
X014185Y003948D03*
X014190Y003948D03*
X014195Y003948D03*
X014420Y003948D03*
X014425Y003948D03*
X014430Y003948D03*
X014435Y003948D03*
X014440Y003948D03*
X014445Y003948D03*
D44*
X014470Y003953D03*
X014145Y003953D03*
X014465Y004723D03*
X014150Y004933D03*
X014145Y004933D03*
X014165Y005228D03*
X014405Y005173D03*
X014465Y005803D03*
X014530Y005803D03*
X014425Y006398D03*
X014420Y006398D03*
X014380Y006673D03*
X014325Y006753D03*
X014505Y006793D03*
X014425Y006943D03*
X014550Y007068D03*
X014630Y006918D03*
X014970Y006918D03*
X015095Y006793D03*
X015220Y006673D03*
X014120Y006653D03*
X013835Y007193D03*
D45*
X013935Y007070D03*
X013895Y006900D03*
X014605Y006915D03*
X014695Y007190D03*
X014995Y006915D03*
D46*
X014140Y005170D03*
X013980Y005185D03*
X014385Y004465D03*
X014510Y004040D03*
X014105Y004040D03*
D47*
X014120Y004468D03*
X014380Y004468D03*
X014135Y005163D03*
X013985Y005183D03*
D48*
X013990Y005183D03*
X014120Y005148D03*
X014495Y004798D03*
D49*
X014485Y004805D03*
X014120Y004850D03*
X013995Y005180D03*
D50*
X014105Y004853D03*
X014300Y004808D03*
X014305Y004813D03*
X014310Y004823D03*
X014315Y004828D03*
X014115Y004468D03*
D51*
X014120Y004043D03*
X014130Y004843D03*
X014110Y005153D03*
D52*
X014110Y004855D03*
X014380Y006375D03*
D53*
X014375Y006380D03*
X014370Y006380D03*
X014365Y006380D03*
X014360Y006380D03*
X014355Y006380D03*
X014125Y005155D03*
X014110Y004040D03*
D54*
X014115Y004855D03*
X014490Y004800D03*
X014115Y005145D03*
D55*
X014115Y004038D03*
X014500Y004038D03*
D56*
X014495Y004040D03*
X014125Y004845D03*
D57*
X014500Y004798D03*
X014130Y005158D03*
X014125Y004468D03*
X014375Y004468D03*
X014505Y004038D03*
D58*
X014490Y004045D03*
X014125Y004045D03*
X014370Y006095D03*
D59*
X014355Y006090D03*
X014485Y004050D03*
X014130Y004050D03*
D60*
X014230Y005180D03*
X014385Y006370D03*
D61*
X014355Y005545D03*
D62*
X014360Y006093D03*
X014365Y006093D03*
D63*
X014365Y005548D03*
X014360Y005548D03*
D64*
X014370Y005550D03*
D65*
X014380Y005130D03*
D66*
X014385Y005128D03*
D67*
X014505Y004798D03*
D68*
X015120Y006795D03*
D69*
X001450Y008638D02*
X001450Y008662D01*
X001450Y009238D02*
X001450Y009262D01*
D70*
X003435Y005822D02*
X004065Y005822D01*
X004065Y004878D02*
X003435Y004878D01*
X003970Y004720D02*
X003972Y004734D01*
X003978Y004748D01*
X003986Y004760D01*
X003998Y004768D01*
X004012Y004774D01*
X004026Y004776D01*
X004040Y004774D01*
X004054Y004768D01*
X004066Y004760D01*
X004074Y004748D01*
X004080Y004734D01*
X004082Y004720D01*
X004080Y004706D01*
X004074Y004692D01*
X004066Y004680D01*
X004054Y004672D01*
X004040Y004666D01*
X004026Y004664D01*
X004012Y004666D01*
X003998Y004672D01*
X003986Y004680D01*
X003978Y004692D01*
X003972Y004706D01*
X003970Y004720D01*
X002462Y004180D02*
X002462Y004062D01*
X002462Y004180D02*
X001438Y004180D01*
X001438Y004062D01*
X001320Y003550D02*
X001241Y003550D01*
X001438Y003038D02*
X001438Y002920D01*
X002462Y002920D01*
X002462Y003038D01*
D71*
X004026Y004720D02*
X004026Y004759D01*
X004065Y004759D01*
X002500Y006800D02*
X002050Y006800D01*
X001850Y006800D02*
X001600Y006800D01*
X001600Y007300D01*
X001850Y007300D01*
X002050Y007300D02*
X002500Y007300D01*
X002500Y006800D01*
X006700Y009350D02*
X015350Y009350D01*
X015350Y001547D01*
X006700Y001547D01*
X006700Y009350D01*
D72*
X006575Y009335D02*
X006267Y009335D01*
X006205Y009273D01*
X006205Y009150D01*
X006267Y009088D01*
X006575Y009088D01*
X006452Y008967D02*
X006575Y008843D01*
X006205Y008843D01*
X006205Y008720D02*
X006205Y008967D01*
X007176Y007929D02*
X007115Y007867D01*
X007115Y007743D01*
X007176Y007682D01*
X007115Y007560D02*
X007362Y007560D01*
X007485Y007437D01*
X007362Y007313D01*
X007115Y007313D01*
X007176Y007192D02*
X007115Y007130D01*
X007115Y007007D01*
X007176Y006945D01*
X007300Y007069D02*
X007300Y007130D01*
X007362Y007192D01*
X007423Y007192D01*
X007485Y007130D01*
X007485Y007007D01*
X007423Y006945D01*
X007300Y007130D02*
X007238Y007192D01*
X007176Y007192D01*
X007423Y007682D02*
X007485Y007743D01*
X007485Y007867D01*
X007423Y007929D01*
X007362Y007929D01*
X007300Y007867D01*
X007300Y007805D01*
X007300Y007867D02*
X007238Y007929D01*
X007176Y007929D01*
X007915Y007867D02*
X007915Y007743D01*
X007976Y007682D01*
X008100Y007805D02*
X008100Y007867D01*
X008162Y007929D01*
X008223Y007929D01*
X008285Y007867D01*
X008285Y007743D01*
X008223Y007682D01*
X008285Y007560D02*
X008285Y007313D01*
X008285Y007437D02*
X007915Y007437D01*
X008038Y007313D01*
X007976Y007192D02*
X007915Y007130D01*
X007915Y007007D01*
X007976Y006945D01*
X008223Y006945D01*
X008285Y007007D01*
X008285Y007130D01*
X008223Y007192D01*
X008100Y007192D01*
X008100Y007069D01*
X008715Y007130D02*
X008715Y007007D01*
X008776Y006945D01*
X009023Y006945D01*
X009085Y007007D01*
X009085Y007130D01*
X009023Y007192D01*
X008900Y007192D01*
X008900Y007069D01*
X008776Y007192D02*
X008715Y007130D01*
X008838Y007313D02*
X008715Y007437D01*
X009085Y007437D01*
X009085Y007560D02*
X009085Y007313D01*
X009085Y007682D02*
X008838Y007929D01*
X008776Y007929D01*
X008715Y007867D01*
X008715Y007743D01*
X008776Y007682D01*
X009085Y007682D02*
X009085Y007929D01*
X009515Y007867D02*
X009700Y007682D01*
X009700Y007929D01*
X009885Y007867D02*
X009515Y007867D01*
X009885Y007560D02*
X009885Y007313D01*
X009885Y007437D02*
X009515Y007437D01*
X009638Y007313D01*
X009576Y007192D02*
X009515Y007130D01*
X009515Y007007D01*
X009576Y006945D01*
X009823Y006945D01*
X009885Y007007D01*
X009885Y007130D01*
X009823Y007192D01*
X009700Y007192D01*
X009700Y007069D01*
X010315Y007130D02*
X010315Y007007D01*
X010376Y006945D01*
X010623Y006945D01*
X010685Y007007D01*
X010685Y007130D01*
X010623Y007192D01*
X010500Y007192D01*
X010500Y007069D01*
X010376Y007192D02*
X010315Y007130D01*
X010438Y007313D02*
X010315Y007437D01*
X010685Y007437D01*
X010685Y007560D02*
X010685Y007313D01*
X011065Y007313D02*
X011065Y007499D01*
X011126Y007560D01*
X011250Y007560D01*
X011312Y007499D01*
X011312Y007313D01*
X011435Y007313D02*
X011065Y007313D01*
X011065Y007682D02*
X011065Y007867D01*
X011126Y007929D01*
X011373Y007929D01*
X011435Y007867D01*
X011435Y007682D01*
X011065Y007682D01*
X010685Y007743D02*
X010685Y007867D01*
X010623Y007929D01*
X010562Y007929D01*
X010500Y007867D01*
X010500Y007682D01*
X010623Y007682D01*
X010685Y007743D01*
X010500Y007682D02*
X010376Y007805D01*
X010315Y007929D01*
X011497Y007192D02*
X011497Y006945D01*
X011435Y006824D02*
X011065Y006824D01*
X011250Y006824D02*
X011250Y006577D01*
X011373Y006455D02*
X011435Y006394D01*
X011435Y006270D01*
X011373Y006208D01*
X011126Y006208D01*
X011065Y006270D01*
X011065Y006394D01*
X011126Y006455D01*
X011065Y006577D02*
X011435Y006577D01*
X011865Y007069D02*
X011988Y007192D01*
X012235Y007192D01*
X012235Y007313D02*
X012235Y007499D01*
X012173Y007560D01*
X011926Y007560D01*
X011865Y007499D01*
X011865Y007313D01*
X012235Y007313D01*
X012050Y007192D02*
X012050Y006945D01*
X011988Y006945D02*
X011865Y007069D01*
X011988Y006945D02*
X012235Y006945D01*
X012605Y006930D02*
X012605Y008035D01*
X012665Y007929D02*
X012665Y007682D01*
X012665Y007805D02*
X013035Y007805D01*
X012973Y007560D02*
X013035Y007499D01*
X013035Y007375D01*
X012973Y007313D01*
X012850Y007375D02*
X012850Y007499D01*
X012912Y007560D01*
X012973Y007560D01*
X012726Y007560D02*
X012665Y007499D01*
X012665Y007375D01*
X012726Y007313D01*
X012788Y007313D01*
X012850Y007375D01*
X012850Y007192D02*
X012912Y007130D01*
X012912Y006945D01*
X013035Y006945D02*
X012665Y006945D01*
X012665Y007130D01*
X012726Y007192D01*
X012850Y007192D01*
X012912Y007069D02*
X013035Y007192D01*
X012235Y007743D02*
X012235Y007867D01*
X012173Y007929D01*
X012235Y007743D02*
X012173Y007682D01*
X011926Y007682D01*
X011865Y007743D01*
X011865Y007867D01*
X011926Y007929D01*
X008100Y007867D02*
X008038Y007929D01*
X007976Y007929D01*
X007915Y007867D01*
X007915Y003782D02*
X007915Y003535D01*
X008100Y003535D01*
X008038Y003658D01*
X008038Y003720D01*
X008100Y003782D01*
X008223Y003782D01*
X008285Y003720D01*
X008285Y003596D01*
X008223Y003535D01*
X008285Y003413D02*
X008285Y003166D01*
X008285Y003290D02*
X007915Y003290D01*
X008038Y003166D01*
X007976Y003045D02*
X007915Y002983D01*
X007915Y002860D01*
X007976Y002798D01*
X008223Y002798D01*
X008285Y002860D01*
X008285Y002983D01*
X008223Y003045D01*
X008100Y003045D01*
X008100Y002922D01*
X008715Y002983D02*
X008715Y002860D01*
X008776Y002798D01*
X009023Y002798D01*
X009085Y002860D01*
X009085Y002983D01*
X009023Y003045D01*
X008900Y003045D01*
X008900Y002922D01*
X008776Y003045D02*
X008715Y002983D01*
X008776Y003166D02*
X008715Y003228D01*
X008715Y003352D01*
X008776Y003413D01*
X008838Y003413D01*
X009085Y003166D01*
X009085Y003413D01*
X009515Y003352D02*
X009515Y003228D01*
X009576Y003166D01*
X009823Y003166D01*
X009576Y003413D01*
X009823Y003413D01*
X009885Y003352D01*
X009885Y003228D01*
X009823Y003166D01*
X009823Y003045D02*
X009700Y003045D01*
X009700Y002922D01*
X009823Y003045D02*
X009885Y002983D01*
X009885Y002860D01*
X009823Y002798D01*
X009576Y002798D01*
X009515Y002860D01*
X009515Y002983D01*
X009576Y003045D01*
X009515Y003352D02*
X009576Y003413D01*
X010265Y003352D02*
X010450Y003166D01*
X010450Y003413D01*
X010635Y003352D02*
X010265Y003352D01*
X010326Y003045D02*
X010265Y002983D01*
X010265Y002860D01*
X010326Y002798D01*
X010573Y002798D01*
X010635Y002860D01*
X010635Y002983D01*
X010573Y003045D01*
X010450Y003045D01*
X010450Y002922D01*
X011115Y002983D02*
X011115Y002860D01*
X011176Y002798D01*
X011423Y002798D01*
X011485Y002860D01*
X011485Y002983D01*
X011423Y003045D01*
X011300Y003045D01*
X011300Y002922D01*
X011176Y003045D02*
X011115Y002983D01*
X011115Y003166D02*
X011300Y003166D01*
X011238Y003290D01*
X011238Y003352D01*
X011300Y003413D01*
X011423Y003413D01*
X011485Y003352D01*
X011485Y003228D01*
X011423Y003166D01*
X011115Y003166D02*
X011115Y003413D01*
X011865Y003352D02*
X011865Y003228D01*
X011926Y003166D01*
X012050Y003290D02*
X012050Y003352D01*
X012112Y003413D01*
X012173Y003413D01*
X012235Y003352D01*
X012235Y003228D01*
X012173Y003166D01*
X012050Y003352D02*
X011988Y003413D01*
X011926Y003413D01*
X011865Y003352D01*
X011926Y003045D02*
X011865Y002983D01*
X011865Y002860D01*
X011926Y002798D01*
X012173Y002798D01*
X012235Y002860D01*
X012235Y002983D01*
X012173Y003045D01*
X012050Y003045D01*
X012050Y002922D01*
X012665Y002983D02*
X012665Y002860D01*
X012726Y002798D01*
X012973Y002798D01*
X013035Y002860D01*
X013035Y002983D01*
X012973Y003045D01*
X012850Y003045D01*
X012850Y002922D01*
X012726Y003045D02*
X012665Y002983D01*
X012788Y003166D02*
X012665Y003290D01*
X013035Y003290D01*
X013035Y003413D02*
X013035Y003166D01*
X007485Y003166D02*
X007115Y003166D01*
X007485Y003413D01*
X007115Y003413D01*
X007115Y003535D02*
X007115Y003720D01*
X007176Y003782D01*
X007423Y003782D01*
X007485Y003720D01*
X007485Y003535D01*
X007115Y003535D01*
X007176Y003045D02*
X007115Y002983D01*
X007115Y002860D01*
X007176Y002798D01*
X007423Y002798D01*
X007485Y002860D01*
X007485Y002983D01*
X007423Y003045D01*
X007300Y003045D01*
X007300Y002922D01*
D73*
X002145Y007420D02*
X002012Y007420D01*
X002079Y007420D02*
X002079Y007620D01*
X002012Y007553D01*
X001924Y007520D02*
X001924Y007587D01*
X001891Y007620D01*
X001791Y007620D01*
X001791Y007420D01*
X001791Y007487D02*
X001891Y007487D01*
X001924Y007520D01*
X001703Y007620D02*
X001637Y007620D01*
X001670Y007620D02*
X001670Y007453D01*
X001637Y007420D01*
X001603Y007420D01*
X001570Y007453D01*
M02*
