G75*
%MOIN*%
%OFA0B0*%
%FSLAX24Y24*%
%IPPOS*%
%LPD*%
%AMOC8*
5,1,8,0,0,1.08239X$1,22.5*
%
%ADD10R,0.0640X0.0640*%
%ADD11OC8,0.0640*%
%ADD12R,0.0240X0.0870*%
%ADD13R,0.0354X0.0335*%
%ADD14R,0.0157X0.0098*%
%ADD15R,0.0870X0.0240*%
%ADD16R,0.0335X0.0354*%
%ADD17C,0.0100*%
%ADD18C,0.0070*%
%ADD19C,0.0340*%
%ADD20C,0.0160*%
D10*
X011850Y009950D03*
D11*
X010850Y009950D03*
X009850Y009950D03*
X008850Y009950D03*
X007850Y009950D03*
X006850Y009950D03*
X005850Y009950D03*
X004850Y009950D03*
X003850Y009950D03*
X002850Y009950D03*
X001850Y009950D03*
X000850Y009950D03*
X000850Y000950D03*
X001850Y000950D03*
X002850Y000950D03*
X003850Y000950D03*
X004850Y000950D03*
X005850Y000950D03*
X006850Y000950D03*
X007850Y000950D03*
X008850Y000950D03*
X009850Y000950D03*
X010850Y000950D03*
X011850Y000950D03*
D12*
X002500Y003620D03*
X002000Y003620D03*
X001500Y003620D03*
X001000Y003620D03*
X001000Y005680D03*
X001500Y005680D03*
X002000Y005680D03*
X002500Y005680D03*
D13*
X001350Y002278D03*
X001350Y001822D03*
D14*
X003090Y004553D03*
X003090Y004750D03*
X003090Y004947D03*
X003610Y004947D03*
X003610Y004750D03*
X003614Y004553D03*
D15*
X010520Y004400D03*
X010520Y004900D03*
X010520Y005400D03*
X010520Y005900D03*
X012580Y005900D03*
X012580Y005400D03*
X012580Y004900D03*
X012580Y004400D03*
D16*
X011878Y006550D03*
X011422Y006550D03*
D17*
X000400Y010500D02*
X000400Y000400D01*
X013350Y000400D01*
X013350Y010500D01*
X000400Y010500D01*
X000450Y010500D02*
X000450Y010172D01*
X000428Y010150D02*
X000400Y010150D01*
X000410Y010132D02*
X000410Y010000D01*
X000800Y010000D01*
X000800Y010390D01*
X000668Y010390D01*
X000410Y010132D01*
X000400Y010050D02*
X000410Y010050D01*
X000450Y010000D02*
X000450Y009900D01*
X000410Y009900D02*
X000410Y009768D01*
X000668Y009510D01*
X000800Y009510D01*
X000800Y009900D01*
X000410Y009900D01*
X000400Y009850D02*
X000410Y009850D01*
X000400Y009750D02*
X000428Y009750D01*
X000450Y009728D02*
X000450Y001172D01*
X000428Y001150D02*
X000400Y001150D01*
X000410Y001132D02*
X000410Y001000D01*
X000800Y001000D01*
X000800Y001390D01*
X000668Y001390D01*
X000410Y001132D01*
X000400Y001050D02*
X000410Y001050D01*
X000450Y001000D02*
X000450Y000900D01*
X000410Y000900D02*
X000410Y000768D01*
X000668Y000510D01*
X000800Y000510D01*
X000800Y000900D01*
X000410Y000900D01*
X000400Y000850D02*
X000410Y000850D01*
X000400Y000750D02*
X000428Y000750D01*
X000450Y000728D02*
X000450Y000400D01*
X000400Y000450D02*
X013350Y000450D01*
X013350Y000550D02*
X012115Y000550D01*
X012150Y000585D02*
X012150Y000400D01*
X012050Y000400D02*
X012050Y000485D01*
X012045Y000480D02*
X012320Y000755D01*
X012320Y001145D01*
X012045Y001420D01*
X011655Y001420D01*
X011380Y001145D01*
X011380Y000755D01*
X011655Y000480D01*
X012045Y000480D01*
X011950Y000480D02*
X011950Y000400D01*
X011850Y000400D02*
X011850Y000480D01*
X011750Y000480D02*
X011750Y000400D01*
X011650Y000400D02*
X011650Y000485D01*
X011585Y000550D02*
X011115Y000550D01*
X011150Y000585D02*
X011150Y000400D01*
X011250Y000400D02*
X011250Y000685D01*
X011215Y000650D02*
X011485Y000650D01*
X011450Y000685D02*
X011450Y000400D01*
X011350Y000400D02*
X011350Y002630D01*
X011364Y002630D02*
X011482Y002679D01*
X011572Y002769D01*
X011620Y002886D01*
X011620Y003014D01*
X011572Y003131D01*
X011550Y003153D01*
X011550Y004933D01*
X011433Y005050D01*
X011383Y005100D01*
X011087Y005100D01*
X011037Y005150D01*
X011105Y005218D01*
X011105Y005582D01*
X011037Y005650D01*
X011333Y005650D01*
X012063Y005650D01*
X011995Y005582D01*
X011995Y005218D01*
X012063Y005150D01*
X011037Y005150D01*
X011050Y005137D02*
X011050Y005163D01*
X011105Y005250D02*
X011995Y005250D01*
X011995Y005350D02*
X011105Y005350D01*
X011105Y005450D02*
X011995Y005450D01*
X011995Y005550D02*
X011105Y005550D01*
X011050Y005637D02*
X011050Y005650D01*
X011037Y005650D02*
X011037Y005650D01*
X011150Y005650D02*
X011150Y005100D01*
X011250Y005100D02*
X011250Y005650D01*
X011333Y005650D02*
X011450Y005767D01*
X011622Y005939D01*
X011622Y006223D01*
X011651Y006223D01*
X011684Y006256D01*
X011695Y006253D01*
X011845Y006253D01*
X011845Y006516D01*
X011912Y006516D01*
X011912Y006253D01*
X012061Y006253D01*
X012092Y006261D01*
X012119Y006277D01*
X012142Y006299D01*
X012157Y006327D01*
X012166Y006357D01*
X012166Y006516D01*
X011912Y006516D01*
X011912Y006584D01*
X011845Y006584D01*
X011845Y006847D01*
X011695Y006847D01*
X011684Y006844D01*
X011651Y006877D01*
X011550Y006877D01*
X011550Y007045D01*
X011586Y007030D01*
X011714Y007030D01*
X011831Y007079D01*
X011921Y007169D01*
X011970Y007286D01*
X011970Y007414D01*
X011921Y007531D01*
X011831Y007621D01*
X011714Y007670D01*
X011586Y007670D01*
X011469Y007621D01*
X011397Y007550D01*
X011267Y007550D01*
X011150Y007433D01*
X011150Y009585D01*
X011115Y009550D02*
X011398Y009550D01*
X011380Y009568D02*
X011468Y009480D01*
X012232Y009480D01*
X012320Y009568D01*
X012320Y010332D01*
X012232Y010420D01*
X011468Y010420D01*
X011380Y010332D01*
X011380Y009568D01*
X011380Y009650D02*
X011215Y009650D01*
X011250Y009685D02*
X011250Y007533D01*
X011350Y007550D02*
X011350Y010500D01*
X011450Y010500D02*
X011450Y010402D01*
X011398Y010350D02*
X011115Y010350D01*
X011150Y010315D02*
X011150Y010500D01*
X011250Y010500D02*
X011250Y010215D01*
X011215Y010250D02*
X011380Y010250D01*
X011380Y010150D02*
X011315Y010150D01*
X011320Y010145D02*
X011045Y010420D01*
X010655Y010420D01*
X010380Y010145D01*
X010380Y009963D01*
X010350Y009933D01*
X010350Y010500D01*
X010250Y010500D02*
X010250Y010215D01*
X010215Y010250D02*
X010485Y010250D01*
X010450Y010215D02*
X010450Y010500D01*
X010550Y010500D02*
X010550Y010315D01*
X010585Y010350D02*
X010115Y010350D01*
X010150Y010315D02*
X010150Y010500D01*
X010050Y010500D02*
X010050Y010415D01*
X010045Y010420D02*
X009655Y010420D01*
X009380Y010145D01*
X009380Y009755D01*
X009550Y009585D01*
X009550Y004803D01*
X009479Y004731D01*
X009430Y004614D01*
X009430Y004563D01*
X009414Y004570D01*
X009286Y004570D01*
X009169Y004521D01*
X009150Y004503D01*
X009150Y009585D01*
X009320Y009755D01*
X009320Y010145D01*
X009045Y010420D01*
X008655Y010420D01*
X008380Y010145D01*
X008380Y009755D01*
X008655Y009480D01*
X008750Y009480D01*
X008750Y005603D01*
X008731Y005621D01*
X008614Y005670D01*
X008486Y005670D01*
X008369Y005621D01*
X008350Y005603D01*
X008350Y007097D01*
X008421Y007169D01*
X008470Y007286D01*
X008470Y007414D01*
X008421Y007531D01*
X008331Y007621D01*
X008214Y007670D01*
X008086Y007670D01*
X007969Y007621D01*
X007879Y007531D01*
X007830Y007414D01*
X007830Y007286D01*
X007879Y007169D01*
X007950Y007097D01*
X007950Y005955D01*
X007914Y005970D01*
X007786Y005970D01*
X007669Y005921D01*
X007579Y005831D01*
X007530Y005714D01*
X007530Y005586D01*
X007579Y005469D01*
X007650Y005397D01*
X007650Y001415D01*
X007380Y001145D01*
X007380Y000755D01*
X007655Y000480D01*
X008045Y000480D01*
X008320Y000755D01*
X008320Y001145D01*
X008050Y001415D01*
X008050Y002645D01*
X008050Y001415D01*
X008050Y001450D02*
X008350Y001450D01*
X008350Y001350D02*
X008115Y001350D01*
X008150Y001315D02*
X008150Y002630D01*
X008086Y002630D02*
X008214Y002630D01*
X008331Y002679D01*
X008350Y002697D01*
X008350Y001267D01*
X008350Y000400D01*
X008250Y000400D02*
X008250Y000685D01*
X008215Y000650D02*
X008485Y000650D01*
X008450Y000685D02*
X008450Y000400D01*
X008550Y000400D02*
X008550Y000585D01*
X008585Y000550D02*
X008115Y000550D01*
X008150Y000585D02*
X008150Y000400D01*
X008050Y000400D02*
X008050Y000485D01*
X007950Y000480D02*
X007950Y000400D01*
X007850Y000400D02*
X007850Y000480D01*
X007750Y000480D02*
X007750Y000400D01*
X007650Y000400D02*
X007650Y000485D01*
X007585Y000550D02*
X007115Y000550D01*
X007150Y000585D02*
X007150Y000400D01*
X007250Y000400D02*
X007250Y000685D01*
X007215Y000650D02*
X007485Y000650D01*
X007450Y000685D02*
X007450Y000400D01*
X007550Y000400D02*
X007550Y000585D01*
X007385Y000750D02*
X007315Y000750D01*
X007320Y000755D02*
X007045Y000480D01*
X006655Y000480D01*
X006380Y000755D01*
X006380Y001145D01*
X006650Y001415D01*
X006650Y003250D01*
X006303Y003250D01*
X006231Y003179D01*
X006120Y003133D01*
X006121Y003131D01*
X006170Y003014D01*
X006170Y002886D01*
X006121Y002769D01*
X006050Y002697D01*
X006050Y001415D01*
X006320Y001145D01*
X006320Y000755D01*
X006045Y000480D01*
X005655Y000480D01*
X005380Y000755D01*
X005380Y001145D01*
X005650Y001415D01*
X005650Y002697D01*
X005579Y002769D01*
X005530Y002886D01*
X005530Y003014D01*
X005579Y003131D01*
X005669Y003221D01*
X005780Y003267D01*
X005779Y003269D01*
X005730Y003386D01*
X005730Y003514D01*
X005779Y003631D01*
X005869Y003721D01*
X005986Y003770D01*
X006114Y003770D01*
X006231Y003721D01*
X006303Y003650D01*
X006833Y003650D01*
X006933Y003550D01*
X007050Y003433D01*
X007050Y001415D01*
X007320Y001145D01*
X007320Y000755D01*
X007320Y000850D02*
X007380Y000850D01*
X007380Y000950D02*
X007320Y000950D01*
X007320Y001050D02*
X007380Y001050D01*
X007385Y001150D02*
X007315Y001150D01*
X007250Y001215D02*
X007250Y009685D01*
X007215Y009650D02*
X007485Y009650D01*
X007450Y009685D02*
X007450Y001215D01*
X007485Y001250D02*
X007215Y001250D01*
X007150Y001315D02*
X007150Y009585D01*
X007115Y009550D02*
X007585Y009550D01*
X007550Y009585D02*
X007550Y005762D01*
X007545Y005750D02*
X004855Y005750D01*
X004850Y005762D02*
X004850Y006050D01*
X004950Y006050D02*
X004950Y002955D01*
X004962Y002950D02*
X005530Y002950D01*
X005545Y003050D02*
X004450Y003050D01*
X004450Y002950D02*
X004738Y002950D01*
X004750Y002955D02*
X004750Y005397D01*
X004731Y005379D02*
X004821Y005469D01*
X004870Y005586D01*
X004870Y005714D01*
X004821Y005831D01*
X004750Y005903D01*
X004750Y006050D01*
X004750Y005903D01*
X004750Y005950D02*
X005738Y005950D01*
X005750Y005945D02*
X005750Y003562D01*
X005745Y003550D02*
X004555Y003550D01*
X004550Y003562D02*
X004550Y003997D01*
X004531Y003979D02*
X004621Y004069D01*
X004670Y004186D01*
X004670Y004314D01*
X004621Y004431D01*
X004550Y004503D01*
X004550Y005330D01*
X004550Y004503D01*
X004550Y004550D02*
X007650Y004550D01*
X007650Y004450D02*
X004603Y004450D01*
X004650Y004362D02*
X004650Y005345D01*
X004662Y005350D02*
X007650Y005350D01*
X007650Y005250D02*
X004550Y005250D01*
X004550Y005330D02*
X004614Y005330D01*
X004731Y005379D01*
X004803Y005450D02*
X007597Y005450D01*
X007550Y005538D02*
X007550Y001315D01*
X007585Y001350D02*
X007115Y001350D01*
X007050Y001415D02*
X007050Y009485D01*
X007045Y009480D02*
X007320Y009755D01*
X007320Y010145D01*
X007045Y010420D01*
X006655Y010420D01*
X006380Y010145D01*
X006380Y009755D01*
X006655Y009480D01*
X007045Y009480D01*
X006950Y009480D02*
X006950Y003533D01*
X006933Y003550D02*
X007650Y003550D01*
X007650Y003450D02*
X007033Y003450D01*
X007050Y003350D02*
X007650Y003350D01*
X007650Y003250D02*
X007050Y003250D01*
X007050Y003150D02*
X007650Y003150D01*
X007650Y003050D02*
X007050Y003050D01*
X007050Y002950D02*
X007650Y002950D01*
X007650Y002850D02*
X007050Y002850D01*
X007050Y002750D02*
X007650Y002750D01*
X007650Y002650D02*
X007050Y002650D01*
X007050Y002550D02*
X007650Y002550D01*
X007650Y002450D02*
X007050Y002450D01*
X007050Y002350D02*
X007650Y002350D01*
X007650Y002250D02*
X007050Y002250D01*
X007050Y002150D02*
X007650Y002150D01*
X007650Y002050D02*
X007050Y002050D01*
X007050Y001950D02*
X007650Y001950D01*
X007650Y001850D02*
X007050Y001850D01*
X007050Y001750D02*
X007650Y001750D01*
X007650Y001650D02*
X007050Y001650D01*
X007050Y001550D02*
X007650Y001550D01*
X007650Y001450D02*
X007050Y001450D01*
X006650Y001450D02*
X006050Y001450D01*
X006050Y001415D02*
X006050Y002697D01*
X006050Y002650D02*
X006650Y002650D01*
X006650Y002550D02*
X006050Y002550D01*
X006050Y002450D02*
X006650Y002450D01*
X006650Y002350D02*
X006050Y002350D01*
X006050Y002250D02*
X006650Y002250D01*
X006650Y002150D02*
X006050Y002150D01*
X006050Y002050D02*
X006650Y002050D01*
X006650Y001950D02*
X006050Y001950D01*
X006050Y001850D02*
X006650Y001850D01*
X006650Y001750D02*
X006050Y001750D01*
X006050Y001650D02*
X006650Y001650D01*
X006650Y001550D02*
X006050Y001550D01*
X006115Y001350D02*
X006585Y001350D01*
X006550Y001315D02*
X006550Y003250D01*
X006450Y003250D02*
X006450Y001215D01*
X006485Y001250D02*
X006215Y001250D01*
X006250Y001215D02*
X006250Y003197D01*
X006162Y003150D02*
X006650Y003150D01*
X006650Y003050D02*
X006155Y003050D01*
X006150Y003062D02*
X006150Y003145D01*
X006170Y002950D02*
X006650Y002950D01*
X006650Y002850D02*
X006155Y002850D01*
X006150Y002838D02*
X006150Y001315D01*
X006315Y001150D02*
X006385Y001150D01*
X006380Y001050D02*
X006320Y001050D01*
X006320Y000950D02*
X006380Y000950D01*
X006380Y000850D02*
X006320Y000850D01*
X006315Y000750D02*
X006385Y000750D01*
X006450Y000685D02*
X006450Y000400D01*
X006350Y000400D02*
X006350Y003250D01*
X006050Y003450D02*
X006750Y003450D01*
X006850Y003350D01*
X006850Y000950D01*
X006485Y000650D02*
X006215Y000650D01*
X006250Y000685D02*
X006250Y000400D01*
X006150Y000400D02*
X006150Y000585D01*
X006115Y000550D02*
X006585Y000550D01*
X006550Y000585D02*
X006550Y000400D01*
X006650Y000400D02*
X006650Y000485D01*
X006750Y000480D02*
X006750Y000400D01*
X006850Y000400D02*
X006850Y000480D01*
X006950Y000480D02*
X006950Y000400D01*
X007050Y000400D02*
X007050Y000485D01*
X007350Y000400D02*
X007350Y010500D01*
X007250Y010500D02*
X007250Y010215D01*
X007215Y010250D02*
X007485Y010250D01*
X007450Y010215D02*
X007450Y010500D01*
X007550Y010500D02*
X007550Y010315D01*
X007585Y010350D02*
X007115Y010350D01*
X007150Y010315D02*
X007150Y010500D01*
X007050Y010500D02*
X007050Y010415D01*
X006950Y010420D02*
X006950Y010500D01*
X006850Y010500D02*
X006850Y010420D01*
X006750Y010420D02*
X006750Y010500D01*
X006650Y010500D02*
X006650Y010415D01*
X006585Y010350D02*
X006115Y010350D01*
X006150Y010315D02*
X006150Y010500D01*
X006050Y010500D02*
X006050Y010415D01*
X006045Y010420D02*
X005655Y010420D01*
X005380Y010145D01*
X005380Y009755D01*
X005650Y009485D01*
X005650Y008503D01*
X005579Y008431D01*
X005530Y008314D01*
X005530Y008186D01*
X005579Y008069D01*
X005669Y007979D01*
X005786Y007930D01*
X005914Y007930D01*
X006031Y007979D01*
X006121Y008069D01*
X006170Y008186D01*
X006170Y008314D01*
X006121Y008431D01*
X006050Y008503D01*
X006050Y009485D01*
X006050Y008503D01*
X006050Y008550D02*
X008750Y008550D01*
X008750Y008450D02*
X006103Y008450D01*
X006150Y008362D02*
X006150Y009585D01*
X006115Y009550D02*
X006585Y009550D01*
X006550Y009585D02*
X006550Y003650D01*
X006650Y003650D02*
X006650Y009485D01*
X006750Y009480D02*
X006750Y003650D01*
X006850Y003633D02*
X006850Y009480D01*
X006485Y009650D02*
X006215Y009650D01*
X006250Y009685D02*
X006250Y003703D01*
X006303Y003650D02*
X007650Y003650D01*
X007650Y003750D02*
X006162Y003750D01*
X006150Y003755D02*
X006150Y006138D01*
X006155Y006150D02*
X007950Y006150D01*
X007950Y006050D02*
X006103Y006050D01*
X006121Y006069D02*
X006170Y006186D01*
X006170Y006314D01*
X006121Y006431D01*
X006031Y006521D01*
X005914Y006570D01*
X005786Y006570D01*
X005669Y006521D01*
X005597Y006450D01*
X003203Y006450D01*
X003131Y006521D01*
X003014Y006570D01*
X002886Y006570D01*
X002769Y006521D01*
X002679Y006431D01*
X002630Y006314D01*
X002630Y006235D01*
X002510Y006235D01*
X002510Y005690D01*
X002490Y005690D01*
X002490Y006235D01*
X002364Y006235D01*
X002334Y006227D01*
X002306Y006211D01*
X002284Y006189D01*
X002270Y006164D01*
X002270Y006177D01*
X002182Y006265D01*
X001818Y006265D01*
X001750Y006197D01*
X001682Y006265D01*
X001318Y006265D01*
X001250Y006197D01*
X001250Y009728D01*
X001272Y009750D02*
X001385Y009750D01*
X001380Y009755D02*
X001655Y009480D01*
X002045Y009480D01*
X002320Y009755D01*
X002320Y010145D01*
X002045Y010420D01*
X001655Y010420D01*
X001380Y010145D01*
X001380Y009755D01*
X001290Y009768D02*
X001290Y009900D01*
X000900Y009900D01*
X000900Y010000D01*
X000800Y010000D01*
X000800Y009900D01*
X000900Y009900D01*
X000900Y009510D01*
X001032Y009510D01*
X001290Y009768D01*
X001290Y009850D02*
X001380Y009850D01*
X001380Y009950D02*
X000900Y009950D01*
X000900Y010000D02*
X001290Y010000D01*
X001290Y010132D01*
X001032Y010390D01*
X000900Y010390D01*
X000900Y010000D01*
X000850Y010000D02*
X000850Y010500D01*
X000750Y010500D02*
X000750Y010390D01*
X000800Y010350D02*
X000900Y010350D01*
X000950Y010390D02*
X000950Y010500D01*
X001050Y010500D02*
X001050Y010372D01*
X001072Y010350D02*
X001585Y010350D01*
X001550Y010315D02*
X001550Y010500D01*
X001650Y010500D02*
X001650Y010415D01*
X001750Y010420D02*
X001750Y010500D01*
X001850Y010500D02*
X001850Y010420D01*
X001950Y010420D02*
X001950Y010500D01*
X002050Y010500D02*
X002050Y010415D01*
X002115Y010350D02*
X002585Y010350D01*
X002550Y010315D02*
X002550Y010500D01*
X002650Y010500D02*
X002650Y010415D01*
X002655Y010420D02*
X002380Y010145D01*
X002380Y009755D01*
X002650Y009485D01*
X002650Y009203D01*
X002579Y009131D01*
X002530Y009014D01*
X002530Y008886D01*
X002579Y008769D01*
X002669Y008679D01*
X002786Y008630D01*
X002914Y008630D01*
X003031Y008679D01*
X003121Y008769D01*
X003170Y008886D01*
X003170Y009014D01*
X003121Y009131D01*
X003050Y009203D01*
X003050Y009485D01*
X003320Y009755D01*
X003320Y010145D01*
X003045Y010420D01*
X002655Y010420D01*
X002750Y010420D02*
X002750Y010500D01*
X002850Y010500D02*
X002850Y010420D01*
X002950Y010420D02*
X002950Y010500D01*
X003050Y010500D02*
X003050Y010415D01*
X003115Y010350D02*
X003585Y010350D01*
X003550Y010315D02*
X003550Y010500D01*
X003450Y010500D02*
X003450Y010215D01*
X003485Y010250D02*
X003215Y010250D01*
X003250Y010215D02*
X003250Y010500D01*
X003150Y010500D02*
X003150Y010315D01*
X003315Y010150D02*
X003385Y010150D01*
X003380Y010145D02*
X003380Y009755D01*
X003650Y009485D01*
X003650Y009003D01*
X003579Y008931D01*
X003530Y008814D01*
X003530Y008686D01*
X003579Y008569D01*
X003669Y008479D01*
X003786Y008430D01*
X003914Y008430D01*
X004031Y008479D01*
X004121Y008569D01*
X004170Y008686D01*
X004170Y008814D01*
X004121Y008931D01*
X004050Y009003D01*
X004050Y009485D01*
X004320Y009755D01*
X004320Y010145D01*
X004045Y010420D01*
X003655Y010420D01*
X003380Y010145D01*
X003380Y010050D02*
X003320Y010050D01*
X003320Y009950D02*
X003380Y009950D01*
X003380Y009850D02*
X003320Y009850D01*
X003315Y009750D02*
X003385Y009750D01*
X003450Y009685D02*
X003450Y006450D01*
X003550Y006450D02*
X003550Y008638D01*
X003545Y008650D02*
X002962Y008650D01*
X002950Y008645D02*
X002950Y006570D01*
X003050Y006555D02*
X003050Y008697D01*
X003103Y008750D02*
X003530Y008750D01*
X003545Y008850D02*
X003155Y008850D01*
X003150Y008838D02*
X003150Y006503D01*
X003203Y006450D02*
X005597Y006450D01*
X005550Y006450D02*
X005550Y008138D01*
X005545Y008150D02*
X000400Y008150D01*
X000400Y008050D02*
X005597Y008050D01*
X005650Y007997D02*
X005650Y006503D01*
X005738Y006550D02*
X003062Y006550D01*
X002850Y006555D02*
X002850Y008630D01*
X002750Y008645D02*
X002750Y006503D01*
X002697Y006450D02*
X000400Y006450D01*
X000400Y006350D02*
X002645Y006350D01*
X002650Y006362D02*
X002650Y008697D01*
X002597Y008750D02*
X000400Y008750D01*
X000400Y008650D02*
X002738Y008650D01*
X002550Y008838D02*
X002550Y006235D01*
X002630Y006250D02*
X002197Y006250D01*
X002150Y006265D02*
X002150Y009585D01*
X002115Y009550D02*
X002585Y009550D01*
X002550Y009585D02*
X002550Y009062D01*
X002545Y009050D02*
X000400Y009050D01*
X000400Y009150D02*
X002597Y009150D01*
X002650Y009250D02*
X000400Y009250D01*
X000400Y009350D02*
X002650Y009350D01*
X002650Y009450D02*
X000400Y009450D01*
X000400Y009550D02*
X000628Y009550D01*
X000650Y009528D02*
X000650Y002962D01*
X000645Y002950D02*
X000400Y002950D01*
X000400Y003050D02*
X000697Y003050D01*
X000679Y003031D02*
X000630Y002914D01*
X000630Y002786D01*
X000679Y002669D01*
X000769Y002579D01*
X000886Y002530D01*
X001014Y002530D01*
X001067Y002552D01*
X001023Y002508D01*
X001023Y002049D01*
X001056Y002016D01*
X001053Y002005D01*
X001053Y001855D01*
X001316Y001855D01*
X001316Y001788D01*
X001053Y001788D01*
X001053Y001639D01*
X001061Y001608D01*
X001077Y001581D01*
X001099Y001558D01*
X001127Y001543D01*
X001157Y001534D01*
X001316Y001534D01*
X001316Y001788D01*
X001384Y001788D01*
X001384Y001855D01*
X001647Y001855D01*
X001647Y002005D01*
X001644Y002016D01*
X001677Y002049D01*
X001677Y002508D01*
X001589Y002596D01*
X001550Y002596D01*
X001550Y003065D01*
X001510Y003065D02*
X001636Y003065D01*
X001666Y003073D01*
X001694Y003089D01*
X001716Y003111D01*
X001730Y003136D01*
X001730Y003123D01*
X001800Y003053D01*
X001800Y002617D01*
X001950Y002467D01*
X001950Y001420D01*
X002045Y001420D02*
X001655Y001420D01*
X001380Y001145D01*
X001380Y000755D01*
X001655Y000480D01*
X002045Y000480D01*
X002320Y000755D01*
X002320Y001145D01*
X002045Y001420D01*
X002050Y001415D02*
X002050Y002367D01*
X002067Y002350D02*
X001677Y002350D01*
X001677Y002250D02*
X003097Y002250D01*
X003079Y002231D02*
X003030Y002114D01*
X003030Y001986D01*
X003079Y001869D01*
X003150Y001797D01*
X003150Y001333D01*
X003141Y001324D01*
X003045Y001420D01*
X002655Y001420D01*
X002380Y001145D01*
X002380Y000755D01*
X002655Y000480D01*
X003045Y000480D01*
X003320Y000755D01*
X003320Y000937D01*
X003380Y000997D01*
X003380Y000755D01*
X003655Y000480D01*
X004045Y000480D01*
X004320Y000755D01*
X004320Y001145D01*
X004050Y001415D01*
X004050Y001797D01*
X004050Y001415D01*
X004050Y001450D02*
X004650Y001450D01*
X004650Y001415D02*
X004380Y001145D01*
X004380Y000755D01*
X004655Y000480D01*
X005045Y000480D01*
X005320Y000755D01*
X005320Y001145D01*
X005050Y001415D01*
X005050Y002397D01*
X005121Y002469D01*
X005170Y002586D01*
X005170Y002714D01*
X005121Y002831D01*
X005031Y002921D01*
X004914Y002970D01*
X004786Y002970D01*
X004669Y002921D01*
X004579Y002831D01*
X004530Y002714D01*
X004530Y002586D01*
X004579Y002469D01*
X004650Y002397D01*
X004650Y001415D01*
X004585Y001350D02*
X004115Y001350D01*
X004150Y001315D02*
X004150Y001745D01*
X004138Y001750D02*
X004050Y001750D01*
X004069Y001779D02*
X004186Y001730D01*
X004314Y001730D01*
X004431Y001779D01*
X004521Y001869D01*
X004570Y001986D01*
X004570Y002114D01*
X004521Y002231D01*
X004450Y002303D01*
X004450Y003197D01*
X004521Y003269D01*
X004570Y003386D01*
X004570Y003514D01*
X004521Y003631D01*
X004431Y003721D01*
X004314Y003770D01*
X004186Y003770D01*
X004069Y003721D01*
X003997Y003650D01*
X003814Y003650D01*
X003997Y003650D01*
X003950Y003650D02*
X003950Y004230D01*
X004014Y004230D02*
X004030Y004237D01*
X004030Y004186D01*
X004079Y004069D01*
X004169Y003979D01*
X004286Y003930D01*
X004414Y003930D01*
X004531Y003979D01*
X004462Y003950D02*
X007650Y003950D01*
X007650Y003850D02*
X003814Y003850D01*
X003814Y003750D02*
X004138Y003750D01*
X004150Y003755D02*
X004150Y003997D01*
X004097Y004050D02*
X003814Y004050D01*
X003814Y003950D02*
X004238Y003950D01*
X004250Y003945D02*
X004250Y003770D01*
X004350Y003755D02*
X004350Y003930D01*
X004450Y003945D02*
X004450Y003703D01*
X004503Y003650D02*
X005797Y003650D01*
X005850Y003703D02*
X005850Y005930D01*
X005786Y005930D02*
X005914Y005930D01*
X006031Y005979D01*
X006121Y006069D01*
X006050Y005997D02*
X006050Y003770D01*
X005950Y003755D02*
X005950Y005945D01*
X005962Y005950D02*
X007738Y005950D01*
X007750Y005955D02*
X007750Y009480D01*
X007655Y009480D02*
X008045Y009480D01*
X008320Y009755D01*
X008320Y010145D01*
X008045Y010420D01*
X007655Y010420D01*
X007380Y010145D01*
X007380Y009755D01*
X007655Y009480D01*
X007650Y009485D02*
X007650Y005903D01*
X007597Y005850D02*
X004803Y005850D01*
X004750Y006050D02*
X005597Y006050D01*
X005669Y005979D01*
X005786Y005930D01*
X005650Y005997D02*
X005650Y003203D01*
X005597Y003150D02*
X004450Y003150D01*
X004450Y003197D02*
X004450Y002303D01*
X004450Y002350D02*
X004650Y002350D01*
X004650Y002250D02*
X004503Y002250D01*
X004550Y002162D02*
X004550Y002538D01*
X004545Y002550D02*
X004450Y002550D01*
X004450Y002450D02*
X004597Y002450D01*
X004530Y002650D02*
X004450Y002650D01*
X004450Y002750D02*
X004545Y002750D01*
X004550Y002762D02*
X004550Y003338D01*
X004555Y003350D02*
X005745Y003350D01*
X005750Y003338D02*
X005750Y003255D01*
X005738Y003250D02*
X004503Y003250D01*
X004550Y003150D02*
X004650Y003250D01*
X004650Y003650D01*
X004550Y003750D01*
X004362Y003750D02*
X005938Y003750D01*
X005730Y003450D02*
X004570Y003450D01*
X004250Y003450D02*
X004250Y002050D01*
X004570Y002050D02*
X004650Y002050D01*
X004650Y001950D02*
X004555Y001950D01*
X004550Y001938D02*
X004550Y001315D01*
X004485Y001250D02*
X004215Y001250D01*
X004250Y001215D02*
X004250Y001730D01*
X004350Y001745D02*
X004350Y000400D01*
X004450Y000400D02*
X004450Y000685D01*
X004485Y000650D02*
X004215Y000650D01*
X004250Y000685D02*
X004250Y000400D01*
X004150Y000400D02*
X004150Y000585D01*
X004115Y000550D02*
X004585Y000550D01*
X004550Y000585D02*
X004550Y000400D01*
X004650Y000400D02*
X004650Y000485D01*
X004750Y000480D02*
X004750Y000400D01*
X004850Y000400D02*
X004850Y000480D01*
X004950Y000480D02*
X004950Y000400D01*
X005050Y000400D02*
X005050Y000485D01*
X005115Y000550D02*
X005585Y000550D01*
X005550Y000585D02*
X005550Y000400D01*
X005450Y000400D02*
X005450Y000685D01*
X005485Y000650D02*
X005215Y000650D01*
X005250Y000685D02*
X005250Y000400D01*
X005150Y000400D02*
X005150Y000585D01*
X005315Y000750D02*
X005385Y000750D01*
X005380Y000850D02*
X005320Y000850D01*
X005320Y000950D02*
X005380Y000950D01*
X005380Y001050D02*
X005320Y001050D01*
X005315Y001150D02*
X005385Y001150D01*
X005450Y001215D02*
X005450Y006050D01*
X005550Y006050D02*
X005550Y003062D01*
X005545Y002850D02*
X005103Y002850D01*
X005050Y002903D02*
X005050Y006050D01*
X005150Y006050D02*
X005150Y002762D01*
X005155Y002750D02*
X005597Y002750D01*
X005550Y002838D02*
X005550Y001315D01*
X005585Y001350D02*
X005115Y001350D01*
X005150Y001315D02*
X005150Y002538D01*
X005155Y002550D02*
X005650Y002550D01*
X005650Y002450D02*
X005103Y002450D01*
X005050Y002397D02*
X005050Y001415D01*
X005050Y001450D02*
X005650Y001450D01*
X005650Y001550D02*
X005050Y001550D01*
X005050Y001650D02*
X005650Y001650D01*
X005650Y001750D02*
X005050Y001750D01*
X005050Y001850D02*
X005650Y001850D01*
X005650Y001950D02*
X005050Y001950D01*
X005050Y002050D02*
X005650Y002050D01*
X005650Y002150D02*
X005050Y002150D01*
X005050Y002250D02*
X005650Y002250D01*
X005650Y002350D02*
X005050Y002350D01*
X004650Y002150D02*
X004555Y002150D01*
X004503Y001850D02*
X004650Y001850D01*
X004650Y001750D02*
X004362Y001750D01*
X004450Y001797D02*
X004450Y001215D01*
X004385Y001150D02*
X004315Y001150D01*
X004320Y001050D02*
X004380Y001050D01*
X004380Y000950D02*
X004320Y000950D01*
X004320Y000850D02*
X004380Y000850D01*
X004385Y000750D02*
X004315Y000750D01*
X004050Y000485D02*
X004050Y000400D01*
X003950Y000400D02*
X003950Y000480D01*
X003850Y000480D02*
X003850Y000400D01*
X003750Y000400D02*
X003750Y000480D01*
X003650Y000485D02*
X003650Y000400D01*
X003550Y000400D02*
X003550Y000585D01*
X003585Y000550D02*
X003115Y000550D01*
X003150Y000585D02*
X003150Y000400D01*
X003250Y000400D02*
X003250Y000685D01*
X003215Y000650D02*
X003485Y000650D01*
X003450Y000685D02*
X003450Y000400D01*
X003350Y000400D02*
X003350Y000967D01*
X003333Y000950D02*
X003380Y000950D01*
X003380Y000850D02*
X003320Y000850D01*
X003315Y000750D02*
X003385Y000750D01*
X003050Y000950D02*
X003350Y001250D01*
X003350Y002050D01*
X003030Y002050D02*
X001677Y002050D01*
X001650Y002022D02*
X001650Y001415D01*
X001585Y001350D02*
X001072Y001350D01*
X001050Y001372D02*
X001050Y002022D01*
X001023Y002050D02*
X000400Y002050D01*
X000400Y001950D02*
X001053Y001950D01*
X001150Y001855D02*
X001150Y001788D01*
X001250Y001788D02*
X001250Y001855D01*
X001316Y001850D02*
X000400Y001850D01*
X000400Y001750D02*
X001053Y001750D01*
X001053Y001650D02*
X000400Y001650D01*
X000400Y001550D02*
X001114Y001550D01*
X001150Y001536D02*
X001150Y001272D01*
X001172Y001250D02*
X001485Y001250D01*
X001450Y001215D02*
X001450Y001534D01*
X001384Y001534D02*
X001543Y001534D01*
X001573Y001543D01*
X001601Y001558D01*
X001623Y001581D01*
X001639Y001608D01*
X001647Y001639D01*
X001647Y001788D01*
X001384Y001788D01*
X001384Y001534D01*
X001384Y001550D02*
X001316Y001550D01*
X001250Y001534D02*
X001250Y001172D01*
X001272Y001150D02*
X001385Y001150D01*
X001350Y001150D02*
X001350Y001822D01*
X001350Y001788D02*
X001350Y000400D01*
X001250Y000400D02*
X001250Y000728D01*
X001272Y000750D02*
X001385Y000750D01*
X001450Y000685D02*
X001450Y000400D01*
X001550Y000400D02*
X001550Y000585D01*
X001585Y000550D02*
X001072Y000550D01*
X001050Y000528D02*
X001050Y000400D01*
X000950Y000400D02*
X000950Y000510D01*
X000900Y000510D02*
X001032Y000510D01*
X001290Y000768D01*
X001290Y000900D01*
X000900Y000900D01*
X000900Y001000D01*
X000800Y001000D01*
X000800Y000900D01*
X000900Y000900D01*
X000900Y000510D01*
X000900Y000550D02*
X000800Y000550D01*
X000750Y000510D02*
X000750Y000400D01*
X000650Y000400D02*
X000650Y000528D01*
X000628Y000550D02*
X000400Y000550D01*
X000400Y000650D02*
X000528Y000650D01*
X000550Y000628D02*
X000550Y000400D01*
X000850Y000400D02*
X000850Y000900D01*
X000850Y000950D02*
X001150Y000950D01*
X001350Y001150D01*
X001290Y001132D02*
X001032Y001390D01*
X000900Y001390D01*
X000900Y001000D01*
X001290Y001000D01*
X001290Y001132D01*
X001290Y001050D02*
X001380Y001050D01*
X001380Y000950D02*
X000900Y000950D01*
X000950Y000900D02*
X000950Y001000D01*
X000900Y001050D02*
X000800Y001050D01*
X000850Y001000D02*
X000850Y002545D01*
X000838Y002550D02*
X000400Y002550D01*
X000400Y002450D02*
X001023Y002450D01*
X001050Y002535D02*
X001050Y002545D01*
X001062Y002550D02*
X001065Y002550D01*
X001148Y002596D02*
X001150Y002596D01*
X001150Y002597D01*
X001148Y002596D01*
X000950Y002530D02*
X000950Y001390D01*
X000900Y001350D02*
X000800Y001350D01*
X000750Y001390D02*
X000750Y002597D01*
X000697Y002650D02*
X000400Y002650D01*
X000400Y002750D02*
X000645Y002750D01*
X000650Y002738D02*
X000650Y001372D01*
X000628Y001350D02*
X000400Y001350D01*
X000400Y001250D02*
X000528Y001250D01*
X000550Y001272D02*
X000550Y009628D01*
X000528Y009650D02*
X000400Y009650D01*
X000550Y009900D02*
X000550Y010000D01*
X000650Y010000D02*
X000650Y009900D01*
X000750Y009900D02*
X000750Y010000D01*
X000800Y009950D02*
X000400Y009950D01*
X000400Y010250D02*
X000528Y010250D01*
X000550Y010272D02*
X000550Y010500D01*
X000650Y010500D02*
X000650Y010372D01*
X000628Y010350D02*
X000400Y010350D01*
X000400Y010450D02*
X013350Y010450D01*
X013350Y010350D02*
X012302Y010350D01*
X012250Y010402D02*
X012250Y010500D01*
X012350Y010500D02*
X012350Y006170D01*
X012250Y006170D02*
X012250Y009498D01*
X012302Y009550D02*
X013350Y009550D01*
X013350Y009450D02*
X010750Y009450D01*
X010750Y009480D02*
X010750Y008103D01*
X010750Y009480D01*
X011045Y009480D01*
X011320Y009755D01*
X011320Y010145D01*
X011320Y010050D02*
X011380Y010050D01*
X011380Y009950D02*
X011320Y009950D01*
X011320Y009850D02*
X011380Y009850D01*
X011380Y009750D02*
X011315Y009750D01*
X011450Y009498D02*
X011450Y007603D01*
X011397Y007550D02*
X010750Y007550D01*
X010750Y007597D02*
X010821Y007669D01*
X010870Y007786D01*
X010870Y007914D01*
X010821Y008031D01*
X010750Y008103D01*
X010750Y008150D02*
X013350Y008150D01*
X013350Y008050D02*
X010803Y008050D01*
X010850Y007962D02*
X010850Y009480D01*
X010950Y009480D02*
X010950Y006170D01*
X011017Y006170D02*
X011105Y006082D01*
X011105Y006050D01*
X011167Y006050D01*
X011105Y006050D01*
X011150Y006050D02*
X011150Y006265D01*
X011165Y006250D02*
X010662Y006250D01*
X010650Y006245D02*
X010650Y006170D01*
X010614Y006230D02*
X010486Y006230D01*
X010369Y006279D01*
X010279Y006369D01*
X010230Y006486D01*
X010230Y006614D01*
X010279Y006731D01*
X010350Y006803D01*
X010350Y007597D01*
X010279Y007669D01*
X010230Y007786D01*
X010230Y007914D01*
X010279Y008031D01*
X010350Y008103D01*
X010350Y009933D01*
X010367Y009950D02*
X010320Y009950D01*
X010320Y009850D02*
X010350Y009850D01*
X010320Y009755D02*
X010045Y009480D01*
X009950Y009480D01*
X009950Y006097D01*
X009950Y009480D01*
X009950Y009450D02*
X010350Y009450D01*
X010350Y009550D02*
X010115Y009550D01*
X010150Y009585D02*
X010150Y006170D01*
X010050Y006170D02*
X010050Y009485D01*
X010215Y009650D02*
X010350Y009650D01*
X010350Y009750D02*
X010315Y009750D01*
X010320Y009755D02*
X010320Y010145D01*
X010045Y010420D01*
X009950Y010420D02*
X009950Y010500D01*
X009850Y010500D02*
X009850Y010420D01*
X009750Y010420D02*
X009750Y010500D01*
X009650Y010500D02*
X009650Y010415D01*
X009585Y010350D02*
X009115Y010350D01*
X009150Y010315D02*
X009150Y010500D01*
X009250Y010500D02*
X009250Y010215D01*
X009215Y010250D02*
X009485Y010250D01*
X009450Y010215D02*
X009450Y010500D01*
X009550Y010500D02*
X009550Y010315D01*
X009385Y010150D02*
X009315Y010150D01*
X009320Y010050D02*
X009380Y010050D01*
X009380Y009950D02*
X009320Y009950D01*
X009320Y009850D02*
X009380Y009850D01*
X009385Y009750D02*
X009315Y009750D01*
X009250Y009685D02*
X009250Y004555D01*
X009238Y004550D02*
X009150Y004550D01*
X009150Y004503D02*
X009150Y009585D01*
X009150Y009550D02*
X009550Y009550D01*
X009550Y009450D02*
X009150Y009450D01*
X009150Y009350D02*
X009550Y009350D01*
X009550Y009250D02*
X009150Y009250D01*
X009150Y009150D02*
X009550Y009150D01*
X009550Y009050D02*
X009150Y009050D01*
X009150Y008950D02*
X009550Y008950D01*
X009550Y008850D02*
X009150Y008850D01*
X009150Y008750D02*
X009550Y008750D01*
X009550Y008650D02*
X009150Y008650D01*
X009150Y008550D02*
X009550Y008550D01*
X009550Y008450D02*
X009150Y008450D01*
X009150Y008350D02*
X009550Y008350D01*
X009550Y008250D02*
X009150Y008250D01*
X009150Y008150D02*
X009550Y008150D01*
X009550Y008050D02*
X009150Y008050D01*
X009150Y007950D02*
X009550Y007950D01*
X009550Y007850D02*
X009150Y007850D01*
X009150Y007750D02*
X009550Y007750D01*
X009550Y007650D02*
X009150Y007650D01*
X009150Y007550D02*
X009550Y007550D01*
X009550Y007450D02*
X009150Y007450D01*
X009150Y007350D02*
X009550Y007350D01*
X009550Y007250D02*
X009150Y007250D01*
X009150Y007150D02*
X009550Y007150D01*
X009550Y007050D02*
X009150Y007050D01*
X009150Y006950D02*
X009550Y006950D01*
X009550Y006850D02*
X009150Y006850D01*
X009150Y006750D02*
X009550Y006750D01*
X009550Y006650D02*
X009150Y006650D01*
X009150Y006550D02*
X009550Y006550D01*
X009550Y006450D02*
X009150Y006450D01*
X009150Y006350D02*
X009550Y006350D01*
X009550Y006250D02*
X009150Y006250D01*
X009150Y006150D02*
X009550Y006150D01*
X009550Y006050D02*
X009150Y006050D01*
X009150Y005950D02*
X009550Y005950D01*
X009550Y005850D02*
X009150Y005850D01*
X009150Y005750D02*
X009550Y005750D01*
X009550Y005650D02*
X009150Y005650D01*
X009150Y005550D02*
X009550Y005550D01*
X009550Y005450D02*
X009150Y005450D01*
X009150Y005350D02*
X009550Y005350D01*
X009550Y005250D02*
X009150Y005250D01*
X009150Y005150D02*
X009550Y005150D01*
X009550Y005050D02*
X009150Y005050D01*
X009150Y004950D02*
X009550Y004950D01*
X009550Y004850D02*
X009150Y004850D01*
X009150Y004750D02*
X009497Y004750D01*
X009450Y004662D02*
X009450Y009685D01*
X009485Y009650D02*
X009215Y009650D01*
X008950Y009850D02*
X008850Y009950D01*
X008950Y009850D02*
X008950Y002950D01*
X009150Y003203D02*
X009150Y003203D01*
X009150Y003997D01*
X009150Y003203D01*
X009150Y003250D02*
X009150Y003250D01*
X009150Y003350D02*
X009150Y003350D01*
X009150Y003450D02*
X009150Y003450D01*
X009150Y003550D02*
X009150Y003550D01*
X009150Y003650D02*
X009150Y003650D01*
X009150Y003750D02*
X009150Y003750D01*
X009150Y003850D02*
X009150Y003850D01*
X009150Y003950D02*
X009150Y003950D01*
X009150Y003997D02*
X009150Y003997D01*
X009350Y004250D02*
X009350Y001450D01*
X009850Y000950D01*
X009450Y000685D02*
X009450Y000400D01*
X009550Y000400D02*
X009550Y000585D01*
X009585Y000550D02*
X009115Y000550D01*
X009150Y000585D02*
X009150Y000400D01*
X009250Y000400D02*
X009250Y000685D01*
X009215Y000650D02*
X009485Y000650D01*
X009385Y000750D02*
X009315Y000750D01*
X009320Y000755D02*
X009320Y001145D01*
X009045Y001420D01*
X008763Y001420D01*
X008750Y001433D01*
X008750Y002697D01*
X008750Y001433D01*
X008750Y001450D02*
X009150Y001450D01*
X009150Y001367D02*
X009150Y001315D01*
X009167Y001350D02*
X009115Y001350D01*
X009150Y001367D02*
X009380Y001137D01*
X009380Y000755D01*
X009655Y000480D01*
X010045Y000480D01*
X010320Y000755D01*
X010320Y001145D01*
X010045Y001420D01*
X009663Y001420D01*
X009550Y001533D01*
X009550Y002697D01*
X009550Y001533D01*
X009550Y001550D02*
X013350Y001550D01*
X013350Y001450D02*
X009633Y001450D01*
X009650Y001433D02*
X009650Y002645D01*
X009638Y002650D02*
X009550Y002650D01*
X009569Y002679D02*
X009686Y002630D01*
X009814Y002630D01*
X009931Y002679D01*
X010021Y002769D01*
X010070Y002886D01*
X010070Y003014D01*
X010021Y003131D01*
X009950Y003203D01*
X009950Y004203D01*
X010023Y004130D01*
X010320Y004130D01*
X010320Y003210D01*
X010242Y003131D01*
X010193Y003014D01*
X010193Y002886D01*
X010242Y002769D01*
X010332Y002679D01*
X010449Y002630D01*
X010577Y002630D01*
X010694Y002679D01*
X010784Y002769D01*
X010833Y002886D01*
X010833Y003014D01*
X010784Y003131D01*
X010720Y003196D01*
X010720Y004130D01*
X011017Y004130D01*
X011105Y004218D01*
X011105Y004582D01*
X011037Y004650D01*
X011087Y004700D01*
X011150Y004700D01*
X011150Y003234D01*
X011119Y003221D01*
X011029Y003131D01*
X010980Y003014D01*
X010980Y002886D01*
X011029Y002769D01*
X011119Y002679D01*
X011237Y002630D01*
X011364Y002630D01*
X011412Y002650D02*
X013350Y002650D01*
X013350Y002550D02*
X009550Y002550D01*
X009550Y002450D02*
X013350Y002450D01*
X013350Y002350D02*
X009550Y002350D01*
X009550Y002250D02*
X013350Y002250D01*
X013350Y002150D02*
X009550Y002150D01*
X009550Y002050D02*
X013350Y002050D01*
X013350Y001950D02*
X009550Y001950D01*
X009550Y001850D02*
X013350Y001850D01*
X013350Y001750D02*
X009550Y001750D01*
X009550Y001650D02*
X013350Y001650D01*
X013350Y001350D02*
X012115Y001350D01*
X012150Y001315D02*
X012150Y004160D01*
X012129Y004160D02*
X012570Y004160D01*
X012570Y004390D01*
X012590Y004390D01*
X012590Y004410D01*
X013135Y004410D01*
X013135Y004536D01*
X013127Y004566D01*
X013111Y004594D01*
X013089Y004616D01*
X013064Y004630D01*
X013077Y004630D01*
X013165Y004718D01*
X013165Y005082D01*
X013097Y005150D01*
X013350Y005150D01*
X013350Y005050D02*
X013165Y005050D01*
X013150Y005097D02*
X013150Y005203D01*
X013165Y005218D02*
X013097Y005150D01*
X013165Y005218D02*
X013165Y005582D01*
X013097Y005650D01*
X013165Y005718D01*
X013165Y006082D01*
X013077Y006170D01*
X012083Y006170D01*
X011995Y006082D01*
X011995Y005718D01*
X012063Y005650D01*
X012050Y005637D02*
X012050Y005663D01*
X011995Y005750D02*
X011433Y005750D01*
X011450Y005767D02*
X011450Y005033D01*
X011433Y005050D02*
X011995Y005050D01*
X011995Y005082D02*
X011995Y004718D01*
X012083Y004630D01*
X012096Y004630D01*
X012071Y004616D01*
X012049Y004594D01*
X012033Y004566D01*
X012025Y004536D01*
X012025Y004410D01*
X012570Y004410D01*
X012570Y004390D01*
X012025Y004390D01*
X012025Y004264D01*
X012033Y004234D01*
X012049Y004206D01*
X012071Y004184D01*
X012099Y004168D01*
X012129Y004160D01*
X012050Y004205D02*
X012050Y001415D01*
X011950Y001420D02*
X011950Y006253D01*
X012050Y006253D02*
X012050Y006137D01*
X012063Y006150D02*
X011622Y006150D01*
X011650Y006223D02*
X011650Y001415D01*
X011585Y001350D02*
X011115Y001350D01*
X011150Y001315D02*
X011150Y002666D01*
X011188Y002650D02*
X010625Y002650D01*
X010650Y002660D02*
X010650Y001415D01*
X010655Y001420D02*
X010380Y001145D01*
X010380Y000755D01*
X010655Y000480D01*
X011045Y000480D01*
X011320Y000755D01*
X011320Y001145D01*
X011045Y001420D01*
X010655Y001420D01*
X010750Y001420D02*
X010750Y002734D01*
X010766Y002750D02*
X011048Y002750D01*
X011050Y002748D02*
X011050Y001415D01*
X010950Y001420D02*
X010950Y004130D01*
X011037Y004150D02*
X011150Y004150D01*
X011150Y004250D02*
X011105Y004250D01*
X011105Y004350D02*
X011150Y004350D01*
X011150Y004450D02*
X011105Y004450D01*
X011105Y004550D02*
X011150Y004550D01*
X011150Y004650D02*
X011037Y004650D01*
X011050Y004637D02*
X011050Y004663D01*
X011300Y004900D02*
X011350Y004850D01*
X011350Y003000D01*
X011300Y002950D01*
X010995Y003050D02*
X010818Y003050D01*
X010833Y002950D02*
X010980Y002950D01*
X010995Y002850D02*
X010818Y002850D01*
X010766Y003150D02*
X011048Y003150D01*
X011050Y003152D02*
X011050Y004163D01*
X011150Y004050D02*
X010720Y004050D01*
X010750Y004130D02*
X010750Y003166D01*
X010720Y003250D02*
X011150Y003250D01*
X011150Y003350D02*
X010720Y003350D01*
X010720Y003450D02*
X011150Y003450D01*
X011150Y003550D02*
X010720Y003550D01*
X010720Y003650D02*
X011150Y003650D01*
X011150Y003750D02*
X010720Y003750D01*
X010720Y003850D02*
X011150Y003850D01*
X011150Y003950D02*
X010720Y003950D01*
X010850Y004130D02*
X010850Y001420D01*
X010585Y001350D02*
X010115Y001350D01*
X010150Y001315D02*
X010150Y004130D01*
X010050Y004130D02*
X010050Y003062D01*
X010055Y003050D02*
X010208Y003050D01*
X010250Y003140D02*
X010250Y004130D01*
X010320Y004050D02*
X009950Y004050D01*
X009950Y003950D02*
X010320Y003950D01*
X010320Y003850D02*
X009950Y003850D01*
X009950Y003750D02*
X010320Y003750D01*
X010320Y003650D02*
X009950Y003650D01*
X009950Y003550D02*
X010320Y003550D01*
X010320Y003450D02*
X009950Y003450D01*
X009950Y003350D02*
X010320Y003350D01*
X010320Y003250D02*
X009950Y003250D01*
X009950Y003203D02*
X009950Y004203D01*
X009950Y004150D02*
X010003Y004150D01*
X009750Y004550D02*
X009750Y009850D01*
X009850Y009950D01*
X010250Y009685D02*
X010250Y007962D01*
X010245Y007950D02*
X009950Y007950D01*
X009950Y007850D02*
X010230Y007850D01*
X010245Y007750D02*
X009950Y007750D01*
X009950Y007650D02*
X010297Y007650D01*
X010250Y007738D02*
X010250Y006662D01*
X010245Y006650D02*
X009950Y006650D01*
X009950Y006750D02*
X010297Y006750D01*
X010350Y006850D02*
X009950Y006850D01*
X009950Y006950D02*
X010350Y006950D01*
X010350Y007050D02*
X009950Y007050D01*
X009950Y007150D02*
X010350Y007150D01*
X010350Y007250D02*
X009950Y007250D01*
X009950Y007350D02*
X010350Y007350D01*
X010350Y007450D02*
X009950Y007450D01*
X009950Y007550D02*
X010350Y007550D01*
X010550Y007850D02*
X010550Y009850D01*
X010650Y009950D01*
X010850Y009950D01*
X010380Y010050D02*
X010320Y010050D01*
X010315Y010150D02*
X010385Y010150D01*
X010650Y010415D02*
X010650Y010500D01*
X010750Y010500D02*
X010750Y010420D01*
X010850Y010420D02*
X010850Y010500D01*
X010950Y010500D02*
X010950Y010420D01*
X011050Y010415D02*
X011050Y010500D01*
X011550Y010500D02*
X011550Y010420D01*
X011650Y010420D02*
X011650Y010500D01*
X011750Y010500D02*
X011750Y010420D01*
X011850Y010420D02*
X011850Y010500D01*
X011950Y010500D02*
X011950Y010420D01*
X012050Y010420D02*
X012050Y010500D01*
X012150Y010500D02*
X012150Y010420D01*
X012320Y010250D02*
X013350Y010250D01*
X013350Y010150D02*
X012320Y010150D01*
X012320Y010050D02*
X013350Y010050D01*
X013350Y009950D02*
X012320Y009950D01*
X012320Y009850D02*
X013350Y009850D01*
X013350Y009750D02*
X012320Y009750D01*
X012320Y009650D02*
X013350Y009650D01*
X013350Y009350D02*
X010750Y009350D01*
X010750Y009250D02*
X013350Y009250D01*
X013350Y009150D02*
X010750Y009150D01*
X010750Y009050D02*
X013350Y009050D01*
X013350Y008950D02*
X010750Y008950D01*
X010750Y008850D02*
X013350Y008850D01*
X013350Y008750D02*
X010750Y008750D01*
X010750Y008650D02*
X013350Y008650D01*
X013350Y008550D02*
X010750Y008550D01*
X010750Y008450D02*
X013350Y008450D01*
X013350Y008350D02*
X010750Y008350D01*
X010750Y008250D02*
X013350Y008250D01*
X013350Y007950D02*
X010855Y007950D01*
X010870Y007850D02*
X013350Y007850D01*
X013350Y007750D02*
X010855Y007750D01*
X010850Y007738D02*
X010850Y006662D01*
X010855Y006650D02*
X011104Y006650D01*
X011104Y006750D02*
X010803Y006750D01*
X010821Y006731D02*
X010750Y006803D01*
X010750Y007597D01*
X010750Y006803D01*
X010750Y006850D02*
X011150Y006850D01*
X011150Y006835D02*
X011104Y006789D01*
X011104Y006311D01*
X011192Y006223D01*
X011222Y006223D01*
X011222Y006104D01*
X011167Y006050D01*
X011222Y006150D02*
X011037Y006150D01*
X011050Y006137D02*
X011050Y009485D01*
X011550Y009480D02*
X011550Y007655D01*
X011538Y007650D02*
X010803Y007650D01*
X010750Y007450D02*
X011167Y007450D01*
X011150Y007433D02*
X011150Y006835D01*
X011150Y006950D02*
X010750Y006950D01*
X010750Y007050D02*
X011150Y007050D01*
X011150Y007150D02*
X010750Y007150D01*
X010750Y007250D02*
X011150Y007250D01*
X011150Y007350D02*
X010750Y007350D01*
X011350Y007350D02*
X011350Y006622D01*
X011422Y006550D01*
X011422Y006022D01*
X011250Y005850D01*
X010570Y005850D01*
X010520Y005900D01*
X010550Y006170D02*
X010550Y006230D01*
X010614Y006230D02*
X010731Y006279D01*
X010821Y006369D01*
X010870Y006486D01*
X010870Y006614D01*
X010821Y006731D01*
X010870Y006550D02*
X011104Y006550D01*
X011104Y006450D02*
X010855Y006450D01*
X010850Y006438D02*
X010850Y006170D01*
X010750Y006170D02*
X010750Y006297D01*
X010803Y006350D02*
X011104Y006350D01*
X011017Y006170D02*
X010023Y006170D01*
X009950Y006097D01*
X009950Y006150D02*
X010003Y006150D01*
X009950Y006250D02*
X010438Y006250D01*
X010450Y006245D02*
X010450Y006170D01*
X010350Y006170D02*
X010350Y006297D01*
X010297Y006350D02*
X009950Y006350D01*
X009950Y006450D02*
X010245Y006450D01*
X010250Y006438D02*
X010250Y006170D01*
X010230Y006550D02*
X009950Y006550D01*
X010550Y006550D02*
X010550Y007850D01*
X010297Y008050D02*
X009950Y008050D01*
X009950Y008150D02*
X010350Y008150D01*
X010350Y008250D02*
X009950Y008250D01*
X009950Y008350D02*
X010350Y008350D01*
X010350Y008450D02*
X009950Y008450D01*
X009950Y008550D02*
X010350Y008550D01*
X010350Y008650D02*
X009950Y008650D01*
X009950Y008750D02*
X010350Y008750D01*
X010350Y008850D02*
X009950Y008850D01*
X009950Y008950D02*
X010350Y008950D01*
X010350Y009050D02*
X009950Y009050D01*
X009950Y009150D02*
X010350Y009150D01*
X010350Y009250D02*
X009950Y009250D01*
X009950Y009350D02*
X010350Y009350D01*
X011650Y009480D02*
X011650Y007670D01*
X011750Y007655D02*
X011750Y009480D01*
X011850Y009480D02*
X011850Y007603D01*
X011903Y007550D02*
X013350Y007550D01*
X013350Y007450D02*
X011955Y007450D01*
X011950Y007462D02*
X011950Y009480D01*
X012050Y009480D02*
X012050Y006847D01*
X012061Y006847D02*
X011912Y006847D01*
X011912Y006584D01*
X012166Y006584D01*
X012166Y006743D01*
X012157Y006773D01*
X012142Y006801D01*
X012119Y006823D01*
X012092Y006839D01*
X012061Y006847D01*
X012150Y006786D02*
X012150Y009480D01*
X012450Y010500D02*
X012450Y006170D01*
X012550Y006170D02*
X012550Y010500D01*
X012650Y010500D02*
X012650Y006170D01*
X012750Y006170D02*
X012750Y010500D01*
X012850Y010500D02*
X012850Y006170D01*
X012950Y006170D02*
X012950Y010500D01*
X013050Y010500D02*
X013050Y006170D01*
X013097Y006150D02*
X013350Y006150D01*
X013350Y006050D02*
X013165Y006050D01*
X013150Y006097D02*
X013150Y010500D01*
X013250Y010500D02*
X013250Y000400D01*
X013150Y000400D02*
X013150Y004703D01*
X013165Y004750D02*
X013350Y004750D01*
X013350Y004850D02*
X013165Y004850D01*
X013165Y004950D02*
X013350Y004950D01*
X013350Y004650D02*
X013097Y004650D01*
X013131Y004550D02*
X013350Y004550D01*
X013350Y004450D02*
X013135Y004450D01*
X013135Y004390D02*
X013135Y004264D01*
X013127Y004234D01*
X013111Y004206D01*
X013089Y004184D01*
X013061Y004168D01*
X013031Y004160D01*
X012590Y004160D01*
X012590Y004390D01*
X013135Y004390D01*
X013135Y004350D02*
X013350Y004350D01*
X013350Y004250D02*
X013131Y004250D01*
X013050Y004165D02*
X013050Y000400D01*
X012950Y000400D02*
X012950Y004160D01*
X012850Y004160D02*
X012850Y000400D01*
X012750Y000400D02*
X012750Y004160D01*
X012650Y004160D02*
X012650Y000400D01*
X012550Y000400D02*
X012550Y004160D01*
X012570Y004250D02*
X012590Y004250D01*
X012590Y004350D02*
X012570Y004350D01*
X012530Y004350D02*
X012580Y004400D01*
X012550Y004390D02*
X012550Y004410D01*
X012530Y004350D02*
X011750Y004350D01*
X011878Y004478D01*
X011878Y006550D01*
X011912Y006550D02*
X013350Y006550D01*
X013350Y006450D02*
X012166Y006450D01*
X012150Y006516D02*
X012150Y006584D01*
X012166Y006650D02*
X013350Y006650D01*
X013350Y006750D02*
X012164Y006750D01*
X012050Y006584D02*
X012050Y006516D01*
X011950Y006516D02*
X011950Y006584D01*
X011912Y006650D02*
X011845Y006650D01*
X011850Y006584D02*
X011850Y007097D01*
X011903Y007150D02*
X013350Y007150D01*
X013350Y007050D02*
X011762Y007050D01*
X011750Y007045D02*
X011750Y006847D01*
X011678Y006850D02*
X013350Y006850D01*
X013350Y006950D02*
X011550Y006950D01*
X011550Y006877D02*
X011550Y007045D01*
X011650Y007030D02*
X011650Y006877D01*
X011845Y006750D02*
X011912Y006750D01*
X011950Y006847D02*
X011950Y007238D01*
X011955Y007250D02*
X013350Y007250D01*
X013350Y007350D02*
X011970Y007350D01*
X011650Y007350D02*
X011350Y007350D01*
X011762Y007650D02*
X013350Y007650D01*
X011912Y006450D02*
X011845Y006450D01*
X011850Y006516D02*
X011850Y001420D01*
X011750Y001420D02*
X011750Y006253D01*
X011678Y006250D02*
X013350Y006250D01*
X013350Y006350D02*
X012164Y006350D01*
X012150Y006314D02*
X012150Y006170D01*
X011995Y006050D02*
X011622Y006050D01*
X011622Y005950D02*
X011995Y005950D01*
X011995Y005850D02*
X011533Y005850D01*
X011550Y005867D02*
X011550Y003153D01*
X011553Y003150D02*
X013350Y003150D01*
X013350Y003050D02*
X011605Y003050D01*
X011620Y002950D02*
X013350Y002950D01*
X013350Y002850D02*
X011605Y002850D01*
X011553Y002750D02*
X013350Y002750D01*
X013350Y003250D02*
X011550Y003250D01*
X011550Y003350D02*
X013350Y003350D01*
X013350Y003450D02*
X011550Y003450D01*
X011550Y003550D02*
X013350Y003550D01*
X013350Y003650D02*
X011550Y003650D01*
X011550Y003750D02*
X013350Y003750D01*
X013350Y003850D02*
X011550Y003850D01*
X011550Y003950D02*
X013350Y003950D01*
X013350Y004050D02*
X011550Y004050D01*
X011550Y004150D02*
X013350Y004150D01*
X013050Y004390D02*
X013050Y004410D01*
X012950Y004410D02*
X012950Y004390D01*
X012850Y004390D02*
X012850Y004410D01*
X012750Y004410D02*
X012750Y004390D01*
X012650Y004390D02*
X012650Y004410D01*
X012450Y004390D02*
X012450Y004410D01*
X012350Y004410D02*
X012350Y004390D01*
X012250Y004390D02*
X012250Y004410D01*
X012150Y004410D02*
X012150Y004390D01*
X012050Y004390D02*
X012050Y004410D01*
X012025Y004450D02*
X011550Y004450D01*
X011550Y004350D02*
X012025Y004350D01*
X012029Y004250D02*
X011550Y004250D01*
X011550Y004550D02*
X012029Y004550D01*
X012050Y004595D02*
X012050Y004663D01*
X012063Y004650D02*
X011550Y004650D01*
X011550Y004750D02*
X011995Y004750D01*
X011995Y004850D02*
X011550Y004850D01*
X011533Y004950D02*
X011995Y004950D01*
X011995Y005082D02*
X012063Y005150D01*
X012050Y005137D02*
X012050Y005163D01*
X011350Y005100D02*
X011350Y005667D01*
X011300Y004900D02*
X010520Y004900D01*
X010003Y005150D02*
X009950Y005203D01*
X009950Y005097D01*
X010003Y005150D01*
X009950Y005150D01*
X009950Y005097D02*
X009950Y005203D01*
X009950Y005597D02*
X009950Y005703D01*
X010003Y005650D01*
X009950Y005597D01*
X009950Y005703D01*
X009950Y005650D02*
X010003Y005650D01*
X008750Y005650D02*
X008662Y005650D01*
X008650Y005655D02*
X008650Y009485D01*
X008585Y009550D02*
X008115Y009550D01*
X008150Y009585D02*
X008150Y007670D01*
X008050Y007655D02*
X008050Y009485D01*
X007950Y009480D02*
X007950Y007603D01*
X007897Y007550D02*
X000400Y007550D01*
X000400Y007450D02*
X007845Y007450D01*
X007850Y007462D02*
X007850Y009480D01*
X008215Y009650D02*
X008485Y009650D01*
X008450Y009685D02*
X008450Y007462D01*
X008455Y007450D02*
X008750Y007450D01*
X008750Y007350D02*
X008470Y007350D01*
X008455Y007250D02*
X008750Y007250D01*
X008750Y007150D02*
X008403Y007150D01*
X008350Y007097D02*
X008350Y005603D01*
X008350Y005650D02*
X008438Y005650D01*
X008450Y005655D02*
X008450Y007238D01*
X008350Y007050D02*
X008750Y007050D01*
X008750Y006950D02*
X008350Y006950D01*
X008350Y006850D02*
X008750Y006850D01*
X008750Y006750D02*
X008350Y006750D01*
X008350Y006650D02*
X008750Y006650D01*
X008750Y006550D02*
X008350Y006550D01*
X008350Y006450D02*
X008750Y006450D01*
X008750Y006350D02*
X008350Y006350D01*
X008350Y006250D02*
X008750Y006250D01*
X008750Y006150D02*
X008350Y006150D01*
X008350Y006050D02*
X008750Y006050D01*
X008750Y005950D02*
X008350Y005950D01*
X008350Y005850D02*
X008750Y005850D01*
X008750Y005750D02*
X008350Y005750D01*
X008550Y005670D02*
X008550Y009585D01*
X008750Y009450D02*
X006050Y009450D01*
X006050Y009485D02*
X006320Y009755D01*
X006320Y010145D01*
X006045Y010420D01*
X005950Y010420D02*
X005950Y010500D01*
X005850Y010500D02*
X005850Y010420D01*
X005750Y010420D02*
X005750Y010500D01*
X005650Y010500D02*
X005650Y010415D01*
X005585Y010350D02*
X005115Y010350D01*
X005150Y010315D02*
X005150Y010500D01*
X005250Y010500D02*
X005250Y010215D01*
X005215Y010250D02*
X005485Y010250D01*
X005450Y010215D02*
X005450Y010500D01*
X005550Y010500D02*
X005550Y010315D01*
X005385Y010150D02*
X005315Y010150D01*
X005320Y010145D02*
X005045Y010420D01*
X004655Y010420D01*
X004380Y010145D01*
X004380Y009755D01*
X004650Y009485D01*
X004650Y008803D01*
X004579Y008731D01*
X004530Y008614D01*
X004530Y008486D01*
X004579Y008369D01*
X004669Y008279D01*
X004786Y008230D01*
X004914Y008230D01*
X005031Y008279D01*
X005121Y008369D01*
X005170Y008486D01*
X005170Y008614D01*
X005121Y008731D01*
X005050Y008803D01*
X005050Y009485D01*
X005320Y009755D01*
X005320Y010145D01*
X005320Y010050D02*
X005380Y010050D01*
X005380Y009950D02*
X005320Y009950D01*
X005320Y009850D02*
X005380Y009850D01*
X005385Y009750D02*
X005315Y009750D01*
X005250Y009685D02*
X005250Y006450D01*
X005150Y006450D02*
X005150Y008438D01*
X005155Y008450D02*
X005597Y008450D01*
X005550Y008362D02*
X005550Y009585D01*
X005585Y009550D02*
X005115Y009550D01*
X005150Y009585D02*
X005150Y008662D01*
X005155Y008650D02*
X005650Y008650D01*
X005650Y008550D02*
X005170Y008550D01*
X005103Y008350D02*
X005545Y008350D01*
X005530Y008250D02*
X004962Y008250D01*
X004950Y008245D02*
X004950Y006450D01*
X004850Y006450D02*
X004850Y008230D01*
X004750Y008245D02*
X004750Y006450D01*
X004650Y006450D02*
X004650Y008297D01*
X004597Y008350D02*
X000400Y008350D01*
X000400Y008250D02*
X004738Y008250D01*
X004550Y008438D02*
X004550Y006450D01*
X004450Y006450D02*
X004450Y009685D01*
X004485Y009650D02*
X004215Y009650D01*
X004250Y009685D02*
X004250Y006450D01*
X004150Y006450D02*
X004150Y008638D01*
X004155Y008650D02*
X004545Y008650D01*
X004550Y008662D02*
X004550Y009585D01*
X004585Y009550D02*
X004115Y009550D01*
X004150Y009585D02*
X004150Y008862D01*
X004155Y008850D02*
X004650Y008850D01*
X004650Y008950D02*
X004103Y008950D01*
X004050Y009003D02*
X004050Y009485D01*
X004050Y009450D02*
X004650Y009450D01*
X004650Y009350D02*
X004050Y009350D01*
X004050Y009250D02*
X004650Y009250D01*
X004650Y009150D02*
X004050Y009150D01*
X004050Y009050D02*
X004650Y009050D01*
X005050Y009050D02*
X005650Y009050D01*
X005650Y009150D02*
X005050Y009150D01*
X005050Y009250D02*
X005650Y009250D01*
X005650Y009350D02*
X005050Y009350D01*
X005050Y009450D02*
X005650Y009450D01*
X005485Y009650D02*
X005215Y009650D01*
X005050Y009485D02*
X005050Y008803D01*
X005050Y008850D02*
X005650Y008850D01*
X005650Y008750D02*
X005103Y008750D01*
X005050Y008950D02*
X005650Y008950D01*
X006050Y008950D02*
X008750Y008950D01*
X008750Y008850D02*
X006050Y008850D01*
X006050Y008750D02*
X008750Y008750D01*
X008750Y008650D02*
X006050Y008650D01*
X006155Y008350D02*
X008750Y008350D01*
X008750Y008250D02*
X006170Y008250D01*
X006155Y008150D02*
X008750Y008150D01*
X008750Y008050D02*
X006103Y008050D01*
X006050Y007997D02*
X006050Y006503D01*
X006103Y006450D02*
X007950Y006450D01*
X007950Y006350D02*
X006155Y006350D01*
X006150Y006362D02*
X006150Y008138D01*
X005962Y007950D02*
X008750Y007950D01*
X008750Y007850D02*
X000400Y007850D01*
X000400Y007950D02*
X005738Y007950D01*
X005750Y007945D02*
X005750Y006555D01*
X005850Y006570D02*
X005850Y007930D01*
X005950Y007945D02*
X005950Y006555D01*
X005962Y006550D02*
X007950Y006550D01*
X007950Y006650D02*
X000400Y006650D01*
X000400Y006750D02*
X007950Y006750D01*
X007950Y006850D02*
X000400Y006850D01*
X000400Y006950D02*
X007950Y006950D01*
X007950Y007050D02*
X000400Y007050D01*
X000400Y007150D02*
X007897Y007150D01*
X007850Y007238D02*
X007850Y005970D01*
X007950Y006250D02*
X006170Y006250D01*
X005850Y006250D02*
X004550Y006250D01*
X004550Y005650D01*
X004870Y005650D02*
X007530Y005650D01*
X007545Y005550D02*
X004855Y005550D01*
X004850Y005538D02*
X004850Y002970D01*
X004650Y002903D02*
X004650Y004138D01*
X004655Y004150D02*
X007650Y004150D01*
X007650Y004250D02*
X004670Y004250D01*
X004655Y004350D02*
X007650Y004350D01*
X007650Y004050D02*
X004603Y004050D01*
X004350Y004250D02*
X004350Y005350D01*
X003950Y005750D01*
X002950Y005750D01*
X003062Y005450D02*
X003967Y005450D01*
X003950Y005467D02*
X003950Y004870D01*
X003913Y004870D02*
X003833Y004950D01*
X003809Y004950D01*
X004150Y004950D01*
X004150Y004850D02*
X004062Y004850D01*
X004050Y004855D02*
X004050Y005367D01*
X004067Y005350D02*
X002740Y005350D01*
X002740Y005250D02*
X004150Y005250D01*
X004150Y005267D02*
X004150Y004803D01*
X004131Y004821D01*
X004014Y004870D01*
X003913Y004870D01*
X003850Y004933D02*
X003850Y005550D01*
X003867Y005550D02*
X004150Y005267D01*
X004150Y005150D02*
X002695Y005150D01*
X002694Y005149D02*
X002716Y005171D01*
X002732Y005199D01*
X002740Y005229D01*
X002740Y005507D01*
X002769Y005479D01*
X002886Y005430D01*
X003014Y005430D01*
X003131Y005479D01*
X003203Y005550D01*
X003867Y005550D01*
X003750Y005550D02*
X003750Y005099D01*
X003762Y005092D02*
X003735Y005108D01*
X003704Y005116D01*
X003610Y005116D01*
X003610Y004950D01*
X003610Y004950D01*
X003610Y004950D01*
X003610Y005116D01*
X003515Y005116D01*
X003485Y005108D01*
X003457Y005092D01*
X003435Y005070D01*
X003419Y005042D01*
X003411Y005012D01*
X003411Y004947D01*
X003467Y004947D01*
X003467Y004947D01*
X003411Y004947D01*
X003411Y004891D01*
X003381Y004861D01*
X003381Y004639D01*
X003385Y004635D01*
X003385Y004442D01*
X003414Y004413D01*
X003414Y003650D01*
X002770Y003650D01*
X002770Y004117D01*
X002682Y004205D01*
X002488Y004205D01*
X002636Y004353D01*
X003173Y004353D01*
X003174Y004354D01*
X003231Y004354D01*
X003319Y004442D01*
X003319Y004664D01*
X003289Y004694D01*
X003289Y004750D01*
X003233Y004750D01*
X003381Y004750D01*
X003350Y004750D02*
X003090Y004750D01*
X002450Y004750D01*
X002450Y005630D01*
X002500Y005680D01*
X002500Y006400D01*
X002450Y006450D01*
X000550Y006450D01*
X000400Y006550D02*
X002838Y006550D01*
X003250Y006450D02*
X003250Y009685D01*
X003215Y009650D02*
X003485Y009650D01*
X003550Y009585D02*
X003550Y008862D01*
X003597Y008950D02*
X003170Y008950D01*
X003155Y009050D02*
X003650Y009050D01*
X003650Y009150D02*
X003103Y009150D01*
X003050Y009203D02*
X003050Y009485D01*
X003050Y009450D02*
X003650Y009450D01*
X003650Y009350D02*
X003050Y009350D01*
X003050Y009250D02*
X003650Y009250D01*
X003585Y009550D02*
X003115Y009550D01*
X003150Y009585D02*
X003150Y009062D01*
X002850Y008950D02*
X002850Y009950D01*
X002380Y009950D02*
X002320Y009950D01*
X002320Y009850D02*
X002380Y009850D01*
X002385Y009750D02*
X002315Y009750D01*
X002250Y009685D02*
X002250Y006197D01*
X002350Y006231D02*
X002350Y010500D01*
X002450Y010500D02*
X002450Y010215D01*
X002485Y010250D02*
X002215Y010250D01*
X002250Y010215D02*
X002250Y010500D01*
X002150Y010500D02*
X002150Y010315D01*
X002315Y010150D02*
X002385Y010150D01*
X002380Y010050D02*
X002320Y010050D01*
X002450Y009685D02*
X002450Y006235D01*
X002490Y006150D02*
X002510Y006150D01*
X002510Y006050D02*
X002490Y006050D01*
X002490Y005950D02*
X002510Y005950D01*
X002510Y005850D02*
X002490Y005850D01*
X002490Y005750D02*
X002510Y005750D01*
X002510Y005670D02*
X002510Y005125D01*
X002636Y005125D01*
X002666Y005133D01*
X002694Y005149D01*
X002650Y005129D02*
X002650Y004753D01*
X002750Y004753D02*
X002750Y005497D01*
X002740Y005450D02*
X002838Y005450D01*
X002850Y005445D02*
X002850Y004753D01*
X002891Y004753D02*
X002470Y004753D01*
X001922Y004205D01*
X001818Y004205D01*
X001730Y004117D01*
X001730Y004104D01*
X001716Y004129D01*
X001694Y004151D01*
X001666Y004167D01*
X001636Y004175D01*
X001510Y004175D01*
X001510Y003630D01*
X001490Y003630D01*
X001490Y004175D01*
X001364Y004175D01*
X001334Y004167D01*
X001306Y004151D01*
X001284Y004129D01*
X001270Y004104D01*
X001270Y004117D01*
X001200Y004187D01*
X001200Y005113D01*
X001250Y005163D01*
X001250Y004137D01*
X001237Y004150D02*
X001305Y004150D01*
X001350Y004171D02*
X001350Y005095D01*
X001318Y005095D02*
X001682Y005095D01*
X001750Y005163D01*
X001818Y005095D01*
X002182Y005095D01*
X002270Y005183D01*
X002270Y005196D01*
X002284Y005171D01*
X002306Y005149D01*
X002334Y005133D01*
X002364Y005125D01*
X002490Y005125D01*
X002490Y005670D01*
X002510Y005670D01*
X002510Y005650D02*
X002490Y005650D01*
X002490Y005550D02*
X002510Y005550D01*
X002510Y005450D02*
X002490Y005450D01*
X002490Y005350D02*
X002510Y005350D01*
X002510Y005250D02*
X002490Y005250D01*
X002490Y005150D02*
X002510Y005150D01*
X002550Y005125D02*
X002550Y004753D01*
X002467Y004750D02*
X001200Y004750D01*
X001200Y004650D02*
X002367Y004650D01*
X002350Y004650D02*
X002450Y004750D01*
X002450Y004733D02*
X002450Y005125D01*
X002350Y005129D02*
X002350Y004633D01*
X002350Y004650D02*
X001550Y004650D01*
X001500Y004600D01*
X001500Y003620D01*
X001510Y003610D02*
X001510Y003065D01*
X001490Y003065D02*
X001490Y003610D01*
X001510Y003610D01*
X001510Y003650D02*
X001490Y003650D01*
X001490Y003550D02*
X001510Y003550D01*
X001510Y003450D02*
X001490Y003450D01*
X001490Y003350D02*
X001510Y003350D01*
X001510Y003250D02*
X001490Y003250D01*
X001490Y003150D02*
X001510Y003150D01*
X001490Y003065D02*
X001364Y003065D01*
X001334Y003073D01*
X001306Y003089D01*
X001284Y003111D01*
X001270Y003136D01*
X001270Y003123D01*
X001250Y003103D01*
X001250Y003050D01*
X001800Y003050D01*
X001750Y003103D02*
X001750Y001420D01*
X001850Y001420D02*
X001850Y002567D01*
X001867Y002550D02*
X001635Y002550D01*
X001650Y002535D02*
X001650Y003069D01*
X001800Y002950D02*
X001433Y002950D01*
X001433Y002950D01*
X001550Y002833D01*
X001550Y002596D01*
X001550Y002650D02*
X001800Y002650D01*
X001800Y002750D02*
X001550Y002750D01*
X001533Y002850D02*
X001800Y002850D01*
X002000Y002700D02*
X002150Y002550D01*
X003650Y002550D01*
X003850Y002350D01*
X003850Y000950D01*
X003550Y001315D02*
X003550Y001797D01*
X003621Y001869D01*
X003650Y001938D01*
X003650Y001415D01*
X003550Y001315D01*
X003550Y001797D01*
X003550Y001750D02*
X003650Y001750D01*
X003650Y001850D02*
X003603Y001850D01*
X003650Y001650D02*
X003550Y001650D01*
X003550Y001550D02*
X003650Y001550D01*
X003650Y001450D02*
X003550Y001450D01*
X003550Y001350D02*
X003585Y001350D01*
X003150Y001350D02*
X003115Y001350D01*
X003050Y001415D02*
X003050Y001938D01*
X003045Y001950D02*
X001647Y001950D01*
X001550Y001855D02*
X001550Y001788D01*
X001450Y001788D02*
X001450Y001855D01*
X001384Y001850D02*
X003097Y001850D01*
X003150Y001750D02*
X001647Y001750D01*
X001647Y001650D02*
X003150Y001650D01*
X003150Y001550D02*
X001586Y001550D01*
X001550Y001536D02*
X001550Y001315D01*
X001384Y001650D02*
X001316Y001650D01*
X001316Y001750D02*
X001384Y001750D01*
X001677Y002150D02*
X003045Y002150D01*
X003050Y002162D02*
X003050Y002350D01*
X002950Y002350D02*
X002950Y001420D01*
X002850Y001420D02*
X002850Y002350D01*
X002750Y002350D02*
X002750Y001420D01*
X002650Y001415D02*
X002650Y002350D01*
X002550Y002350D02*
X002550Y001315D01*
X002585Y001350D02*
X002115Y001350D01*
X002150Y001315D02*
X002150Y002350D01*
X002067Y002350D02*
X003238Y002350D01*
X003169Y002321D01*
X003079Y002231D01*
X003150Y002303D02*
X003150Y002350D01*
X003462Y002350D02*
X003530Y002350D01*
X003530Y002322D01*
X003462Y002350D01*
X003813Y002670D02*
X003733Y002750D01*
X002233Y002750D01*
X004050Y002750D01*
X004050Y002650D02*
X003962Y002650D01*
X003950Y002655D02*
X003950Y003250D01*
X003997Y003250D02*
X004050Y003197D01*
X004050Y002603D01*
X004031Y002621D01*
X003914Y002670D01*
X003813Y002670D01*
X003850Y002670D02*
X003850Y003250D01*
X003750Y003250D02*
X003750Y002733D01*
X003650Y002750D02*
X003650Y003250D01*
X003550Y003250D02*
X003550Y002750D01*
X003450Y002750D02*
X003450Y003250D01*
X003350Y003250D02*
X003350Y002750D01*
X003250Y002750D02*
X003250Y003250D01*
X003150Y003250D02*
X003150Y002750D01*
X003050Y002750D02*
X003050Y003250D01*
X002950Y003250D02*
X002950Y002750D01*
X002850Y002750D02*
X002850Y003250D01*
X002770Y003250D02*
X002770Y003123D01*
X002682Y003035D01*
X002318Y003035D01*
X002250Y003103D01*
X002250Y002750D01*
X002233Y002750D02*
X002200Y002783D01*
X002200Y003053D01*
X002250Y003103D01*
X002200Y003050D02*
X002303Y003050D01*
X002350Y003035D02*
X002350Y002750D01*
X002450Y002750D02*
X002450Y003035D01*
X002550Y003035D02*
X002550Y002750D01*
X002650Y002750D02*
X002650Y003035D01*
X002697Y003050D02*
X004050Y003050D01*
X004050Y002950D02*
X002200Y002950D01*
X002200Y002850D02*
X004050Y002850D01*
X004050Y003150D02*
X002770Y003150D01*
X002750Y003103D02*
X002750Y002750D01*
X002450Y002350D02*
X002450Y001215D01*
X002485Y001250D02*
X002215Y001250D01*
X002250Y001215D02*
X002250Y002350D01*
X002350Y002350D02*
X002350Y000400D01*
X002450Y000400D02*
X002450Y000685D01*
X002485Y000650D02*
X002215Y000650D01*
X002250Y000685D02*
X002250Y000400D01*
X002150Y000400D02*
X002150Y000585D01*
X002115Y000550D02*
X002585Y000550D01*
X002550Y000585D02*
X002550Y000400D01*
X002650Y000400D02*
X002650Y000485D01*
X002750Y000480D02*
X002750Y000400D01*
X002850Y000400D02*
X002850Y000480D01*
X002950Y000480D02*
X002950Y000400D01*
X003050Y000400D02*
X003050Y000485D01*
X003050Y000950D02*
X002850Y000950D01*
X002380Y000950D02*
X002320Y000950D01*
X002320Y000850D02*
X002380Y000850D01*
X002385Y000750D02*
X002315Y000750D01*
X002050Y000485D02*
X002050Y000400D01*
X001950Y000400D02*
X001950Y000480D01*
X001850Y000480D02*
X001850Y000400D01*
X001750Y000400D02*
X001750Y000480D01*
X001650Y000485D02*
X001650Y000400D01*
X001485Y000650D02*
X001172Y000650D01*
X001150Y000628D02*
X001150Y000400D01*
X000900Y000650D02*
X000800Y000650D01*
X000800Y000750D02*
X000900Y000750D01*
X000900Y000850D02*
X000800Y000850D01*
X000750Y000900D02*
X000750Y001000D01*
X000800Y000950D02*
X000400Y000950D01*
X000550Y000900D02*
X000550Y001000D01*
X000650Y001000D02*
X000650Y000900D01*
X000800Y001150D02*
X000900Y001150D01*
X000900Y001250D02*
X000800Y001250D01*
X001050Y001000D02*
X001050Y000900D01*
X001150Y000900D02*
X001150Y001000D01*
X001250Y001000D02*
X001250Y000900D01*
X001290Y000850D02*
X001380Y000850D01*
X002320Y001050D02*
X002380Y001050D01*
X002385Y001150D02*
X002315Y001150D01*
X003150Y001450D02*
X000400Y001450D01*
X000400Y002150D02*
X001023Y002150D01*
X001023Y002250D02*
X000400Y002250D01*
X000400Y002350D02*
X001023Y002350D01*
X001350Y002278D02*
X001350Y002750D01*
X001250Y002850D01*
X000950Y002850D01*
X001050Y002850D02*
X001050Y003570D01*
X001000Y003620D01*
X001000Y005680D01*
X001500Y005680D01*
X002000Y005680D01*
X001750Y006197D02*
X001750Y009480D01*
X001850Y009480D02*
X001850Y006265D01*
X001803Y006250D02*
X001697Y006250D01*
X001650Y006265D02*
X001650Y009485D01*
X001585Y009550D02*
X001072Y009550D01*
X001050Y009528D02*
X001050Y006265D01*
X000950Y006265D02*
X000950Y009510D01*
X000900Y009550D02*
X000800Y009550D01*
X000750Y009510D02*
X000750Y006197D01*
X000730Y006177D02*
X000730Y005183D01*
X000800Y005113D01*
X000800Y004187D01*
X000730Y004117D01*
X000730Y003123D01*
X000750Y003103D01*
X000750Y003103D01*
X000679Y003031D01*
X000730Y003150D02*
X000400Y003150D01*
X000400Y003250D02*
X000730Y003250D01*
X000730Y003350D02*
X000400Y003350D01*
X000400Y003450D02*
X000730Y003450D01*
X000730Y003550D02*
X000400Y003550D01*
X000400Y003650D02*
X000730Y003650D01*
X000730Y003750D02*
X000400Y003750D01*
X000400Y003850D02*
X000730Y003850D01*
X000730Y003950D02*
X000400Y003950D01*
X000400Y004050D02*
X000730Y004050D01*
X000750Y004137D02*
X000750Y005163D01*
X000763Y005150D02*
X000400Y005150D01*
X000400Y005050D02*
X000800Y005050D01*
X000800Y004950D02*
X000400Y004950D01*
X000400Y004850D02*
X000800Y004850D01*
X000800Y004750D02*
X000400Y004750D01*
X000400Y004650D02*
X000800Y004650D01*
X000800Y004550D02*
X000400Y004550D01*
X000400Y004450D02*
X000800Y004450D01*
X000800Y004350D02*
X000400Y004350D01*
X000400Y004250D02*
X000800Y004250D01*
X000763Y004150D02*
X000400Y004150D01*
X001200Y004250D02*
X001967Y004250D01*
X001950Y004233D02*
X001950Y005095D01*
X001850Y005095D02*
X001850Y004205D01*
X001763Y004150D02*
X001695Y004150D01*
X001650Y004171D02*
X001650Y005095D01*
X001550Y005095D02*
X001550Y004175D01*
X001510Y004150D02*
X001490Y004150D01*
X001450Y004175D02*
X001450Y005095D01*
X001318Y005095D02*
X001250Y005163D01*
X001237Y005150D02*
X001263Y005150D01*
X001200Y005050D02*
X002861Y005050D01*
X002861Y005058D02*
X002861Y004836D01*
X002891Y004806D01*
X002891Y004753D01*
X002861Y004850D02*
X001200Y004850D01*
X001200Y004950D02*
X002861Y004950D01*
X002861Y005058D02*
X002949Y005146D01*
X003231Y005146D01*
X003319Y005058D01*
X003319Y004836D01*
X003289Y004806D01*
X003289Y004750D01*
X003233Y004750D01*
X003233Y004750D01*
X003233Y004750D01*
X003250Y004750D02*
X003250Y004750D01*
X003350Y004750D02*
X003350Y004850D01*
X003447Y004947D01*
X003610Y004947D01*
X003610Y005050D02*
X003610Y005050D01*
X003650Y005116D02*
X003650Y005550D01*
X003550Y005550D02*
X003550Y005116D01*
X003450Y005085D02*
X003450Y005550D01*
X003350Y005550D02*
X003350Y003650D01*
X003414Y003650D02*
X002770Y003650D01*
X002850Y003650D02*
X002850Y004353D01*
X002750Y004353D02*
X002750Y004137D01*
X002737Y004150D02*
X003414Y004150D01*
X003414Y004250D02*
X002533Y004250D01*
X002550Y004267D02*
X002550Y004205D01*
X002650Y004205D02*
X002650Y004353D01*
X002633Y004350D02*
X003414Y004350D01*
X003385Y004450D02*
X003319Y004450D01*
X003319Y004550D02*
X003385Y004550D01*
X003381Y004650D02*
X003319Y004650D01*
X003319Y004850D02*
X003381Y004850D01*
X003411Y004950D02*
X003319Y004950D01*
X003319Y005050D02*
X003424Y005050D01*
X003450Y004947D02*
X003450Y004947D01*
X003610Y004750D02*
X003750Y004750D01*
X003950Y004550D01*
X003814Y004260D02*
X003886Y004230D01*
X004014Y004230D01*
X004045Y004150D02*
X003814Y004150D01*
X003814Y004250D02*
X003838Y004250D01*
X003850Y004245D02*
X003850Y003650D01*
X003814Y003650D02*
X003814Y004260D01*
X004050Y004138D02*
X004050Y003703D01*
X004250Y003450D02*
X003678Y003450D01*
X003614Y003515D01*
X003614Y004553D01*
X003250Y004373D02*
X003250Y003650D01*
X003150Y003650D02*
X003150Y004353D01*
X003050Y004353D02*
X003050Y003650D01*
X002950Y003650D02*
X002950Y004353D01*
X003090Y004553D02*
X002553Y004553D01*
X001950Y003950D01*
X001950Y003670D01*
X002000Y003620D01*
X002000Y002700D01*
X001950Y002467D02*
X001950Y002467D01*
X002067Y002350D01*
X001967Y002450D02*
X001677Y002450D01*
X001450Y002933D02*
X001450Y003065D01*
X001350Y003069D02*
X001350Y003033D01*
X001333Y003050D02*
X001250Y003050D01*
X001250Y003103D01*
X001333Y003050D02*
X001433Y002950D01*
X000630Y002850D02*
X000400Y002850D01*
X001490Y003750D02*
X001510Y003750D01*
X001510Y003850D02*
X001490Y003850D01*
X001490Y003950D02*
X001510Y003950D01*
X001510Y004050D02*
X001490Y004050D01*
X001750Y004137D02*
X001750Y005163D01*
X001737Y005150D02*
X001763Y005150D01*
X002050Y005095D02*
X002050Y004333D01*
X002067Y004350D02*
X001200Y004350D01*
X001200Y004450D02*
X002167Y004450D01*
X002150Y004433D02*
X002150Y005095D01*
X002237Y005150D02*
X002305Y005150D01*
X002250Y005163D02*
X002250Y004533D01*
X002267Y004550D02*
X001200Y004550D01*
X000730Y005250D02*
X000400Y005250D01*
X000400Y005350D02*
X000730Y005350D01*
X000730Y005450D02*
X000400Y005450D01*
X000400Y005550D02*
X000730Y005550D01*
X000730Y005650D02*
X000400Y005650D01*
X000400Y005750D02*
X000730Y005750D01*
X000730Y005850D02*
X000400Y005850D01*
X000400Y005950D02*
X000730Y005950D01*
X000730Y006050D02*
X000400Y006050D01*
X000400Y006150D02*
X000730Y006150D01*
X000730Y006177D02*
X000818Y006265D01*
X001182Y006265D01*
X001250Y006197D01*
X001197Y006250D02*
X001303Y006250D01*
X001350Y006265D02*
X001350Y010500D01*
X001250Y010500D02*
X001250Y010172D01*
X001272Y010150D02*
X001385Y010150D01*
X001450Y010215D02*
X001450Y010500D01*
X001485Y010250D02*
X001172Y010250D01*
X001150Y010272D02*
X001150Y010500D01*
X000900Y010250D02*
X000800Y010250D01*
X000800Y010150D02*
X000900Y010150D01*
X000900Y010050D02*
X000800Y010050D01*
X000950Y010000D02*
X000950Y009900D01*
X000900Y009850D02*
X000800Y009850D01*
X000850Y009900D02*
X000850Y006265D01*
X000803Y006250D02*
X000400Y006250D01*
X001150Y006265D02*
X001150Y009628D01*
X001172Y009650D02*
X001485Y009650D01*
X001450Y009685D02*
X001450Y006265D01*
X001550Y006265D02*
X001550Y009585D01*
X001950Y009480D02*
X001950Y006265D01*
X002050Y006265D02*
X002050Y009485D01*
X002215Y009650D02*
X002485Y009650D01*
X002530Y008950D02*
X000400Y008950D01*
X000400Y008850D02*
X002545Y008850D01*
X002750Y008250D02*
X005250Y008250D01*
X005750Y007750D01*
X005750Y007250D01*
X005450Y006450D02*
X005450Y009685D01*
X005850Y009950D02*
X005850Y008250D01*
X005050Y008297D02*
X005050Y006450D01*
X005350Y006450D02*
X005350Y010500D01*
X005050Y010500D02*
X005050Y010415D01*
X004950Y010420D02*
X004950Y010500D01*
X004850Y010500D02*
X004850Y010420D01*
X004750Y010420D02*
X004750Y010500D01*
X004650Y010500D02*
X004650Y010415D01*
X004585Y010350D02*
X004115Y010350D01*
X004150Y010315D02*
X004150Y010500D01*
X004050Y010500D02*
X004050Y010415D01*
X003950Y010420D02*
X003950Y010500D01*
X003850Y010500D02*
X003850Y010420D01*
X003750Y010420D02*
X003750Y010500D01*
X003650Y010500D02*
X003650Y010415D01*
X003350Y010500D02*
X003350Y006450D01*
X003650Y006450D02*
X003650Y008497D01*
X003597Y008550D02*
X000400Y008550D01*
X000400Y008450D02*
X003738Y008450D01*
X003750Y008445D02*
X003750Y006450D01*
X003850Y006450D02*
X003850Y008430D01*
X003950Y008445D02*
X003950Y006450D01*
X004050Y006450D02*
X004050Y008497D01*
X004103Y008550D02*
X004530Y008550D01*
X004545Y008450D02*
X003962Y008450D01*
X003850Y008750D02*
X003850Y009950D01*
X004320Y009950D02*
X004380Y009950D01*
X004380Y009850D02*
X004320Y009850D01*
X004315Y009750D02*
X004385Y009750D01*
X004380Y010050D02*
X004320Y010050D01*
X004315Y010150D02*
X004385Y010150D01*
X004450Y010215D02*
X004450Y010500D01*
X004350Y010500D02*
X004350Y006450D01*
X004550Y006250D02*
X002950Y006250D01*
X003153Y006000D02*
X003203Y006050D01*
X004350Y006050D01*
X004350Y005903D01*
X004279Y005831D01*
X004241Y005741D01*
X004150Y005833D01*
X004033Y005950D01*
X003203Y005950D01*
X003153Y006000D01*
X003203Y005950D02*
X004350Y005950D01*
X004297Y005850D02*
X004133Y005850D01*
X004150Y005833D02*
X004150Y005833D01*
X004150Y006050D01*
X004050Y006050D02*
X004050Y005933D01*
X003950Y005950D02*
X003950Y006050D01*
X003850Y006050D02*
X003850Y005950D01*
X003750Y005950D02*
X003750Y006050D01*
X003650Y006050D02*
X003650Y005950D01*
X003550Y005950D02*
X003550Y006050D01*
X003450Y006050D02*
X003450Y005950D01*
X003350Y005950D02*
X003350Y006050D01*
X003250Y006050D02*
X003250Y005950D01*
X003250Y005550D02*
X003250Y005127D01*
X003150Y005146D02*
X003150Y005497D01*
X003050Y005445D02*
X003050Y005146D01*
X002950Y005146D02*
X002950Y005430D01*
X003762Y005092D02*
X003785Y005070D01*
X003800Y005042D01*
X003809Y005012D01*
X003809Y004950D01*
X003796Y005050D02*
X004150Y005050D01*
X004550Y005050D02*
X007650Y005050D01*
X007650Y004950D02*
X004550Y004950D01*
X004550Y004850D02*
X007650Y004850D01*
X007650Y004750D02*
X004550Y004750D01*
X004550Y004650D02*
X007650Y004650D01*
X008350Y004650D02*
X008350Y004650D01*
X008350Y004550D02*
X008350Y004550D01*
X008350Y004450D02*
X008350Y004450D01*
X008350Y004350D02*
X008350Y004350D01*
X008350Y004250D02*
X008350Y004250D01*
X008350Y004150D02*
X008350Y004150D01*
X008350Y004050D02*
X008350Y004050D01*
X008350Y003950D02*
X008350Y003950D01*
X008350Y003850D02*
X008350Y003850D01*
X008350Y003750D02*
X008350Y003750D01*
X008350Y003650D02*
X008350Y003650D01*
X008350Y003550D02*
X008350Y003550D01*
X008350Y003450D02*
X008350Y003450D01*
X008350Y003350D02*
X008350Y003350D01*
X008350Y003250D02*
X008350Y003250D01*
X008350Y003203D02*
X008350Y005097D01*
X008350Y003203D01*
X008350Y003203D01*
X008150Y002950D02*
X008150Y007350D01*
X007830Y007350D02*
X000400Y007350D01*
X000400Y007250D02*
X007845Y007250D01*
X008350Y007603D02*
X008350Y010500D01*
X008250Y010500D02*
X008250Y010215D01*
X008215Y010250D02*
X008485Y010250D01*
X008450Y010215D02*
X008450Y010500D01*
X008550Y010500D02*
X008550Y010315D01*
X008585Y010350D02*
X008115Y010350D01*
X008150Y010315D02*
X008150Y010500D01*
X008050Y010500D02*
X008050Y010415D01*
X007950Y010420D02*
X007950Y010500D01*
X007850Y010500D02*
X007850Y010420D01*
X007750Y010420D02*
X007750Y010500D01*
X007650Y010500D02*
X007650Y010415D01*
X007385Y010150D02*
X007315Y010150D01*
X007320Y010050D02*
X007380Y010050D01*
X007380Y009950D02*
X007320Y009950D01*
X007320Y009850D02*
X007380Y009850D01*
X007385Y009750D02*
X007315Y009750D01*
X006550Y010315D02*
X006550Y010500D01*
X006450Y010500D02*
X006450Y010215D01*
X006485Y010250D02*
X006215Y010250D01*
X006250Y010215D02*
X006250Y010500D01*
X006350Y010500D02*
X006350Y003650D01*
X006450Y003650D02*
X006450Y009685D01*
X006385Y009750D02*
X006315Y009750D01*
X006320Y009850D02*
X006380Y009850D01*
X006380Y009950D02*
X006320Y009950D01*
X006320Y010050D02*
X006380Y010050D01*
X006385Y010150D02*
X006315Y010150D01*
X006050Y009350D02*
X008750Y009350D01*
X008750Y009250D02*
X006050Y009250D01*
X006050Y009150D02*
X008750Y009150D01*
X008750Y009050D02*
X006050Y009050D01*
X004850Y008550D02*
X004850Y009950D01*
X004485Y010250D02*
X004215Y010250D01*
X004250Y010215D02*
X004250Y010500D01*
X004550Y010500D02*
X004550Y010315D01*
X004597Y008750D02*
X004170Y008750D01*
X002750Y008250D02*
X000550Y008250D01*
X000400Y007750D02*
X008750Y007750D01*
X008750Y007650D02*
X008262Y007650D01*
X008250Y007655D02*
X008250Y009685D01*
X008315Y009750D02*
X008385Y009750D01*
X008380Y009850D02*
X008320Y009850D01*
X008320Y009950D02*
X008380Y009950D01*
X008380Y010050D02*
X008320Y010050D01*
X008315Y010150D02*
X008385Y010150D01*
X008650Y010415D02*
X008650Y010500D01*
X008750Y010500D02*
X008750Y010420D01*
X008850Y010420D02*
X008850Y010500D01*
X008950Y010500D02*
X008950Y010420D01*
X009050Y010415D02*
X009050Y010500D01*
X009350Y010500D02*
X009350Y004570D01*
X009445Y004650D02*
X009150Y004650D01*
X008750Y004650D02*
X008750Y004650D01*
X008750Y004550D02*
X008750Y004550D01*
X008750Y004450D02*
X008750Y004450D01*
X008750Y004350D02*
X008750Y004350D01*
X008750Y004250D02*
X008750Y004250D01*
X008750Y004150D02*
X008750Y004150D01*
X008750Y004050D02*
X008750Y004050D01*
X008750Y003950D02*
X008750Y003950D01*
X008750Y003850D02*
X008750Y003850D01*
X008750Y003750D02*
X008750Y003750D01*
X008750Y003650D02*
X008750Y003650D01*
X008750Y003550D02*
X008750Y003550D01*
X008750Y003450D02*
X008750Y003450D01*
X008750Y003350D02*
X008750Y003350D01*
X008750Y003250D02*
X008750Y003250D01*
X008750Y003203D02*
X008750Y005097D01*
X008750Y005097D01*
X008750Y003203D01*
X008750Y003203D01*
X008750Y002697D02*
X008769Y002679D01*
X008886Y002630D01*
X009014Y002630D01*
X009131Y002679D01*
X009150Y002697D01*
X009150Y001367D01*
X009050Y001415D02*
X009050Y002645D01*
X009062Y002650D02*
X009150Y002650D01*
X009150Y002550D02*
X008750Y002550D01*
X008750Y002450D02*
X009150Y002450D01*
X009150Y002350D02*
X008750Y002350D01*
X008750Y002250D02*
X009150Y002250D01*
X009150Y002150D02*
X008750Y002150D01*
X008750Y002050D02*
X009150Y002050D01*
X009150Y001950D02*
X008750Y001950D01*
X008750Y001850D02*
X009150Y001850D01*
X009150Y001750D02*
X008750Y001750D01*
X008750Y001650D02*
X009150Y001650D01*
X009150Y001550D02*
X008750Y001550D01*
X008850Y001420D02*
X008850Y002645D01*
X008838Y002650D02*
X008750Y002650D01*
X008950Y002630D02*
X008950Y001420D01*
X009215Y001250D02*
X009267Y001250D01*
X009250Y001267D02*
X009250Y001215D01*
X009315Y001150D02*
X009367Y001150D01*
X009350Y001167D02*
X009350Y000400D01*
X009050Y000400D02*
X009050Y000485D01*
X009045Y000480D02*
X009320Y000755D01*
X009320Y000850D02*
X009380Y000850D01*
X009380Y000950D02*
X009320Y000950D01*
X009320Y001050D02*
X009380Y001050D01*
X008850Y001050D02*
X008850Y000950D01*
X008850Y001050D02*
X008550Y001350D01*
X008550Y005350D01*
X008350Y005097D02*
X008350Y005097D01*
X008350Y005050D02*
X008350Y005050D01*
X008350Y004950D02*
X008350Y004950D01*
X008350Y004850D02*
X008350Y004850D01*
X008350Y004750D02*
X008350Y004750D01*
X008750Y004750D02*
X008750Y004750D01*
X008750Y004850D02*
X008750Y004850D01*
X008750Y004950D02*
X008750Y004950D01*
X008750Y005050D02*
X008750Y005050D01*
X007850Y005650D02*
X007850Y000950D01*
X008320Y000950D02*
X008380Y000950D01*
X008380Y000850D02*
X008320Y000850D01*
X008315Y000750D02*
X008385Y000750D01*
X008380Y000755D02*
X008655Y000480D01*
X009045Y000480D01*
X008950Y000480D02*
X008950Y000400D01*
X008850Y000400D02*
X008850Y000480D01*
X008750Y000480D02*
X008750Y000400D01*
X008650Y000400D02*
X008650Y000485D01*
X008380Y000755D02*
X008380Y001145D01*
X008426Y001191D01*
X008350Y001267D01*
X008367Y001250D02*
X008215Y001250D01*
X008250Y001215D02*
X008250Y002645D01*
X008262Y002650D02*
X008350Y002650D01*
X008350Y002550D02*
X008050Y002550D01*
X008086Y002630D02*
X008050Y002645D01*
X008050Y002450D02*
X008350Y002450D01*
X008350Y002350D02*
X008050Y002350D01*
X008050Y002250D02*
X008350Y002250D01*
X008350Y002150D02*
X008050Y002150D01*
X008050Y002050D02*
X008350Y002050D01*
X008350Y001950D02*
X008050Y001950D01*
X008050Y001850D02*
X008350Y001850D01*
X008350Y001750D02*
X008050Y001750D01*
X008050Y001650D02*
X008350Y001650D01*
X008350Y001550D02*
X008050Y001550D01*
X008315Y001150D02*
X008385Y001150D01*
X008380Y001050D02*
X008320Y001050D01*
X009650Y000485D02*
X009650Y000400D01*
X009750Y000400D02*
X009750Y000480D01*
X009850Y000480D02*
X009850Y000400D01*
X009950Y000400D02*
X009950Y000480D01*
X010050Y000485D02*
X010050Y000400D01*
X010150Y000400D02*
X010150Y000585D01*
X010115Y000550D02*
X010585Y000550D01*
X010550Y000585D02*
X010550Y000400D01*
X010650Y000400D02*
X010650Y000485D01*
X010750Y000480D02*
X010750Y000400D01*
X010850Y000400D02*
X010850Y000480D01*
X010950Y000480D02*
X010950Y000400D01*
X011050Y000400D02*
X011050Y000485D01*
X011315Y000750D02*
X011385Y000750D01*
X011380Y000850D02*
X011320Y000850D01*
X011320Y000950D02*
X011380Y000950D01*
X011380Y001050D02*
X011320Y001050D01*
X011315Y001150D02*
X011385Y001150D01*
X011450Y001215D02*
X011450Y002666D01*
X011550Y002747D02*
X011550Y001315D01*
X011485Y001250D02*
X011215Y001250D01*
X011250Y001215D02*
X011250Y002630D01*
X010550Y002630D02*
X010550Y001315D01*
X010485Y001250D02*
X010215Y001250D01*
X010250Y001215D02*
X010250Y002760D01*
X010260Y002750D02*
X010003Y002750D01*
X009950Y002697D02*
X009950Y001420D01*
X009850Y001420D02*
X009850Y002645D01*
X009862Y002650D02*
X010401Y002650D01*
X010450Y002630D02*
X010450Y001215D01*
X010385Y001150D02*
X010315Y001150D01*
X010320Y001050D02*
X010380Y001050D01*
X010380Y000950D02*
X010320Y000950D01*
X010320Y000850D02*
X010380Y000850D01*
X010385Y000750D02*
X010315Y000750D01*
X010250Y000685D02*
X010250Y000400D01*
X010350Y000400D02*
X010350Y002671D01*
X010208Y002850D02*
X010055Y002850D01*
X010050Y002838D02*
X010050Y001415D01*
X009750Y001420D02*
X009750Y002630D01*
X009569Y002679D02*
X009550Y002697D01*
X009750Y002950D02*
X009750Y004550D01*
X009550Y003997D02*
X009550Y003997D01*
X009550Y003203D01*
X009550Y003203D01*
X009550Y003997D01*
X009550Y003950D02*
X009550Y003950D01*
X009550Y003850D02*
X009550Y003850D01*
X009550Y003750D02*
X009550Y003750D01*
X009550Y003650D02*
X009550Y003650D01*
X009550Y003550D02*
X009550Y003550D01*
X009550Y003450D02*
X009550Y003450D01*
X009550Y003350D02*
X009550Y003350D01*
X009550Y003250D02*
X009550Y003250D01*
X010003Y003150D02*
X010260Y003150D01*
X010193Y002950D02*
X010070Y002950D01*
X010513Y002950D02*
X010520Y002957D01*
X010520Y004400D01*
X012250Y004160D02*
X012250Y001215D01*
X012215Y001250D02*
X013350Y001250D01*
X013350Y001150D02*
X012315Y001150D01*
X012320Y001050D02*
X013350Y001050D01*
X013350Y000950D02*
X012320Y000950D01*
X012320Y000850D02*
X013350Y000850D01*
X013350Y000750D02*
X012315Y000750D01*
X012250Y000685D02*
X012250Y000400D01*
X012350Y000400D02*
X012350Y004160D01*
X012450Y004160D02*
X012450Y000400D01*
X012215Y000650D02*
X013350Y000650D01*
X011550Y000585D02*
X011550Y000400D01*
X010485Y000650D02*
X010215Y000650D01*
X010450Y000685D02*
X010450Y000400D01*
X006650Y002750D02*
X006103Y002750D01*
X005850Y002950D02*
X005850Y000950D01*
X005485Y001250D02*
X005215Y001250D01*
X005250Y001215D02*
X005250Y006050D01*
X005350Y006050D02*
X005350Y000400D01*
X005650Y000400D02*
X005650Y000485D01*
X005750Y000480D02*
X005750Y000400D01*
X005850Y000400D02*
X005850Y000480D01*
X005950Y000480D02*
X005950Y000400D01*
X006050Y000400D02*
X006050Y000485D01*
X004850Y000950D02*
X004850Y002650D01*
X005170Y002650D02*
X005650Y002650D01*
X004597Y002850D02*
X004450Y002850D01*
X004550Y003150D02*
X004550Y001550D01*
X004650Y001550D02*
X004050Y001550D01*
X004050Y001650D02*
X004650Y001650D01*
X004069Y001779D02*
X004050Y001797D01*
X003997Y003250D02*
X002770Y003250D01*
X002650Y003450D02*
X003678Y003450D01*
X003414Y003750D02*
X002770Y003750D01*
X002770Y003850D02*
X003414Y003850D01*
X003414Y003950D02*
X002770Y003950D01*
X002770Y004050D02*
X003414Y004050D01*
X002650Y003450D02*
X002500Y003600D01*
X002500Y003620D01*
X004550Y005150D02*
X007650Y005150D01*
X008403Y007550D02*
X008750Y007550D01*
X008038Y007650D02*
X000400Y007650D01*
X000800Y009650D02*
X000900Y009650D01*
X000900Y009750D02*
X000800Y009750D01*
X001050Y009900D02*
X001050Y010000D01*
X001150Y010000D02*
X001150Y009900D01*
X001250Y009900D02*
X001250Y010000D01*
X001290Y010050D02*
X001380Y010050D01*
X004250Y006050D02*
X004250Y005762D01*
X004245Y005750D02*
X004233Y005750D01*
X011845Y006350D02*
X011912Y006350D01*
X013097Y005650D02*
X013350Y005650D01*
X013350Y005550D02*
X013165Y005550D01*
X013150Y005597D02*
X013150Y005703D01*
X013165Y005750D02*
X013350Y005750D01*
X013350Y005850D02*
X013165Y005850D01*
X013165Y005950D02*
X013350Y005950D01*
X013350Y005450D02*
X013165Y005450D01*
X013165Y005350D02*
X013350Y005350D01*
X013350Y005250D02*
X013165Y005250D01*
D18*
X001050Y002850D02*
X000950Y002850D01*
D19*
X000950Y002850D03*
X003350Y002050D03*
X003850Y002350D03*
X004250Y002050D03*
X004550Y001550D03*
X004850Y002650D03*
X005850Y002950D03*
X006050Y003450D03*
X004550Y003750D03*
X004250Y003450D03*
X004350Y004250D03*
X003950Y004550D03*
X004550Y005650D03*
X005850Y006250D03*
X005750Y007250D03*
X005850Y008250D03*
X004850Y008550D03*
X003850Y008750D03*
X002850Y008950D03*
X002750Y008250D03*
X002950Y006250D03*
X002950Y005750D03*
X007850Y005650D03*
X008550Y005350D03*
X009750Y004550D03*
X009350Y004250D03*
X008950Y002950D03*
X008150Y002950D03*
X009750Y002950D03*
X010513Y002950D03*
X011300Y002950D03*
X011750Y004350D03*
X010550Y006550D03*
X011650Y007350D03*
X010550Y007850D03*
X008150Y007350D03*
D20*
X000850Y009950D02*
X000750Y009950D01*
X000550Y009750D01*
X000550Y008250D01*
X000550Y006450D01*
X000550Y001250D01*
X000850Y000950D01*
M02*
