G75*
%MOIN*%
%OFA0B0*%
%FSLAX24Y24*%
%IPPOS*%
%LPD*%
%AMOC8*
5,1,8,0,0,1.08239X$1,22.5*
%
%ADD10R,0.0720X0.0720*%
%ADD11OC8,0.0720*%
%ADD12R,0.0320X0.0950*%
%ADD13R,0.0434X0.0415*%
%ADD14R,0.0237X0.0178*%
%ADD15R,0.0950X0.0320*%
%ADD16R,0.0415X0.0434*%
D10*
X011850Y009950D03*
D11*
X000850Y000950D03*
X001850Y000950D03*
X002850Y000950D03*
X003850Y000950D03*
X004850Y000950D03*
X005850Y000950D03*
X006850Y000950D03*
X007850Y000950D03*
X008850Y000950D03*
X009850Y000950D03*
X010850Y000950D03*
X011850Y000950D03*
X010850Y009950D03*
X009850Y009950D03*
X008850Y009950D03*
X007850Y009950D03*
X006850Y009950D03*
X005850Y009950D03*
X004850Y009950D03*
X003850Y009950D03*
X002850Y009950D03*
X001850Y009950D03*
X000850Y009950D03*
D12*
X001000Y005680D03*
X001500Y005680D03*
X002000Y005680D03*
X002500Y005680D03*
X002500Y003620D03*
X002000Y003620D03*
X001500Y003620D03*
X001000Y003620D03*
D13*
X001350Y002278D03*
X001350Y001822D03*
D14*
X003090Y004553D03*
X003090Y004750D03*
X003090Y004947D03*
X003610Y004947D03*
X003610Y004750D03*
X003614Y004553D03*
D15*
X010520Y004400D03*
X010520Y004900D03*
X010520Y005400D03*
X010520Y005900D03*
X012580Y005900D03*
X012580Y005400D03*
X012580Y004900D03*
X012580Y004400D03*
D16*
X011878Y006550D03*
X011422Y006550D03*
M02*
