G75*
%MOIN*%
%OFA0B0*%
%FSLAX24Y24*%
%IPPOS*%
%LPD*%
%AMOC8*
5,1,8,0,0,1.08239X$1,22.5*
%
%ADD10C,0.0000*%
%ADD11C,0.0060*%
%ADD12C,0.0110*%
%ADD13C,0.0080*%
%ADD14R,0.0005X0.0025*%
%ADD15R,0.0005X0.0035*%
%ADD16R,0.0005X0.0045*%
%ADD17R,0.0005X0.0055*%
%ADD18R,0.0005X0.0065*%
%ADD19R,0.0005X0.0075*%
%ADD20R,0.0005X0.0085*%
%ADD21R,0.0005X0.0095*%
%ADD22R,0.0005X0.0105*%
%ADD23R,0.0005X0.0115*%
%ADD24R,0.0005X0.0120*%
%ADD25R,0.0005X0.0130*%
%ADD26R,0.0005X0.0135*%
%ADD27R,0.0005X0.0140*%
%ADD28R,0.0005X0.0070*%
%ADD29R,0.0005X0.0125*%
%ADD30R,0.0005X0.0080*%
%ADD31R,0.0005X0.0090*%
%ADD32R,0.0005X0.0100*%
%ADD33R,0.0005X0.0110*%
%ADD34R,0.0005X0.0010*%
%ADD35R,0.0005X0.0145*%
%ADD36R,0.0005X0.0150*%
%ADD37R,0.0005X0.0155*%
%ADD38R,0.0005X0.0160*%
%ADD39R,0.0005X0.0165*%
%ADD40R,0.0005X0.0020*%
%ADD41R,0.0005X0.0030*%
%ADD42R,0.0005X0.0040*%
%ADD43R,0.0005X0.0050*%
%ADD44R,0.0005X0.0060*%
%ADD45R,0.0005X0.0015*%
%ADD46R,0.0005X0.0175*%
%ADD47R,0.0005X0.0190*%
%ADD48R,0.0005X0.0210*%
%ADD49R,0.0005X0.0225*%
%ADD50R,0.0005X0.0170*%
%ADD51R,0.0005X0.0240*%
%ADD52R,0.0005X0.0195*%
%ADD53R,0.0005X0.0205*%
%ADD54R,0.0005X0.0215*%
%ADD55R,0.0005X0.0230*%
%ADD56R,0.0005X0.0235*%
%ADD57R,0.0005X0.0200*%
%ADD58R,0.0005X0.0245*%
%ADD59R,0.0005X0.0255*%
%ADD60R,0.0005X0.0185*%
%ADD61R,0.0005X0.0295*%
%ADD62R,0.0005X0.0250*%
%ADD63R,0.0005X0.0290*%
%ADD64R,0.0005X0.0285*%
%ADD65R,0.0005X0.0265*%
%ADD66R,0.0005X0.0260*%
%ADD67R,0.0005X0.0180*%
%ADD68R,0.0005X0.0005*%
%ADD69R,0.0192X0.0006*%
%ADD70R,0.0204X0.0006*%
%ADD71R,0.0072X0.0006*%
%ADD72R,0.0252X0.0006*%
%ADD73R,0.0336X0.0006*%
%ADD74R,0.0408X0.0006*%
%ADD75R,0.0468X0.0006*%
%ADD76R,0.0528X0.0006*%
%ADD77R,0.0576X0.0006*%
%ADD78R,0.0612X0.0006*%
%ADD79R,0.0660X0.0006*%
%ADD80R,0.0696X0.0006*%
%ADD81R,0.0732X0.0006*%
%ADD82R,0.0774X0.0006*%
%ADD83R,0.0816X0.0006*%
%ADD84R,0.0846X0.0006*%
%ADD85R,0.0870X0.0006*%
%ADD86R,0.0900X0.0006*%
%ADD87R,0.0918X0.0006*%
%ADD88R,0.0942X0.0006*%
%ADD89R,0.0978X0.0006*%
%ADD90R,0.1002X0.0006*%
%ADD91R,0.1026X0.0006*%
%ADD92R,0.1050X0.0006*%
%ADD93R,0.1074X0.0006*%
%ADD94R,0.1092X0.0006*%
%ADD95R,0.1116X0.0006*%
%ADD96R,0.1134X0.0006*%
%ADD97R,0.1158X0.0006*%
%ADD98R,0.1170X0.0006*%
%ADD99R,0.1194X0.0006*%
%ADD100R,0.1218X0.0006*%
%ADD101R,0.1230X0.0006*%
%ADD102R,0.1254X0.0006*%
%ADD103R,0.1272X0.0006*%
%ADD104R,0.0546X0.0006*%
%ADD105R,0.0516X0.0006*%
%ADD106R,0.0474X0.0006*%
%ADD107R,0.0456X0.0006*%
%ADD108R,0.0462X0.0006*%
%ADD109R,0.0444X0.0006*%
%ADD110R,0.0426X0.0006*%
%ADD111R,0.0432X0.0006*%
%ADD112R,0.0414X0.0006*%
%ADD113R,0.0402X0.0006*%
%ADD114R,0.0390X0.0006*%
%ADD115R,0.0402X0.0006*%
%ADD116R,0.0378X0.0006*%
%ADD117R,0.0366X0.0006*%
%ADD118R,0.0030X0.0006*%
%ADD119R,0.0372X0.0006*%
%ADD120R,0.0360X0.0006*%
%ADD121R,0.0054X0.0006*%
%ADD122R,0.0048X0.0006*%
%ADD123R,0.0066X0.0006*%
%ADD124R,0.0354X0.0006*%
%ADD125R,0.0348X0.0006*%
%ADD126R,0.0090X0.0006*%
%ADD127R,0.0084X0.0006*%
%ADD128R,0.0342X0.0006*%
%ADD129R,0.0108X0.0006*%
%ADD130R,0.0114X0.0006*%
%ADD131R,0.0120X0.0006*%
%ADD132R,0.0342X0.0006*%
%ADD133R,0.0330X0.0006*%
%ADD134R,0.0126X0.0006*%
%ADD135R,0.0132X0.0006*%
%ADD136R,0.0324X0.0006*%
%ADD137R,0.0138X0.0006*%
%ADD138R,0.0144X0.0006*%
%ADD139R,0.0324X0.0006*%
%ADD140R,0.0150X0.0006*%
%ADD141R,0.0156X0.0006*%
%ADD142R,0.0318X0.0006*%
%ADD143R,0.0168X0.0006*%
%ADD144R,0.0162X0.0006*%
%ADD145R,0.0312X0.0006*%
%ADD146R,0.0174X0.0006*%
%ADD147R,0.0186X0.0006*%
%ADD148R,0.0180X0.0006*%
%ADD149R,0.0306X0.0006*%
%ADD150R,0.0300X0.0006*%
%ADD151R,0.0204X0.0006*%
%ADD152R,0.0198X0.0006*%
%ADD153R,0.0210X0.0006*%
%ADD154R,0.0294X0.0006*%
%ADD155R,0.0216X0.0006*%
%ADD156R,0.0222X0.0006*%
%ADD157R,0.0222X0.0006*%
%ADD158R,0.0288X0.0006*%
%ADD159R,0.0294X0.0006*%
%ADD160R,0.0282X0.0006*%
%ADD161R,0.0192X0.0006*%
%ADD162R,0.0276X0.0006*%
%ADD163R,0.0270X0.0006*%
%ADD164R,0.0162X0.0006*%
%ADD165R,0.0264X0.0006*%
%ADD166R,0.0264X0.0006*%
%ADD167R,0.0258X0.0006*%
%ADD168R,0.0144X0.0006*%
%ADD169R,0.0252X0.0006*%
%ADD170R,0.0084X0.0006*%
%ADD171R,0.0462X0.0006*%
%ADD172R,0.0246X0.0006*%
%ADD173R,0.0450X0.0006*%
%ADD174R,0.0132X0.0006*%
%ADD175R,0.0444X0.0006*%
%ADD176R,0.0384X0.0006*%
%ADD177R,0.0438X0.0006*%
%ADD178R,0.0420X0.0006*%
%ADD179R,0.0240X0.0006*%
%ADD180R,0.0498X0.0006*%
%ADD181R,0.0414X0.0006*%
%ADD182R,0.0522X0.0006*%
%ADD183R,0.0234X0.0006*%
%ADD184R,0.0396X0.0006*%
%ADD185R,0.0594X0.0006*%
%ADD186R,0.0606X0.0006*%
%ADD187R,0.0624X0.0006*%
%ADD188R,0.0384X0.0006*%
%ADD189R,0.0642X0.0006*%
%ADD190R,0.0114X0.0006*%
%ADD191R,0.0234X0.0006*%
%ADD192R,0.0678X0.0006*%
%ADD193R,0.0372X0.0006*%
%ADD194R,0.0228X0.0006*%
%ADD195R,0.0714X0.0006*%
%ADD196R,0.0102X0.0006*%
%ADD197R,0.0750X0.0006*%
%ADD198R,0.0354X0.0006*%
%ADD199R,0.0102X0.0006*%
%ADD200R,0.0762X0.0006*%
%ADD201R,0.0096X0.0006*%
%ADD202R,0.0786X0.0006*%
%ADD203R,0.0798X0.0006*%
%ADD204R,0.0810X0.0006*%
%ADD205R,0.0822X0.0006*%
%ADD206R,0.0834X0.0006*%
%ADD207R,0.0858X0.0006*%
%ADD208R,0.0882X0.0006*%
%ADD209R,0.0888X0.0006*%
%ADD210R,0.0906X0.0006*%
%ADD211R,0.0018X0.0006*%
%ADD212R,0.0924X0.0006*%
%ADD213R,0.0930X0.0006*%
%ADD214R,0.0954X0.0006*%
%ADD215R,0.0960X0.0006*%
%ADD216R,0.0966X0.0006*%
%ADD217R,0.0984X0.0006*%
%ADD218R,0.0996X0.0006*%
%ADD219R,0.1008X0.0006*%
%ADD220R,0.1014X0.0006*%
%ADD221R,0.1020X0.0006*%
%ADD222R,0.1032X0.0006*%
%ADD223R,0.0738X0.0006*%
%ADD224R,0.0012X0.0006*%
%ADD225R,0.0078X0.0006*%
%ADD226R,0.0072X0.0006*%
%ADD227R,0.0174X0.0006*%
%ADD228R,0.0060X0.0006*%
%ADD229R,0.0024X0.0006*%
%ADD230R,0.0006X0.0006*%
%ADD231R,0.0054X0.0006*%
%ADD232R,0.0012X0.0006*%
%ADD233R,0.0042X0.0006*%
%ADD234R,0.0036X0.0006*%
%ADD235R,0.0312X0.0006*%
%ADD236R,0.0432X0.0006*%
%ADD237R,0.0804X0.0006*%
%ADD238R,0.1152X0.0006*%
%ADD239R,0.1146X0.0006*%
%ADD240R,0.1140X0.0006*%
%ADD241R,0.1128X0.0006*%
%ADD242R,0.0630X0.0006*%
%ADD243R,0.0726X0.0006*%
%ADD244R,0.0948X0.0006*%
%ADD245R,0.1038X0.0006*%
%ADD246R,0.1086X0.0006*%
%ADD247R,0.1122X0.0006*%
%ADD248R,0.1176X0.0006*%
%ADD249R,0.1278X0.0006*%
%ADD250R,0.1302X0.0006*%
%ADD251R,0.1314X0.0006*%
%ADD252R,0.1326X0.0006*%
%ADD253R,0.0648X0.0006*%
%ADD254R,0.0600X0.0006*%
%ADD255R,0.0564X0.0006*%
%ADD256R,0.0480X0.0006*%
%ADD257R,0.0486X0.0006*%
%ADD258R,0.0282X0.0006*%
%ADD259R,0.0594X0.0006*%
%ADD260R,0.0702X0.0006*%
%ADD261R,0.0768X0.0006*%
%ADD262R,0.0936X0.0006*%
%ADD263R,0.0954X0.0006*%
%ADD264R,0.0912X0.0006*%
%ADD265R,0.0876X0.0006*%
%ADD266R,0.0864X0.0006*%
%ADD267R,0.0492X0.0006*%
%ADD268R,0.0558X0.0006*%
%ADD269R,0.1266X0.0006*%
%ADD270R,0.1248X0.0006*%
%ADD271R,0.1212X0.0006*%
%ADD272R,0.1110X0.0006*%
%ADD273R,0.1068X0.0006*%
%ADD274R,0.1044X0.0006*%
%ADD275R,0.0990X0.0006*%
%ADD276R,0.0894X0.0006*%
%ADD277R,0.0828X0.0006*%
%ADD278R,0.0474X0.0006*%
%ADD279C,0.0160*%
%ADD280C,0.0010*%
D10*
X000250Y000250D02*
X000250Y010650D01*
X015350Y010650D01*
X015350Y000250D01*
X000250Y000250D01*
D11*
X000737Y001380D02*
X000680Y001437D01*
X000680Y001550D01*
X000737Y001607D01*
X000850Y001607D01*
X000850Y001493D01*
X000737Y001380D02*
X000964Y001380D01*
X001020Y001437D01*
X001020Y001550D01*
X000964Y001607D01*
X001020Y001748D02*
X000680Y001748D01*
X000680Y001975D02*
X001020Y001975D01*
X001020Y002117D02*
X001020Y002287D01*
X000964Y002343D01*
X000737Y002343D01*
X000680Y002287D01*
X000680Y002117D01*
X001020Y002117D01*
X000680Y001975D02*
X001020Y001748D01*
X001680Y001857D02*
X001793Y001970D01*
X002020Y001970D01*
X001964Y002112D02*
X002020Y002168D01*
X002020Y002282D01*
X001964Y002339D01*
X001737Y002112D01*
X001680Y002168D01*
X001680Y002282D01*
X001737Y002339D01*
X001964Y002339D01*
X001964Y002112D02*
X001737Y002112D01*
X001680Y001857D02*
X001793Y001743D01*
X002020Y001743D01*
X002020Y001602D02*
X002020Y001375D01*
X001850Y001375D01*
X001907Y001488D01*
X001907Y001545D01*
X001850Y001602D01*
X001737Y001602D01*
X001680Y001545D01*
X001680Y001432D01*
X001737Y001375D01*
X002680Y001432D02*
X002737Y001375D01*
X002680Y001432D02*
X002680Y001545D01*
X002737Y001602D01*
X002793Y001602D01*
X002850Y001545D01*
X002850Y001432D01*
X002907Y001375D01*
X002964Y001375D01*
X003020Y001432D01*
X003020Y001545D01*
X002964Y001602D01*
X003020Y001743D02*
X003020Y001914D01*
X002964Y001970D01*
X002737Y001970D01*
X002680Y001914D01*
X002680Y001743D01*
X003020Y001743D01*
X002907Y002112D02*
X002680Y002112D01*
X002850Y002112D02*
X002850Y002339D01*
X002907Y002339D02*
X002680Y002339D01*
X002907Y002339D02*
X003020Y002225D01*
X002907Y002112D01*
X003680Y002112D02*
X003680Y002339D01*
X003680Y002112D02*
X004020Y002112D01*
X003964Y001970D02*
X004020Y001914D01*
X004020Y001800D01*
X003964Y001743D01*
X003737Y001743D01*
X003680Y001800D01*
X003680Y001914D01*
X003737Y001970D01*
X003737Y001602D02*
X003680Y001545D01*
X003680Y001432D01*
X003737Y001375D01*
X003850Y001432D02*
X003850Y001545D01*
X003793Y001602D01*
X003737Y001602D01*
X003850Y001432D02*
X003907Y001375D01*
X003964Y001375D01*
X004020Y001432D01*
X004020Y001545D01*
X003964Y001602D01*
X004680Y001488D02*
X005020Y001488D01*
X005020Y001375D02*
X005020Y001602D01*
X005020Y001743D02*
X004680Y001970D01*
X004680Y002112D02*
X004680Y002282D01*
X004737Y002339D01*
X004964Y002339D01*
X005020Y002282D01*
X005020Y002112D01*
X004680Y002112D01*
X005020Y001970D02*
X004680Y001743D01*
X005680Y001743D02*
X006020Y001970D01*
X006020Y002112D02*
X006020Y002282D01*
X005964Y002339D01*
X005737Y002339D01*
X005680Y002282D01*
X005680Y002112D01*
X006020Y002112D01*
X005680Y001970D02*
X006020Y001743D01*
X005964Y001602D02*
X005850Y001602D01*
X005793Y001545D01*
X005793Y001375D01*
X005680Y001375D02*
X006020Y001375D01*
X006020Y001545D01*
X005964Y001602D01*
X005793Y001488D02*
X005680Y001602D01*
X006580Y001645D02*
X006580Y001532D01*
X006637Y001475D01*
X006864Y001475D01*
X006920Y001532D01*
X006920Y001645D01*
X006864Y001702D01*
X006920Y001843D02*
X006920Y002070D01*
X006920Y001957D02*
X006580Y001957D01*
X006637Y001702D02*
X006580Y001645D01*
X007040Y001445D02*
X007040Y002550D01*
X006920Y002382D02*
X006864Y002439D01*
X006920Y002382D02*
X006920Y002268D01*
X006864Y002212D01*
X006807Y002212D01*
X006750Y002268D01*
X006750Y002382D01*
X006693Y002439D01*
X006637Y002439D01*
X006580Y002382D01*
X006580Y002268D01*
X006637Y002212D01*
X007680Y002168D02*
X007737Y002112D01*
X007680Y002168D02*
X007680Y002282D01*
X007737Y002339D01*
X007793Y002339D01*
X007850Y002282D01*
X007850Y002168D01*
X007907Y002112D01*
X007964Y002112D01*
X008020Y002168D01*
X008020Y002282D01*
X007964Y002339D01*
X008020Y001970D02*
X008020Y001743D01*
X007964Y001602D02*
X007850Y001602D01*
X007793Y001545D01*
X007793Y001375D01*
X007680Y001375D02*
X008020Y001375D01*
X008020Y001545D01*
X007964Y001602D01*
X007793Y001488D02*
X007680Y001602D01*
X007680Y001857D02*
X008020Y001857D01*
X008580Y001957D02*
X008920Y001957D01*
X008920Y002070D02*
X008920Y001843D01*
X008864Y001702D02*
X008920Y001645D01*
X008920Y001475D01*
X008580Y001475D01*
X008580Y001645D01*
X008637Y001702D01*
X008864Y001702D01*
X009040Y001445D02*
X009040Y002550D01*
X008920Y002382D02*
X008864Y002439D01*
X008750Y002439D01*
X008693Y002382D01*
X008693Y002212D01*
X008580Y002212D02*
X008920Y002212D01*
X008920Y002382D01*
X008693Y002325D02*
X008580Y002439D01*
X009580Y002439D02*
X009693Y002325D01*
X009693Y002382D02*
X009693Y002212D01*
X009580Y002212D02*
X009920Y002212D01*
X009920Y002382D01*
X009864Y002439D01*
X009750Y002439D01*
X009693Y002382D01*
X010040Y002550D02*
X010040Y001445D01*
X009920Y001475D02*
X009920Y001645D01*
X009864Y001702D01*
X009637Y001702D01*
X009580Y001645D01*
X009580Y001475D01*
X009920Y001475D01*
X009864Y001843D02*
X009807Y001843D01*
X009750Y001900D01*
X009750Y002014D01*
X009693Y002070D01*
X009637Y002070D01*
X009580Y002014D01*
X009580Y001900D01*
X009637Y001843D01*
X009864Y001843D02*
X009920Y001900D01*
X009920Y002014D01*
X009864Y002070D01*
X010680Y002082D02*
X010680Y001968D01*
X010737Y001912D01*
X010964Y001912D01*
X011020Y001968D01*
X011020Y002082D01*
X010964Y002139D01*
X010737Y002139D02*
X010680Y002082D01*
X010680Y001770D02*
X011020Y001770D01*
X011020Y001543D02*
X010680Y001770D01*
X010680Y001543D02*
X011020Y001543D01*
X011680Y001543D02*
X012020Y001543D01*
X011680Y001770D01*
X012020Y001770D01*
X011964Y001912D02*
X011737Y001912D01*
X011680Y001968D01*
X011680Y002082D01*
X011737Y002139D01*
X011964Y002139D02*
X012020Y002082D01*
X012020Y001968D01*
X011964Y001912D01*
X012260Y004220D02*
X010840Y004220D01*
X010840Y006080D02*
X012260Y006080D01*
X012518Y006380D02*
X012518Y006720D01*
X012688Y006550D01*
X012461Y006550D01*
X012830Y006437D02*
X012830Y006720D01*
X013057Y006720D02*
X013057Y006437D01*
X013000Y006380D01*
X012886Y006380D01*
X012830Y006437D01*
X010020Y008532D02*
X009964Y008475D01*
X009907Y008475D01*
X009850Y008532D01*
X009850Y008645D01*
X009793Y008702D01*
X009737Y008702D01*
X009680Y008645D01*
X009680Y008532D01*
X009737Y008475D01*
X010020Y008532D02*
X010020Y008645D01*
X009964Y008702D01*
X009964Y008843D02*
X009907Y008843D01*
X009850Y008900D01*
X009850Y009014D01*
X009793Y009070D01*
X009737Y009070D01*
X009680Y009014D01*
X009680Y008900D01*
X009737Y008843D01*
X009964Y008843D02*
X010020Y008900D01*
X010020Y009014D01*
X009964Y009070D01*
X009964Y009212D02*
X010020Y009268D01*
X010020Y009382D01*
X009964Y009439D01*
X009907Y009439D01*
X009680Y009212D01*
X009680Y009439D01*
X009020Y009425D02*
X008680Y009425D01*
X008680Y009312D02*
X008680Y009539D01*
X008907Y009312D02*
X009020Y009425D01*
X008964Y009170D02*
X009020Y009114D01*
X009020Y009000D01*
X008964Y008943D01*
X008907Y008943D01*
X008850Y009000D01*
X008850Y009114D01*
X008793Y009170D01*
X008737Y009170D01*
X008680Y009114D01*
X008680Y009000D01*
X008737Y008943D01*
X008737Y008802D02*
X008680Y008745D01*
X008680Y008632D01*
X008737Y008575D01*
X008850Y008632D02*
X008850Y008745D01*
X008793Y008802D01*
X008737Y008802D01*
X008850Y008632D02*
X008907Y008575D01*
X008964Y008575D01*
X009020Y008632D01*
X009020Y008745D01*
X008964Y008802D01*
X008020Y008843D02*
X007680Y009070D01*
X008020Y009070D01*
X007964Y009212D02*
X007737Y009212D01*
X007680Y009268D01*
X007680Y009382D01*
X007737Y009439D01*
X007964Y009439D02*
X008020Y009382D01*
X008020Y009268D01*
X007964Y009212D01*
X008020Y008843D02*
X007680Y008843D01*
X007020Y008843D02*
X006680Y009070D01*
X007020Y009070D01*
X006964Y009212D02*
X006737Y009212D01*
X006680Y009268D01*
X006680Y009382D01*
X006737Y009439D01*
X006964Y009439D02*
X007020Y009382D01*
X007020Y009268D01*
X006964Y009212D01*
X007020Y008843D02*
X006680Y008843D01*
X006040Y008813D02*
X006040Y009550D01*
X005920Y009382D02*
X005920Y009268D01*
X005864Y009212D01*
X005807Y009212D01*
X005750Y009268D01*
X005750Y009382D01*
X005693Y009439D01*
X005637Y009439D01*
X005580Y009382D01*
X005580Y009268D01*
X005637Y009212D01*
X005637Y009070D02*
X005580Y009014D01*
X005580Y008900D01*
X005637Y008843D01*
X005864Y008843D01*
X005920Y008900D01*
X005920Y009014D01*
X005864Y009070D01*
X005920Y009382D02*
X005864Y009439D01*
X005020Y009439D02*
X004793Y009212D01*
X004850Y009268D02*
X004680Y009439D01*
X004680Y009212D02*
X005020Y009212D01*
X004964Y009070D02*
X005020Y009014D01*
X005020Y008900D01*
X004964Y008843D01*
X004737Y008843D01*
X004680Y008900D01*
X004680Y009014D01*
X004737Y009070D01*
X004737Y008702D02*
X004680Y008645D01*
X004680Y008532D01*
X004737Y008475D01*
X004850Y008532D02*
X004850Y008645D01*
X004793Y008702D01*
X004737Y008702D01*
X004850Y008532D02*
X004907Y008475D01*
X004964Y008475D01*
X005020Y008532D01*
X005020Y008645D01*
X004964Y008702D01*
X004020Y008711D02*
X004020Y008598D01*
X004020Y008655D02*
X003680Y008655D01*
X003680Y008711D02*
X003680Y008598D01*
X003680Y008456D02*
X004020Y008456D01*
X003907Y008343D01*
X004020Y008230D01*
X003680Y008230D01*
X003020Y008230D02*
X002907Y008343D01*
X003020Y008456D01*
X002680Y008456D01*
X002737Y008598D02*
X002680Y008655D01*
X002680Y008768D01*
X002737Y008825D01*
X002964Y008825D01*
X003020Y008768D01*
X003020Y008655D01*
X002964Y008598D01*
X002737Y008598D01*
X002680Y008230D02*
X003020Y008230D01*
X003680Y008900D02*
X003737Y008843D01*
X003680Y008900D02*
X003680Y009014D01*
X003737Y009070D01*
X003793Y009070D01*
X003850Y009014D01*
X003850Y008900D01*
X003907Y008843D01*
X003964Y008843D01*
X004020Y008900D01*
X004020Y009014D01*
X003964Y009070D01*
X003964Y009212D02*
X003737Y009212D01*
X003680Y009268D01*
X003680Y009382D01*
X003737Y009439D01*
X003964Y009439D01*
X004020Y009382D01*
X004020Y009268D01*
X003964Y009212D01*
X003020Y009136D02*
X003020Y009023D01*
X002964Y008966D01*
X002907Y008966D01*
X002850Y009023D01*
X002850Y009136D01*
X002793Y009193D01*
X002737Y009193D01*
X002680Y009136D01*
X002680Y009023D01*
X002737Y008966D01*
X002964Y009193D02*
X003020Y009136D01*
X003020Y009334D02*
X003020Y009448D01*
X003020Y009391D02*
X002680Y009391D01*
X002680Y009334D02*
X002680Y009448D01*
X002020Y009382D02*
X002020Y009268D01*
X001964Y009212D01*
X002020Y009070D02*
X001793Y009070D01*
X001680Y008957D01*
X001793Y008843D01*
X002020Y008843D01*
X001964Y008702D02*
X001907Y008702D01*
X001850Y008645D01*
X001793Y008702D01*
X001737Y008702D01*
X001680Y008645D01*
X001680Y008532D01*
X001737Y008475D01*
X001850Y008588D02*
X001850Y008645D01*
X001964Y008702D02*
X002020Y008645D01*
X002020Y008532D01*
X001964Y008475D01*
X001020Y008532D02*
X000964Y008475D01*
X000737Y008475D01*
X000680Y008532D01*
X000680Y008645D01*
X000737Y008702D01*
X000850Y008702D01*
X000850Y008588D01*
X000964Y008702D02*
X001020Y008645D01*
X001020Y008532D01*
X001020Y008843D02*
X000680Y008843D01*
X000680Y009070D02*
X001020Y009070D01*
X001020Y009212D02*
X001020Y009382D01*
X000964Y009439D01*
X000737Y009439D01*
X000680Y009382D01*
X000680Y009212D01*
X001020Y009212D01*
X000680Y009070D02*
X001020Y008843D01*
X001680Y009268D02*
X001737Y009212D01*
X001680Y009268D02*
X001680Y009382D01*
X001737Y009439D01*
X001793Y009439D01*
X001850Y009382D01*
X001850Y009325D01*
X001850Y009382D02*
X001907Y009439D01*
X001964Y009439D01*
X002020Y009382D01*
X003482Y005520D02*
X003425Y005464D01*
X003425Y005407D01*
X003482Y005350D01*
X003425Y005293D01*
X003425Y005237D01*
X003482Y005180D01*
X003595Y005180D01*
X003652Y005237D01*
X003793Y005237D02*
X003850Y005180D01*
X003963Y005180D01*
X004020Y005237D01*
X004020Y005520D01*
X003793Y005520D02*
X003793Y005237D01*
X003652Y005464D02*
X003595Y005520D01*
X003482Y005520D01*
X003482Y005350D02*
X003538Y005350D01*
X002680Y005360D02*
X002680Y003940D01*
X000820Y003940D02*
X000820Y005360D01*
X010680Y008598D02*
X010680Y008711D01*
X010680Y008655D02*
X011020Y008655D01*
X011020Y008711D02*
X011020Y008598D01*
X010964Y008843D02*
X010737Y008843D01*
X010680Y008900D01*
X010680Y009014D01*
X010737Y009070D01*
X010964Y009070D01*
X011020Y009014D01*
X011020Y008900D01*
X010964Y008843D01*
X010907Y009212D02*
X011020Y009325D01*
X010680Y009325D01*
X010680Y009212D02*
X010680Y009439D01*
X011680Y009382D02*
X011680Y009268D01*
X011737Y009212D01*
X011964Y009212D01*
X012020Y009268D01*
X012020Y009382D01*
X011964Y009439D01*
X011737Y009439D02*
X011680Y009382D01*
X011680Y009070D02*
X012020Y009070D01*
X012020Y008843D02*
X011680Y008843D01*
X011680Y009070D02*
X012020Y008843D01*
D12*
X011872Y008296D02*
X011479Y008296D01*
X011228Y008197D02*
X011228Y008099D01*
X011129Y008000D01*
X010932Y008000D01*
X010834Y007902D01*
X010834Y007803D01*
X010932Y007705D01*
X011129Y007705D01*
X011228Y007803D01*
X011479Y007705D02*
X011872Y007705D01*
X011872Y008296D01*
X011872Y008000D02*
X011675Y008000D01*
X012123Y008000D02*
X012517Y008000D01*
X012768Y007803D02*
X012866Y007705D01*
X013063Y007705D01*
X013161Y007803D01*
X013161Y008197D01*
X013063Y008296D01*
X012866Y008296D01*
X012768Y008197D01*
X013412Y008197D02*
X013412Y007803D01*
X013511Y007705D01*
X013707Y007705D01*
X013806Y007803D01*
X013806Y008197D01*
X013707Y008296D01*
X013511Y008296D01*
X013412Y008197D01*
X014057Y008197D02*
X014155Y008296D01*
X014352Y008296D01*
X014450Y008197D01*
X014450Y008099D01*
X014352Y008000D01*
X014155Y008000D01*
X014057Y007902D01*
X014057Y007803D01*
X014155Y007705D01*
X014352Y007705D01*
X014450Y007803D01*
X014898Y007705D02*
X014898Y008296D01*
X015095Y008296D02*
X014701Y008296D01*
X011228Y008197D02*
X011129Y008296D01*
X010932Y008296D01*
X010834Y008197D01*
X010583Y008296D02*
X010288Y008296D01*
X010189Y008197D01*
X010189Y008000D01*
X010288Y007902D01*
X010583Y007902D01*
X010583Y007705D02*
X010583Y008296D01*
X009939Y008197D02*
X009939Y008099D01*
X009840Y008000D01*
X009643Y008000D01*
X009545Y007902D01*
X009545Y007803D01*
X009643Y007705D01*
X009840Y007705D01*
X009939Y007803D01*
X009939Y007902D01*
X009840Y008000D01*
X009643Y008000D02*
X009545Y008099D01*
X009545Y008197D01*
X009643Y008296D01*
X009840Y008296D01*
X009939Y008197D01*
X009294Y008197D02*
X009196Y008296D01*
X008999Y008296D01*
X008900Y008197D01*
X008900Y008099D01*
X009294Y007705D01*
X008900Y007705D01*
X008650Y007803D02*
X008551Y007705D01*
X008354Y007705D01*
X008256Y007803D01*
X008256Y007902D01*
X008354Y008000D01*
X008650Y008000D01*
X008650Y007803D01*
X008650Y008000D02*
X008453Y008197D01*
X008256Y008296D01*
X008005Y008000D02*
X007710Y008000D01*
X007611Y007902D01*
X007611Y007803D01*
X007710Y007705D01*
X007907Y007705D01*
X008005Y007803D01*
X008005Y008000D01*
X007808Y008197D01*
X007611Y008296D01*
X007360Y008000D02*
X006967Y008000D01*
X006716Y008000D02*
X006519Y008000D01*
X006716Y007705D02*
X006322Y007705D01*
X006071Y007705D02*
X006071Y008296D01*
X005874Y008099D01*
X005678Y008296D01*
X005678Y007705D01*
X006322Y008296D02*
X006716Y008296D01*
X006716Y007705D01*
D13*
X003586Y005065D02*
X003114Y005065D01*
X003114Y004435D02*
X003586Y004435D01*
X003429Y004344D02*
X003271Y004344D01*
X000608Y005415D02*
X000610Y005430D01*
X000616Y005443D01*
X000625Y005455D01*
X000636Y005464D01*
X000650Y005470D01*
X000665Y005472D01*
X000680Y005470D01*
X000693Y005464D01*
X000705Y005455D01*
X000714Y005444D01*
X000720Y005430D01*
X000722Y005415D01*
X000720Y005400D01*
X000714Y005387D01*
X000705Y005375D01*
X000694Y005366D01*
X000680Y005360D01*
X000665Y005358D01*
X000650Y005360D01*
X000637Y005366D01*
X000625Y005375D01*
X000616Y005386D01*
X000610Y005400D01*
X000608Y005415D01*
X007204Y003710D02*
X007444Y003710D01*
X007524Y003630D01*
X007444Y003550D01*
X007284Y003550D01*
X007204Y003470D01*
X007284Y003390D01*
X007524Y003390D01*
X007708Y003390D02*
X007788Y003470D01*
X007788Y003790D01*
X007868Y003710D02*
X007708Y003710D01*
X008063Y003630D02*
X008063Y003390D01*
X008063Y003630D02*
X008143Y003710D01*
X008383Y003710D01*
X008383Y003390D01*
X008579Y003550D02*
X008899Y003550D01*
X008899Y003470D02*
X008819Y003390D01*
X008659Y003390D01*
X008579Y003550D02*
X008579Y003630D01*
X008659Y003710D01*
X008819Y003710D01*
X008899Y003630D01*
X008899Y003470D01*
X009094Y003390D02*
X009335Y003390D01*
X009415Y003470D01*
X009415Y003630D01*
X009335Y003710D01*
X009094Y003710D01*
X009094Y003310D01*
X009174Y003230D01*
X009254Y003230D01*
X009610Y003390D02*
X009610Y003710D01*
X009770Y003870D01*
X009930Y003710D01*
X009930Y003390D01*
X010126Y003390D02*
X010126Y003630D01*
X010206Y003710D01*
X010446Y003710D01*
X010446Y003390D01*
X010635Y003710D02*
X010715Y003710D01*
X010876Y003550D01*
X010876Y003390D02*
X010876Y003710D01*
X011071Y003630D02*
X011071Y003550D01*
X011391Y003550D01*
X011391Y003470D02*
X011391Y003630D01*
X011311Y003710D01*
X011151Y003710D01*
X011071Y003630D01*
X011151Y003390D02*
X011311Y003390D01*
X011391Y003470D01*
X011575Y003390D02*
X011655Y003470D01*
X011655Y003790D01*
X011735Y003710D02*
X011575Y003710D01*
X011919Y003710D02*
X012079Y003710D01*
X011999Y003790D02*
X011999Y003470D01*
X011919Y003390D01*
X012274Y003390D02*
X012514Y003390D01*
X012594Y003470D01*
X012514Y003550D01*
X012274Y003550D01*
X012274Y003630D02*
X012274Y003390D01*
X012274Y003630D02*
X012354Y003710D01*
X012514Y003710D01*
X012790Y003630D02*
X012870Y003550D01*
X013110Y003550D01*
X013110Y003390D02*
X013110Y003870D01*
X012870Y003870D01*
X012790Y003790D01*
X012790Y003630D01*
X009930Y003630D02*
X009610Y003630D01*
X012293Y006200D02*
X012295Y006215D01*
X012301Y006228D01*
X012310Y006240D01*
X012321Y006249D01*
X012335Y006255D01*
X012350Y006257D01*
X012365Y006255D01*
X012378Y006249D01*
X012390Y006240D01*
X012399Y006229D01*
X012405Y006215D01*
X012407Y006200D01*
X012405Y006185D01*
X012399Y006172D01*
X012390Y006160D01*
X012379Y006151D01*
X012365Y006145D01*
X012350Y006143D01*
X012335Y006145D01*
X012322Y006151D01*
X012310Y006160D01*
X012301Y006171D01*
X012295Y006185D01*
X012293Y006200D01*
D14*
X013260Y004150D03*
X013385Y004025D03*
X013510Y003900D03*
X013940Y003730D03*
X014015Y004025D03*
X014445Y003855D03*
X014610Y003885D03*
X014690Y003610D03*
X014990Y003885D03*
D15*
X014985Y003885D03*
X014615Y003885D03*
X014440Y003855D03*
X014685Y003610D03*
X013945Y003730D03*
X014010Y004025D03*
X013515Y003900D03*
X013390Y004025D03*
X013265Y004150D03*
X014555Y004640D03*
X014405Y005205D03*
X014200Y005585D03*
D16*
X014190Y005580D03*
X014180Y005575D03*
X014405Y005325D03*
X014405Y004760D03*
X014450Y004410D03*
X014455Y004410D03*
X014175Y004050D03*
X014005Y004025D03*
X013950Y003730D03*
X013775Y003710D03*
X013625Y003710D03*
X013520Y003900D03*
X013395Y004025D03*
X013270Y004150D03*
X014435Y003855D03*
X014620Y003885D03*
X014680Y003610D03*
X014875Y003690D03*
X014980Y003885D03*
X014415Y006855D03*
X014410Y006855D03*
X014405Y006855D03*
X014400Y006855D03*
X014220Y006855D03*
X014215Y006855D03*
X014210Y006855D03*
X014205Y006855D03*
X014200Y006855D03*
D17*
X014170Y006850D03*
X014165Y006850D03*
X014160Y006850D03*
X014155Y006850D03*
X014150Y006850D03*
X014450Y006850D03*
X014455Y006850D03*
X014460Y006850D03*
X014465Y006850D03*
X014460Y006080D03*
X014455Y006080D03*
X014450Y006080D03*
X014445Y006080D03*
X014440Y006080D03*
X014435Y006080D03*
X014190Y005865D03*
X014185Y005865D03*
X014180Y005865D03*
X014175Y005865D03*
X014170Y005865D03*
X014165Y005865D03*
X014160Y005865D03*
X014155Y005865D03*
X014170Y005575D03*
X014395Y005005D03*
X014430Y004405D03*
X014435Y004405D03*
X014095Y004430D03*
X014000Y004025D03*
X013875Y003900D03*
X013955Y003730D03*
X014080Y003855D03*
X014430Y003855D03*
X014625Y003885D03*
X014675Y003610D03*
X014975Y003885D03*
X013525Y003900D03*
X013400Y004025D03*
X013275Y004150D03*
D18*
X013280Y004150D03*
X013405Y004025D03*
X013530Y003900D03*
X013630Y003710D03*
X013770Y003710D03*
X013870Y003900D03*
X013995Y004025D03*
X014085Y003855D03*
X013960Y003730D03*
X014670Y003610D03*
X014415Y004400D03*
X014410Y004400D03*
X014545Y004625D03*
X014395Y005190D03*
X014100Y005545D03*
X014105Y005550D03*
X014015Y005720D03*
X014470Y006075D03*
X014405Y006335D03*
X014095Y006330D03*
X014140Y006845D03*
D19*
X014095Y006755D03*
X014520Y006755D03*
X014345Y006245D03*
X014165Y006065D03*
X014095Y005955D03*
X014065Y005740D03*
X014060Y005740D03*
X014055Y005740D03*
X014160Y005580D03*
X014080Y005530D03*
X014075Y005530D03*
X014065Y005525D03*
X014060Y005525D03*
X014055Y005525D03*
X014050Y005525D03*
X014045Y005525D03*
X014135Y005370D03*
X014140Y005370D03*
X014145Y005370D03*
X014150Y005370D03*
X014155Y005370D03*
X014160Y005370D03*
X014165Y005370D03*
X014170Y005370D03*
X014175Y005370D03*
X014180Y005370D03*
X014185Y005370D03*
X014190Y005370D03*
X014195Y005370D03*
X014200Y005370D03*
X014205Y005370D03*
X014210Y005370D03*
X014215Y005370D03*
X014220Y005370D03*
X014225Y005370D03*
X014230Y005370D03*
X014235Y005370D03*
X014240Y005370D03*
X014245Y005370D03*
X014250Y005370D03*
X014255Y005370D03*
X014260Y005370D03*
X014265Y005370D03*
X014270Y005370D03*
X014275Y005370D03*
X014280Y005370D03*
X014285Y005370D03*
X014290Y005370D03*
X014295Y005370D03*
X014300Y005370D03*
X014305Y005370D03*
X014310Y005370D03*
X014400Y005325D03*
X014340Y005185D03*
X014335Y005185D03*
X014330Y005185D03*
X014325Y005185D03*
X014320Y005185D03*
X014315Y005185D03*
X014310Y005185D03*
X014305Y005185D03*
X014300Y005185D03*
X014295Y005185D03*
X014290Y005185D03*
X014285Y005185D03*
X014280Y005185D03*
X014275Y005185D03*
X014270Y005185D03*
X014265Y005185D03*
X014260Y005185D03*
X014255Y005185D03*
X014250Y005185D03*
X014245Y005185D03*
X014240Y005185D03*
X014235Y005185D03*
X014230Y005185D03*
X014225Y005185D03*
X014220Y005185D03*
X014215Y005185D03*
X014210Y005185D03*
X014205Y005185D03*
X014200Y005185D03*
X014195Y005185D03*
X014190Y005185D03*
X014185Y005185D03*
X014180Y005185D03*
X014175Y005185D03*
X014170Y005185D03*
X014165Y005185D03*
X014160Y005185D03*
X014155Y005185D03*
X014150Y005185D03*
X014145Y005185D03*
X014140Y005185D03*
X014135Y005185D03*
X014135Y004995D03*
X014140Y004995D03*
X014145Y004995D03*
X014150Y004995D03*
X014155Y004995D03*
X014160Y004995D03*
X014165Y004995D03*
X014170Y004995D03*
X014175Y004995D03*
X014180Y004995D03*
X014185Y004995D03*
X014190Y004995D03*
X014195Y004995D03*
X014200Y004995D03*
X014205Y004995D03*
X014210Y004995D03*
X014215Y004995D03*
X014220Y004995D03*
X014225Y004995D03*
X014230Y004995D03*
X014235Y004995D03*
X014240Y004995D03*
X014245Y004995D03*
X014250Y004995D03*
X014255Y004995D03*
X014260Y004995D03*
X014265Y004995D03*
X014270Y004995D03*
X014275Y004995D03*
X014280Y004995D03*
X014285Y004995D03*
X014290Y004995D03*
X014295Y004995D03*
X014300Y004995D03*
X014305Y004995D03*
X014310Y004995D03*
X014315Y004995D03*
X014320Y004995D03*
X014325Y004995D03*
X014330Y004995D03*
X014335Y004995D03*
X014340Y004995D03*
X014345Y004995D03*
X014350Y004995D03*
X014310Y004805D03*
X014305Y004805D03*
X014300Y004805D03*
X014295Y004805D03*
X014290Y004805D03*
X014285Y004805D03*
X014280Y004805D03*
X014275Y004805D03*
X014270Y004805D03*
X014265Y004805D03*
X014260Y004805D03*
X014255Y004805D03*
X014250Y004805D03*
X014245Y004805D03*
X014240Y004805D03*
X014235Y004805D03*
X014230Y004805D03*
X014225Y004805D03*
X014220Y004805D03*
X014215Y004805D03*
X014210Y004805D03*
X014205Y004805D03*
X014200Y004805D03*
X014195Y004805D03*
X014190Y004805D03*
X014185Y004805D03*
X014180Y004805D03*
X014175Y004805D03*
X014170Y004805D03*
X014165Y004805D03*
X014160Y004805D03*
X014155Y004805D03*
X014150Y004805D03*
X014145Y004805D03*
X014140Y004805D03*
X014135Y004805D03*
X014135Y004620D03*
X014140Y004620D03*
X014145Y004620D03*
X014150Y004620D03*
X014155Y004620D03*
X014160Y004620D03*
X014165Y004620D03*
X014170Y004620D03*
X014175Y004620D03*
X014180Y004620D03*
X014185Y004620D03*
X014190Y004620D03*
X014195Y004620D03*
X014200Y004620D03*
X014205Y004620D03*
X014210Y004620D03*
X014215Y004620D03*
X014220Y004620D03*
X014225Y004620D03*
X014230Y004620D03*
X014235Y004620D03*
X014240Y004620D03*
X014245Y004620D03*
X014250Y004620D03*
X014255Y004620D03*
X014260Y004620D03*
X014265Y004620D03*
X014270Y004620D03*
X014275Y004620D03*
X014280Y004620D03*
X014285Y004620D03*
X014290Y004620D03*
X014295Y004620D03*
X014300Y004620D03*
X014305Y004620D03*
X014310Y004620D03*
X014315Y004620D03*
X014320Y004620D03*
X014325Y004620D03*
X014330Y004620D03*
X014335Y004620D03*
X014340Y004620D03*
X014375Y004620D03*
X014380Y004620D03*
X014385Y004620D03*
X014390Y004620D03*
X014395Y004620D03*
X014400Y004620D03*
X014405Y004620D03*
X014410Y004620D03*
X014415Y004620D03*
X014420Y004620D03*
X014425Y004620D03*
X014430Y004620D03*
X014435Y004620D03*
X014440Y004620D03*
X014445Y004620D03*
X014450Y004620D03*
X014455Y004620D03*
X014460Y004620D03*
X014465Y004620D03*
X014470Y004620D03*
X014475Y004620D03*
X014480Y004620D03*
X014485Y004620D03*
X014490Y004620D03*
X014495Y004620D03*
X014500Y004620D03*
X014400Y004760D03*
X014350Y004395D03*
X014345Y004395D03*
X014340Y004395D03*
X014335Y004395D03*
X014330Y004395D03*
X014325Y004395D03*
X014320Y004395D03*
X014315Y004395D03*
X014310Y004395D03*
X014305Y004395D03*
X014300Y004395D03*
X014295Y004395D03*
X014290Y004395D03*
X014285Y004395D03*
X014280Y004395D03*
X014275Y004395D03*
X014270Y004395D03*
X014265Y004395D03*
X014260Y004395D03*
X014255Y004395D03*
X014250Y004395D03*
X014245Y004395D03*
X014240Y004395D03*
X014235Y004395D03*
X014230Y004395D03*
X014225Y004395D03*
X014220Y004395D03*
X014215Y004395D03*
X014210Y004395D03*
X014205Y004395D03*
X014200Y004395D03*
X014195Y004395D03*
X014190Y004395D03*
X014185Y004395D03*
X014180Y004395D03*
X014175Y004395D03*
X014170Y004395D03*
X014090Y003855D03*
X014665Y003610D03*
X013285Y004150D03*
X014325Y005540D03*
X014330Y005540D03*
X014340Y005545D03*
X014345Y005545D03*
X014355Y005550D03*
X014360Y005555D03*
X014350Y005700D03*
X014340Y005705D03*
X014335Y005705D03*
X014325Y005710D03*
X014320Y005710D03*
X014315Y005710D03*
X014310Y005710D03*
X014305Y005710D03*
X014300Y005710D03*
X014295Y005710D03*
X014290Y005710D03*
X014285Y005710D03*
X014280Y005705D03*
X014275Y005705D03*
X014270Y005705D03*
X014260Y005700D03*
X014250Y005695D03*
X014245Y005690D03*
X014240Y005685D03*
X014425Y005890D03*
X014430Y005890D03*
X014435Y005890D03*
X014445Y005895D03*
X014450Y005895D03*
X014455Y005900D03*
D20*
X014475Y005920D03*
X014400Y005890D03*
X014395Y005890D03*
X014480Y006065D03*
X014315Y006230D03*
X014300Y006225D03*
X014295Y006225D03*
X014290Y006225D03*
X014280Y006220D03*
X014275Y006220D03*
X014270Y006220D03*
X014265Y006220D03*
X014260Y006220D03*
X014255Y006220D03*
X014250Y006220D03*
X014245Y006220D03*
X014240Y006220D03*
X014235Y006220D03*
X014230Y006220D03*
X014225Y006220D03*
X014220Y006220D03*
X014210Y006225D03*
X014205Y006225D03*
X014200Y006225D03*
X014185Y006230D03*
X014170Y006235D03*
X014135Y006260D03*
X014185Y006435D03*
X014200Y006440D03*
X014205Y006440D03*
X014210Y006440D03*
X014220Y006445D03*
X014225Y006445D03*
X014230Y006445D03*
X014235Y006445D03*
X014240Y006445D03*
X014245Y006445D03*
X014250Y006445D03*
X014255Y006445D03*
X014260Y006445D03*
X014265Y006445D03*
X014270Y006445D03*
X014275Y006445D03*
X014280Y006445D03*
X014290Y006440D03*
X014295Y006440D03*
X014300Y006440D03*
X014315Y006435D03*
X014345Y006585D03*
X014370Y006590D03*
X014385Y006595D03*
X014400Y006600D03*
X014410Y006605D03*
X014420Y006610D03*
X014270Y006585D03*
X014245Y006590D03*
X014230Y006595D03*
X014215Y006600D03*
X014205Y006605D03*
X014205Y006075D03*
X014200Y006075D03*
X014195Y006075D03*
X014150Y006055D03*
X014145Y006050D03*
X014080Y005735D03*
X014240Y005560D03*
X014280Y005540D03*
X014375Y005570D03*
X014335Y005365D03*
X014330Y005365D03*
X014340Y005360D03*
X014130Y005370D03*
X014020Y005535D03*
X014130Y005185D03*
X014345Y005190D03*
X014385Y004990D03*
X014330Y004800D03*
X014340Y004795D03*
X014345Y004625D03*
X014130Y004620D03*
X014130Y004805D03*
X014130Y004995D03*
X014150Y004400D03*
X014155Y004400D03*
X014185Y004050D03*
X014095Y003855D03*
X014520Y004005D03*
X014535Y003735D03*
X014660Y003610D03*
X014865Y003690D03*
X013765Y003710D03*
X013635Y003710D03*
X013290Y004150D03*
D21*
X013295Y004150D03*
X014100Y004435D03*
X014535Y004610D03*
X014345Y004790D03*
X014385Y005175D03*
X014345Y005355D03*
X014085Y005730D03*
X014375Y005900D03*
X014380Y005895D03*
X014385Y005895D03*
X014225Y006070D03*
X014175Y006625D03*
X014165Y006635D03*
X014160Y006640D03*
X014155Y006645D03*
X014460Y006645D03*
X014465Y006650D03*
X014525Y004005D03*
X014405Y003860D03*
X014530Y003735D03*
X014655Y003610D03*
X015075Y004005D03*
D22*
X015070Y004005D03*
X014945Y003880D03*
X014855Y003915D03*
X014850Y003915D03*
X014845Y003915D03*
X014840Y003915D03*
X014835Y003915D03*
X014825Y003920D03*
X014820Y003920D03*
X014815Y003920D03*
X014810Y003920D03*
X014805Y003920D03*
X014800Y003920D03*
X014795Y003920D03*
X014790Y003920D03*
X014785Y003920D03*
X014780Y003920D03*
X014775Y003920D03*
X014765Y003915D03*
X014760Y003915D03*
X014755Y003915D03*
X014750Y003915D03*
X014745Y003915D03*
X014655Y003880D03*
X014530Y004005D03*
X014695Y004080D03*
X014705Y004085D03*
X014710Y004085D03*
X014715Y004085D03*
X014720Y004085D03*
X014730Y004090D03*
X014735Y004090D03*
X014740Y004090D03*
X014745Y004090D03*
X014750Y004090D03*
X014760Y004095D03*
X014765Y004095D03*
X014770Y004095D03*
X014775Y004095D03*
X014780Y004095D03*
X014785Y004095D03*
X014790Y004095D03*
X014795Y004095D03*
X014800Y004095D03*
X014805Y004095D03*
X014810Y004095D03*
X014815Y004095D03*
X014820Y004095D03*
X014825Y004095D03*
X014830Y004095D03*
X014835Y004095D03*
X014840Y004095D03*
X014850Y004090D03*
X014855Y004090D03*
X014860Y004090D03*
X014865Y004090D03*
X014870Y004090D03*
X014885Y004085D03*
X014890Y004085D03*
X014895Y004085D03*
X014905Y004080D03*
X014895Y004260D03*
X014890Y004260D03*
X014885Y004260D03*
X014880Y004260D03*
X014875Y004260D03*
X014870Y004260D03*
X014865Y004260D03*
X014850Y004265D03*
X014845Y004265D03*
X014840Y004265D03*
X014835Y004265D03*
X014830Y004265D03*
X014825Y004265D03*
X014820Y004265D03*
X014815Y004265D03*
X014810Y004265D03*
X014805Y004265D03*
X014800Y004265D03*
X014795Y004265D03*
X014790Y004265D03*
X014785Y004265D03*
X014780Y004265D03*
X014775Y004265D03*
X014770Y004265D03*
X014765Y004265D03*
X014760Y004265D03*
X014755Y004265D03*
X014750Y004265D03*
X014745Y004265D03*
X014715Y004260D03*
X014710Y004260D03*
X014705Y004260D03*
X014700Y004260D03*
X014190Y004050D03*
X014110Y003860D03*
X014200Y003825D03*
X014205Y003825D03*
X014210Y003825D03*
X014220Y003820D03*
X014225Y003820D03*
X014230Y003820D03*
X014235Y003820D03*
X014245Y003815D03*
X014260Y003815D03*
X014265Y003815D03*
X014270Y003820D03*
X014275Y003820D03*
X014280Y003820D03*
X014285Y003820D03*
X014295Y003825D03*
X014300Y003825D03*
X014305Y003825D03*
X014310Y003825D03*
X014400Y003860D03*
X014525Y003735D03*
X014650Y003610D03*
X014740Y003690D03*
X014860Y003690D03*
X014350Y003655D03*
X014345Y003655D03*
X014325Y003650D03*
X014320Y003650D03*
X014295Y003645D03*
X014290Y003645D03*
X014285Y003645D03*
X014280Y003645D03*
X014275Y003645D03*
X014270Y003645D03*
X014265Y003645D03*
X014260Y003645D03*
X014255Y003645D03*
X014250Y003645D03*
X014245Y003645D03*
X014240Y003645D03*
X014235Y003645D03*
X014230Y003645D03*
X014225Y003645D03*
X014220Y003645D03*
X014215Y003645D03*
X014210Y003645D03*
X014185Y003650D03*
X014180Y003650D03*
X014160Y003655D03*
X014155Y003655D03*
X014120Y003485D03*
X014145Y003480D03*
X014150Y003480D03*
X014160Y003475D03*
X014165Y003475D03*
X014170Y003475D03*
X014200Y003470D03*
X014205Y003470D03*
X014210Y003470D03*
X014215Y003470D03*
X014220Y003470D03*
X014225Y003470D03*
X014230Y003470D03*
X014235Y003470D03*
X014240Y003470D03*
X014245Y003470D03*
X014250Y003470D03*
X014255Y003470D03*
X014260Y003470D03*
X014265Y003470D03*
X014270Y003470D03*
X014275Y003470D03*
X014280Y003470D03*
X014285Y003470D03*
X014290Y003470D03*
X014295Y003470D03*
X014300Y003470D03*
X014305Y003470D03*
X014320Y003475D03*
X014325Y003475D03*
X014330Y003475D03*
X014335Y003475D03*
X014340Y003475D03*
X014345Y003475D03*
X014355Y003480D03*
X014360Y003480D03*
X014385Y003485D03*
X013760Y003710D03*
X013640Y003710D03*
X013640Y003930D03*
X013645Y003930D03*
X013660Y003935D03*
X013665Y003935D03*
X013670Y003935D03*
X013680Y003940D03*
X013685Y003940D03*
X013690Y003940D03*
X013695Y003940D03*
X013700Y003940D03*
X013705Y003940D03*
X013710Y003940D03*
X013715Y003940D03*
X013720Y003940D03*
X013735Y003935D03*
X013740Y003935D03*
X013755Y003930D03*
X013760Y003930D03*
X013800Y004100D03*
X013780Y004105D03*
X013775Y004105D03*
X013770Y004105D03*
X013750Y004110D03*
X013745Y004110D03*
X013740Y004110D03*
X013660Y004110D03*
X013655Y004110D03*
X013640Y004105D03*
X013635Y004105D03*
X013630Y004105D03*
X013625Y004105D03*
X013620Y004105D03*
X013605Y004100D03*
X013600Y004100D03*
X013600Y004280D03*
X013795Y004280D03*
X013800Y004280D03*
X014140Y004410D03*
X014350Y004785D03*
X014380Y005170D03*
X014350Y005200D03*
X014350Y005350D03*
X014400Y005625D03*
X014210Y005620D03*
X014090Y005725D03*
X014370Y005905D03*
X014240Y006060D03*
X014235Y006065D03*
X014135Y006030D03*
X014100Y006330D03*
X014400Y006335D03*
X014475Y006665D03*
X014145Y006660D03*
X013300Y004150D03*
D23*
X013305Y004150D03*
X013435Y004020D03*
X013505Y004060D03*
X013515Y004065D03*
X013525Y004070D03*
X013530Y004075D03*
X013535Y004075D03*
X013540Y004080D03*
X013545Y004080D03*
X013555Y004085D03*
X013560Y004085D03*
X013480Y004245D03*
X013505Y004255D03*
X013515Y004260D03*
X013520Y004260D03*
X013525Y004260D03*
X013535Y004265D03*
X013540Y004265D03*
X013545Y004265D03*
X013550Y004270D03*
X013555Y004270D03*
X013570Y004275D03*
X013575Y004275D03*
X013620Y004285D03*
X013625Y004285D03*
X013630Y004285D03*
X013635Y004285D03*
X013845Y004270D03*
X013850Y004270D03*
X013860Y004265D03*
X013875Y004260D03*
X013880Y004260D03*
X013895Y004255D03*
X013905Y004250D03*
X013915Y004245D03*
X013920Y004245D03*
X013925Y004245D03*
X013930Y004240D03*
X013940Y004235D03*
X013860Y004080D03*
X013855Y004080D03*
X013865Y004075D03*
X013870Y004075D03*
X013875Y004070D03*
X013880Y004070D03*
X013885Y004065D03*
X013890Y004065D03*
X013895Y004060D03*
X013845Y004085D03*
X013830Y004090D03*
X013965Y004020D03*
X013840Y003895D03*
X013815Y003905D03*
X013805Y003910D03*
X013795Y003915D03*
X013785Y003920D03*
X013755Y003710D03*
X013645Y003710D03*
X013560Y003895D03*
X013585Y003905D03*
X013605Y003915D03*
X013615Y003920D03*
X013865Y003610D03*
X013980Y003540D03*
X014010Y003525D03*
X014015Y003520D03*
X014020Y003520D03*
X014025Y003515D03*
X014030Y003515D03*
X014040Y003510D03*
X014045Y003510D03*
X014050Y003505D03*
X014055Y003505D03*
X014065Y003500D03*
X014070Y003500D03*
X014125Y003665D03*
X014115Y003670D03*
X014110Y003670D03*
X014105Y003675D03*
X014100Y003675D03*
X014090Y003680D03*
X014080Y003685D03*
X014065Y003690D03*
X013990Y003735D03*
X014115Y003860D03*
X014160Y003840D03*
X014170Y003835D03*
X014335Y003835D03*
X014345Y003840D03*
X014350Y003840D03*
X014355Y003845D03*
X014390Y003860D03*
X014520Y003735D03*
X014445Y003695D03*
X014425Y003685D03*
X014415Y003680D03*
X014410Y003675D03*
X014405Y003675D03*
X014400Y003675D03*
X014395Y003670D03*
X014390Y003670D03*
X014380Y003665D03*
X014365Y003660D03*
X014435Y003500D03*
X014450Y003505D03*
X014455Y003505D03*
X014460Y003510D03*
X014465Y003510D03*
X014475Y003515D03*
X014480Y003515D03*
X014485Y003520D03*
X014490Y003520D03*
X014495Y003525D03*
X014525Y003540D03*
X014405Y003490D03*
X014645Y003610D03*
X014745Y003690D03*
X014855Y003690D03*
X014910Y003890D03*
X014900Y003895D03*
X014890Y003900D03*
X014880Y003905D03*
X014720Y003905D03*
X014710Y003900D03*
X014700Y003895D03*
X014535Y004005D03*
X014610Y004045D03*
X014620Y004050D03*
X014625Y004055D03*
X014630Y004055D03*
X014635Y004060D03*
X014640Y004060D03*
X014650Y004065D03*
X014660Y004070D03*
X014590Y004225D03*
X014585Y004225D03*
X014580Y004225D03*
X014575Y004220D03*
X014570Y004220D03*
X014560Y004215D03*
X014595Y004230D03*
X014600Y004230D03*
X014605Y004235D03*
X014610Y004235D03*
X014615Y004235D03*
X014620Y004240D03*
X014625Y004240D03*
X014630Y004240D03*
X014645Y004245D03*
X014680Y004255D03*
X014685Y004255D03*
X014910Y004255D03*
X014915Y004255D03*
X014920Y004255D03*
X014935Y004250D03*
X014950Y004245D03*
X014955Y004245D03*
X014960Y004245D03*
X014965Y004240D03*
X014970Y004240D03*
X014975Y004240D03*
X014980Y004235D03*
X014985Y004235D03*
X014995Y004230D03*
X015000Y004230D03*
X015015Y004225D03*
X015025Y004220D03*
X014965Y004060D03*
X014960Y004060D03*
X014970Y004055D03*
X014975Y004055D03*
X014980Y004050D03*
X014990Y004045D03*
X014950Y004065D03*
X014945Y004065D03*
X015065Y004005D03*
X014195Y004050D03*
X014390Y004755D03*
X014375Y004975D03*
X014370Y004975D03*
X014365Y004975D03*
X014360Y004975D03*
X014355Y004975D03*
X014375Y005165D03*
X014390Y005320D03*
X014095Y005715D03*
X014250Y006055D03*
D24*
X014255Y006053D03*
X014355Y005918D03*
X014515Y005998D03*
X013970Y005613D03*
X014505Y004598D03*
X014510Y004598D03*
X014515Y004598D03*
X014520Y004598D03*
X014525Y004598D03*
X014105Y004443D03*
X013960Y004228D03*
X013955Y004228D03*
X013950Y004233D03*
X013945Y004233D03*
X013935Y004238D03*
X013910Y004248D03*
X013900Y004253D03*
X013965Y004223D03*
X013970Y004218D03*
X013975Y004218D03*
X014090Y004148D03*
X014305Y004048D03*
X014410Y004128D03*
X014520Y004193D03*
X014525Y004198D03*
X014530Y004198D03*
X014535Y004203D03*
X014540Y004203D03*
X014545Y004208D03*
X014550Y004208D03*
X014555Y004213D03*
X014565Y004218D03*
X014615Y004048D03*
X014605Y004043D03*
X014600Y004038D03*
X014595Y004038D03*
X014590Y004033D03*
X014585Y004033D03*
X014580Y004028D03*
X014540Y004003D03*
X014665Y003878D03*
X014670Y003878D03*
X014685Y003888D03*
X014690Y003893D03*
X014695Y003893D03*
X014905Y003893D03*
X014915Y003888D03*
X014930Y003878D03*
X014935Y003878D03*
X015010Y004033D03*
X015015Y004033D03*
X015005Y004038D03*
X015000Y004038D03*
X014995Y004043D03*
X014985Y004048D03*
X015060Y004003D03*
X015190Y004128D03*
X015070Y004198D03*
X015060Y004203D03*
X015050Y004208D03*
X015040Y004213D03*
X015035Y004218D03*
X015030Y004218D03*
X015020Y004223D03*
X015010Y004228D03*
X015005Y004228D03*
X014370Y003853D03*
X014360Y003848D03*
X014155Y003843D03*
X014150Y003848D03*
X014145Y003848D03*
X014135Y003853D03*
X014120Y003863D03*
X014045Y003703D03*
X014055Y003698D03*
X014060Y003693D03*
X014070Y003688D03*
X014075Y003688D03*
X014085Y003683D03*
X014095Y003678D03*
X014005Y003528D03*
X014000Y003528D03*
X013995Y003533D03*
X013990Y003533D03*
X013985Y003538D03*
X013975Y003543D03*
X013970Y003548D03*
X013820Y003903D03*
X013810Y003908D03*
X013800Y003913D03*
X013900Y004058D03*
X013910Y004053D03*
X013600Y003913D03*
X013595Y003908D03*
X013590Y003908D03*
X013580Y003903D03*
X013575Y003898D03*
X013570Y003898D03*
X013565Y003898D03*
X013485Y004048D03*
X013490Y004053D03*
X013495Y004053D03*
X013500Y004058D03*
X013510Y004063D03*
X013520Y004068D03*
X013455Y004233D03*
X013450Y004233D03*
X013460Y004238D03*
X013465Y004238D03*
X013470Y004243D03*
X013475Y004243D03*
X013485Y004248D03*
X013490Y004248D03*
X013495Y004253D03*
X013500Y004253D03*
X013510Y004258D03*
X013425Y004218D03*
X013310Y004148D03*
X014420Y003683D03*
X014430Y003688D03*
X014435Y003688D03*
X014440Y003693D03*
X014450Y003698D03*
X014460Y003703D03*
X014540Y003548D03*
X014530Y003543D03*
X014520Y003538D03*
X014515Y003533D03*
X014510Y003533D03*
X014505Y003528D03*
X014500Y003528D03*
X014640Y003613D03*
X014480Y006678D03*
D25*
X014515Y006758D03*
X014350Y005923D03*
X014100Y005953D03*
X014395Y005628D03*
X014385Y005318D03*
X014385Y004753D03*
X014495Y004178D03*
X014485Y004173D03*
X014470Y004163D03*
X014465Y004158D03*
X014450Y004148D03*
X014445Y004143D03*
X014420Y004128D03*
X014300Y004048D03*
X014205Y004048D03*
X014080Y004148D03*
X014050Y004168D03*
X014035Y004178D03*
X014030Y004183D03*
X014025Y004188D03*
X014020Y004188D03*
X014015Y004193D03*
X014010Y004198D03*
X014000Y004203D03*
X013925Y004043D03*
X013930Y004038D03*
X013935Y004033D03*
X013945Y004028D03*
X013950Y004023D03*
X013955Y004023D03*
X014000Y003733D03*
X014005Y003733D03*
X014020Y003723D03*
X014025Y003718D03*
X014030Y003713D03*
X013875Y003608D03*
X013900Y003593D03*
X013905Y003588D03*
X013915Y003583D03*
X013920Y003578D03*
X013925Y003573D03*
X013950Y003558D03*
X013745Y003713D03*
X013655Y003708D03*
X013450Y004023D03*
X013445Y004023D03*
X013455Y004028D03*
X013465Y004033D03*
X013470Y004038D03*
X013385Y004193D03*
X013390Y004198D03*
X013395Y004203D03*
X013400Y004203D03*
X013405Y004208D03*
X013375Y004188D03*
X013315Y004148D03*
X014475Y003713D03*
X014480Y003718D03*
X014485Y003723D03*
X014505Y003733D03*
X014630Y003608D03*
X014605Y003593D03*
X014600Y003588D03*
X014590Y003583D03*
X014585Y003578D03*
X014580Y003573D03*
X014565Y003563D03*
X014845Y003693D03*
X015045Y004008D03*
X015050Y004008D03*
X015040Y004013D03*
X015035Y004018D03*
X015180Y004128D03*
X015120Y004168D03*
X015115Y004173D03*
X015110Y004173D03*
X015105Y004178D03*
X015095Y004183D03*
X014565Y004018D03*
X014560Y004013D03*
X014555Y004008D03*
X014550Y004008D03*
D26*
X014435Y004135D03*
X014440Y004140D03*
X014425Y004130D03*
X014455Y004150D03*
X014460Y004155D03*
X014210Y004050D03*
X014075Y004150D03*
X014065Y004155D03*
X014060Y004160D03*
X014055Y004165D03*
X014045Y004170D03*
X014040Y004175D03*
X013940Y004030D03*
X014010Y003730D03*
X014015Y003725D03*
X013890Y003600D03*
X013885Y003605D03*
X013880Y003605D03*
X013895Y003595D03*
X013910Y003585D03*
X013740Y003710D03*
X013660Y003710D03*
X013460Y004030D03*
X013360Y004175D03*
X013365Y004180D03*
X013370Y004185D03*
X013380Y004190D03*
X013350Y004170D03*
X013345Y004165D03*
X013320Y004150D03*
X014490Y003725D03*
X014495Y003730D03*
X014500Y003730D03*
X014620Y003605D03*
X014625Y003605D03*
X014615Y003600D03*
X014610Y003595D03*
X014595Y003585D03*
X014755Y003690D03*
X014760Y003690D03*
X014840Y003690D03*
X015175Y004130D03*
X015150Y004145D03*
X015145Y004150D03*
X015135Y004155D03*
X015130Y004160D03*
X015125Y004165D03*
X014215Y005620D03*
X014345Y005930D03*
X014265Y006040D03*
X014395Y006335D03*
X014105Y006330D03*
X014100Y006755D03*
D27*
X014270Y006033D03*
X014340Y005938D03*
X014355Y005733D03*
X014150Y005613D03*
X014100Y005703D03*
X014070Y004153D03*
X014290Y004048D03*
X014295Y004048D03*
X014430Y004133D03*
X015140Y004153D03*
X015155Y004143D03*
X015160Y004138D03*
X015165Y004133D03*
X015170Y004133D03*
X013355Y004173D03*
X013340Y004163D03*
X013335Y004158D03*
X013330Y004153D03*
X013325Y004153D03*
D28*
X013410Y004023D03*
X013535Y003898D03*
X013865Y003898D03*
X013990Y004023D03*
X014180Y004053D03*
X014115Y004148D03*
X014385Y004128D03*
X014510Y004008D03*
X014420Y003858D03*
X014545Y003733D03*
X014635Y003883D03*
X014730Y003693D03*
X014870Y003693D03*
X014965Y003883D03*
X015090Y004008D03*
X015215Y004128D03*
X014405Y004398D03*
X014400Y004398D03*
X014390Y004998D03*
X014470Y004998D03*
X014525Y004998D03*
X014085Y005533D03*
X014090Y005538D03*
X014095Y005543D03*
X014070Y005528D03*
X013965Y005613D03*
X014005Y005708D03*
X014010Y005713D03*
X014020Y005723D03*
X014025Y005728D03*
X014030Y005733D03*
X014035Y005733D03*
X014040Y005738D03*
X014045Y005738D03*
X014050Y005738D03*
X014140Y005873D03*
X014255Y005698D03*
X014265Y005703D03*
X014330Y005708D03*
X014345Y005703D03*
X014520Y005993D03*
X014475Y006073D03*
X014475Y006843D03*
X013965Y003733D03*
X013840Y003608D03*
D29*
X013870Y003610D03*
X013930Y003570D03*
X013935Y003565D03*
X013940Y003565D03*
X013945Y003560D03*
X013955Y003555D03*
X013960Y003550D03*
X013965Y003550D03*
X014040Y003705D03*
X014035Y003710D03*
X014050Y003700D03*
X013995Y003735D03*
X014125Y003860D03*
X014130Y003855D03*
X014140Y003850D03*
X014365Y003850D03*
X014375Y003855D03*
X014380Y003860D03*
X014385Y003860D03*
X014470Y003710D03*
X014465Y003705D03*
X014455Y003700D03*
X014510Y003735D03*
X014515Y003735D03*
X014635Y003610D03*
X014575Y003570D03*
X014570Y003565D03*
X014560Y003560D03*
X014555Y003555D03*
X014550Y003555D03*
X014545Y003550D03*
X014535Y003545D03*
X014750Y003690D03*
X014850Y003690D03*
X014925Y003880D03*
X014920Y003885D03*
X015020Y004025D03*
X015025Y004025D03*
X015030Y004020D03*
X015055Y004005D03*
X015185Y004125D03*
X015100Y004180D03*
X015090Y004185D03*
X015085Y004190D03*
X015080Y004190D03*
X015075Y004195D03*
X015065Y004200D03*
X015055Y004205D03*
X015045Y004210D03*
X014680Y003885D03*
X014675Y003880D03*
X014570Y004020D03*
X014575Y004025D03*
X014545Y004005D03*
X014415Y004125D03*
X014475Y004165D03*
X014480Y004170D03*
X014490Y004175D03*
X014500Y004180D03*
X014505Y004185D03*
X014510Y004185D03*
X014515Y004190D03*
X014200Y004050D03*
X014085Y004145D03*
X014005Y004200D03*
X013995Y004205D03*
X013990Y004210D03*
X013985Y004210D03*
X013980Y004215D03*
X013905Y004055D03*
X013915Y004050D03*
X013920Y004045D03*
X013960Y004020D03*
X013835Y003895D03*
X013830Y003895D03*
X013825Y003900D03*
X013750Y003710D03*
X013650Y003710D03*
X013440Y004020D03*
X013475Y004040D03*
X013480Y004045D03*
X013415Y004210D03*
X013410Y004210D03*
X013420Y004215D03*
X013430Y004220D03*
X013435Y004225D03*
X013440Y004225D03*
X013445Y004230D03*
X014260Y006045D03*
X014135Y006680D03*
D30*
X014135Y006838D03*
X014215Y006443D03*
X014195Y006438D03*
X014190Y006438D03*
X014180Y006433D03*
X014175Y006433D03*
X014170Y006428D03*
X014165Y006428D03*
X014160Y006423D03*
X014155Y006423D03*
X014150Y006418D03*
X014145Y006413D03*
X014140Y006408D03*
X014135Y006403D03*
X014140Y006258D03*
X014145Y006253D03*
X014150Y006248D03*
X014155Y006243D03*
X014160Y006243D03*
X014165Y006238D03*
X014175Y006233D03*
X014180Y006233D03*
X014190Y006228D03*
X014195Y006228D03*
X014215Y006223D03*
X014285Y006223D03*
X014305Y006228D03*
X014310Y006228D03*
X014320Y006233D03*
X014325Y006233D03*
X014330Y006238D03*
X014335Y006238D03*
X014340Y006243D03*
X014350Y006248D03*
X014355Y006253D03*
X014360Y006258D03*
X014365Y006263D03*
X014360Y006408D03*
X014355Y006413D03*
X014350Y006418D03*
X014345Y006423D03*
X014340Y006423D03*
X014335Y006428D03*
X014330Y006428D03*
X014325Y006433D03*
X014320Y006433D03*
X014310Y006438D03*
X014305Y006438D03*
X014285Y006443D03*
X014190Y006073D03*
X014185Y006073D03*
X014180Y006073D03*
X014175Y006068D03*
X014170Y006068D03*
X014160Y006063D03*
X014155Y006058D03*
X014405Y005888D03*
X014410Y005888D03*
X014415Y005888D03*
X014420Y005888D03*
X014440Y005893D03*
X014460Y005903D03*
X014465Y005908D03*
X014470Y005913D03*
X014235Y005678D03*
X014205Y005613D03*
X014245Y005558D03*
X014250Y005553D03*
X014255Y005548D03*
X014260Y005548D03*
X014265Y005543D03*
X014270Y005543D03*
X014275Y005543D03*
X014285Y005538D03*
X014290Y005538D03*
X014295Y005538D03*
X014300Y005538D03*
X014305Y005538D03*
X014310Y005538D03*
X014315Y005538D03*
X014320Y005538D03*
X014335Y005543D03*
X014350Y005548D03*
X014365Y005558D03*
X014370Y005563D03*
X014325Y005368D03*
X014320Y005368D03*
X014315Y005368D03*
X014390Y005183D03*
X014475Y004998D03*
X014480Y004998D03*
X014515Y004998D03*
X014520Y004998D03*
X014335Y004798D03*
X014325Y004803D03*
X014320Y004803D03*
X014315Y004803D03*
X014540Y004618D03*
X014395Y004393D03*
X014165Y004398D03*
X014160Y004398D03*
X014110Y004148D03*
X014320Y004048D03*
X014390Y004128D03*
X014515Y004008D03*
X014640Y003883D03*
X014540Y003733D03*
X014415Y003858D03*
X013985Y004023D03*
X013860Y003898D03*
X013970Y003733D03*
X013845Y003608D03*
X013540Y003898D03*
X013415Y004023D03*
X014960Y003883D03*
X015085Y004008D03*
X015210Y004128D03*
X014040Y005528D03*
X014035Y005528D03*
X014030Y005528D03*
X014025Y005533D03*
X014000Y005698D03*
X014070Y005738D03*
X014075Y005738D03*
D31*
X014135Y005883D03*
X014390Y005893D03*
X014220Y006073D03*
X014215Y006073D03*
X014210Y006073D03*
X014140Y006043D03*
X014130Y006273D03*
X014130Y006393D03*
X014365Y006403D03*
X014370Y006393D03*
X014370Y006273D03*
X014340Y006583D03*
X014335Y006583D03*
X014330Y006583D03*
X014325Y006583D03*
X014320Y006583D03*
X014315Y006583D03*
X014310Y006583D03*
X014305Y006583D03*
X014300Y006583D03*
X014295Y006583D03*
X014290Y006583D03*
X014285Y006583D03*
X014280Y006583D03*
X014275Y006583D03*
X014265Y006588D03*
X014260Y006588D03*
X014255Y006588D03*
X014250Y006588D03*
X014240Y006593D03*
X014235Y006593D03*
X014225Y006598D03*
X014220Y006598D03*
X014210Y006603D03*
X014200Y006608D03*
X014195Y006613D03*
X014190Y006613D03*
X014185Y006618D03*
X014180Y006623D03*
X014170Y006628D03*
X014350Y006588D03*
X014355Y006588D03*
X014360Y006588D03*
X014365Y006588D03*
X014375Y006593D03*
X014380Y006593D03*
X014390Y006598D03*
X014395Y006598D03*
X014405Y006603D03*
X014415Y006608D03*
X014425Y006613D03*
X014430Y006618D03*
X014435Y006618D03*
X014440Y006623D03*
X014445Y006628D03*
X014450Y006633D03*
X014455Y006638D03*
X014480Y006833D03*
X014235Y005568D03*
X014015Y005538D03*
X014010Y005543D03*
X014005Y005548D03*
X014485Y004998D03*
X014490Y004998D03*
X014495Y004998D03*
X014500Y004998D03*
X014505Y004998D03*
X014510Y004998D03*
X014390Y004388D03*
X014145Y004403D03*
X014105Y004148D03*
X014395Y004128D03*
X014410Y003858D03*
X014645Y003883D03*
X014735Y003693D03*
X014955Y003883D03*
X015080Y004008D03*
X015205Y004128D03*
X014100Y003858D03*
X013975Y003733D03*
X013850Y003608D03*
X013855Y003898D03*
X013980Y004023D03*
X013545Y003898D03*
X013420Y004023D03*
D32*
X013425Y004023D03*
X013550Y003898D03*
X013650Y003933D03*
X013655Y003933D03*
X013745Y003933D03*
X013750Y003933D03*
X013850Y003898D03*
X013975Y004023D03*
X014105Y003858D03*
X014215Y003823D03*
X014240Y003818D03*
X014250Y003818D03*
X014255Y003818D03*
X014290Y003823D03*
X014315Y004048D03*
X014400Y004128D03*
X014100Y004148D03*
X013735Y004113D03*
X013730Y004113D03*
X013725Y004113D03*
X013720Y004113D03*
X013715Y004113D03*
X013710Y004113D03*
X013705Y004113D03*
X013700Y004113D03*
X013695Y004113D03*
X013690Y004113D03*
X013685Y004113D03*
X013680Y004113D03*
X013675Y004113D03*
X013670Y004113D03*
X013665Y004113D03*
X013980Y003733D03*
X013855Y003608D03*
X014155Y003478D03*
X014350Y003478D03*
X014650Y003883D03*
X014950Y003883D03*
X015200Y004128D03*
X014395Y004758D03*
X014380Y004983D03*
X014395Y005323D03*
X014000Y005553D03*
X014480Y005928D03*
X014230Y006068D03*
X014150Y006653D03*
X014470Y006658D03*
D33*
X014140Y006668D03*
X014245Y006058D03*
X014360Y005913D03*
X014365Y005908D03*
X014155Y005598D03*
X014350Y004638D03*
X014530Y004603D03*
X014665Y004253D03*
X014670Y004253D03*
X014675Y004253D03*
X014690Y004258D03*
X014695Y004258D03*
X014720Y004263D03*
X014725Y004263D03*
X014730Y004263D03*
X014735Y004263D03*
X014740Y004263D03*
X014660Y004248D03*
X014655Y004248D03*
X014650Y004248D03*
X014640Y004243D03*
X014635Y004243D03*
X014680Y004078D03*
X014685Y004078D03*
X014690Y004078D03*
X014700Y004083D03*
X014725Y004088D03*
X014755Y004093D03*
X014675Y004073D03*
X014670Y004073D03*
X014665Y004073D03*
X014655Y004068D03*
X014645Y004063D03*
X014845Y004093D03*
X014875Y004088D03*
X014880Y004088D03*
X014900Y004083D03*
X014910Y004078D03*
X014915Y004078D03*
X014920Y004078D03*
X014925Y004073D03*
X014930Y004073D03*
X014935Y004073D03*
X014940Y004068D03*
X014955Y004063D03*
X014990Y004233D03*
X014945Y004248D03*
X014940Y004248D03*
X014930Y004253D03*
X014925Y004253D03*
X014905Y004258D03*
X014900Y004258D03*
X014860Y004263D03*
X014855Y004263D03*
X014405Y004128D03*
X014310Y004048D03*
X014095Y004148D03*
X013970Y004023D03*
X013850Y004083D03*
X013840Y004088D03*
X013835Y004088D03*
X013825Y004093D03*
X013820Y004093D03*
X013815Y004098D03*
X013810Y004098D03*
X013805Y004098D03*
X013795Y004103D03*
X013790Y004103D03*
X013785Y004103D03*
X013765Y004108D03*
X013760Y004108D03*
X013755Y004108D03*
X013650Y004108D03*
X013645Y004108D03*
X013615Y004103D03*
X013610Y004103D03*
X013595Y004098D03*
X013590Y004098D03*
X013585Y004098D03*
X013580Y004093D03*
X013575Y004093D03*
X013570Y004088D03*
X013565Y004088D03*
X013550Y004083D03*
X013430Y004023D03*
X013555Y003898D03*
X013610Y003918D03*
X013620Y003923D03*
X013625Y003923D03*
X013630Y003928D03*
X013635Y003928D03*
X013675Y003938D03*
X013725Y003938D03*
X013730Y003938D03*
X013765Y003928D03*
X013770Y003928D03*
X013775Y003923D03*
X013780Y003923D03*
X013790Y003918D03*
X013845Y003898D03*
X013985Y003733D03*
X014120Y003668D03*
X014130Y003663D03*
X014135Y003663D03*
X014140Y003663D03*
X014145Y003658D03*
X014150Y003658D03*
X014165Y003653D03*
X014170Y003653D03*
X014175Y003653D03*
X014190Y003648D03*
X014195Y003648D03*
X014200Y003648D03*
X014205Y003648D03*
X014300Y003648D03*
X014305Y003648D03*
X014310Y003648D03*
X014315Y003648D03*
X014330Y003653D03*
X014335Y003653D03*
X014340Y003653D03*
X014355Y003658D03*
X014360Y003658D03*
X014370Y003663D03*
X014375Y003663D03*
X014385Y003668D03*
X014420Y003498D03*
X014425Y003498D03*
X014430Y003498D03*
X014440Y003503D03*
X014445Y003503D03*
X014470Y003513D03*
X014415Y003493D03*
X014410Y003493D03*
X014400Y003488D03*
X014395Y003488D03*
X014390Y003488D03*
X014380Y003483D03*
X014375Y003483D03*
X014370Y003483D03*
X014365Y003483D03*
X014315Y003473D03*
X014310Y003473D03*
X014195Y003473D03*
X014190Y003473D03*
X014185Y003473D03*
X014180Y003473D03*
X014175Y003473D03*
X014140Y003483D03*
X014135Y003483D03*
X014130Y003483D03*
X014125Y003483D03*
X014115Y003488D03*
X014110Y003488D03*
X014105Y003488D03*
X014100Y003493D03*
X014095Y003493D03*
X014090Y003493D03*
X014085Y003498D03*
X014080Y003498D03*
X014075Y003498D03*
X014060Y003503D03*
X014035Y003513D03*
X013860Y003608D03*
X014165Y003838D03*
X014175Y003833D03*
X014180Y003833D03*
X014185Y003828D03*
X014190Y003828D03*
X014195Y003828D03*
X014315Y003828D03*
X014320Y003828D03*
X014325Y003833D03*
X014330Y003833D03*
X014340Y003838D03*
X014395Y003863D03*
X014660Y003878D03*
X014705Y003898D03*
X014715Y003903D03*
X014725Y003908D03*
X014730Y003908D03*
X014735Y003913D03*
X014740Y003913D03*
X014770Y003918D03*
X014830Y003918D03*
X014860Y003913D03*
X014865Y003913D03*
X014870Y003908D03*
X014875Y003908D03*
X014885Y003903D03*
X014895Y003898D03*
X014940Y003878D03*
X015195Y004128D03*
X013890Y004258D03*
X013885Y004258D03*
X013870Y004263D03*
X013865Y004263D03*
X013855Y004268D03*
X013840Y004273D03*
X013835Y004273D03*
X013830Y004273D03*
X013825Y004278D03*
X013820Y004278D03*
X013815Y004278D03*
X013810Y004278D03*
X013805Y004278D03*
X013790Y004283D03*
X013785Y004283D03*
X013780Y004283D03*
X013775Y004283D03*
X013770Y004283D03*
X013765Y004283D03*
X013760Y004288D03*
X013755Y004288D03*
X013750Y004288D03*
X013745Y004288D03*
X013740Y004288D03*
X013735Y004288D03*
X013730Y004288D03*
X013725Y004288D03*
X013720Y004288D03*
X013715Y004288D03*
X013710Y004288D03*
X013705Y004288D03*
X013700Y004288D03*
X013695Y004288D03*
X013690Y004288D03*
X013685Y004288D03*
X013680Y004288D03*
X013675Y004288D03*
X013670Y004288D03*
X013665Y004288D03*
X013660Y004288D03*
X013655Y004288D03*
X013650Y004288D03*
X013645Y004288D03*
X013640Y004288D03*
X013615Y004283D03*
X013610Y004283D03*
X013605Y004283D03*
X013595Y004278D03*
X013590Y004278D03*
X013585Y004278D03*
X013580Y004278D03*
X013565Y004273D03*
X013560Y004273D03*
X013530Y004263D03*
D34*
X014020Y004023D03*
X013505Y003903D03*
X014140Y004518D03*
D35*
X014110Y004445D03*
X014380Y004750D03*
X014125Y004810D03*
X014380Y005315D03*
X014125Y005375D03*
X014360Y005730D03*
X014275Y006025D03*
X014215Y004050D03*
X013735Y003710D03*
X013730Y003710D03*
X013725Y003710D03*
X013675Y003710D03*
X013670Y003710D03*
X013665Y003710D03*
X014765Y003690D03*
X014770Y003690D03*
X014835Y003690D03*
D36*
X014830Y003693D03*
X014825Y003693D03*
X014775Y003693D03*
X014285Y004048D03*
X014280Y004048D03*
X014275Y004048D03*
X014270Y004048D03*
X014235Y004048D03*
X014230Y004048D03*
X014225Y004048D03*
X014220Y004048D03*
X013720Y003708D03*
X013685Y003708D03*
X013680Y003708D03*
X014100Y004618D03*
X014105Y004618D03*
X014110Y004618D03*
X014115Y004618D03*
X014120Y004618D03*
X014125Y004618D03*
X014120Y004808D03*
X014115Y004808D03*
X014110Y004808D03*
X014105Y004808D03*
X014100Y004808D03*
X014100Y005183D03*
X014105Y005183D03*
X014110Y005183D03*
X014115Y005183D03*
X014120Y005183D03*
X014125Y005183D03*
X014120Y005373D03*
X014115Y005373D03*
X014110Y005373D03*
X014105Y005373D03*
X014100Y005373D03*
X013975Y005613D03*
X014365Y005728D03*
X014335Y005943D03*
D37*
X014330Y005950D03*
X014280Y006020D03*
X014510Y006000D03*
X014370Y005725D03*
X014390Y005630D03*
X014220Y005620D03*
X014125Y004995D03*
X014120Y004445D03*
X014115Y004445D03*
X013715Y003710D03*
X013710Y003710D03*
X013690Y003710D03*
X014780Y003690D03*
X014785Y003690D03*
X014790Y003690D03*
X014815Y003690D03*
X014820Y003690D03*
X014390Y006335D03*
X014110Y006330D03*
D38*
X014285Y006013D03*
X014325Y005958D03*
X014145Y005623D03*
X014375Y005313D03*
X014120Y004998D03*
X014115Y004998D03*
X014110Y004998D03*
X014105Y004998D03*
X014100Y004998D03*
X014375Y004748D03*
X014130Y004443D03*
X014125Y004443D03*
X014240Y004048D03*
X014245Y004048D03*
X014260Y004048D03*
X014265Y004048D03*
X014805Y003693D03*
X014810Y003693D03*
X013705Y003713D03*
X013695Y003708D03*
D39*
X013700Y003710D03*
X014250Y004050D03*
X014255Y004050D03*
X014135Y004440D03*
X014795Y003690D03*
X014800Y003690D03*
X014225Y005620D03*
X014105Y005685D03*
X014375Y005720D03*
X014320Y005965D03*
X014295Y006000D03*
X014290Y006005D03*
D40*
X014140Y004148D03*
X014360Y004128D03*
X014485Y004008D03*
X014570Y003733D03*
X015115Y004008D03*
X015240Y004128D03*
X014060Y003853D03*
X013815Y003608D03*
D41*
X013820Y003608D03*
X013890Y003903D03*
X014065Y003853D03*
X014365Y004128D03*
X014490Y004008D03*
X014565Y003733D03*
X015110Y004008D03*
X015235Y004128D03*
X014135Y004148D03*
X014455Y004998D03*
X014540Y004998D03*
D42*
X014400Y005013D03*
X014460Y004413D03*
X014465Y004413D03*
X014130Y004148D03*
X014330Y004048D03*
X014370Y004128D03*
X014495Y004008D03*
X014560Y003733D03*
X015105Y004008D03*
X015230Y004128D03*
X014070Y003853D03*
X013885Y003903D03*
X013825Y003608D03*
X014185Y005578D03*
X014195Y005583D03*
X014400Y006083D03*
D43*
X014405Y006083D03*
X014410Y006083D03*
X014415Y006083D03*
X014420Y006083D03*
X014425Y006083D03*
X014430Y006083D03*
X014220Y005863D03*
X014215Y005863D03*
X014210Y005863D03*
X014205Y005863D03*
X014200Y005863D03*
X014195Y005863D03*
X014175Y005573D03*
X014400Y005198D03*
X014460Y004998D03*
X014535Y004998D03*
X014550Y004633D03*
X014445Y004408D03*
X014440Y004408D03*
X014125Y004148D03*
X014375Y004128D03*
X014500Y004008D03*
X014555Y003733D03*
X014725Y003693D03*
X015100Y004008D03*
X015225Y004128D03*
X014075Y003853D03*
X013880Y003903D03*
X013830Y003608D03*
X014175Y006853D03*
X014180Y006853D03*
X014185Y006853D03*
X014190Y006853D03*
X014195Y006853D03*
X014420Y006853D03*
X014425Y006853D03*
X014430Y006853D03*
X014435Y006853D03*
X014440Y006853D03*
X014445Y006853D03*
D44*
X014470Y006848D03*
X014145Y006848D03*
X014465Y006078D03*
X014150Y005868D03*
X014145Y005868D03*
X014165Y005573D03*
X014405Y005628D03*
X014465Y004998D03*
X014530Y004998D03*
X014425Y004403D03*
X014420Y004403D03*
X014120Y004148D03*
X014325Y004048D03*
X014380Y004128D03*
X014505Y004008D03*
X014425Y003858D03*
X014550Y003733D03*
X014630Y003883D03*
X014970Y003883D03*
X015095Y004008D03*
X015220Y004128D03*
X013835Y003608D03*
D45*
X013935Y003730D03*
X013895Y003900D03*
X014605Y003885D03*
X014695Y003610D03*
X014995Y003885D03*
D46*
X014140Y005630D03*
X013980Y005615D03*
X014385Y006335D03*
X014510Y006760D03*
X014105Y006760D03*
D47*
X014120Y006333D03*
X014380Y006333D03*
X014135Y005638D03*
X013985Y005618D03*
D48*
X013990Y005618D03*
X014120Y005653D03*
X014495Y006003D03*
D49*
X014485Y005995D03*
X014120Y005950D03*
X013995Y005620D03*
D50*
X014105Y005948D03*
X014300Y005993D03*
X014305Y005988D03*
X014310Y005978D03*
X014315Y005973D03*
X014115Y006333D03*
D51*
X014120Y006758D03*
X014130Y005958D03*
X014110Y005648D03*
D52*
X014110Y005945D03*
X014380Y004425D03*
D53*
X014375Y004420D03*
X014370Y004420D03*
X014365Y004420D03*
X014360Y004420D03*
X014355Y004420D03*
X014125Y005645D03*
X014110Y006760D03*
D54*
X014490Y006000D03*
X014115Y005945D03*
X014115Y005655D03*
D55*
X014115Y006763D03*
X014500Y006763D03*
D56*
X014495Y006760D03*
X014125Y005955D03*
D57*
X014500Y006003D03*
X014375Y006333D03*
X014125Y006333D03*
X014505Y006763D03*
X014130Y005643D03*
D58*
X014370Y004705D03*
X014490Y006755D03*
X014125Y006755D03*
D59*
X014130Y006750D03*
X014485Y006750D03*
X014355Y004710D03*
D60*
X014385Y004430D03*
X014230Y005620D03*
D61*
X014355Y005255D03*
D62*
X014360Y004708D03*
X014365Y004708D03*
D63*
X014365Y005253D03*
X014360Y005253D03*
D64*
X014370Y005250D03*
D65*
X014380Y005670D03*
D66*
X014385Y005673D03*
D67*
X014505Y006003D03*
D68*
X015120Y004005D03*
D69*
X006995Y003622D03*
X006149Y004054D03*
X005771Y004054D03*
X005531Y004522D03*
X005525Y004528D03*
X005705Y004576D03*
X005705Y004750D03*
X005369Y005128D03*
X004931Y005014D03*
X004931Y005008D03*
X004931Y005002D03*
X004931Y004996D03*
X004925Y004960D03*
X004925Y004954D03*
X004925Y004948D03*
X004925Y004942D03*
X004925Y004936D03*
X004925Y004930D03*
X004925Y004780D03*
X004925Y004774D03*
X004925Y004768D03*
X004925Y004762D03*
X004925Y004756D03*
X004925Y004750D03*
X004931Y004714D03*
X004931Y004708D03*
X004931Y004702D03*
X004931Y004696D03*
X004931Y004690D03*
X005741Y005638D03*
X006449Y004768D03*
X006449Y004762D03*
X006215Y004576D03*
X007001Y004798D03*
X007001Y004804D03*
X007001Y004810D03*
X007001Y004816D03*
X007001Y004822D03*
X007001Y004828D03*
X007001Y004834D03*
X007001Y004840D03*
X007001Y004846D03*
X007001Y004852D03*
X007001Y004858D03*
X007001Y004864D03*
X007001Y004870D03*
X007001Y004876D03*
X007001Y004882D03*
X007001Y004888D03*
X007001Y004894D03*
X007001Y004900D03*
X007001Y004906D03*
X007001Y004912D03*
X006989Y005014D03*
D70*
X006935Y005218D03*
X006935Y005224D03*
X006545Y005134D03*
X006995Y004726D03*
X006995Y004720D03*
X006995Y004714D03*
X006995Y004708D03*
X006995Y004702D03*
X006995Y004696D03*
X006995Y004186D03*
X006995Y004180D03*
X006995Y004174D03*
X006995Y004168D03*
X006995Y004162D03*
X006995Y004156D03*
X006995Y004150D03*
X006995Y004144D03*
X006995Y004138D03*
X006995Y004132D03*
X006995Y004126D03*
X006995Y004120D03*
X006995Y004114D03*
X006995Y004108D03*
X006995Y004102D03*
X006995Y004096D03*
X006995Y004090D03*
X006995Y004084D03*
X006995Y004078D03*
X006995Y004072D03*
X006995Y004066D03*
X006995Y004060D03*
X006995Y004054D03*
X006995Y004048D03*
X006995Y004042D03*
X006995Y004036D03*
X006995Y004030D03*
X006995Y004024D03*
X006995Y004018D03*
X006995Y004012D03*
X006995Y004006D03*
X006995Y004000D03*
X006995Y003994D03*
X006995Y003988D03*
X006995Y003982D03*
X006995Y003976D03*
X006995Y003970D03*
X006995Y003964D03*
X006995Y003958D03*
X006995Y003952D03*
X006995Y003946D03*
X006995Y003940D03*
X006995Y003934D03*
X006995Y003928D03*
X006995Y003922D03*
X006995Y003916D03*
X006995Y003910D03*
X006995Y003904D03*
X006995Y003898D03*
X006995Y003892D03*
X006995Y003886D03*
X006995Y003880D03*
X006995Y003874D03*
X006995Y003868D03*
X006995Y003862D03*
X006995Y003856D03*
X006995Y003850D03*
X006995Y003844D03*
X006995Y003838D03*
X006995Y003832D03*
X006995Y003826D03*
X006995Y003820D03*
X006995Y003814D03*
X006995Y003808D03*
X006995Y003802D03*
X006995Y003796D03*
X006995Y003790D03*
X006995Y003784D03*
X006995Y003778D03*
X006995Y003772D03*
X006995Y003766D03*
X006995Y003760D03*
X006995Y003754D03*
X006995Y003748D03*
X006995Y003742D03*
X006995Y003736D03*
X006995Y003730D03*
X006995Y003724D03*
X006995Y003718D03*
X006995Y003712D03*
X006995Y003706D03*
X006995Y003700D03*
X006995Y003694D03*
X006995Y003688D03*
X006995Y003682D03*
X006995Y003676D03*
X006995Y003670D03*
X006995Y003664D03*
X006995Y003658D03*
X006995Y003652D03*
X006995Y003646D03*
X006995Y003640D03*
X006995Y003634D03*
X006995Y003628D03*
X005705Y004744D03*
X004985Y004492D03*
X004955Y005122D03*
X004985Y005218D03*
D71*
X005777Y004732D03*
X005777Y004594D03*
X006143Y004594D03*
X006293Y004594D03*
X006293Y004732D03*
X006773Y004708D03*
X006503Y005194D03*
X006023Y003994D03*
X005957Y003718D03*
D72*
X005957Y003724D03*
X005177Y004174D03*
X005147Y004210D03*
X005357Y004372D03*
X006563Y004372D03*
X006527Y005122D03*
X006773Y005500D03*
X006767Y005506D03*
X006233Y005524D03*
X005963Y005536D03*
X005963Y005986D03*
X005153Y005506D03*
X005147Y005500D03*
D73*
X005351Y005686D03*
X006563Y005692D03*
X005963Y004522D03*
X005963Y004210D03*
X005963Y003730D03*
X006557Y004012D03*
X006929Y004354D03*
X005357Y004018D03*
D74*
X005957Y003736D03*
X006893Y004252D03*
X005603Y004900D03*
X005471Y005074D03*
X005465Y005752D03*
X006455Y005752D03*
D75*
X006395Y005776D03*
X005963Y004234D03*
X005957Y003742D03*
D76*
X005957Y003748D03*
X006383Y005062D03*
D77*
X005963Y004258D03*
X005963Y003754D03*
D78*
X005963Y003760D03*
D79*
X005957Y003766D03*
X005963Y004288D03*
D80*
X005963Y004300D03*
X005957Y003772D03*
X005963Y005938D03*
D81*
X005963Y005932D03*
X005957Y005242D03*
X005963Y004312D03*
X005957Y003778D03*
D82*
X005960Y003784D03*
X005960Y004330D03*
D83*
X005963Y003790D03*
D84*
X005960Y003796D03*
X005960Y004366D03*
X005966Y005260D03*
D85*
X005960Y005434D03*
X005960Y004378D03*
X005960Y003802D03*
D86*
X005957Y003808D03*
X005963Y004396D03*
X005957Y005386D03*
X005957Y005392D03*
D87*
X005954Y005362D03*
X005954Y005356D03*
X005972Y005272D03*
X005960Y005896D03*
X005960Y004408D03*
X005960Y003814D03*
D88*
X005960Y003820D03*
X005960Y004426D03*
X005954Y005308D03*
X005954Y005314D03*
X005954Y005320D03*
X005960Y005890D03*
D89*
X005960Y004450D03*
X005960Y003826D03*
D90*
X005960Y003832D03*
X005960Y004468D03*
X005960Y004978D03*
D91*
X005960Y004492D03*
X005960Y003838D03*
D92*
X005960Y003844D03*
D93*
X005960Y003850D03*
D94*
X005963Y003856D03*
D95*
X005957Y003862D03*
D96*
X005960Y003868D03*
X005960Y004882D03*
X005960Y004888D03*
X005960Y005842D03*
D97*
X005960Y003874D03*
D98*
X005960Y003880D03*
X005960Y005830D03*
D99*
X005960Y005824D03*
X005960Y005008D03*
X005960Y003886D03*
D100*
X005960Y003892D03*
X005960Y005014D03*
D101*
X005960Y005812D03*
X005960Y003898D03*
D102*
X005960Y003904D03*
X005960Y005020D03*
D103*
X005963Y003910D03*
D104*
X006332Y003916D03*
X005960Y004252D03*
X005588Y003916D03*
X005954Y005218D03*
D105*
X006353Y005788D03*
X005963Y005962D03*
X005567Y003922D03*
X006359Y003922D03*
D106*
X006386Y003928D03*
X005534Y003928D03*
X005528Y005776D03*
D107*
X005513Y005770D03*
X006869Y004204D03*
X006869Y004198D03*
X006401Y003934D03*
D108*
X005522Y003934D03*
D109*
X005507Y003940D03*
X005963Y004228D03*
X006419Y003940D03*
X006431Y005074D03*
D110*
X006884Y004234D03*
X006434Y003946D03*
D111*
X006881Y004228D03*
X005951Y005206D03*
X006425Y005764D03*
X005489Y003946D03*
D112*
X005474Y003952D03*
X006446Y003952D03*
D113*
X006458Y003958D03*
X005462Y003958D03*
X006458Y005086D03*
X005732Y005452D03*
D114*
X005438Y005740D03*
X006902Y004276D03*
X006482Y003970D03*
X006470Y003964D03*
X005438Y003970D03*
D115*
X005450Y003964D03*
X006896Y004258D03*
X006470Y005746D03*
X005456Y005746D03*
D116*
X005426Y005734D03*
X005720Y005458D03*
X006158Y005560D03*
X006494Y005734D03*
X006506Y005728D03*
X005960Y004816D03*
X006908Y004294D03*
X006908Y004288D03*
X006494Y003976D03*
X005426Y003976D03*
D117*
X006506Y003982D03*
X006914Y004306D03*
X005960Y004936D03*
X006200Y005458D03*
X006524Y005716D03*
X005720Y005464D03*
X005408Y005722D03*
D118*
X006482Y005206D03*
X006218Y004630D03*
X005996Y003982D03*
X005930Y003982D03*
D119*
X005417Y003982D03*
X006473Y005092D03*
X005417Y005728D03*
D120*
X005399Y005716D03*
X006161Y005566D03*
X006533Y005710D03*
X005441Y005086D03*
X006917Y004318D03*
X006917Y004312D03*
X006527Y003994D03*
X006515Y003988D03*
X005405Y003988D03*
D121*
X006008Y003988D03*
X006116Y004630D03*
X006116Y004636D03*
X006116Y004642D03*
X006116Y004690D03*
X006116Y004696D03*
X006122Y004708D03*
X006314Y004702D03*
X006314Y004630D03*
X006314Y004624D03*
X005804Y004624D03*
X005804Y004630D03*
X005804Y004696D03*
X005804Y004702D03*
X005702Y004690D03*
X005606Y004696D03*
X005606Y004702D03*
X005606Y004636D03*
X005606Y004630D03*
X005612Y004618D03*
X005708Y004822D03*
X005342Y004972D03*
X005738Y005686D03*
X006494Y005200D03*
D122*
X005957Y005500D03*
X005423Y005200D03*
X005603Y004690D03*
X005603Y004684D03*
X005603Y004648D03*
X005603Y004642D03*
X005705Y004636D03*
X006113Y004648D03*
X006113Y004678D03*
X006113Y004684D03*
X006215Y004636D03*
X006323Y004648D03*
X006323Y004654D03*
X006323Y004660D03*
X006323Y004666D03*
X006323Y004672D03*
X006323Y004678D03*
X006317Y004696D03*
X005915Y003988D03*
D123*
X005900Y003994D03*
X005786Y004600D03*
X005792Y004606D03*
X005708Y004648D03*
X005702Y004678D03*
X005630Y004732D03*
X005624Y004726D03*
X005618Y004720D03*
X005624Y004600D03*
X005630Y004594D03*
X005786Y004726D03*
X005792Y004720D03*
X005960Y004930D03*
X006140Y004732D03*
X006134Y004726D03*
X006134Y004600D03*
X006296Y004600D03*
X006302Y004606D03*
X006308Y004612D03*
X006200Y005704D03*
X005960Y005992D03*
D124*
X006164Y005572D03*
X006206Y005464D03*
X006542Y005704D03*
X005714Y005470D03*
X005966Y004516D03*
X005396Y003994D03*
X005384Y004000D03*
D125*
X005375Y004006D03*
X005963Y004810D03*
X006485Y005098D03*
X006167Y005578D03*
X005381Y005704D03*
X006923Y004336D03*
X006923Y004330D03*
X006539Y004000D03*
D126*
X006452Y004336D03*
X006272Y004582D03*
X006572Y004966D03*
X006692Y004852D03*
X006698Y004846D03*
X006704Y004840D03*
X006710Y004828D03*
X006716Y004822D03*
X006722Y004810D03*
X006728Y004804D03*
X006734Y004792D03*
X006782Y004654D03*
X006038Y004000D03*
X005192Y004798D03*
X005198Y004810D03*
X005204Y004816D03*
X005210Y004828D03*
X005216Y004834D03*
X005222Y004840D03*
X005228Y004852D03*
X005234Y004858D03*
X005240Y004864D03*
D127*
X005195Y004804D03*
X005165Y004750D03*
X005345Y004966D03*
X005735Y005680D03*
X006515Y005188D03*
X006785Y004660D03*
X005885Y004000D03*
D128*
X006548Y004006D03*
X006368Y004828D03*
X006212Y005470D03*
D129*
X006527Y005176D03*
X006647Y004900D03*
X006653Y004894D03*
X006659Y004888D03*
X006635Y004504D03*
X006629Y004498D03*
X006623Y004492D03*
X006617Y004486D03*
X006611Y004480D03*
X006605Y004474D03*
X006599Y004468D03*
X006581Y004306D03*
X006575Y004300D03*
X006569Y004294D03*
X006053Y004006D03*
X005867Y004006D03*
X005345Y004300D03*
X005339Y004306D03*
X005333Y004312D03*
X005345Y004450D03*
X005339Y004456D03*
X005333Y004462D03*
X005327Y004468D03*
X005303Y004486D03*
X005297Y004492D03*
X005291Y004498D03*
X005285Y004504D03*
X005279Y004510D03*
X005273Y004516D03*
X005267Y004522D03*
X005261Y004528D03*
X005147Y004636D03*
X005267Y004888D03*
X005273Y004894D03*
X005279Y004900D03*
X005285Y004906D03*
X005381Y005170D03*
X005483Y004636D03*
X005735Y005674D03*
D130*
X005294Y004912D03*
X005222Y004564D03*
X005228Y004558D03*
X005234Y004552D03*
X005246Y004540D03*
X005252Y004534D03*
X005354Y004294D03*
X005366Y004282D03*
X005372Y004276D03*
X006068Y004012D03*
X006542Y004270D03*
X006548Y004276D03*
X006554Y004282D03*
X006644Y004510D03*
X006656Y004522D03*
X006662Y004528D03*
X006668Y004534D03*
X006674Y004540D03*
X006686Y004552D03*
X006692Y004558D03*
X006776Y004636D03*
X006638Y004906D03*
D131*
X006629Y004912D03*
X006569Y004960D03*
X006533Y005170D03*
X005963Y005506D03*
X005867Y005560D03*
X006197Y005692D03*
X005351Y004960D03*
X005303Y004918D03*
X005705Y004774D03*
X005705Y004552D03*
X005393Y004258D03*
X005387Y004264D03*
X005381Y004270D03*
X005411Y004246D03*
X005213Y004570D03*
X005207Y004576D03*
X005201Y004582D03*
X005855Y004012D03*
X006215Y004552D03*
X006521Y004252D03*
X006527Y004258D03*
X006533Y004264D03*
X006701Y004564D03*
X006707Y004570D03*
X006713Y004576D03*
X006773Y004630D03*
D132*
X006926Y004348D03*
X006926Y004342D03*
X005366Y004012D03*
X005714Y005476D03*
X005366Y005698D03*
X005360Y005692D03*
X006554Y005698D03*
D133*
X006572Y005686D03*
X006170Y005584D03*
X005960Y005980D03*
X005708Y005482D03*
X005342Y005680D03*
X005426Y005092D03*
X005564Y004906D03*
X005960Y004804D03*
X006356Y004906D03*
X006932Y004366D03*
X006932Y004360D03*
X006566Y004018D03*
X005348Y004024D03*
D134*
X005420Y004240D03*
X005402Y004252D03*
X005192Y004588D03*
X005186Y004594D03*
X005180Y004600D03*
X005150Y004630D03*
X005312Y004924D03*
X005366Y005158D03*
X005372Y005164D03*
X005738Y005668D03*
X006620Y004918D03*
X006218Y004774D03*
X006722Y004582D03*
X006728Y004588D03*
X006746Y004600D03*
X006752Y004606D03*
X006758Y004612D03*
X006764Y004618D03*
X006770Y004624D03*
X006470Y004342D03*
X006512Y004246D03*
X006494Y004234D03*
X006080Y004018D03*
D135*
X005843Y004018D03*
X005453Y004216D03*
X005447Y004222D03*
X005453Y004342D03*
X005153Y004624D03*
X005363Y005152D03*
X006503Y004240D03*
X006737Y004594D03*
D136*
X006935Y004378D03*
X006935Y004372D03*
X006575Y004024D03*
X006215Y005476D03*
D137*
X006200Y005686D03*
X005738Y005662D03*
X005942Y005194D03*
X006218Y004768D03*
X006452Y004618D03*
X006452Y004612D03*
X006452Y004606D03*
X006446Y004594D03*
X006446Y004588D03*
X006440Y004582D03*
X006440Y004576D03*
X006218Y004558D03*
X006452Y004204D03*
X006446Y004198D03*
X006434Y004192D03*
X006416Y004180D03*
X006470Y004216D03*
X006092Y004024D03*
X005486Y004192D03*
X005480Y004198D03*
X005468Y004204D03*
X005462Y004210D03*
X005708Y004558D03*
X005474Y004612D03*
X005468Y004624D03*
X005468Y004630D03*
X006542Y005164D03*
X006548Y005158D03*
D138*
X006551Y005152D03*
X006467Y004696D03*
X006467Y004690D03*
X006467Y004684D03*
X006437Y004570D03*
X006431Y004564D03*
X006431Y004558D03*
X006407Y004174D03*
X005831Y004024D03*
X005519Y004174D03*
X005507Y004180D03*
X005483Y004588D03*
X005483Y004594D03*
X005477Y004600D03*
X005477Y004606D03*
X005471Y004618D03*
X005477Y004930D03*
X005357Y005146D03*
D139*
X005753Y005566D03*
X006173Y005590D03*
X006581Y005680D03*
X006587Y005674D03*
X006599Y005668D03*
X005333Y005674D03*
X005327Y005668D03*
X005339Y004030D03*
X006581Y004030D03*
D140*
X006386Y004162D03*
X006374Y004156D03*
X006362Y004150D03*
X006104Y004030D03*
X005546Y004156D03*
X005540Y004162D03*
X005528Y004168D03*
X005462Y004690D03*
X005360Y004954D03*
X006446Y004930D03*
X006560Y004954D03*
X006464Y004708D03*
X006464Y004702D03*
X006428Y004552D03*
X006422Y004546D03*
D141*
X006461Y004714D03*
X006461Y004720D03*
X006485Y004348D03*
X005819Y004030D03*
X005573Y004144D03*
X005561Y004150D03*
X005495Y004570D03*
X005489Y004582D03*
X005465Y004696D03*
X005465Y004702D03*
X005705Y004762D03*
X005705Y004564D03*
X005357Y005140D03*
X005741Y005656D03*
X005963Y005512D03*
X006197Y005680D03*
X006551Y005146D03*
D142*
X006500Y005104D03*
X006218Y005482D03*
X006608Y005662D03*
X005708Y005488D03*
X005318Y005662D03*
X005960Y004528D03*
X005330Y004036D03*
X005324Y004042D03*
X006590Y004036D03*
X006938Y004384D03*
D143*
X006413Y004534D03*
X006407Y004528D03*
X006455Y004732D03*
X006455Y004738D03*
X005963Y004690D03*
X005507Y004552D03*
X005501Y004558D03*
X005465Y004714D03*
X005597Y004132D03*
X006119Y004036D03*
X006317Y004126D03*
X006323Y004132D03*
X006335Y004138D03*
X005741Y005650D03*
D144*
X006416Y004540D03*
X006350Y004144D03*
X005804Y004036D03*
D145*
X005315Y004048D03*
X006599Y004042D03*
X006605Y004048D03*
X006941Y004390D03*
X006941Y004396D03*
X005309Y005656D03*
D146*
X006194Y005674D03*
X006218Y004756D03*
X006452Y004744D03*
X006218Y004570D03*
X006302Y004120D03*
X006128Y004042D03*
X005792Y004042D03*
X005606Y004126D03*
X005468Y004720D03*
X005468Y004726D03*
X005468Y004732D03*
X005468Y004738D03*
D147*
X005474Y004750D03*
X005960Y004714D03*
X005966Y004618D03*
X005966Y004612D03*
X006218Y004750D03*
X006452Y004756D03*
X006428Y004924D03*
X006554Y004948D03*
X006392Y004516D03*
X006272Y004108D03*
X006260Y004102D03*
X006140Y004048D03*
X005648Y004108D03*
X005966Y005518D03*
X006194Y005668D03*
D148*
X005741Y005644D03*
X006551Y005140D03*
X006449Y004750D03*
X006401Y004522D03*
X005963Y004624D03*
X005963Y004696D03*
X005705Y004756D03*
X005471Y004744D03*
X005495Y004924D03*
X005369Y004948D03*
X005513Y004540D03*
X005519Y004534D03*
X005705Y004570D03*
X005621Y004120D03*
X005633Y004114D03*
X005783Y004048D03*
X006287Y004114D03*
D149*
X006614Y004054D03*
X006944Y004402D03*
X005960Y004534D03*
X005966Y004792D03*
X005300Y004060D03*
X005306Y004054D03*
X005702Y005494D03*
X005750Y005578D03*
X005300Y005650D03*
X005294Y005644D03*
X006224Y005488D03*
X006632Y005644D03*
D150*
X006635Y005638D03*
X006179Y005602D03*
X005969Y005554D03*
X005945Y005200D03*
X005963Y004786D03*
X006509Y005110D03*
X006947Y004420D03*
X006947Y004414D03*
X006947Y004408D03*
X006629Y004066D03*
X006623Y004060D03*
X005291Y004066D03*
X005285Y004072D03*
X005273Y005626D03*
X005279Y005632D03*
X005285Y005638D03*
D151*
X005741Y005632D03*
X004979Y005200D03*
X004979Y005194D03*
X004973Y005182D03*
X004967Y005170D03*
X004967Y005164D03*
X004967Y005158D03*
X004961Y005146D03*
X004961Y005140D03*
X004949Y005098D03*
X004949Y004612D03*
X004961Y004570D03*
X004961Y004564D03*
X004967Y004552D03*
X004967Y004546D03*
X004967Y004540D03*
X004973Y004528D03*
X004979Y004510D03*
X005543Y004510D03*
X005483Y004774D03*
X005483Y004780D03*
X005963Y004738D03*
X005963Y004594D03*
X006383Y004510D03*
X006437Y004786D03*
X006959Y005146D03*
X006959Y005152D03*
X006953Y005164D03*
X006953Y005170D03*
X006953Y005176D03*
X006947Y005182D03*
X006947Y005188D03*
X006947Y005194D03*
X006941Y005206D03*
X006929Y005236D03*
X006227Y004090D03*
X006161Y004060D03*
D152*
X006242Y004096D03*
X005762Y004060D03*
X005678Y004096D03*
X005534Y004516D03*
X005480Y004768D03*
X005960Y004732D03*
X005960Y004726D03*
X005966Y004600D03*
X006218Y004744D03*
X006440Y004780D03*
X006446Y004774D03*
X006998Y004774D03*
X006998Y004780D03*
X006998Y004786D03*
X006998Y004792D03*
X006998Y004768D03*
X006998Y004762D03*
X006998Y004756D03*
X006998Y004750D03*
X006998Y004744D03*
X006998Y004738D03*
X006998Y004732D03*
X006998Y004918D03*
X006998Y004924D03*
X006998Y004930D03*
X006998Y004936D03*
X006998Y004942D03*
X006998Y004948D03*
X006998Y004954D03*
X006998Y004960D03*
X006998Y004966D03*
X006998Y004972D03*
X006992Y004978D03*
X006992Y004984D03*
X006992Y004990D03*
X006992Y004996D03*
X006992Y005002D03*
X006992Y005008D03*
X006986Y005020D03*
X006986Y005026D03*
X006986Y005032D03*
X006986Y005038D03*
X006986Y005044D03*
X006980Y005062D03*
X006980Y005068D03*
X006980Y005074D03*
X006980Y005080D03*
X006974Y005086D03*
X006974Y005092D03*
X006974Y005098D03*
X006974Y005104D03*
X006968Y005110D03*
X006968Y005116D03*
X006968Y005122D03*
X006968Y005128D03*
X006962Y005134D03*
X006962Y005140D03*
X006956Y005158D03*
X006194Y005662D03*
X004964Y005152D03*
X004958Y005134D03*
X004958Y005128D03*
X004952Y005116D03*
X004952Y005110D03*
X004952Y005104D03*
X004946Y005092D03*
X004946Y005086D03*
X004946Y005080D03*
X004946Y005074D03*
X004940Y005068D03*
X004940Y005062D03*
X004940Y005056D03*
X004940Y005050D03*
X004934Y005032D03*
X004934Y005026D03*
X004934Y005020D03*
X004928Y004990D03*
X004928Y004984D03*
X004928Y004978D03*
X004928Y004972D03*
X004928Y004966D03*
X004922Y004924D03*
X004922Y004918D03*
X004922Y004912D03*
X004922Y004906D03*
X004922Y004900D03*
X004922Y004894D03*
X004922Y004888D03*
X004922Y004882D03*
X004922Y004876D03*
X004922Y004870D03*
X004922Y004864D03*
X004922Y004858D03*
X004922Y004852D03*
X004922Y004846D03*
X004922Y004840D03*
X004922Y004834D03*
X004922Y004828D03*
X004922Y004822D03*
X004922Y004816D03*
X004922Y004810D03*
X004922Y004804D03*
X004922Y004798D03*
X004922Y004792D03*
X004922Y004786D03*
X004928Y004744D03*
X004928Y004738D03*
X004928Y004732D03*
X004928Y004726D03*
X004928Y004720D03*
X004934Y004684D03*
X004934Y004678D03*
X004940Y004654D03*
X004940Y004648D03*
X004940Y004642D03*
X004946Y004636D03*
X004946Y004630D03*
X004946Y004624D03*
X004946Y004618D03*
X004952Y004606D03*
X004952Y004600D03*
X004952Y004594D03*
X004952Y004588D03*
X004958Y004582D03*
X004958Y004576D03*
X004964Y004558D03*
D153*
X004970Y004534D03*
X004976Y004522D03*
X004976Y004516D03*
X004982Y004504D03*
X004982Y004498D03*
X004988Y004486D03*
X004988Y004480D03*
X004994Y004474D03*
X004994Y004468D03*
X005000Y004462D03*
X005000Y004456D03*
X005006Y004444D03*
X005012Y004426D03*
X005486Y004786D03*
X005960Y004744D03*
X005960Y004192D03*
X005750Y004066D03*
X005696Y004090D03*
X006170Y004066D03*
X006182Y004072D03*
X006992Y004654D03*
X006992Y004660D03*
X006992Y004666D03*
X006992Y004672D03*
X006992Y004678D03*
X006992Y004684D03*
X006992Y004690D03*
X006944Y005200D03*
X006938Y005212D03*
X006932Y005230D03*
X006926Y005242D03*
X006926Y005248D03*
X006920Y005254D03*
X006920Y005260D03*
X006914Y005266D03*
X006914Y005272D03*
X006908Y005284D03*
X006188Y005656D03*
X005966Y005524D03*
X005738Y005626D03*
X005018Y005296D03*
X005006Y005266D03*
X005000Y005254D03*
X005000Y005248D03*
X004994Y005242D03*
X004994Y005236D03*
X004988Y005230D03*
X004988Y005224D03*
X004982Y005212D03*
X004982Y005206D03*
X004976Y005188D03*
X004970Y005176D03*
D154*
X005258Y005614D03*
X005264Y005620D03*
X005702Y005500D03*
X006224Y005494D03*
X006644Y005632D03*
X006656Y005620D03*
X006644Y004078D03*
X006638Y004072D03*
X005276Y004078D03*
D155*
X005033Y004384D03*
X005027Y004396D03*
X005021Y004402D03*
X005021Y004408D03*
X005015Y004414D03*
X005015Y004420D03*
X005009Y004432D03*
X005009Y004438D03*
X005003Y004450D03*
X005741Y004072D03*
X006209Y004084D03*
X005963Y004582D03*
X005963Y004588D03*
X005963Y004750D03*
X006431Y004792D03*
X006989Y004648D03*
X006989Y004642D03*
X006989Y004636D03*
X006989Y004630D03*
X006911Y005278D03*
X006905Y005290D03*
X006905Y005296D03*
X006899Y005302D03*
X006899Y005308D03*
X006893Y005314D03*
X006893Y005320D03*
X006887Y005326D03*
X006881Y005338D03*
X006239Y005554D03*
X006191Y005650D03*
X005693Y005560D03*
X005693Y005554D03*
X005375Y005122D03*
X005027Y005308D03*
X005027Y005314D03*
X005033Y005320D03*
X005033Y005326D03*
X005021Y005302D03*
X005015Y005290D03*
X005015Y005284D03*
X005009Y005278D03*
X005009Y005272D03*
X005003Y005260D03*
D156*
X005036Y005332D03*
X005054Y005356D03*
X005054Y005362D03*
X005060Y005368D03*
X005060Y005374D03*
X005066Y005380D03*
X005516Y004918D03*
X005030Y004390D03*
X005036Y004378D03*
X005054Y004348D03*
X005060Y004336D03*
X005066Y004324D03*
X005714Y004084D03*
X006194Y004078D03*
X006986Y004606D03*
X006986Y004612D03*
X006986Y004618D03*
X006986Y004624D03*
X006884Y005332D03*
X006866Y005362D03*
X006866Y005368D03*
X006860Y005374D03*
D157*
X006872Y005356D03*
X006872Y005350D03*
X006878Y005344D03*
X006542Y004942D03*
X006428Y004798D03*
X006368Y004504D03*
X005732Y004078D03*
X005048Y004354D03*
X005048Y004360D03*
X005042Y004366D03*
X005042Y004372D03*
X005492Y004792D03*
X005378Y004942D03*
X005042Y005338D03*
X005042Y005344D03*
X005048Y005350D03*
X005738Y005620D03*
D158*
X005699Y005506D03*
X005969Y005548D03*
X006179Y005608D03*
X006227Y005500D03*
X006665Y005614D03*
X006671Y005608D03*
X006677Y005602D03*
X005255Y005608D03*
X006953Y004444D03*
X006953Y004438D03*
X006665Y004096D03*
X006659Y004090D03*
X006653Y004084D03*
X005261Y004090D03*
X005255Y004096D03*
X005249Y004102D03*
D159*
X005270Y004084D03*
X005960Y004204D03*
X005960Y004540D03*
X006950Y004432D03*
X006950Y004426D03*
X006650Y005626D03*
X005750Y005584D03*
D160*
X005744Y005590D03*
X006230Y005506D03*
X006686Y005596D03*
X005246Y005602D03*
X005240Y005596D03*
X006956Y004456D03*
X006956Y004450D03*
X006686Y004114D03*
X006680Y004108D03*
X006674Y004102D03*
D161*
X005963Y004606D03*
X005957Y004720D03*
X005477Y004756D03*
X005477Y004762D03*
X004937Y004672D03*
X004937Y004666D03*
X004937Y004660D03*
X004937Y005038D03*
X004937Y005044D03*
X005663Y004102D03*
X006983Y005050D03*
X006983Y005056D03*
D162*
X006515Y005116D03*
X005963Y004780D03*
X005957Y004546D03*
X005525Y004822D03*
X005699Y005512D03*
X005231Y005590D03*
X005225Y005584D03*
X005219Y005578D03*
X005213Y005572D03*
X006701Y005578D03*
X006959Y004468D03*
X006959Y004462D03*
X006695Y004120D03*
X005243Y004108D03*
X005237Y004114D03*
X005231Y004120D03*
D163*
X005222Y004126D03*
X005216Y004132D03*
X005210Y004138D03*
X005204Y004144D03*
X005516Y004816D03*
X005534Y004912D03*
X005696Y005518D03*
X005744Y005596D03*
X005966Y005542D03*
X006182Y005620D03*
X006230Y005512D03*
X006710Y005572D03*
X006716Y005566D03*
X006722Y005560D03*
X006386Y004912D03*
X006962Y004480D03*
X006962Y004474D03*
X006722Y004150D03*
X006716Y004144D03*
X006710Y004138D03*
X006704Y004132D03*
X006698Y004126D03*
X005198Y005554D03*
X005192Y005548D03*
X005204Y005560D03*
X005210Y005566D03*
D164*
X005468Y004708D03*
X005492Y004576D03*
X005498Y004564D03*
X005582Y004138D03*
X006218Y004564D03*
X006218Y004762D03*
X006458Y004726D03*
D165*
X006407Y004822D03*
X005963Y004774D03*
X005393Y005110D03*
X005699Y005524D03*
X006233Y005518D03*
X006731Y005548D03*
X006737Y005542D03*
X006743Y005536D03*
X005369Y004360D03*
X005381Y004348D03*
X005189Y004162D03*
X005201Y004150D03*
X006731Y004162D03*
D166*
X006725Y004156D03*
X006545Y004354D03*
X006965Y004486D03*
X006965Y004492D03*
X006965Y004498D03*
X006725Y005554D03*
X005375Y004354D03*
X005195Y004156D03*
D167*
X005180Y004168D03*
X005366Y004366D03*
X005960Y004552D03*
X006554Y004360D03*
X006560Y004366D03*
X006746Y004174D03*
X006740Y004168D03*
X006968Y004504D03*
X006968Y004510D03*
X006530Y004936D03*
X006764Y005512D03*
X006758Y005518D03*
X006752Y005524D03*
X006746Y005530D03*
X006182Y005626D03*
X005744Y005602D03*
X005696Y005530D03*
X005186Y005542D03*
X005180Y005536D03*
X005174Y005530D03*
X005168Y005524D03*
X005390Y004936D03*
D168*
X005705Y004768D03*
X005495Y004186D03*
X006395Y004168D03*
X006425Y004186D03*
D169*
X006569Y004378D03*
X006755Y004186D03*
X006749Y004180D03*
X006971Y004516D03*
X006971Y004522D03*
X006971Y004528D03*
X005969Y004768D03*
X005351Y004378D03*
X005345Y004384D03*
X005159Y004192D03*
X005165Y004186D03*
X005171Y004180D03*
X005135Y005482D03*
X005141Y005488D03*
X005159Y005512D03*
X005165Y005518D03*
X005741Y005608D03*
X006185Y005632D03*
X006779Y005494D03*
D170*
X006707Y004834D03*
X006719Y004816D03*
X006731Y004798D03*
X006737Y004786D03*
X006743Y004780D03*
X006743Y004774D03*
X006761Y004738D03*
X005963Y004186D03*
X005471Y004336D03*
X005771Y004588D03*
X005207Y004822D03*
X005189Y004792D03*
X005183Y004786D03*
X005183Y004780D03*
X005177Y004774D03*
X005171Y004762D03*
X005159Y004732D03*
X005141Y004654D03*
X005393Y005182D03*
D171*
X006866Y004192D03*
D172*
X006590Y004396D03*
X006584Y004390D03*
X006578Y004384D03*
X006974Y004534D03*
X006974Y004540D03*
X006974Y004546D03*
X006416Y004816D03*
X005960Y004558D03*
X005960Y004198D03*
X005342Y004390D03*
X005144Y004216D03*
X005138Y004222D03*
X005132Y004228D03*
X005150Y004204D03*
X005156Y004198D03*
X005504Y004810D03*
X005696Y005536D03*
X005144Y005494D03*
X005132Y005476D03*
X005126Y005470D03*
X006236Y005530D03*
X006782Y005488D03*
X006788Y005482D03*
X006800Y005464D03*
X006806Y005458D03*
D173*
X006410Y005770D03*
X006872Y004210D03*
D174*
X006485Y004228D03*
X006479Y004222D03*
X006461Y004210D03*
X006449Y004600D03*
X006455Y004624D03*
X006461Y004630D03*
X006611Y004924D03*
X006599Y004930D03*
X005435Y004228D03*
X005429Y004234D03*
X005171Y004606D03*
X005165Y004612D03*
X005159Y004618D03*
X005321Y004930D03*
D175*
X006875Y004216D03*
D176*
X005963Y004216D03*
X005957Y004510D03*
X005453Y005080D03*
X006197Y005452D03*
D177*
X005498Y005764D03*
X005486Y005068D03*
X006878Y004222D03*
D178*
X006887Y004240D03*
X005963Y004222D03*
X006443Y005080D03*
X006179Y005446D03*
X005741Y005446D03*
X005477Y005758D03*
X006443Y005758D03*
D179*
X006791Y005476D03*
X006797Y005470D03*
X006809Y005452D03*
X006815Y005446D03*
X006419Y004810D03*
X005963Y004564D03*
X005501Y004804D03*
X005327Y004402D03*
X005333Y004396D03*
X005111Y004258D03*
X005105Y004264D03*
X005093Y004282D03*
X005117Y004246D03*
X005123Y004240D03*
X005129Y004234D03*
X006593Y004402D03*
X006977Y004552D03*
X006977Y004558D03*
X005123Y005464D03*
X005117Y005458D03*
X005111Y005452D03*
D180*
X005948Y005212D03*
X005960Y004240D03*
D181*
X006320Y004900D03*
X006890Y004246D03*
D182*
X005960Y004246D03*
X005960Y004942D03*
X005534Y005056D03*
X005570Y005788D03*
D183*
X005738Y005614D03*
X005696Y005542D03*
X005966Y005530D03*
X006188Y005638D03*
X006236Y005542D03*
X006236Y005536D03*
X006818Y005440D03*
X006824Y005434D03*
X006836Y005416D03*
X006842Y005404D03*
X006422Y004804D03*
X005966Y004762D03*
X005498Y004798D03*
X005384Y005116D03*
X005078Y005404D03*
X005096Y005428D03*
X005096Y005434D03*
X005102Y005440D03*
X005108Y005446D03*
X005072Y004312D03*
X005078Y004306D03*
X005084Y004294D03*
X005096Y004276D03*
X005102Y004270D03*
X005114Y004252D03*
D184*
X006899Y004264D03*
X006899Y004270D03*
X006479Y005740D03*
X005963Y005974D03*
D185*
X005960Y004264D03*
D186*
X005960Y004270D03*
X005960Y005950D03*
D187*
X005963Y004276D03*
D188*
X006905Y004282D03*
D189*
X005960Y004282D03*
D190*
X005360Y004288D03*
X005240Y004546D03*
X006560Y004288D03*
X006650Y004516D03*
X006680Y004546D03*
D191*
X006980Y004564D03*
X006980Y004570D03*
X006980Y004576D03*
X006830Y005422D03*
X006830Y005428D03*
X005090Y005422D03*
X005090Y004288D03*
D192*
X005960Y004294D03*
D193*
X006911Y004300D03*
X006515Y005722D03*
D194*
X006239Y005548D03*
X006191Y005644D03*
X005693Y005548D03*
X005087Y005416D03*
X005081Y005410D03*
X005075Y005398D03*
X005069Y005392D03*
X005069Y005386D03*
X005963Y004756D03*
X005963Y004576D03*
X005963Y004570D03*
X006407Y004918D03*
X006533Y005128D03*
X006851Y005386D03*
X006851Y005392D03*
X006845Y005398D03*
X006839Y005410D03*
X006857Y005380D03*
X006983Y004600D03*
X006983Y004594D03*
X006983Y004588D03*
X006983Y004582D03*
X005081Y004300D03*
X005069Y004318D03*
X005063Y004330D03*
X005057Y004342D03*
D195*
X005960Y004306D03*
D196*
X005366Y004432D03*
X005360Y004438D03*
X005354Y004444D03*
X005306Y004336D03*
X005324Y004318D03*
X005144Y004642D03*
X006566Y004438D03*
X006584Y004456D03*
X006590Y004462D03*
X006596Y004318D03*
X006590Y004312D03*
X006776Y004642D03*
X006686Y004858D03*
X006680Y004864D03*
X006674Y004870D03*
D197*
X005960Y004318D03*
D198*
X006920Y004324D03*
X005390Y005710D03*
D199*
X005258Y004882D03*
X005252Y004876D03*
X005312Y004480D03*
X005318Y004474D03*
X005312Y004330D03*
X005318Y004324D03*
X006218Y004780D03*
X006662Y004882D03*
X006668Y004876D03*
X006578Y004450D03*
X006572Y004444D03*
X006608Y004330D03*
X006602Y004324D03*
D200*
X005960Y004324D03*
X005960Y005926D03*
D201*
X006197Y005698D03*
X006521Y005182D03*
X006779Y004648D03*
X006557Y004432D03*
X006551Y004426D03*
X006539Y004420D03*
X006533Y004414D03*
X006527Y004408D03*
X006623Y004348D03*
X006623Y004342D03*
X006617Y004336D03*
X006167Y004582D03*
X005759Y004582D03*
X005651Y004582D03*
X005705Y004780D03*
X005243Y004870D03*
X005225Y004846D03*
X005141Y004648D03*
X005375Y004426D03*
X005381Y004420D03*
X005387Y004414D03*
X005393Y004408D03*
X005303Y004342D03*
X005387Y005176D03*
D202*
X005960Y004336D03*
D203*
X005960Y004342D03*
X005960Y004960D03*
X005960Y005920D03*
D204*
X005960Y004348D03*
D205*
X005960Y004354D03*
D206*
X005960Y004360D03*
D207*
X005960Y004372D03*
D208*
X005960Y004384D03*
X005960Y004966D03*
X005966Y005266D03*
D209*
X005957Y005398D03*
X005957Y005404D03*
X005957Y005410D03*
X005957Y005416D03*
X005963Y004390D03*
D210*
X005960Y004402D03*
X005954Y005380D03*
D211*
X005216Y004408D03*
X006704Y004408D03*
D212*
X005963Y004414D03*
X005957Y005350D03*
D213*
X005954Y005344D03*
X005954Y005338D03*
X005960Y004420D03*
D214*
X005960Y004432D03*
X005960Y005284D03*
D215*
X005963Y004438D03*
D216*
X005960Y004444D03*
X005960Y005884D03*
D217*
X005963Y004456D03*
D218*
X005963Y004462D03*
D219*
X005963Y004474D03*
D220*
X005960Y004480D03*
X005960Y005872D03*
D221*
X005963Y004486D03*
D222*
X005963Y004498D03*
D223*
X005810Y004504D03*
D224*
X005705Y004540D03*
X006221Y004540D03*
D225*
X006218Y004546D03*
X006284Y004588D03*
X006218Y004648D03*
X006218Y004654D03*
X006218Y004660D03*
X006212Y004666D03*
X006284Y004738D03*
X006746Y004768D03*
X006752Y004762D03*
X006752Y004756D03*
X006758Y004750D03*
X006758Y004744D03*
X006764Y004732D03*
X006764Y004726D03*
X006770Y004720D03*
X006770Y004714D03*
X006776Y004702D03*
X006776Y004696D03*
X006782Y004684D03*
X006782Y004678D03*
X006782Y004666D03*
X005774Y004738D03*
X005642Y004738D03*
X005636Y004588D03*
X005174Y004768D03*
X005168Y004756D03*
X005162Y004744D03*
X005162Y004738D03*
X005156Y004726D03*
X005156Y004720D03*
X005150Y004714D03*
X005150Y004708D03*
X005150Y004702D03*
X005144Y004696D03*
X005144Y004690D03*
X005138Y004678D03*
X005138Y004672D03*
X005138Y004666D03*
X005138Y004660D03*
X005402Y005188D03*
D226*
X005141Y004684D03*
X005705Y004672D03*
X005705Y004666D03*
X005705Y004660D03*
X005705Y004654D03*
X005705Y004546D03*
X005915Y004630D03*
X006149Y004588D03*
X006215Y004642D03*
X006215Y004672D03*
X006215Y004678D03*
X006149Y004738D03*
X006779Y004690D03*
X006785Y004672D03*
D227*
X005960Y004702D03*
X005960Y004708D03*
X005510Y004546D03*
X005360Y005134D03*
D228*
X005411Y005194D03*
X005615Y004714D03*
X005609Y004708D03*
X005609Y004624D03*
X005615Y004612D03*
X005621Y004606D03*
X005705Y004642D03*
X005705Y004684D03*
X005795Y004714D03*
X005801Y004708D03*
X005807Y004690D03*
X005801Y004618D03*
X005795Y004612D03*
X006119Y004624D03*
X006125Y004618D03*
X006125Y004612D03*
X006131Y004606D03*
X006119Y004702D03*
X006125Y004714D03*
X006131Y004720D03*
X006215Y004684D03*
X006299Y004726D03*
X006305Y004720D03*
X006311Y004714D03*
X006311Y004708D03*
X006311Y004618D03*
X006575Y004972D03*
D229*
X005993Y004630D03*
X005399Y004684D03*
X005339Y004978D03*
X005429Y005206D03*
D230*
X005402Y004636D03*
X005960Y004630D03*
X006476Y005212D03*
D231*
X006320Y004690D03*
X006320Y004684D03*
X006320Y004642D03*
X006320Y004636D03*
X006110Y004654D03*
X006110Y004660D03*
X006110Y004666D03*
X006110Y004672D03*
X005810Y004672D03*
X005810Y004678D03*
X005810Y004684D03*
X005810Y004666D03*
X005810Y004660D03*
X005810Y004654D03*
X005810Y004648D03*
X005810Y004642D03*
X005810Y004636D03*
X005600Y004654D03*
X005600Y004660D03*
X005600Y004666D03*
X005600Y004672D03*
X005600Y004678D03*
D232*
X006407Y004678D03*
D233*
X006212Y004690D03*
D234*
X006221Y004786D03*
X006581Y004978D03*
X005705Y004786D03*
X005705Y004696D03*
D235*
X005963Y004798D03*
X005417Y005098D03*
X005753Y005572D03*
X006173Y005596D03*
X006617Y005656D03*
X006623Y005650D03*
D236*
X005957Y004822D03*
D237*
X005789Y004828D03*
X005963Y005254D03*
D238*
X005963Y004846D03*
X005963Y004840D03*
X005963Y004834D03*
X005963Y005836D03*
D239*
X005960Y004870D03*
X005960Y004864D03*
X005960Y004858D03*
X005960Y004852D03*
D240*
X005963Y004876D03*
D241*
X005963Y004894D03*
D242*
X005960Y004948D03*
D243*
X005960Y004954D03*
D244*
X005957Y004972D03*
D245*
X005960Y004984D03*
D246*
X005960Y004990D03*
X005960Y005854D03*
D247*
X005960Y004996D03*
D248*
X005957Y005002D03*
D249*
X005960Y005026D03*
D250*
X005960Y005032D03*
D251*
X005960Y005038D03*
D252*
X005960Y005044D03*
D253*
X005957Y005230D03*
X006305Y005050D03*
X005963Y005944D03*
D254*
X005585Y005050D03*
D255*
X006359Y005056D03*
X005963Y005956D03*
D256*
X005513Y005062D03*
D257*
X006410Y005068D03*
D258*
X006698Y005584D03*
X006692Y005590D03*
X006182Y005614D03*
X005402Y005104D03*
D259*
X005954Y005224D03*
D260*
X005960Y005236D03*
D261*
X005963Y005248D03*
D262*
X005963Y005278D03*
X005957Y005326D03*
X005957Y005332D03*
D263*
X005954Y005302D03*
X005954Y005296D03*
X005954Y005290D03*
D264*
X005957Y005368D03*
X005957Y005374D03*
D265*
X005957Y005422D03*
X005957Y005428D03*
D266*
X005957Y005440D03*
X005963Y005908D03*
D267*
X006371Y005782D03*
X005549Y005782D03*
D268*
X005600Y005794D03*
X006326Y005794D03*
D269*
X005960Y005800D03*
D270*
X005963Y005806D03*
D271*
X005963Y005818D03*
D272*
X005960Y005848D03*
D273*
X005963Y005860D03*
D274*
X005963Y005866D03*
D275*
X005960Y005878D03*
D276*
X005960Y005902D03*
D277*
X005963Y005914D03*
D278*
X005960Y005968D03*
D279*
X001362Y002050D02*
X001338Y002050D01*
X011650Y006538D02*
X011650Y006562D01*
D280*
X011773Y006830D02*
X011773Y006980D01*
X011848Y006905D01*
X011748Y006905D01*
X011895Y006855D02*
X011920Y006830D01*
X011970Y006830D01*
X011995Y006855D01*
X011995Y006955D01*
X011970Y006980D01*
X011920Y006980D01*
X011895Y006955D01*
X001780Y001927D02*
X001755Y001952D01*
X001730Y001952D01*
X001705Y001927D01*
X001680Y001952D01*
X001655Y001952D01*
X001630Y001927D01*
X001630Y001877D01*
X001655Y001852D01*
X001655Y001805D02*
X001630Y001780D01*
X001630Y001730D01*
X001655Y001705D01*
X001755Y001705D01*
X001780Y001730D01*
X001780Y001780D01*
X001755Y001805D01*
X001755Y001852D02*
X001780Y001877D01*
X001780Y001927D01*
X001705Y001927D02*
X001705Y001902D01*
M02*
