G75*
%MOIN*%
%OFA0B0*%
%FSLAX24Y24*%
%IPPOS*%
%LPD*%
%AMOC8*
5,1,8,0,0,1.08239X$1,22.5*
%
%ADD10R,0.0335X0.0354*%
%ADD11R,0.0390X0.0118*%
%ADD12R,0.0394X0.0984*%
%ADD13R,0.0640X0.0640*%
%ADD14OC8,0.0640*%
%ADD15R,0.0276X0.0354*%
%ADD16R,0.0472X0.0276*%
%ADD17C,0.0320*%
%ADD18C,0.0100*%
%ADD19C,0.0240*%
%ADD20C,0.0070*%
%ADD21C,0.0340*%
D10*
X001922Y002050D03*
X002378Y002050D03*
X002378Y002550D03*
X001922Y002550D03*
X003222Y002950D03*
X003678Y002950D03*
X003678Y003450D03*
X003222Y003450D03*
X003222Y003950D03*
X003678Y003950D03*
X005022Y003950D03*
X005478Y003950D03*
X005478Y003450D03*
X005022Y003450D03*
X005422Y004950D03*
X005878Y004950D03*
X005878Y005650D03*
X005422Y005650D03*
X005178Y006250D03*
X004722Y006250D03*
X003778Y006750D03*
X003322Y006750D03*
X003322Y007250D03*
X003778Y007250D03*
X003878Y007750D03*
X003422Y007750D03*
X003322Y008250D03*
X003778Y008250D03*
X004722Y007250D03*
X005178Y007250D03*
X002378Y006250D03*
X001922Y006250D03*
X001922Y005750D03*
X002378Y005750D03*
X001678Y008050D03*
X001222Y008050D03*
X001222Y008650D03*
X001678Y008650D03*
X001678Y009250D03*
X001222Y009250D03*
D11*
X003431Y005606D03*
X003431Y005350D03*
X003431Y005094D03*
X004065Y005094D03*
X004065Y005350D03*
X004065Y005606D03*
D12*
X007351Y008729D03*
X008151Y008729D03*
X008938Y008729D03*
X009726Y008729D03*
X010513Y008729D03*
X011300Y008729D03*
X012088Y008729D03*
X012875Y008729D03*
X012875Y002168D03*
X012088Y002168D03*
X011300Y002168D03*
X010513Y002168D03*
X009726Y002168D03*
X008938Y002168D03*
X008132Y002151D03*
X007332Y002151D03*
D13*
X011850Y009950D03*
D14*
X010850Y009950D03*
X009850Y009950D03*
X008850Y009950D03*
X007850Y009950D03*
X006850Y009950D03*
X005850Y009950D03*
X004850Y009950D03*
X003850Y009950D03*
X002850Y009950D03*
X001850Y009950D03*
X000850Y009950D03*
X000850Y000950D03*
X001850Y000950D03*
X002850Y000950D03*
X003850Y000950D03*
X004850Y000950D03*
X005850Y000950D03*
X006850Y000950D03*
X007850Y000950D03*
X008850Y000950D03*
X009850Y000950D03*
X010850Y000950D03*
X011850Y000950D03*
D15*
X002306Y007050D03*
X001794Y007050D03*
D16*
X001359Y003826D03*
X001359Y003274D03*
X002541Y003274D03*
X002541Y003826D03*
D17*
X000850Y003350D02*
X000850Y002850D01*
X000850Y002550D01*
X001922Y002550D01*
X001922Y002050D02*
X000850Y002050D01*
X000850Y002550D01*
X000850Y003350D02*
X000850Y004450D01*
X000850Y004650D01*
X000850Y005750D01*
X000850Y006250D01*
X000850Y006750D01*
X000850Y007050D01*
X000850Y007550D01*
X002350Y007550D01*
X002350Y007750D01*
X002350Y009350D01*
X007350Y009350D01*
X007350Y008729D01*
X007351Y008729D01*
X001850Y008650D02*
X001850Y008050D01*
X001678Y008050D01*
X001222Y008050D02*
X000850Y008050D01*
X000850Y007550D01*
X000850Y008650D02*
X000850Y009250D01*
X001222Y009250D01*
X000850Y009250D02*
X000850Y009950D01*
X001850Y009950D02*
X001850Y009250D01*
X001678Y009250D01*
X001850Y009250D02*
X001850Y008650D01*
X001678Y008650D01*
X001222Y008650D02*
X000850Y008650D01*
X007350Y001850D02*
X007350Y001550D01*
X004550Y001550D01*
X000850Y001550D01*
X000850Y000950D01*
D18*
X000400Y000400D02*
X000400Y010500D01*
X013350Y010500D01*
X013350Y000400D01*
X000400Y000400D01*
X000450Y000400D02*
X000450Y000728D01*
X000428Y000750D02*
X000400Y000750D01*
X000410Y000768D02*
X000668Y000510D01*
X000800Y000510D01*
X000800Y000900D01*
X000410Y000900D01*
X000410Y000768D01*
X000400Y000850D02*
X000410Y000850D01*
X000450Y000900D02*
X000450Y001000D01*
X000410Y001000D02*
X000800Y001000D01*
X000800Y001390D01*
X000668Y001390D01*
X000410Y001132D01*
X000410Y001000D01*
X000400Y001050D02*
X000410Y001050D01*
X000400Y000950D02*
X000800Y000950D01*
X000800Y001000D02*
X000800Y000900D01*
X000900Y000900D01*
X000900Y001000D01*
X000800Y001000D01*
X000850Y001000D02*
X000850Y001740D01*
X000788Y001740D02*
X001675Y001740D01*
X001692Y001723D01*
X002608Y001723D01*
X002696Y001811D01*
X002696Y001850D01*
X003097Y001850D01*
X003169Y001779D01*
X003286Y001730D01*
X003414Y001730D01*
X003531Y001779D01*
X003603Y001850D01*
X003997Y001850D01*
X004069Y001779D01*
X004186Y001730D01*
X004314Y001730D01*
X004431Y001779D01*
X004503Y001850D01*
X006933Y001850D01*
X007015Y001850D01*
X006950Y001867D02*
X006950Y001420D01*
X007045Y001420D02*
X006655Y001420D01*
X006380Y001145D01*
X006380Y000755D01*
X006655Y000480D01*
X007045Y000480D01*
X007320Y000755D01*
X007320Y001145D01*
X007045Y001420D01*
X007050Y001415D02*
X007050Y001574D01*
X007039Y001585D02*
X007061Y001563D01*
X007089Y001547D01*
X007119Y001539D01*
X007283Y001539D01*
X007283Y002102D01*
X007380Y002102D01*
X007380Y001539D01*
X007545Y001539D01*
X007575Y001547D01*
X007602Y001563D01*
X007625Y001585D01*
X007641Y001612D01*
X007649Y001643D01*
X007649Y002102D01*
X007380Y002102D01*
X007380Y002199D01*
X007649Y002199D01*
X007649Y002659D01*
X007647Y002664D01*
X007750Y002767D01*
X007750Y002767D01*
X007841Y002859D01*
X007870Y002790D01*
X007785Y002705D01*
X007785Y001597D01*
X007873Y001509D01*
X008391Y001509D01*
X008479Y001597D01*
X008479Y002705D01*
X008418Y002766D01*
X008421Y002769D01*
X008470Y002886D01*
X008470Y003014D01*
X008421Y003131D01*
X008403Y003150D01*
X008697Y003150D01*
X008679Y003131D01*
X008630Y003014D01*
X008630Y002886D01*
X008667Y002798D01*
X008591Y002722D01*
X008591Y001614D01*
X008679Y001526D01*
X009197Y001526D01*
X009285Y001614D01*
X009285Y002722D01*
X009226Y002781D01*
X009270Y002886D01*
X009270Y003014D01*
X009221Y003131D01*
X009203Y003150D01*
X009497Y003150D01*
X009479Y003131D01*
X009430Y003014D01*
X009430Y002886D01*
X009463Y002807D01*
X009379Y002722D01*
X009379Y001614D01*
X009467Y001526D01*
X009985Y001526D01*
X010072Y001614D01*
X010072Y002722D01*
X010023Y002772D01*
X010070Y002886D01*
X010070Y003014D01*
X010021Y003131D01*
X010003Y003150D01*
X010260Y003150D01*
X010242Y003131D01*
X010193Y003014D01*
X010193Y002886D01*
X010233Y002789D01*
X010166Y002722D01*
X010166Y001614D01*
X010254Y001526D01*
X010772Y001526D01*
X010860Y001614D01*
X010860Y002722D01*
X010793Y002789D01*
X010833Y002886D01*
X010833Y003014D01*
X010784Y003131D01*
X010713Y003203D01*
X010713Y003270D01*
X010633Y003350D01*
X011067Y003350D01*
X011100Y003317D01*
X011100Y003203D01*
X011029Y003131D01*
X010980Y003014D01*
X010980Y002886D01*
X011021Y002789D01*
X010954Y002722D01*
X010954Y001614D01*
X011041Y001526D01*
X011559Y001526D01*
X011647Y001614D01*
X011647Y002722D01*
X011580Y002789D01*
X011620Y002886D01*
X011620Y003014D01*
X011572Y003131D01*
X011500Y003203D01*
X011500Y003482D01*
X011433Y003550D01*
X011867Y003550D01*
X011888Y003529D01*
X011888Y002810D01*
X011829Y002810D01*
X011741Y002722D01*
X011741Y001614D01*
X011829Y001526D01*
X012347Y001526D01*
X012435Y001614D01*
X012435Y002722D01*
X012347Y002810D01*
X012288Y002810D01*
X012288Y003695D01*
X012233Y003750D01*
X012667Y003750D01*
X012675Y003742D01*
X012675Y002810D01*
X012616Y002810D01*
X012528Y002722D01*
X012528Y001614D01*
X012616Y001526D01*
X013134Y001526D01*
X013222Y001614D01*
X013222Y002722D01*
X013134Y002810D01*
X013075Y002810D01*
X013075Y003908D01*
X012950Y004033D01*
X012833Y004150D01*
X009655Y004150D01*
X013350Y004150D01*
X013350Y004250D02*
X009862Y004250D01*
X009850Y004245D02*
X009850Y004150D01*
X009814Y004230D02*
X009931Y004279D01*
X010021Y004369D01*
X010070Y004486D01*
X010070Y004614D01*
X010021Y004731D01*
X009931Y004821D01*
X009814Y004870D01*
X009686Y004870D01*
X009569Y004821D01*
X009497Y004750D01*
X007167Y004750D01*
X006867Y004450D01*
X004603Y004450D01*
X004531Y004521D01*
X004414Y004570D01*
X004286Y004570D01*
X004270Y004563D01*
X004270Y004614D01*
X004255Y004650D01*
X005165Y004650D01*
X005192Y004623D01*
X006108Y004623D01*
X006196Y004711D01*
X006196Y005113D01*
X006233Y005150D01*
X008297Y005150D01*
X008369Y005079D01*
X008486Y005030D01*
X008614Y005030D01*
X008731Y005079D01*
X008821Y005169D01*
X008870Y005286D01*
X008870Y005414D01*
X008821Y005531D01*
X008731Y005621D01*
X008614Y005670D01*
X008486Y005670D01*
X008369Y005621D01*
X008297Y005550D01*
X008155Y005550D01*
X008297Y005550D01*
X008250Y005550D02*
X008250Y006050D01*
X008350Y006050D02*
X008350Y005603D01*
X008438Y005650D02*
X008170Y005650D01*
X008170Y005586D02*
X008170Y005714D01*
X008121Y005831D01*
X008031Y005921D01*
X007914Y005970D01*
X007786Y005970D01*
X007669Y005921D01*
X007597Y005850D01*
X006196Y005850D01*
X007597Y005850D01*
X007550Y005850D02*
X007550Y006050D01*
X007450Y006050D02*
X007450Y005850D01*
X007350Y005850D02*
X007350Y006050D01*
X007250Y006050D02*
X007250Y005850D01*
X007150Y005850D02*
X007150Y006050D01*
X007050Y006050D02*
X007050Y005850D01*
X006950Y005850D02*
X006950Y006050D01*
X006850Y006050D02*
X006850Y005850D01*
X006750Y005850D02*
X006750Y006050D01*
X006650Y006050D02*
X006650Y005850D01*
X006550Y005850D02*
X006550Y006050D01*
X006450Y006050D02*
X006450Y005850D01*
X006350Y005850D02*
X006350Y006050D01*
X006250Y006050D02*
X006250Y005850D01*
X006196Y005850D02*
X006196Y005889D01*
X006108Y005977D01*
X006106Y005977D01*
X006068Y006015D01*
X006103Y006050D01*
X012733Y006050D01*
X013350Y006050D01*
X013350Y005950D02*
X007962Y005950D01*
X007950Y005955D02*
X007950Y006050D01*
X008050Y006050D02*
X008050Y005903D01*
X008103Y005850D02*
X013350Y005850D01*
X013350Y005750D02*
X008155Y005750D01*
X008150Y005762D02*
X008150Y006050D01*
X007850Y006050D02*
X007850Y005970D01*
X007750Y005955D02*
X007750Y006050D01*
X007650Y006050D02*
X007650Y005903D01*
X007738Y005950D02*
X006135Y005950D01*
X006150Y005935D02*
X006150Y006050D01*
X005950Y005850D02*
X005950Y005722D01*
X005878Y005650D01*
X007850Y005650D01*
X008155Y005550D02*
X008170Y005586D01*
X008450Y005655D02*
X008450Y006050D01*
X008550Y006050D02*
X008550Y005670D01*
X008650Y005655D02*
X008650Y006050D01*
X008750Y006050D02*
X008750Y005603D01*
X008803Y005550D02*
X013350Y005550D01*
X013350Y005450D02*
X008855Y005450D01*
X008850Y005462D02*
X008850Y006050D01*
X008950Y006050D02*
X008950Y004750D01*
X008850Y004750D02*
X008850Y005238D01*
X008855Y005250D02*
X013350Y005250D01*
X013350Y005150D02*
X008803Y005150D01*
X008750Y005097D02*
X008750Y004750D01*
X008650Y004750D02*
X008650Y005045D01*
X008662Y005050D02*
X013350Y005050D01*
X013350Y004950D02*
X006196Y004950D01*
X006196Y004850D02*
X009638Y004850D01*
X009650Y004855D02*
X009650Y006050D01*
X009750Y006050D02*
X009750Y004870D01*
X009850Y004855D02*
X009850Y006050D01*
X009950Y006050D02*
X009950Y004803D01*
X010003Y004750D02*
X013350Y004750D01*
X013350Y004650D02*
X010055Y004650D01*
X010050Y004662D02*
X010050Y006050D01*
X010150Y006050D02*
X010150Y004150D01*
X010050Y004150D02*
X010050Y004438D01*
X010055Y004450D02*
X013350Y004450D01*
X013350Y004350D02*
X010003Y004350D01*
X009950Y004297D02*
X009950Y004150D01*
X009814Y004230D02*
X009686Y004230D01*
X009670Y004237D01*
X009670Y004186D01*
X009655Y004150D01*
X009750Y004150D02*
X009750Y004230D01*
X009350Y004250D02*
X009250Y004150D01*
X007450Y004150D01*
X007250Y003950D01*
X005478Y003950D01*
X005796Y003750D02*
X005938Y003750D01*
X005869Y003721D01*
X005797Y003650D01*
X005796Y003650D01*
X005797Y003650D01*
X005796Y003650D02*
X005796Y003689D01*
X005785Y003700D01*
X005796Y003711D01*
X005796Y003750D01*
X005850Y003750D02*
X005850Y003703D01*
X006162Y003750D02*
X007067Y003750D01*
X006967Y003650D01*
X006567Y003650D01*
X006370Y003453D01*
X006370Y003514D01*
X006321Y003631D01*
X006231Y003721D01*
X006162Y003750D01*
X006250Y003750D02*
X006250Y003703D01*
X006303Y003650D02*
X006967Y003650D01*
X006950Y003650D02*
X006950Y003750D01*
X006850Y003750D02*
X006850Y003650D01*
X006750Y003650D02*
X006750Y003750D01*
X006650Y003750D02*
X006650Y003650D01*
X006550Y003633D02*
X006550Y003750D01*
X006450Y003750D02*
X006450Y003533D01*
X006467Y003550D02*
X006355Y003550D01*
X006350Y003562D02*
X006350Y003750D01*
X006050Y003450D02*
X005478Y003450D01*
X005450Y003123D02*
X005450Y002850D01*
X005530Y002886D02*
X005545Y002850D01*
X005103Y002850D01*
X005031Y002921D01*
X004914Y002970D01*
X004786Y002970D01*
X004669Y002921D01*
X004579Y002831D01*
X004530Y002714D01*
X004530Y002586D01*
X004545Y002550D01*
X004103Y002550D01*
X004050Y002603D01*
X004050Y003033D01*
X003996Y003087D01*
X003996Y003189D01*
X003985Y003200D01*
X003996Y003211D01*
X003996Y003250D01*
X003997Y003250D01*
X004069Y003179D01*
X004186Y003130D01*
X004314Y003130D01*
X004431Y003179D01*
X004521Y003269D01*
X004570Y003386D01*
X004570Y003514D01*
X004521Y003631D01*
X004431Y003721D01*
X004341Y003759D01*
X004433Y003850D01*
X004734Y003850D01*
X004734Y003916D02*
X004734Y003757D01*
X004743Y003727D01*
X004758Y003700D01*
X004743Y003673D01*
X004734Y003643D01*
X004734Y003484D01*
X004988Y003484D01*
X004988Y003916D01*
X005055Y003916D01*
X005055Y003653D01*
X005055Y003484D01*
X004988Y003484D01*
X004988Y003416D01*
X005055Y003416D01*
X005055Y003153D01*
X005205Y003153D01*
X005216Y003156D01*
X005249Y003123D01*
X005575Y003123D01*
X005530Y003014D01*
X005530Y002886D01*
X005545Y002850D02*
X005103Y002850D01*
X005150Y002850D02*
X005150Y003153D01*
X005222Y003150D02*
X004362Y003150D01*
X004350Y003145D02*
X004350Y002550D01*
X004450Y002550D02*
X004450Y003197D01*
X004503Y003250D02*
X004736Y003250D01*
X004734Y003257D02*
X004743Y003227D01*
X004758Y003199D01*
X004781Y003177D01*
X004808Y003161D01*
X004839Y003153D01*
X004988Y003153D01*
X004988Y003416D01*
X004734Y003416D01*
X004734Y003257D01*
X004750Y003214D02*
X004750Y002955D01*
X004738Y002950D02*
X004050Y002950D01*
X004050Y002850D02*
X004597Y002850D01*
X004650Y002903D02*
X004650Y004050D01*
X004603Y004050D02*
X004734Y004050D01*
X004734Y003984D01*
X004988Y003984D01*
X004988Y003916D01*
X004734Y003916D01*
X004750Y003916D02*
X004750Y003984D01*
X004750Y003950D02*
X005022Y003950D01*
X004988Y003950D02*
X004533Y003950D01*
X004550Y003967D02*
X004550Y003997D01*
X004603Y004050D01*
X004550Y003997D02*
X004550Y003562D01*
X004555Y003550D02*
X004734Y003550D01*
X004750Y003484D02*
X004750Y003416D01*
X004750Y003450D02*
X004650Y003550D01*
X004650Y003650D01*
X004550Y003750D01*
X004750Y003950D01*
X004850Y003916D02*
X004850Y003984D01*
X004950Y003984D02*
X004950Y003916D01*
X004988Y003850D02*
X005055Y003850D01*
X005050Y003916D02*
X005050Y003484D01*
X005022Y003450D02*
X004750Y003450D01*
X004734Y003350D02*
X004555Y003350D01*
X004550Y003338D02*
X004550Y002762D01*
X004545Y002750D02*
X004050Y002750D01*
X004050Y002650D02*
X004530Y002650D01*
X004545Y002550D02*
X004103Y002550D01*
X004150Y002550D02*
X004150Y003145D01*
X004138Y003150D02*
X003996Y003150D01*
X004050Y003197D02*
X004050Y002603D01*
X004250Y002550D02*
X004250Y003130D01*
X004033Y003050D02*
X005545Y003050D01*
X005550Y003062D02*
X005550Y003123D01*
X005530Y002950D02*
X004962Y002950D01*
X004950Y002955D02*
X004950Y003153D01*
X004850Y003153D02*
X004850Y002970D01*
X005050Y002903D02*
X005050Y003416D01*
X005055Y003350D02*
X004988Y003350D01*
X004950Y003416D02*
X004950Y003484D01*
X004988Y003450D02*
X004570Y003450D01*
X004503Y003650D02*
X004736Y003650D01*
X004750Y003686D02*
X004750Y003714D01*
X004736Y003750D02*
X004362Y003750D01*
X004350Y003755D02*
X004350Y003767D01*
X004433Y003850D02*
X004550Y003967D01*
X004450Y003867D02*
X004450Y003703D01*
X004138Y003750D02*
X004069Y003721D01*
X003997Y003650D01*
X003996Y003650D01*
X003997Y003650D01*
X003996Y003650D02*
X003996Y003689D01*
X003985Y003700D01*
X003996Y003711D01*
X003996Y003750D01*
X004138Y003750D01*
X004050Y003750D02*
X004050Y003703D01*
X004250Y003450D02*
X003678Y003450D01*
X003222Y003450D02*
X002850Y003450D01*
X002674Y003274D01*
X002541Y003274D01*
X002154Y003250D02*
X002150Y003250D01*
X002150Y003150D02*
X002154Y003150D01*
X002150Y003150D01*
X002150Y003467D01*
X002150Y003150D01*
X002154Y003150D02*
X002154Y003471D01*
X002150Y003467D01*
X002150Y003450D02*
X002154Y003450D01*
X002150Y003350D02*
X002154Y003350D01*
X001950Y003550D02*
X001950Y003050D01*
X002050Y002950D01*
X003222Y002950D01*
X002904Y002750D02*
X002904Y002750D01*
X002696Y002750D01*
X002696Y002750D01*
X002904Y002750D01*
X002850Y002750D02*
X002850Y002750D01*
X002750Y002750D02*
X002750Y002750D01*
X002378Y002550D02*
X003150Y002550D01*
X003350Y002350D01*
X003850Y002350D01*
X003850Y002950D01*
X003678Y002950D01*
X003650Y002623D02*
X003451Y002623D01*
X003360Y002623D01*
X003433Y002550D01*
X003597Y002550D01*
X003650Y002603D01*
X003650Y002623D01*
X003597Y002550D02*
X003433Y002550D01*
X003450Y002550D02*
X003450Y002623D01*
X003550Y002623D02*
X003550Y002550D01*
X003850Y002350D02*
X006650Y002350D01*
X006750Y002450D01*
X006750Y002950D01*
X006850Y003050D01*
X007350Y003050D01*
X007450Y003150D01*
X007450Y003250D01*
X007750Y003550D01*
X011150Y003550D01*
X011300Y003400D01*
X011300Y002950D01*
X011300Y002168D01*
X010954Y002150D02*
X010860Y002150D01*
X010860Y002050D02*
X010954Y002050D01*
X010954Y001950D02*
X010860Y001950D01*
X010860Y001850D02*
X010954Y001850D01*
X010954Y001750D02*
X010860Y001750D01*
X010860Y001650D02*
X010954Y001650D01*
X010850Y001604D02*
X010850Y001420D01*
X010950Y001420D02*
X010950Y003350D01*
X010850Y003350D02*
X010850Y002732D01*
X010832Y002750D02*
X010981Y002750D01*
X010995Y002850D02*
X010818Y002850D01*
X010833Y002950D02*
X010980Y002950D01*
X010995Y003050D02*
X010818Y003050D01*
X010766Y003150D02*
X011048Y003150D01*
X011050Y003152D02*
X011050Y003350D01*
X011100Y003250D02*
X010713Y003250D01*
X010750Y003166D02*
X010750Y003350D01*
X010650Y003350D02*
X010650Y003333D01*
X010513Y003187D02*
X010350Y003350D01*
X007850Y003350D01*
X007650Y003150D01*
X007650Y002950D01*
X007550Y002850D01*
X007050Y002850D01*
X006950Y002750D01*
X006950Y002150D01*
X006850Y002050D01*
X004250Y002050D01*
X003350Y002050D01*
X002378Y002050D01*
X002696Y002250D02*
X002696Y002289D01*
X002685Y002300D01*
X002696Y002311D01*
X002696Y002350D01*
X003067Y002350D01*
X003132Y002285D01*
X003097Y002250D01*
X002696Y002250D01*
X003097Y002250D01*
X003050Y002250D02*
X003050Y002350D01*
X002950Y002350D02*
X002950Y002250D01*
X002850Y002250D02*
X002850Y002350D01*
X002750Y002350D02*
X002750Y002250D01*
X002750Y001850D02*
X002750Y001420D01*
X002655Y001420D02*
X002380Y001145D01*
X002380Y000755D01*
X002655Y000480D01*
X003045Y000480D01*
X003320Y000755D01*
X003320Y001145D01*
X003045Y001420D01*
X002655Y001420D01*
X002650Y001415D02*
X002650Y001765D01*
X002635Y001750D02*
X003238Y001750D01*
X003250Y001745D02*
X003250Y001215D01*
X003215Y001250D02*
X003485Y001250D01*
X003450Y001215D02*
X003450Y001745D01*
X003462Y001750D02*
X004138Y001750D01*
X004150Y001745D02*
X004150Y001315D01*
X004115Y001350D02*
X004585Y001350D01*
X004550Y001315D02*
X004550Y001850D01*
X004650Y001850D02*
X004650Y001415D01*
X004655Y001420D02*
X004380Y001145D01*
X004380Y000755D01*
X004655Y000480D01*
X005045Y000480D01*
X005320Y000755D01*
X005320Y001145D01*
X005045Y001420D01*
X004655Y001420D01*
X004750Y001420D02*
X004750Y001850D01*
X004850Y001850D02*
X004850Y001420D01*
X004950Y001420D02*
X004950Y001850D01*
X005050Y001850D02*
X005050Y001415D01*
X005115Y001350D02*
X005585Y001350D01*
X005550Y001315D02*
X005550Y001850D01*
X005450Y001850D02*
X005450Y001215D01*
X005485Y001250D02*
X005215Y001250D01*
X005250Y001215D02*
X005250Y001850D01*
X005150Y001850D02*
X005150Y001315D01*
X005315Y001150D02*
X005385Y001150D01*
X005380Y001145D02*
X005380Y000755D01*
X005655Y000480D01*
X006045Y000480D01*
X006320Y000755D01*
X006320Y001145D01*
X006045Y001420D01*
X005655Y001420D01*
X005380Y001145D01*
X005380Y001050D02*
X005320Y001050D01*
X005320Y000950D02*
X005380Y000950D01*
X005380Y000850D02*
X005320Y000850D01*
X005315Y000750D02*
X005385Y000750D01*
X005450Y000685D02*
X005450Y000400D01*
X005550Y000400D02*
X005550Y000585D01*
X005585Y000550D02*
X005115Y000550D01*
X005150Y000585D02*
X005150Y000400D01*
X005250Y000400D02*
X005250Y000685D01*
X005215Y000650D02*
X005485Y000650D01*
X005650Y000485D02*
X005650Y000400D01*
X005750Y000400D02*
X005750Y000480D01*
X005850Y000480D02*
X005850Y000400D01*
X005950Y000400D02*
X005950Y000480D01*
X006050Y000485D02*
X006050Y000400D01*
X006150Y000400D02*
X006150Y000585D01*
X006115Y000550D02*
X006585Y000550D01*
X006550Y000585D02*
X006550Y000400D01*
X006650Y000400D02*
X006650Y000485D01*
X006750Y000480D02*
X006750Y000400D01*
X006850Y000400D02*
X006850Y000480D01*
X006950Y000480D02*
X006950Y000400D01*
X007050Y000400D02*
X007050Y000485D01*
X007115Y000550D02*
X007585Y000550D01*
X007550Y000585D02*
X007550Y000400D01*
X007450Y000400D02*
X007450Y000685D01*
X007485Y000650D02*
X007215Y000650D01*
X007250Y000685D02*
X007250Y000400D01*
X007150Y000400D02*
X007150Y000585D01*
X007315Y000750D02*
X007385Y000750D01*
X007380Y000755D02*
X007655Y000480D01*
X008045Y000480D01*
X008320Y000755D01*
X008320Y001145D01*
X008045Y001420D01*
X007655Y001420D01*
X007380Y001145D01*
X007380Y000755D01*
X007380Y000850D02*
X007320Y000850D01*
X007320Y000950D02*
X007380Y000950D01*
X007380Y001050D02*
X007320Y001050D01*
X007315Y001150D02*
X007385Y001150D01*
X007450Y001215D02*
X007450Y001539D01*
X007380Y001550D02*
X007283Y001550D01*
X007250Y001539D02*
X007250Y001215D01*
X007215Y001250D02*
X007485Y001250D01*
X007550Y001315D02*
X007550Y001540D01*
X007581Y001550D02*
X007832Y001550D01*
X007850Y001532D02*
X007850Y001420D01*
X007750Y001420D02*
X007750Y002767D01*
X007733Y002750D02*
X007830Y002750D01*
X007850Y002770D02*
X007850Y002838D01*
X007845Y002850D02*
X007833Y002850D01*
X007785Y002650D02*
X007649Y002650D01*
X007650Y002667D02*
X007650Y001415D01*
X007585Y001350D02*
X007115Y001350D01*
X007150Y001315D02*
X007150Y001539D01*
X007083Y001550D02*
X000400Y001550D01*
X000400Y001450D02*
X013350Y001450D01*
X013350Y004350D01*
X011750Y004350D01*
X011750Y004150D02*
X011750Y006050D01*
X011650Y006050D02*
X011650Y004150D01*
X011550Y004150D02*
X011550Y006050D01*
X011450Y006050D02*
X011450Y004150D01*
X011350Y004150D02*
X011350Y006050D01*
X011250Y006050D02*
X011250Y004150D01*
X011150Y004150D02*
X011150Y006050D01*
X011050Y006050D02*
X011050Y004150D01*
X010950Y004150D02*
X010950Y006050D01*
X010850Y006050D02*
X010850Y004150D01*
X010750Y004150D02*
X010750Y006050D01*
X010650Y006050D02*
X010650Y004150D01*
X010550Y004150D02*
X010550Y006050D01*
X010450Y006050D02*
X010450Y004150D01*
X010350Y004150D02*
X010350Y006050D01*
X010250Y006050D02*
X010250Y004150D01*
X010070Y004550D02*
X013350Y004550D01*
X013350Y004850D02*
X009862Y004850D01*
X009550Y004803D02*
X009550Y006050D01*
X009450Y006050D02*
X009450Y004750D01*
X009497Y004750D02*
X006196Y004750D01*
X006150Y004665D02*
X006150Y004450D01*
X006050Y004450D02*
X006050Y004623D01*
X006135Y004650D02*
X007067Y004650D01*
X007050Y004633D02*
X007050Y005150D01*
X006950Y005150D02*
X006950Y004533D01*
X006967Y004550D02*
X004462Y004550D01*
X004450Y004555D02*
X004450Y004650D01*
X004350Y004650D02*
X004350Y004570D01*
X004550Y004503D02*
X004550Y004650D01*
X004650Y004650D02*
X004650Y004450D01*
X004603Y004450D02*
X006867Y004450D01*
X006850Y004450D02*
X006850Y005150D01*
X006750Y005150D02*
X006750Y004450D01*
X006650Y004450D02*
X006650Y005150D01*
X006550Y005150D02*
X006550Y004450D01*
X006450Y004450D02*
X006450Y005150D01*
X006350Y005150D02*
X006350Y004450D01*
X006250Y004450D02*
X006250Y005150D01*
X006196Y005050D02*
X008438Y005050D01*
X008450Y005045D02*
X008450Y004750D01*
X008350Y004750D02*
X008350Y005097D01*
X008250Y005150D02*
X008250Y004750D01*
X008150Y004750D02*
X008150Y005150D01*
X008050Y005150D02*
X008050Y004750D01*
X007950Y004750D02*
X007950Y005150D01*
X007850Y005150D02*
X007850Y004750D01*
X007750Y004750D02*
X007750Y005150D01*
X007650Y005150D02*
X007650Y004750D01*
X007550Y004750D02*
X007550Y005150D01*
X007450Y005150D02*
X007450Y004750D01*
X007350Y004750D02*
X007350Y005150D01*
X007250Y005150D02*
X007250Y004750D01*
X007150Y004733D02*
X007150Y005150D01*
X007250Y004550D02*
X006950Y004250D01*
X004350Y004250D01*
X004350Y004050D01*
X004250Y003950D01*
X003678Y003950D01*
X003996Y004150D02*
X003996Y004189D01*
X003955Y004230D01*
X004014Y004230D01*
X004030Y004237D01*
X004030Y004186D01*
X004045Y004150D01*
X003996Y004150D01*
X004045Y004150D01*
X003772Y004277D02*
X003106Y004277D01*
X003033Y004350D01*
X001601Y004350D01*
X001364Y004113D01*
X001160Y004113D01*
X001160Y004350D01*
X003697Y004350D01*
X003769Y004279D01*
X003772Y004277D01*
X003750Y004277D02*
X003750Y004297D01*
X003650Y004277D02*
X003650Y004350D01*
X003550Y004350D02*
X003550Y004277D01*
X003450Y004277D02*
X003450Y004350D01*
X003350Y004350D02*
X003350Y004277D01*
X003250Y004277D02*
X003250Y004350D01*
X003150Y004350D02*
X003150Y004277D01*
X003050Y004333D02*
X003050Y004350D01*
X002950Y004350D02*
X002950Y004350D01*
X002850Y004350D02*
X002850Y004350D01*
X002750Y004350D02*
X002750Y004350D01*
X002650Y004350D02*
X002650Y004350D01*
X002550Y004350D02*
X002550Y004350D01*
X002450Y004350D02*
X002450Y004350D01*
X002350Y004350D02*
X002350Y004350D01*
X002250Y004350D02*
X002250Y004350D01*
X002150Y004350D02*
X002150Y004350D01*
X002050Y004350D02*
X002050Y004350D01*
X001950Y004350D02*
X001950Y004350D01*
X001850Y004350D02*
X001850Y004350D01*
X001750Y004350D02*
X001750Y004350D01*
X001650Y004350D02*
X001650Y004350D01*
X001550Y004350D02*
X001550Y004299D01*
X001501Y004250D02*
X001160Y004250D01*
X001160Y004150D02*
X001401Y004150D01*
X001350Y004113D02*
X001350Y004350D01*
X001250Y004350D02*
X001250Y004113D01*
X001450Y004199D02*
X001450Y004350D01*
X001684Y004150D02*
X001359Y003826D01*
X001746Y003850D02*
X001967Y003850D01*
X001950Y003833D02*
X001950Y003950D01*
X001850Y003950D02*
X001850Y003733D01*
X001867Y003750D02*
X001750Y003633D01*
X001750Y003933D01*
X001746Y003929D02*
X001767Y003950D01*
X002067Y003950D01*
X001867Y003750D01*
X001746Y003750D01*
X001746Y003650D02*
X001767Y003650D01*
X001750Y003633D02*
X001750Y002967D01*
X001750Y002877D01*
X001692Y002877D02*
X001840Y002877D01*
X001750Y002967D01*
X001767Y002950D02*
X001255Y002950D01*
X001250Y002962D02*
X001250Y002987D01*
X001240Y002987D02*
X001658Y002987D01*
X001746Y003074D01*
X001746Y003474D01*
X001670Y003550D01*
X001750Y003550D01*
X001746Y003626D02*
X001746Y003929D01*
X001684Y004150D02*
X002950Y004150D01*
X003150Y003950D01*
X003222Y003950D01*
X003122Y003550D02*
X003222Y003450D01*
X002541Y003826D02*
X002226Y003826D01*
X001950Y003550D01*
X001746Y003626D02*
X001670Y003550D01*
X001746Y003450D02*
X001750Y003450D01*
X001746Y003350D02*
X001750Y003350D01*
X001746Y003250D02*
X001750Y003250D01*
X001746Y003150D02*
X001750Y003150D01*
X001750Y003050D02*
X001721Y003050D01*
X001650Y002987D02*
X001650Y002860D01*
X001675Y002860D02*
X001270Y002860D01*
X001270Y002914D01*
X001240Y002987D01*
X001350Y002987D02*
X001350Y002860D01*
X001450Y002860D02*
X001450Y002987D01*
X001550Y002987D02*
X001550Y002860D01*
X001675Y002860D02*
X001692Y002877D01*
X000540Y002850D02*
X000400Y002850D01*
X000400Y002750D02*
X000540Y002750D01*
X000540Y002650D02*
X000400Y002650D01*
X000400Y002550D02*
X000540Y002550D01*
X000540Y002450D02*
X000400Y002450D01*
X000400Y002350D02*
X000540Y002350D01*
X000540Y002250D02*
X000400Y002250D01*
X000400Y002150D02*
X000540Y002150D01*
X000540Y002050D02*
X000400Y002050D01*
X000400Y001950D02*
X000556Y001950D01*
X000550Y001964D02*
X000550Y001272D01*
X000528Y001250D02*
X000400Y001250D01*
X000450Y001172D02*
X000450Y009728D01*
X000428Y009750D02*
X000400Y009750D01*
X000410Y009768D02*
X000668Y009510D01*
X000800Y009510D01*
X000800Y009900D01*
X000900Y009900D01*
X000900Y010000D01*
X000800Y010000D01*
X000800Y010390D01*
X000668Y010390D01*
X000410Y010132D01*
X000410Y010000D01*
X000800Y010000D01*
X000800Y009900D01*
X000410Y009900D01*
X000410Y009768D01*
X000400Y009850D02*
X000410Y009850D01*
X000450Y009900D02*
X000450Y010000D01*
X000410Y010050D02*
X000400Y010050D01*
X000400Y009950D02*
X000800Y009950D01*
X000750Y009900D02*
X000750Y010000D01*
X000800Y010050D02*
X000900Y010050D01*
X000900Y010000D02*
X000900Y010390D01*
X001032Y010390D01*
X001290Y010132D01*
X001290Y010000D01*
X000900Y010000D01*
X000850Y010000D02*
X000850Y010500D01*
X000750Y010500D02*
X000750Y010390D01*
X000800Y010350D02*
X000900Y010350D01*
X000950Y010390D02*
X000950Y010500D01*
X001050Y010500D02*
X001050Y010372D01*
X001072Y010350D02*
X001585Y010350D01*
X001550Y010315D02*
X001550Y010500D01*
X001650Y010500D02*
X001650Y010415D01*
X001655Y010420D02*
X001380Y010145D01*
X001380Y009755D01*
X001540Y009595D01*
X001540Y009577D01*
X001449Y009577D01*
X001416Y009544D01*
X001405Y009547D01*
X001255Y009547D01*
X001255Y009284D01*
X001188Y009284D01*
X001188Y009547D01*
X001069Y009547D01*
X001290Y009768D01*
X001290Y009900D01*
X000900Y009900D01*
X000900Y009510D01*
X000967Y009510D01*
X000958Y009501D01*
X000943Y009473D01*
X000934Y009443D01*
X000934Y009284D01*
X001188Y009284D01*
X001188Y009216D01*
X001255Y009216D01*
X001255Y008953D01*
X001405Y008953D01*
X001416Y008956D01*
X001422Y008950D01*
X001416Y008944D01*
X001405Y008947D01*
X001255Y008947D01*
X001255Y008684D01*
X001188Y008684D01*
X001188Y008947D01*
X001039Y008947D01*
X001008Y008939D01*
X000981Y008923D01*
X000958Y008901D01*
X000943Y008873D01*
X000934Y008843D01*
X000934Y008684D01*
X001188Y008684D01*
X001188Y008616D01*
X000934Y008616D01*
X000934Y008457D01*
X000943Y008427D01*
X000958Y008399D01*
X000981Y008377D01*
X000988Y008373D01*
X000975Y008360D01*
X000788Y008360D01*
X000674Y008313D01*
X000587Y008226D01*
X000540Y008112D01*
X000540Y001988D01*
X000587Y001874D01*
X000674Y001787D01*
X000788Y001740D01*
X000764Y001750D02*
X000400Y001750D01*
X000400Y001850D02*
X000612Y001850D01*
X000650Y001812D02*
X000650Y001372D01*
X000628Y001350D02*
X000400Y001350D01*
X000400Y001150D02*
X000428Y001150D01*
X000550Y001000D02*
X000550Y000900D01*
X000650Y000900D02*
X000650Y001000D01*
X000750Y001000D02*
X000750Y000900D01*
X000800Y000850D02*
X000900Y000850D01*
X000900Y000900D02*
X000900Y000510D01*
X001032Y000510D01*
X001290Y000768D01*
X001290Y000900D01*
X000900Y000900D01*
X000850Y000900D02*
X000850Y000400D01*
X000750Y000400D02*
X000750Y000510D01*
X000800Y000550D02*
X000900Y000550D01*
X000950Y000510D02*
X000950Y000400D01*
X001050Y000400D02*
X001050Y000528D01*
X001072Y000550D02*
X001585Y000550D01*
X001550Y000585D02*
X001550Y000400D01*
X001650Y000400D02*
X001650Y000485D01*
X001655Y000480D02*
X002045Y000480D01*
X002320Y000755D01*
X002320Y001145D01*
X002045Y001420D01*
X001655Y001420D01*
X001380Y001145D01*
X001380Y000755D01*
X001655Y000480D01*
X001750Y000480D02*
X001750Y000400D01*
X001850Y000400D02*
X001850Y000480D01*
X001950Y000480D02*
X001950Y000400D01*
X002050Y000400D02*
X002050Y000485D01*
X002115Y000550D02*
X002585Y000550D01*
X002550Y000585D02*
X002550Y000400D01*
X002650Y000400D02*
X002650Y000485D01*
X002750Y000480D02*
X002750Y000400D01*
X002850Y000400D02*
X002850Y000480D01*
X002950Y000480D02*
X002950Y000400D01*
X003050Y000400D02*
X003050Y000485D01*
X003115Y000550D02*
X003585Y000550D01*
X003550Y000585D02*
X003550Y000400D01*
X003450Y000400D02*
X003450Y000685D01*
X003485Y000650D02*
X003215Y000650D01*
X003250Y000685D02*
X003250Y000400D01*
X003150Y000400D02*
X003150Y000585D01*
X003315Y000750D02*
X003385Y000750D01*
X003380Y000755D02*
X003655Y000480D01*
X004045Y000480D01*
X004320Y000755D01*
X004320Y001145D01*
X004045Y001420D01*
X003655Y001420D01*
X003380Y001145D01*
X003380Y000755D01*
X003380Y000850D02*
X003320Y000850D01*
X003320Y000950D02*
X003380Y000950D01*
X003380Y001050D02*
X003320Y001050D01*
X003315Y001150D02*
X003385Y001150D01*
X003550Y001315D02*
X003550Y001797D01*
X003650Y001850D02*
X003650Y001415D01*
X003585Y001350D02*
X003115Y001350D01*
X003150Y001315D02*
X003150Y001797D01*
X003050Y001850D02*
X003050Y001415D01*
X002950Y001420D02*
X002950Y001850D01*
X002850Y001850D02*
X002850Y001420D01*
X002585Y001350D02*
X002115Y001350D01*
X002150Y001315D02*
X002150Y001723D01*
X002050Y001723D02*
X002050Y001415D01*
X001950Y001420D02*
X001950Y001723D01*
X001850Y001723D02*
X001850Y001420D01*
X001750Y001420D02*
X001750Y001723D01*
X001650Y001740D02*
X001650Y001415D01*
X001585Y001350D02*
X001072Y001350D01*
X001050Y001372D02*
X001050Y001740D01*
X000950Y001740D02*
X000950Y001390D01*
X000900Y001390D02*
X001032Y001390D01*
X001290Y001132D01*
X001290Y001000D01*
X000900Y001000D01*
X000900Y001390D01*
X000900Y001350D02*
X000800Y001350D01*
X000750Y001390D02*
X000750Y001756D01*
X000400Y001650D02*
X007015Y001650D01*
X007015Y001643D02*
X007023Y001612D01*
X007039Y001585D01*
X007015Y001643D02*
X007015Y001932D01*
X006933Y001850D01*
X006850Y001850D02*
X006850Y001420D01*
X006750Y001420D02*
X006750Y001850D01*
X006650Y001850D02*
X006650Y001415D01*
X006585Y001350D02*
X006115Y001350D01*
X006150Y001315D02*
X006150Y001850D01*
X006050Y001850D02*
X006050Y001415D01*
X005950Y001420D02*
X005950Y001850D01*
X005850Y001850D02*
X005850Y001420D01*
X005750Y001420D02*
X005750Y001850D01*
X005650Y001850D02*
X005650Y001415D01*
X005350Y001850D02*
X005350Y000400D01*
X005050Y000400D02*
X005050Y000485D01*
X004950Y000480D02*
X004950Y000400D01*
X004850Y000400D02*
X004850Y000480D01*
X004750Y000480D02*
X004750Y000400D01*
X004650Y000400D02*
X004650Y000485D01*
X004585Y000550D02*
X004115Y000550D01*
X004150Y000585D02*
X004150Y000400D01*
X004050Y000400D02*
X004050Y000485D01*
X003950Y000480D02*
X003950Y000400D01*
X003850Y000400D02*
X003850Y000480D01*
X003750Y000480D02*
X003750Y000400D01*
X003650Y000400D02*
X003650Y000485D01*
X003350Y000400D02*
X003350Y001730D01*
X003750Y001850D02*
X003750Y001420D01*
X003850Y001420D02*
X003850Y001850D01*
X003950Y001850D02*
X003950Y001420D01*
X004050Y001415D02*
X004050Y001797D01*
X004250Y001730D02*
X004250Y001215D01*
X004215Y001250D02*
X004485Y001250D01*
X004450Y001215D02*
X004450Y001797D01*
X004362Y001750D02*
X007015Y001750D01*
X007283Y001750D02*
X007380Y001750D01*
X007380Y001850D02*
X007283Y001850D01*
X007283Y001950D02*
X007380Y001950D01*
X007380Y002050D02*
X007283Y002050D01*
X007350Y002102D02*
X007350Y000400D01*
X007650Y000400D02*
X007650Y000485D01*
X007750Y000480D02*
X007750Y000400D01*
X007850Y000400D02*
X007850Y000480D01*
X007950Y000480D02*
X007950Y000400D01*
X008050Y000400D02*
X008050Y000485D01*
X008115Y000550D02*
X008585Y000550D01*
X008550Y000585D02*
X008550Y000400D01*
X008650Y000400D02*
X008650Y000485D01*
X008655Y000480D02*
X009045Y000480D01*
X009320Y000755D01*
X009320Y001145D01*
X009045Y001420D01*
X008655Y001420D01*
X008380Y001145D01*
X008380Y000755D01*
X008655Y000480D01*
X008750Y000480D02*
X008750Y000400D01*
X008850Y000400D02*
X008850Y000480D01*
X008950Y000480D02*
X008950Y000400D01*
X009050Y000400D02*
X009050Y000485D01*
X009115Y000550D02*
X009585Y000550D01*
X009550Y000585D02*
X009550Y000400D01*
X009450Y000400D02*
X009450Y000685D01*
X009485Y000650D02*
X009215Y000650D01*
X009250Y000685D02*
X009250Y000400D01*
X009150Y000400D02*
X009150Y000585D01*
X009315Y000750D02*
X009385Y000750D01*
X009380Y000755D02*
X009655Y000480D01*
X010045Y000480D01*
X010320Y000755D01*
X010320Y001145D01*
X010045Y001420D01*
X009655Y001420D01*
X009380Y001145D01*
X009380Y000755D01*
X009380Y000850D02*
X009320Y000850D01*
X009320Y000950D02*
X009380Y000950D01*
X009380Y001050D02*
X009320Y001050D01*
X009315Y001150D02*
X009385Y001150D01*
X009450Y001215D02*
X009450Y001543D01*
X009443Y001550D02*
X009221Y001550D01*
X009250Y001579D02*
X009250Y001215D01*
X009215Y001250D02*
X009485Y001250D01*
X009550Y001315D02*
X009550Y001526D01*
X009650Y001526D02*
X009650Y001415D01*
X009585Y001350D02*
X009115Y001350D01*
X009150Y001315D02*
X009150Y001526D01*
X009050Y001526D02*
X009050Y001415D01*
X008950Y001420D02*
X008950Y001526D01*
X008850Y001526D02*
X008850Y001420D01*
X008750Y001420D02*
X008750Y001526D01*
X008655Y001550D02*
X008432Y001550D01*
X008450Y001568D02*
X008450Y001215D01*
X008485Y001250D02*
X008215Y001250D01*
X008250Y001215D02*
X008250Y001509D01*
X008350Y001509D02*
X008350Y000400D01*
X008250Y000400D02*
X008250Y000685D01*
X008215Y000650D02*
X008485Y000650D01*
X008450Y000685D02*
X008450Y000400D01*
X008150Y000400D02*
X008150Y000585D01*
X008315Y000750D02*
X008385Y000750D01*
X008380Y000850D02*
X008320Y000850D01*
X008320Y000950D02*
X008380Y000950D01*
X008380Y001050D02*
X008320Y001050D01*
X008315Y001150D02*
X008385Y001150D01*
X008550Y001315D02*
X008550Y003150D01*
X008650Y003150D02*
X008650Y003062D01*
X008645Y003050D02*
X008455Y003050D01*
X008450Y003062D02*
X008450Y003150D01*
X008470Y002950D02*
X008630Y002950D01*
X008645Y002850D02*
X008455Y002850D01*
X008450Y002838D02*
X008450Y002734D01*
X008434Y002750D02*
X008619Y002750D01*
X008650Y002781D02*
X008650Y002838D01*
X008591Y002650D02*
X008479Y002650D01*
X008479Y002550D02*
X008591Y002550D01*
X008591Y002450D02*
X008479Y002450D01*
X008479Y002350D02*
X008591Y002350D01*
X008591Y002250D02*
X008479Y002250D01*
X008479Y002150D02*
X008591Y002150D01*
X008591Y002050D02*
X008479Y002050D01*
X008479Y001950D02*
X008591Y001950D01*
X008591Y001850D02*
X008479Y001850D01*
X008479Y001750D02*
X008591Y001750D01*
X008591Y001650D02*
X008479Y001650D01*
X008650Y001555D02*
X008650Y001415D01*
X008585Y001350D02*
X008115Y001350D01*
X008150Y001315D02*
X008150Y001509D01*
X008050Y001509D02*
X008050Y001415D01*
X007950Y001420D02*
X007950Y001509D01*
X007785Y001650D02*
X007649Y001650D01*
X007649Y001750D02*
X007785Y001750D01*
X007785Y001850D02*
X007649Y001850D01*
X007649Y001950D02*
X007785Y001950D01*
X007785Y002050D02*
X007649Y002050D01*
X007550Y002102D02*
X007550Y002199D01*
X007450Y002199D02*
X007450Y002102D01*
X007380Y002150D02*
X007785Y002150D01*
X007785Y002250D02*
X007649Y002250D01*
X007649Y002350D02*
X007785Y002350D01*
X007785Y002450D02*
X007649Y002450D01*
X007649Y002550D02*
X007785Y002550D01*
X008132Y002832D02*
X008150Y002950D01*
X008132Y002832D02*
X008132Y002151D01*
X007350Y002151D02*
X007350Y001550D01*
X007450Y001450D01*
X013350Y001450D01*
X013350Y001350D02*
X012115Y001350D01*
X012150Y001315D02*
X012150Y001526D01*
X012050Y001526D02*
X012050Y001415D01*
X012045Y001420D02*
X011655Y001420D01*
X011380Y001145D01*
X011380Y000755D01*
X011655Y000480D01*
X012045Y000480D01*
X012320Y000755D01*
X012320Y001145D01*
X012045Y001420D01*
X011950Y001420D02*
X011950Y001526D01*
X011850Y001526D02*
X011850Y001420D01*
X011750Y001420D02*
X011750Y001605D01*
X011741Y001650D02*
X011647Y001650D01*
X011647Y001750D02*
X011741Y001750D01*
X011741Y001850D02*
X011647Y001850D01*
X011647Y001950D02*
X011741Y001950D01*
X011741Y002050D02*
X011647Y002050D01*
X011647Y002150D02*
X011741Y002150D01*
X011741Y002250D02*
X011647Y002250D01*
X011647Y002350D02*
X011741Y002350D01*
X011741Y002450D02*
X011647Y002450D01*
X011647Y002550D02*
X011741Y002550D01*
X011741Y002650D02*
X011647Y002650D01*
X011620Y002750D02*
X011769Y002750D01*
X011750Y002731D02*
X011750Y003550D01*
X011650Y003550D02*
X011650Y001415D01*
X011585Y001350D02*
X011115Y001350D01*
X011150Y001315D02*
X011150Y001526D01*
X011050Y001526D02*
X011050Y001415D01*
X011045Y001420D02*
X010655Y001420D01*
X010380Y001145D01*
X010380Y000755D01*
X010655Y000480D01*
X011045Y000480D01*
X011320Y000755D01*
X011320Y001145D01*
X011045Y001420D01*
X011017Y001550D02*
X010796Y001550D01*
X010750Y001526D02*
X010750Y001420D01*
X010650Y001415D02*
X010650Y001526D01*
X010550Y001526D02*
X010550Y001315D01*
X010585Y001350D02*
X010115Y001350D01*
X010150Y001315D02*
X010150Y003150D01*
X010050Y003150D02*
X010050Y003062D01*
X010055Y003050D02*
X010208Y003050D01*
X010250Y003140D02*
X010250Y003150D01*
X010193Y002950D02*
X010070Y002950D01*
X010055Y002850D02*
X010208Y002850D01*
X010194Y002750D02*
X010045Y002750D01*
X010050Y002745D02*
X010050Y002838D01*
X010072Y002650D02*
X010166Y002650D01*
X010166Y002550D02*
X010072Y002550D01*
X010072Y002450D02*
X010166Y002450D01*
X010166Y002350D02*
X010072Y002350D01*
X010072Y002250D02*
X010166Y002250D01*
X010166Y002150D02*
X010072Y002150D01*
X010072Y002050D02*
X010166Y002050D01*
X010166Y001950D02*
X010072Y001950D01*
X010072Y001850D02*
X010166Y001850D01*
X010166Y001750D02*
X010072Y001750D01*
X010072Y001650D02*
X010166Y001650D01*
X010230Y001550D02*
X010009Y001550D01*
X010050Y001591D02*
X010050Y001415D01*
X009950Y001420D02*
X009950Y001526D01*
X009850Y001526D02*
X009850Y001420D01*
X009750Y001420D02*
X009750Y001526D01*
X009379Y001650D02*
X009285Y001650D01*
X009285Y001750D02*
X009379Y001750D01*
X009379Y001850D02*
X009285Y001850D01*
X009285Y001950D02*
X009379Y001950D01*
X009379Y002050D02*
X009285Y002050D01*
X009285Y002150D02*
X009379Y002150D01*
X009379Y002250D02*
X009285Y002250D01*
X009285Y002350D02*
X009379Y002350D01*
X009379Y002450D02*
X009285Y002450D01*
X009285Y002550D02*
X009379Y002550D01*
X009379Y002650D02*
X009285Y002650D01*
X009257Y002750D02*
X009406Y002750D01*
X009450Y002794D02*
X009450Y002838D01*
X009445Y002850D02*
X009255Y002850D01*
X009250Y002838D02*
X009250Y002757D01*
X009270Y002950D02*
X009430Y002950D01*
X009445Y003050D02*
X009255Y003050D01*
X009250Y003062D02*
X009250Y003150D01*
X009350Y003150D02*
X009350Y000400D01*
X009650Y000400D02*
X009650Y000485D01*
X009750Y000480D02*
X009750Y000400D01*
X009850Y000400D02*
X009850Y000480D01*
X009950Y000480D02*
X009950Y000400D01*
X010050Y000400D02*
X010050Y000485D01*
X010115Y000550D02*
X010585Y000550D01*
X010550Y000585D02*
X010550Y000400D01*
X010650Y000400D02*
X010650Y000485D01*
X010750Y000480D02*
X010750Y000400D01*
X010850Y000400D02*
X010850Y000480D01*
X010950Y000480D02*
X010950Y000400D01*
X011050Y000400D02*
X011050Y000485D01*
X011115Y000550D02*
X011585Y000550D01*
X011550Y000585D02*
X011550Y000400D01*
X011650Y000400D02*
X011650Y000485D01*
X011750Y000480D02*
X011750Y000400D01*
X011850Y000400D02*
X011850Y000480D01*
X011950Y000480D02*
X011950Y000400D01*
X012050Y000400D02*
X012050Y000485D01*
X012115Y000550D02*
X013350Y000550D01*
X013350Y000650D02*
X012215Y000650D01*
X012250Y000685D02*
X012250Y000400D01*
X012350Y000400D02*
X012350Y001529D01*
X012371Y001550D02*
X012592Y001550D01*
X012550Y001592D02*
X012550Y000400D01*
X012650Y000400D02*
X012650Y001526D01*
X012750Y001526D02*
X012750Y000400D01*
X012850Y000400D02*
X012850Y001526D01*
X012950Y001526D02*
X012950Y000400D01*
X013050Y000400D02*
X013050Y001526D01*
X013150Y001542D02*
X013150Y000400D01*
X013250Y000400D02*
X013250Y010500D01*
X013150Y010500D02*
X013150Y009355D01*
X013155Y009350D02*
X013350Y009350D01*
X013350Y009250D02*
X013222Y009250D01*
X013222Y009283D02*
X013134Y009371D01*
X012616Y009371D01*
X012528Y009283D01*
X012528Y008174D01*
X012616Y008087D01*
X012650Y008087D01*
X012650Y006533D01*
X012567Y006450D01*
X010855Y006450D01*
X012567Y006450D01*
X012550Y006450D02*
X012550Y008153D01*
X012553Y008150D02*
X012410Y008150D01*
X012435Y008174D02*
X012435Y009283D01*
X012347Y009371D01*
X011850Y009371D01*
X011850Y009480D01*
X011833Y009450D02*
X013350Y009450D01*
X013350Y009550D02*
X012302Y009550D01*
X012320Y009568D02*
X012320Y010332D01*
X012232Y010420D01*
X011468Y010420D01*
X011380Y010332D01*
X011380Y009650D01*
X011215Y009650D01*
X011320Y009755D01*
X011320Y010145D01*
X011045Y010420D01*
X010655Y010420D01*
X010380Y010145D01*
X010380Y009755D01*
X010485Y009650D01*
X010215Y009650D01*
X010320Y009755D01*
X010320Y010145D01*
X010045Y010420D01*
X009655Y010420D01*
X009380Y010145D01*
X009380Y009755D01*
X009485Y009650D01*
X009215Y009650D01*
X009320Y009755D01*
X009320Y010145D01*
X009045Y010420D01*
X008655Y010420D01*
X008380Y010145D01*
X008380Y009755D01*
X008485Y009650D01*
X008215Y009650D01*
X008320Y009755D01*
X008320Y010145D01*
X008045Y010420D01*
X007655Y010420D01*
X007380Y010145D01*
X007380Y009755D01*
X007485Y009650D01*
X007436Y009650D01*
X007412Y009660D01*
X007225Y009660D01*
X007320Y009755D01*
X007320Y010145D01*
X007045Y010420D01*
X006655Y010420D01*
X006380Y010145D01*
X006380Y009755D01*
X006475Y009660D01*
X006225Y009660D01*
X006320Y009755D01*
X006320Y010145D01*
X006045Y010420D01*
X005655Y010420D01*
X005380Y010145D01*
X005380Y009755D01*
X005475Y009660D01*
X005225Y009660D01*
X005320Y009755D01*
X005320Y010145D01*
X005045Y010420D01*
X004655Y010420D01*
X004380Y010145D01*
X004380Y009755D01*
X004475Y009660D01*
X004225Y009660D01*
X004320Y009755D01*
X004320Y010145D01*
X004045Y010420D01*
X003655Y010420D01*
X003380Y010145D01*
X003380Y009755D01*
X003475Y009660D01*
X003225Y009660D01*
X003320Y009755D01*
X003320Y010145D01*
X003045Y010420D01*
X002655Y010420D01*
X002380Y010145D01*
X002380Y009755D01*
X002475Y009660D01*
X002288Y009660D01*
X002180Y009615D01*
X002320Y009755D01*
X002320Y010145D01*
X002045Y010420D01*
X001655Y010420D01*
X001750Y010420D02*
X001750Y010500D01*
X001850Y010500D02*
X001850Y010420D01*
X001950Y010420D02*
X001950Y010500D01*
X002050Y010500D02*
X002050Y010415D01*
X002115Y010350D02*
X002585Y010350D01*
X002550Y010315D02*
X002550Y010500D01*
X002650Y010500D02*
X002650Y010415D01*
X002750Y010420D02*
X002750Y010500D01*
X002850Y010500D02*
X002850Y010420D01*
X002950Y010420D02*
X002950Y010500D01*
X003050Y010500D02*
X003050Y010415D01*
X003115Y010350D02*
X003585Y010350D01*
X003550Y010315D02*
X003550Y010500D01*
X003450Y010500D02*
X003450Y010215D01*
X003485Y010250D02*
X003215Y010250D01*
X003250Y010215D02*
X003250Y010500D01*
X003150Y010500D02*
X003150Y010315D01*
X003315Y010150D02*
X003385Y010150D01*
X003380Y010050D02*
X003320Y010050D01*
X003320Y009950D02*
X003380Y009950D01*
X003380Y009850D02*
X003320Y009850D01*
X003315Y009750D02*
X003385Y009750D01*
X003450Y009685D02*
X003450Y009660D01*
X003350Y009660D02*
X003350Y010500D01*
X003650Y010500D02*
X003650Y010415D01*
X003750Y010420D02*
X003750Y010500D01*
X003850Y010500D02*
X003850Y010420D01*
X003950Y010420D02*
X003950Y010500D01*
X004050Y010500D02*
X004050Y010415D01*
X004115Y010350D02*
X004585Y010350D01*
X004550Y010315D02*
X004550Y010500D01*
X004650Y010500D02*
X004650Y010415D01*
X004750Y010420D02*
X004750Y010500D01*
X004850Y010500D02*
X004850Y010420D01*
X004950Y010420D02*
X004950Y010500D01*
X005050Y010500D02*
X005050Y010415D01*
X005115Y010350D02*
X005585Y010350D01*
X005550Y010315D02*
X005550Y010500D01*
X005450Y010500D02*
X005450Y010215D01*
X005485Y010250D02*
X005215Y010250D01*
X005250Y010215D02*
X005250Y010500D01*
X005150Y010500D02*
X005150Y010315D01*
X005315Y010150D02*
X005385Y010150D01*
X005380Y010050D02*
X005320Y010050D01*
X005320Y009950D02*
X005380Y009950D01*
X005380Y009850D02*
X005320Y009850D01*
X005315Y009750D02*
X005385Y009750D01*
X005450Y009685D02*
X005450Y009660D01*
X005350Y009660D02*
X005350Y010500D01*
X005650Y010500D02*
X005650Y010415D01*
X005750Y010420D02*
X005750Y010500D01*
X005850Y010500D02*
X005850Y010420D01*
X005950Y010420D02*
X005950Y010500D01*
X006050Y010500D02*
X006050Y010415D01*
X006115Y010350D02*
X006585Y010350D01*
X006550Y010315D02*
X006550Y010500D01*
X006650Y010500D02*
X006650Y010415D01*
X006750Y010420D02*
X006750Y010500D01*
X006850Y010500D02*
X006850Y010420D01*
X006950Y010420D02*
X006950Y010500D01*
X007050Y010500D02*
X007050Y010415D01*
X007115Y010350D02*
X007585Y010350D01*
X007550Y010315D02*
X007550Y010500D01*
X007450Y010500D02*
X007450Y010215D01*
X007485Y010250D02*
X007215Y010250D01*
X007250Y010215D02*
X007250Y010500D01*
X007150Y010500D02*
X007150Y010315D01*
X007315Y010150D02*
X007385Y010150D01*
X007380Y010050D02*
X007320Y010050D01*
X007320Y009950D02*
X007380Y009950D01*
X007380Y009850D02*
X007320Y009850D01*
X007315Y009750D02*
X007385Y009750D01*
X007450Y009685D02*
X007450Y009650D01*
X007436Y009650D02*
X007485Y009650D01*
X007350Y009660D02*
X007350Y010500D01*
X007650Y010500D02*
X007650Y010415D01*
X007750Y010420D02*
X007750Y010500D01*
X007850Y010500D02*
X007850Y010420D01*
X007950Y010420D02*
X007950Y010500D01*
X008050Y010500D02*
X008050Y010415D01*
X008115Y010350D02*
X008585Y010350D01*
X008550Y010315D02*
X008550Y010500D01*
X008650Y010500D02*
X008650Y010415D01*
X008750Y010420D02*
X008750Y010500D01*
X008850Y010500D02*
X008850Y010420D01*
X008950Y010420D02*
X008950Y010500D01*
X009050Y010500D02*
X009050Y010415D01*
X009115Y010350D02*
X009585Y010350D01*
X009550Y010315D02*
X009550Y010500D01*
X009450Y010500D02*
X009450Y010215D01*
X009485Y010250D02*
X009215Y010250D01*
X009250Y010215D02*
X009250Y010500D01*
X009150Y010500D02*
X009150Y010315D01*
X009315Y010150D02*
X009385Y010150D01*
X009380Y010050D02*
X009320Y010050D01*
X009320Y009950D02*
X009380Y009950D01*
X009380Y009850D02*
X009320Y009850D01*
X009315Y009750D02*
X009385Y009750D01*
X009450Y009685D02*
X009450Y009650D01*
X009485Y009650D02*
X009215Y009650D01*
X009250Y009650D02*
X009250Y009685D01*
X009350Y009650D02*
X009350Y010500D01*
X009650Y010500D02*
X009650Y010415D01*
X009750Y010420D02*
X009750Y010500D01*
X009850Y010500D02*
X009850Y010420D01*
X009950Y010420D02*
X009950Y010500D01*
X010050Y010500D02*
X010050Y010415D01*
X010115Y010350D02*
X010585Y010350D01*
X010550Y010315D02*
X010550Y010500D01*
X010650Y010500D02*
X010650Y010415D01*
X010750Y010420D02*
X010750Y010500D01*
X010850Y010500D02*
X010850Y010420D01*
X010950Y010420D02*
X010950Y010500D01*
X011050Y010500D02*
X011050Y010415D01*
X011115Y010350D02*
X011398Y010350D01*
X011450Y010402D02*
X011450Y010500D01*
X011350Y010500D02*
X011350Y009650D01*
X011380Y009650D02*
X011215Y009650D01*
X011250Y009650D02*
X011250Y009685D01*
X011315Y009750D02*
X011380Y009750D01*
X011380Y009850D02*
X011320Y009850D01*
X011320Y009950D02*
X011380Y009950D01*
X011380Y010050D02*
X011320Y010050D01*
X011315Y010150D02*
X011380Y010150D01*
X011380Y010250D02*
X011215Y010250D01*
X011250Y010215D02*
X011250Y010500D01*
X011150Y010500D02*
X011150Y010315D01*
X011550Y010420D02*
X011550Y010500D01*
X011650Y010500D02*
X011650Y010420D01*
X011750Y010420D02*
X011750Y010500D01*
X011850Y010500D02*
X011850Y010420D01*
X011950Y010420D02*
X011950Y010500D01*
X012050Y010500D02*
X012050Y010420D01*
X012150Y010420D02*
X012150Y010500D01*
X012250Y010500D02*
X012250Y010402D01*
X012302Y010350D02*
X013350Y010350D01*
X013350Y010250D02*
X012320Y010250D01*
X012320Y010150D02*
X013350Y010150D01*
X013350Y010050D02*
X012320Y010050D01*
X012320Y009950D02*
X013350Y009950D01*
X013350Y009850D02*
X012320Y009850D01*
X012320Y009750D02*
X013350Y009750D01*
X013350Y009650D02*
X012320Y009650D01*
X012320Y009568D02*
X012232Y009480D01*
X011803Y009480D01*
X011850Y009433D01*
X011850Y009371D01*
X011950Y009371D02*
X011950Y009480D01*
X012050Y009480D02*
X012050Y009371D01*
X012150Y009371D02*
X012150Y009480D01*
X012250Y009498D02*
X012250Y009371D01*
X012350Y009368D02*
X012350Y010500D01*
X012450Y010500D02*
X012450Y006450D01*
X012350Y006450D02*
X012350Y008090D01*
X012347Y008087D02*
X012435Y008174D01*
X012435Y008250D02*
X012528Y008250D01*
X012528Y008350D02*
X012435Y008350D01*
X012435Y008450D02*
X012528Y008450D01*
X012528Y008550D02*
X012435Y008550D01*
X012435Y008650D02*
X012528Y008650D01*
X012528Y008750D02*
X012435Y008750D01*
X012435Y008850D02*
X012528Y008850D01*
X012528Y008950D02*
X012435Y008950D01*
X012435Y009050D02*
X012528Y009050D01*
X012528Y009150D02*
X012435Y009150D01*
X012435Y009250D02*
X012528Y009250D01*
X012550Y009305D02*
X012550Y010500D01*
X012650Y010500D02*
X012650Y009371D01*
X012595Y009350D02*
X012368Y009350D01*
X012750Y009371D02*
X012750Y010500D01*
X012850Y010500D02*
X012850Y009371D01*
X012950Y009371D02*
X012950Y010500D01*
X013050Y010500D02*
X013050Y009371D01*
X013222Y009283D02*
X013222Y008174D01*
X013134Y008087D01*
X013050Y008087D01*
X013050Y003933D01*
X013033Y003950D02*
X013350Y003950D01*
X013350Y003850D02*
X013075Y003850D01*
X013075Y003750D02*
X013350Y003750D01*
X013350Y003650D02*
X013075Y003650D01*
X013075Y003550D02*
X013350Y003550D01*
X013350Y003450D02*
X013075Y003450D01*
X013075Y003350D02*
X013350Y003350D01*
X013350Y003250D02*
X013075Y003250D01*
X013075Y003150D02*
X013350Y003150D01*
X013350Y003050D02*
X013075Y003050D01*
X013075Y002950D02*
X013350Y002950D01*
X013350Y002850D02*
X013075Y002850D01*
X013150Y002794D02*
X013150Y008102D01*
X013198Y008150D02*
X013350Y008150D01*
X013350Y008250D02*
X013222Y008250D01*
X013222Y008350D02*
X013350Y008350D01*
X013350Y008450D02*
X013222Y008450D01*
X013222Y008550D02*
X013350Y008550D01*
X013350Y008650D02*
X013222Y008650D01*
X013222Y008750D02*
X013350Y008750D01*
X013350Y008850D02*
X013222Y008850D01*
X013222Y008950D02*
X013350Y008950D01*
X013350Y009050D02*
X013222Y009050D01*
X013222Y009150D02*
X013350Y009150D01*
X012850Y008704D02*
X012850Y006450D01*
X012650Y006250D01*
X005850Y006250D01*
X005178Y006250D01*
X005150Y006222D01*
X005496Y006450D02*
X005496Y006450D01*
X005597Y006450D01*
X005597Y006450D01*
X005496Y006450D01*
X005550Y006450D02*
X005550Y006450D01*
X006103Y006450D02*
X010245Y006450D01*
X010245Y006450D01*
X006103Y006450D01*
X006103Y006450D01*
X006150Y006450D02*
X006150Y006450D01*
X006250Y006450D02*
X006250Y006450D01*
X006350Y006450D02*
X006350Y006450D01*
X006450Y006450D02*
X006450Y006450D01*
X006550Y006450D02*
X006550Y006450D01*
X006650Y006450D02*
X006650Y006450D01*
X006750Y006450D02*
X006750Y006450D01*
X006850Y006450D02*
X006850Y006450D01*
X006950Y006450D02*
X006950Y006450D01*
X007050Y006450D02*
X007050Y006450D01*
X007150Y006450D02*
X007150Y006450D01*
X007250Y006450D02*
X007250Y006450D01*
X007350Y006450D02*
X007350Y006450D01*
X007450Y006450D02*
X007450Y006450D01*
X007550Y006450D02*
X007550Y006450D01*
X007650Y006450D02*
X007650Y006450D01*
X007750Y006450D02*
X007750Y006450D01*
X007850Y006450D02*
X007850Y006450D01*
X007950Y006450D02*
X007950Y006450D01*
X008050Y006450D02*
X008050Y006450D01*
X008150Y006450D02*
X008150Y006450D01*
X008250Y006450D02*
X008250Y006450D01*
X008350Y006450D02*
X008350Y006450D01*
X008450Y006450D02*
X008450Y006450D01*
X008550Y006450D02*
X008550Y006450D01*
X008650Y006450D02*
X008650Y006450D01*
X008750Y006450D02*
X008750Y006450D01*
X008850Y006450D02*
X008850Y006450D01*
X008950Y006450D02*
X008950Y006450D01*
X009050Y006450D02*
X009050Y006450D01*
X009150Y006450D02*
X009150Y006450D01*
X009250Y006450D02*
X009250Y006450D01*
X009350Y006450D02*
X009350Y006450D01*
X009450Y006450D02*
X009450Y006450D01*
X009550Y006450D02*
X009550Y006450D01*
X009650Y006450D02*
X009650Y006450D01*
X009750Y006450D02*
X009750Y006450D01*
X009850Y006450D02*
X009850Y006450D01*
X009950Y006450D02*
X009950Y006450D01*
X010050Y006450D02*
X010050Y006450D01*
X010150Y006450D02*
X010150Y006450D01*
X010450Y006650D02*
X010550Y006550D01*
X010450Y006650D02*
X004250Y006650D01*
X004250Y006350D01*
X004350Y006250D01*
X004722Y006250D01*
X004167Y006150D02*
X003712Y006150D01*
X004167Y006150D01*
X004167Y006150D01*
X004050Y006267D01*
X004050Y006150D01*
X004150Y006150D02*
X004150Y006167D01*
X004167Y006150D02*
X004167Y006150D01*
X004067Y006250D02*
X003270Y006250D01*
X003270Y006314D02*
X003225Y006423D01*
X003551Y006423D01*
X004008Y006423D01*
X004050Y006465D01*
X004050Y006267D01*
X004050Y006350D02*
X003255Y006350D01*
X003250Y006362D02*
X003250Y006423D01*
X003350Y006423D02*
X003350Y005866D01*
X003339Y005850D02*
X003255Y005850D01*
X003250Y005862D02*
X003250Y006138D01*
X003255Y006150D02*
X003632Y006150D01*
X003567Y006150D01*
X003552Y006135D01*
X003532Y006131D01*
X003496Y006078D01*
X003450Y006033D01*
X003450Y006423D01*
X003550Y006423D02*
X003550Y006135D01*
X003632Y006150D02*
X003695Y006162D01*
X003712Y006150D01*
X003750Y006150D02*
X003750Y006423D01*
X003850Y006423D02*
X003850Y006150D01*
X003950Y006150D02*
X003950Y006423D01*
X004035Y006450D02*
X004050Y006450D01*
X004250Y006650D02*
X004150Y006750D01*
X003778Y006750D01*
X003650Y006423D02*
X003650Y006153D01*
X003467Y006050D02*
X003203Y006050D01*
X003221Y006069D02*
X003270Y006186D01*
X003270Y006314D01*
X003221Y006069D02*
X003153Y006000D01*
X003221Y005931D01*
X003269Y005815D01*
X003315Y005815D01*
X003450Y006012D01*
X003450Y006033D01*
X003407Y005950D02*
X003203Y005950D01*
X002994Y005706D02*
X002950Y005750D01*
X002378Y005750D01*
X002696Y005950D02*
X002696Y005989D01*
X002685Y006000D01*
X002696Y006011D01*
X002696Y006050D01*
X002697Y006050D01*
X002747Y006000D01*
X002697Y005950D01*
X002696Y005950D01*
X002697Y005950D01*
X002994Y005706D02*
X002994Y005139D01*
X003038Y005094D01*
X003431Y005094D01*
X003450Y005075D01*
X003450Y004875D02*
X003450Y004750D01*
X003550Y004750D02*
X003550Y004767D01*
X003567Y004750D01*
X001160Y004750D01*
X003567Y004750D01*
X003550Y004767D02*
X003550Y004885D01*
X003543Y004885D01*
X003533Y004875D01*
X003367Y004875D01*
X003357Y004885D01*
X003174Y004885D01*
X003165Y004894D01*
X002956Y004894D01*
X002838Y005011D01*
X002838Y005011D01*
X002794Y005056D01*
X002794Y005468D01*
X002769Y005479D01*
X002697Y005550D01*
X002696Y005550D01*
X002696Y005511D01*
X002608Y005423D01*
X001692Y005423D01*
X001604Y005511D01*
X001604Y005550D01*
X001160Y005550D01*
X001160Y004750D01*
X001250Y004750D02*
X001250Y005550D01*
X001350Y005550D02*
X001350Y004750D01*
X001450Y004750D02*
X001450Y005550D01*
X001550Y005550D02*
X001550Y004750D01*
X001650Y004750D02*
X001650Y005465D01*
X001665Y005450D02*
X001160Y005450D01*
X001160Y005350D02*
X002794Y005350D01*
X002794Y005450D02*
X002635Y005450D01*
X002650Y005465D02*
X002650Y004750D01*
X002750Y004750D02*
X002750Y005497D01*
X002550Y005423D02*
X002550Y004750D01*
X002450Y004750D02*
X002450Y005423D01*
X002350Y005423D02*
X002350Y004750D01*
X002250Y004750D02*
X002250Y005423D01*
X002150Y005423D02*
X002150Y004750D01*
X002050Y004750D02*
X002050Y005423D01*
X001950Y005423D02*
X001950Y004750D01*
X001850Y004750D02*
X001850Y005423D01*
X001750Y005423D02*
X001750Y004750D01*
X001160Y004850D02*
X003550Y004850D01*
X003350Y004885D02*
X003350Y004750D01*
X003250Y004750D02*
X003250Y004885D01*
X003150Y004894D02*
X003150Y004750D01*
X003050Y004750D02*
X003050Y004894D01*
X002950Y004900D02*
X002950Y004750D01*
X002850Y004750D02*
X002850Y005000D01*
X002900Y004950D02*
X001160Y004950D01*
X001160Y005050D02*
X002800Y005050D01*
X002794Y005150D02*
X001160Y005150D01*
X001160Y005250D02*
X002794Y005250D01*
X003431Y005350D02*
X003650Y005350D01*
X003750Y005250D01*
X003750Y004850D01*
X005322Y004850D01*
X005422Y004950D01*
X005750Y005250D02*
X005878Y005122D01*
X005878Y004950D01*
X005950Y005022D01*
X005950Y005150D01*
X006150Y005350D01*
X008550Y005350D01*
X008870Y005350D02*
X013350Y005350D01*
X013350Y005650D02*
X008662Y005650D01*
X009050Y006050D02*
X009050Y004750D01*
X009150Y004750D02*
X009150Y006050D01*
X009250Y006050D02*
X009250Y004750D01*
X009350Y004750D02*
X009350Y006050D01*
X008550Y005030D02*
X008550Y004750D01*
X008550Y004350D02*
X008550Y004350D01*
X008650Y004350D02*
X008650Y004350D01*
X008750Y004350D02*
X008750Y004350D01*
X008850Y004350D02*
X008850Y004350D01*
X008950Y004350D02*
X008950Y004350D01*
X009045Y004350D02*
X007367Y004350D01*
X007250Y004233D01*
X007250Y004267D01*
X007233Y004250D02*
X007267Y004250D01*
X007250Y004233D02*
X007167Y004150D01*
X007133Y004150D01*
X007167Y004150D01*
X007150Y004150D02*
X007150Y004167D01*
X007333Y004350D01*
X009045Y004350D01*
X009045Y004350D01*
X008450Y004350D02*
X008450Y004350D01*
X008350Y004350D02*
X008350Y004350D01*
X008250Y004350D02*
X008250Y004350D01*
X008150Y004350D02*
X008150Y004350D01*
X008050Y004350D02*
X008050Y004350D01*
X007950Y004350D02*
X007950Y004350D01*
X007850Y004350D02*
X007850Y004350D01*
X007750Y004350D02*
X007750Y004350D01*
X007650Y004350D02*
X007650Y004350D01*
X007550Y004350D02*
X007550Y004350D01*
X007450Y004350D02*
X007450Y004350D01*
X007350Y004350D02*
X007350Y004333D01*
X007150Y004167D02*
X007133Y004150D01*
X007550Y003950D02*
X007050Y003450D01*
X006650Y003450D01*
X006350Y003150D01*
X006350Y003050D01*
X006250Y002950D01*
X005850Y002950D01*
X005350Y002850D02*
X005350Y003123D01*
X005250Y003123D02*
X005250Y002850D01*
X004850Y002650D02*
X006450Y002650D01*
X006550Y002750D01*
X006550Y003050D01*
X006750Y003250D01*
X007150Y003250D01*
X007650Y003750D01*
X011950Y003750D01*
X012088Y003612D01*
X012088Y002168D01*
X012435Y002150D02*
X012528Y002150D01*
X012528Y002050D02*
X012435Y002050D01*
X012435Y001950D02*
X012528Y001950D01*
X012528Y001850D02*
X012435Y001850D01*
X012435Y001750D02*
X012528Y001750D01*
X012528Y001650D02*
X012435Y001650D01*
X012250Y001526D02*
X012250Y001215D01*
X012215Y001250D02*
X013350Y001250D01*
X013350Y001150D02*
X012315Y001150D01*
X012320Y001050D02*
X013350Y001050D01*
X013350Y000950D02*
X012320Y000950D01*
X012320Y000850D02*
X013350Y000850D01*
X013350Y000750D02*
X012315Y000750D01*
X012150Y000585D02*
X012150Y000400D01*
X012450Y000400D02*
X012450Y003750D01*
X012350Y003750D02*
X012350Y002807D01*
X012288Y002850D02*
X012675Y002850D01*
X012650Y002810D02*
X012650Y003750D01*
X012550Y003750D02*
X012550Y002744D01*
X012556Y002750D02*
X012407Y002750D01*
X012435Y002650D02*
X012528Y002650D01*
X012528Y002550D02*
X012435Y002550D01*
X012435Y002450D02*
X012528Y002450D01*
X012528Y002350D02*
X012435Y002350D01*
X012435Y002250D02*
X012528Y002250D01*
X012875Y002168D02*
X012875Y003825D01*
X012750Y003950D01*
X007550Y003950D01*
X007050Y003750D02*
X007050Y003733D01*
X007850Y003067D02*
X007850Y003062D01*
X007850Y003067D01*
X007854Y003071D01*
X007850Y003062D01*
X008938Y002938D02*
X008950Y002950D01*
X008938Y002938D02*
X008938Y002168D01*
X009726Y002168D02*
X009726Y002926D01*
X009750Y002950D01*
X009450Y003062D02*
X009450Y003150D01*
X010513Y003187D02*
X010513Y002950D01*
X010513Y002168D01*
X010860Y002250D02*
X010954Y002250D01*
X010954Y002350D02*
X010860Y002350D01*
X010860Y002450D02*
X010954Y002450D01*
X010954Y002550D02*
X010860Y002550D01*
X010860Y002650D02*
X010954Y002650D01*
X011605Y002850D02*
X011888Y002850D01*
X011850Y002810D02*
X011850Y003550D01*
X011888Y003450D02*
X011500Y003450D01*
X011450Y003533D02*
X011450Y003550D01*
X011550Y003550D02*
X011550Y003153D01*
X011553Y003150D02*
X011888Y003150D01*
X011888Y003050D02*
X011605Y003050D01*
X011620Y002950D02*
X011888Y002950D01*
X011888Y003250D02*
X011500Y003250D01*
X011500Y003350D02*
X011888Y003350D01*
X012288Y003350D02*
X012675Y003350D01*
X012675Y003250D02*
X012288Y003250D01*
X012288Y003150D02*
X012675Y003150D01*
X012675Y003050D02*
X012288Y003050D01*
X012288Y002950D02*
X012675Y002950D01*
X012675Y003450D02*
X012288Y003450D01*
X012288Y003550D02*
X012675Y003550D01*
X012675Y003650D02*
X012288Y003650D01*
X012250Y003733D02*
X012250Y003750D01*
X012850Y004133D02*
X012850Y006167D01*
X012850Y006167D01*
X012733Y006050D01*
X012750Y006067D02*
X012750Y004150D01*
X012650Y004150D02*
X012650Y006050D01*
X012550Y006050D02*
X012550Y004150D01*
X012450Y004150D02*
X012450Y006050D01*
X012350Y006050D02*
X012350Y004150D01*
X012250Y004150D02*
X012250Y006050D01*
X012150Y006050D02*
X012150Y004150D01*
X012050Y004150D02*
X012050Y006050D01*
X011950Y006050D02*
X011950Y004150D01*
X011850Y004150D02*
X011850Y006050D01*
X011850Y006450D02*
X011850Y006650D01*
X011750Y006650D02*
X011750Y006450D01*
X011650Y006450D02*
X011650Y006650D01*
X011550Y006650D02*
X011550Y006450D01*
X011450Y006450D02*
X011450Y006650D01*
X011350Y006650D02*
X011350Y006450D01*
X011250Y006450D02*
X011250Y006650D01*
X011150Y006650D02*
X011150Y006450D01*
X011050Y006450D02*
X011050Y006650D01*
X010950Y006650D02*
X010950Y006450D01*
X010870Y006486D02*
X010870Y006614D01*
X010855Y006650D01*
X012033Y006650D01*
X012650Y006650D01*
X012650Y006750D02*
X012133Y006750D01*
X012150Y006767D02*
X012288Y006905D01*
X012288Y008087D01*
X012347Y008087D01*
X012288Y008050D02*
X012650Y008050D01*
X012650Y007950D02*
X012288Y007950D01*
X012288Y007850D02*
X012650Y007850D01*
X012650Y007750D02*
X012288Y007750D01*
X012288Y007650D02*
X012650Y007650D01*
X012650Y007550D02*
X012288Y007550D01*
X012288Y007450D02*
X012650Y007450D01*
X012650Y007350D02*
X012288Y007350D01*
X012288Y007250D02*
X012650Y007250D01*
X012650Y007150D02*
X012288Y007150D01*
X012288Y007050D02*
X012650Y007050D01*
X012650Y006950D02*
X012288Y006950D01*
X012250Y006867D02*
X012250Y006450D01*
X012150Y006450D02*
X012150Y006767D01*
X012033Y006650D01*
X012050Y006667D02*
X012050Y006450D01*
X011950Y006450D02*
X011950Y006650D01*
X011950Y006850D02*
X004350Y006850D01*
X004250Y006950D01*
X004250Y007250D01*
X004722Y007250D01*
X004404Y007450D02*
X004135Y007450D01*
X004404Y007450D01*
X004404Y007489D01*
X004465Y007550D01*
X004196Y007550D01*
X004196Y007511D01*
X004135Y007450D01*
X004150Y007450D02*
X004150Y007465D01*
X004250Y007450D02*
X004250Y007550D01*
X004350Y007550D02*
X004350Y007450D01*
X004450Y007535D02*
X004450Y007550D01*
X004250Y007250D02*
X003778Y007250D01*
X003322Y007250D02*
X002750Y007250D01*
X002550Y007050D01*
X002306Y007050D01*
X002733Y006950D02*
X003004Y006950D01*
X002733Y006950D01*
X002750Y006967D01*
X002833Y007050D01*
X003004Y007050D01*
X003004Y007011D01*
X003015Y007000D01*
X003004Y006989D01*
X003004Y006950D01*
X002950Y006950D02*
X002950Y007050D01*
X002850Y007050D02*
X002850Y006950D01*
X002750Y006950D02*
X002750Y006967D01*
X002650Y006750D02*
X002550Y006650D01*
X000950Y006650D01*
X000850Y006750D01*
X000540Y006750D02*
X000400Y006750D01*
X000400Y006650D02*
X000540Y006650D01*
X000540Y006550D02*
X000400Y006550D01*
X000400Y006450D02*
X000540Y006450D01*
X000540Y006350D02*
X000400Y006350D01*
X000400Y006250D02*
X000540Y006250D01*
X000540Y006150D02*
X000400Y006150D01*
X000400Y006050D02*
X000540Y006050D01*
X000540Y005950D02*
X000400Y005950D01*
X000400Y005850D02*
X000540Y005850D01*
X000540Y005750D02*
X000400Y005750D01*
X000400Y005650D02*
X000540Y005650D01*
X000540Y005550D02*
X000400Y005550D01*
X000400Y005450D02*
X000540Y005450D01*
X000540Y005350D02*
X000400Y005350D01*
X000400Y005250D02*
X000540Y005250D01*
X000540Y005150D02*
X000400Y005150D01*
X000400Y005050D02*
X000540Y005050D01*
X000540Y004950D02*
X000400Y004950D01*
X000400Y004850D02*
X000540Y004850D01*
X000540Y004750D02*
X000400Y004750D01*
X000400Y004650D02*
X000540Y004650D01*
X000540Y004550D02*
X000400Y004550D01*
X000400Y004450D02*
X000540Y004450D01*
X000540Y004350D02*
X000400Y004350D01*
X000400Y004250D02*
X000540Y004250D01*
X000540Y004150D02*
X000400Y004150D01*
X000400Y004050D02*
X000540Y004050D01*
X000540Y003950D02*
X000400Y003950D01*
X000400Y003850D02*
X000540Y003850D01*
X000540Y003750D02*
X000400Y003750D01*
X000400Y003650D02*
X000540Y003650D01*
X000540Y003550D02*
X000400Y003550D01*
X000400Y003450D02*
X000540Y003450D01*
X000540Y003350D02*
X000400Y003350D01*
X000400Y003250D02*
X000540Y003250D01*
X000540Y003150D02*
X000400Y003150D01*
X000400Y003050D02*
X000540Y003050D01*
X000540Y002950D02*
X000400Y002950D01*
X002050Y003933D02*
X002050Y003950D01*
X000950Y004550D02*
X000850Y004650D01*
X000950Y004550D02*
X003950Y004550D01*
X004065Y005094D02*
X004894Y005094D01*
X005050Y005250D01*
X005750Y005250D01*
X005978Y005050D02*
X005878Y004950D01*
X005850Y004623D02*
X005850Y004450D01*
X005750Y004450D02*
X005750Y004623D01*
X005650Y004623D02*
X005650Y004450D01*
X005550Y004450D02*
X005550Y004623D01*
X005450Y004623D02*
X005450Y004450D01*
X005350Y004450D02*
X005350Y004623D01*
X005250Y004623D02*
X005250Y004450D01*
X005150Y004450D02*
X005150Y004650D01*
X005050Y004650D02*
X005050Y004450D01*
X004950Y004450D02*
X004950Y004650D01*
X004850Y004650D02*
X004850Y004450D01*
X004750Y004450D02*
X004750Y004650D01*
X004750Y005350D02*
X004065Y005350D01*
X004065Y005606D02*
X004506Y005606D01*
X004550Y005650D01*
X004855Y005750D02*
X004867Y005750D01*
X004859Y005741D01*
X004855Y005750D01*
X005050Y005650D02*
X005422Y005650D01*
X005050Y005650D02*
X004750Y005350D01*
X003650Y005950D02*
X005850Y005950D01*
X005950Y005850D01*
X005950Y007050D02*
X005950Y007167D01*
X006067Y007050D01*
X005464Y007050D01*
X005466Y007057D01*
X005466Y007216D01*
X005212Y007216D01*
X005212Y007284D01*
X005145Y007284D01*
X005145Y007547D01*
X004995Y007547D01*
X004984Y007544D01*
X004978Y007550D01*
X005950Y007550D01*
X005950Y007167D01*
X005967Y007150D02*
X005466Y007150D01*
X005450Y007216D02*
X005450Y007284D01*
X005466Y007284D02*
X005466Y007443D01*
X005457Y007473D01*
X005442Y007501D01*
X005419Y007523D01*
X005392Y007539D01*
X005361Y007547D01*
X005212Y007547D01*
X005212Y007284D01*
X005466Y007284D01*
X005466Y007350D02*
X005950Y007350D01*
X005950Y007250D02*
X005212Y007250D01*
X005178Y007250D02*
X005750Y007250D01*
X005750Y007050D02*
X005750Y007550D01*
X005850Y007550D02*
X005850Y007050D01*
X005650Y007050D02*
X005650Y007550D01*
X005550Y007550D02*
X005550Y007050D01*
X005464Y007050D02*
X006067Y007050D01*
X006067Y007050D01*
X006050Y007050D02*
X006050Y007067D01*
X006150Y007250D02*
X006150Y007650D01*
X006050Y007750D01*
X003878Y007750D01*
X004196Y007950D02*
X004196Y007989D01*
X004135Y008050D01*
X005597Y008050D01*
X005669Y007979D01*
X005738Y007950D01*
X004196Y007950D01*
X005738Y007950D01*
X005650Y007950D02*
X005650Y007997D01*
X005550Y007950D02*
X005550Y008050D01*
X005450Y008050D02*
X005450Y007950D01*
X005350Y007950D02*
X005350Y008050D01*
X005250Y008050D02*
X005250Y007950D01*
X005150Y007950D02*
X005150Y008050D01*
X005050Y008050D02*
X005050Y007950D01*
X004950Y007950D02*
X004950Y008050D01*
X004850Y008050D02*
X004850Y007950D01*
X004750Y007950D02*
X004750Y008050D01*
X004650Y008050D02*
X004650Y007950D01*
X004550Y007950D02*
X004550Y008050D01*
X004450Y008050D02*
X004450Y007950D01*
X004350Y007950D02*
X004350Y008050D01*
X004250Y008050D02*
X004250Y007950D01*
X004150Y008035D02*
X004150Y008050D01*
X003778Y008250D02*
X005850Y008250D01*
X006250Y008250D01*
X006350Y008150D01*
X006350Y007450D01*
X006450Y007350D01*
X008150Y007350D01*
X008470Y007350D02*
X011100Y007350D01*
X011100Y007283D02*
X011067Y007250D01*
X008455Y007250D01*
X011067Y007250D01*
X011050Y007250D02*
X011050Y008087D01*
X011041Y008087D02*
X011100Y008087D01*
X011100Y007283D01*
X010950Y007250D02*
X010950Y009250D01*
X010954Y009250D02*
X010954Y008174D01*
X011041Y008087D01*
X011100Y008050D02*
X010803Y008050D01*
X010821Y008031D02*
X010766Y008087D01*
X010772Y008087D01*
X010860Y008174D01*
X010860Y009250D01*
X010954Y009250D01*
X010954Y009150D02*
X010860Y009150D01*
X010860Y009050D02*
X010954Y009050D01*
X010954Y008950D02*
X010860Y008950D01*
X010860Y008850D02*
X010954Y008850D01*
X010954Y008750D02*
X010860Y008750D01*
X010860Y008650D02*
X010954Y008650D01*
X010954Y008550D02*
X010860Y008550D01*
X010860Y008450D02*
X010954Y008450D01*
X010954Y008350D02*
X010860Y008350D01*
X010860Y008250D02*
X010954Y008250D01*
X010978Y008150D02*
X010835Y008150D01*
X010850Y008165D02*
X010850Y007962D01*
X010855Y007950D02*
X011100Y007950D01*
X011100Y007850D02*
X010870Y007850D01*
X010870Y007914D02*
X010821Y008031D01*
X010870Y007914D02*
X010870Y007786D01*
X010821Y007669D01*
X010731Y007579D01*
X010614Y007530D01*
X010486Y007530D01*
X010369Y007579D01*
X010279Y007669D01*
X010230Y007786D01*
X010230Y007914D01*
X010279Y008031D01*
X010334Y008087D01*
X010254Y008087D01*
X010166Y008174D01*
X010166Y009250D01*
X010072Y009250D01*
X010072Y008174D01*
X009985Y008087D01*
X009950Y008087D01*
X009950Y007250D01*
X010050Y007250D02*
X010050Y008152D01*
X010048Y008150D02*
X010191Y008150D01*
X010250Y008091D02*
X010250Y007962D01*
X010245Y007950D02*
X009950Y007950D01*
X009950Y007850D02*
X010230Y007850D01*
X010245Y007750D02*
X009950Y007750D01*
X009950Y007667D02*
X009950Y008087D01*
X009950Y008050D02*
X010297Y008050D01*
X010166Y008250D02*
X010072Y008250D01*
X010072Y008350D02*
X010166Y008350D01*
X010166Y008450D02*
X010072Y008450D01*
X010072Y008550D02*
X010166Y008550D01*
X010166Y008650D02*
X010072Y008650D01*
X010072Y008750D02*
X010166Y008750D01*
X010166Y008850D02*
X010072Y008850D01*
X010072Y008950D02*
X010166Y008950D01*
X010166Y009050D02*
X010072Y009050D01*
X010072Y009150D02*
X010166Y009150D01*
X010150Y009250D02*
X010150Y007250D01*
X010250Y007250D02*
X010250Y007738D01*
X010297Y007650D02*
X009933Y007650D01*
X009950Y007667D02*
X009850Y007567D01*
X009733Y007450D01*
X011100Y007450D01*
X011100Y007550D02*
X010662Y007550D01*
X010650Y007545D02*
X010650Y007250D01*
X010550Y007250D02*
X010550Y007530D01*
X010450Y007545D02*
X010450Y007250D01*
X010350Y007250D02*
X010350Y007597D01*
X010438Y007550D02*
X009833Y007550D01*
X009850Y007567D02*
X009850Y007250D01*
X009750Y007250D02*
X009750Y007467D01*
X009733Y007450D02*
X008455Y007450D01*
X008470Y007414D01*
X008470Y007286D01*
X008455Y007250D01*
X008550Y007250D02*
X008550Y007450D01*
X008650Y007450D02*
X008650Y007250D01*
X008750Y007250D02*
X008750Y007450D01*
X008850Y007450D02*
X008850Y007250D01*
X008950Y007250D02*
X008950Y007450D01*
X009050Y007450D02*
X009050Y007250D01*
X009150Y007250D02*
X009150Y007450D01*
X009250Y007450D02*
X009250Y007250D01*
X009350Y007250D02*
X009350Y007450D01*
X009450Y007450D02*
X009450Y007250D01*
X009550Y007250D02*
X009550Y007450D01*
X009650Y007450D02*
X009650Y007250D01*
X009650Y007650D02*
X006650Y007650D01*
X006550Y007750D01*
X006550Y008450D01*
X006450Y008550D01*
X004850Y008550D01*
X004530Y008550D02*
X004103Y008550D01*
X004121Y008569D02*
X004155Y008650D01*
X004545Y008650D01*
X004530Y008614D01*
X004530Y008486D01*
X004545Y008450D01*
X004096Y008450D01*
X004096Y008489D01*
X004069Y008516D01*
X004121Y008569D01*
X004150Y008638D02*
X004150Y008450D01*
X004096Y008450D02*
X004545Y008450D01*
X004450Y008450D02*
X004450Y008650D01*
X004350Y008650D02*
X004350Y008450D01*
X004250Y008450D02*
X004250Y008650D01*
X003950Y008850D02*
X003850Y008750D01*
X003950Y008850D02*
X006650Y008850D01*
X006750Y008750D01*
X006750Y007950D01*
X006850Y007850D01*
X008850Y007850D01*
X008938Y007938D01*
X008938Y008729D01*
X008591Y008750D02*
X008498Y008750D01*
X008498Y008650D02*
X008591Y008650D01*
X008591Y008550D02*
X008498Y008550D01*
X008498Y008450D02*
X008591Y008450D01*
X008591Y008350D02*
X008498Y008350D01*
X008498Y008250D02*
X008591Y008250D01*
X008591Y008174D02*
X008679Y008087D01*
X008738Y008087D01*
X008738Y008050D01*
X008333Y008050D01*
X008350Y008067D01*
X008350Y008087D01*
X008350Y008050D01*
X008333Y008050D02*
X008738Y008050D01*
X008650Y008050D02*
X008650Y008116D01*
X008616Y008150D02*
X008473Y008150D01*
X008450Y008127D02*
X008450Y008050D01*
X008410Y008087D02*
X008350Y008087D01*
X008410Y008087D02*
X008498Y008174D01*
X008498Y009250D01*
X008591Y009250D01*
X008591Y008174D01*
X008550Y008050D02*
X008550Y009250D01*
X008591Y009150D02*
X008498Y009150D01*
X008498Y009050D02*
X008591Y009050D01*
X008591Y008950D02*
X008498Y008950D01*
X008498Y008850D02*
X008591Y008850D01*
X008151Y008729D02*
X008150Y008728D01*
X008150Y008150D01*
X008050Y008050D01*
X007050Y008050D01*
X006950Y008150D01*
X006950Y008950D01*
X006850Y009050D01*
X003050Y009050D01*
X002850Y008950D01*
X003150Y008838D02*
X003150Y008547D01*
X003139Y008547D02*
X003111Y008540D01*
X003114Y008553D01*
X003135Y008573D01*
X003135Y008624D01*
X003149Y008672D01*
X003135Y008698D01*
X003135Y008727D01*
X003107Y008755D01*
X003121Y008769D01*
X003155Y008850D01*
X003545Y008850D01*
X003530Y008814D01*
X003530Y008686D01*
X003575Y008577D01*
X003549Y008577D01*
X003516Y008544D01*
X003505Y008547D01*
X003355Y008547D01*
X003355Y008284D01*
X003288Y008284D01*
X003288Y008547D01*
X003139Y008547D01*
X003114Y008550D02*
X003522Y008550D01*
X003550Y008577D02*
X003550Y008638D01*
X003545Y008650D02*
X003143Y008650D01*
X003112Y008750D02*
X003530Y008750D01*
X003450Y008850D02*
X003450Y008547D01*
X003355Y008450D02*
X003288Y008450D01*
X003288Y008350D02*
X003355Y008350D01*
X003350Y008284D02*
X003350Y008850D01*
X003250Y008850D02*
X003250Y008547D01*
X003053Y008491D02*
X003043Y008473D01*
X003034Y008443D01*
X003034Y008284D01*
X003288Y008284D01*
X003288Y008216D01*
X003034Y008216D01*
X003034Y008057D01*
X003043Y008027D01*
X003058Y007999D01*
X003081Y007977D01*
X003104Y007963D01*
X003104Y007950D01*
X002660Y007950D01*
X002660Y008478D01*
X002673Y008465D01*
X002701Y008465D01*
X002748Y008446D01*
X002795Y008465D01*
X002818Y008465D01*
X002936Y008431D01*
X002998Y008465D01*
X003027Y008465D01*
X003053Y008491D01*
X003050Y008488D02*
X003050Y008486D01*
X003036Y008450D02*
X002970Y008450D01*
X002950Y008439D02*
X002950Y007950D01*
X003050Y007950D02*
X003050Y008014D01*
X003036Y008050D02*
X002660Y008050D01*
X002660Y008150D02*
X003034Y008150D01*
X003050Y008216D02*
X003050Y008284D01*
X003034Y008350D02*
X002660Y008350D01*
X002660Y008250D02*
X003288Y008250D01*
X003322Y008250D02*
X002750Y008250D01*
X002750Y008446D02*
X002750Y007950D01*
X002660Y007950D02*
X003104Y007950D01*
X002850Y007950D02*
X002850Y008456D01*
X002870Y008450D02*
X002759Y008450D01*
X002737Y008450D02*
X002660Y008450D01*
X003150Y008284D02*
X003150Y008216D01*
X003250Y008216D02*
X003250Y008284D01*
X003422Y007750D02*
X002350Y007750D01*
X002660Y007550D02*
X003065Y007550D01*
X003004Y007489D01*
X003004Y007450D01*
X002644Y007450D01*
X002650Y007464D02*
X002650Y007433D01*
X002667Y007450D02*
X002628Y007411D01*
X002660Y007488D01*
X002660Y007550D01*
X002750Y007550D02*
X002750Y007450D01*
X002667Y007450D02*
X003004Y007450D01*
X002950Y007450D02*
X002950Y007550D01*
X003050Y007550D02*
X003050Y007535D01*
X002850Y007550D02*
X002850Y007450D01*
X002650Y006750D02*
X003322Y006750D01*
X002838Y006550D02*
X002769Y006521D01*
X002697Y006450D01*
X002696Y006450D01*
X002697Y006450D01*
X002696Y006450D02*
X002696Y006489D01*
X002684Y006501D01*
X002733Y006550D01*
X002838Y006550D01*
X002750Y006550D02*
X002750Y006503D01*
X002950Y006250D02*
X002378Y006250D01*
X001922Y006250D02*
X000850Y006250D01*
X001160Y006450D02*
X001160Y006450D01*
X001604Y006450D01*
X001604Y006450D01*
X001160Y006450D01*
X001250Y006450D02*
X001250Y006450D01*
X001350Y006450D02*
X001350Y006450D01*
X001450Y006450D02*
X001450Y006450D01*
X001550Y006450D02*
X001550Y006450D01*
X001506Y006850D02*
X001160Y006850D01*
X001160Y006850D01*
X001506Y006850D01*
X001506Y006850D01*
X001450Y006850D02*
X001450Y006850D01*
X001350Y006850D02*
X001350Y006850D01*
X001250Y006850D02*
X001250Y006850D01*
X000850Y007050D02*
X001794Y007050D01*
X000540Y007050D02*
X000400Y007050D01*
X000400Y006950D02*
X000540Y006950D01*
X000540Y006850D02*
X000400Y006850D01*
X000400Y007150D02*
X000540Y007150D01*
X000540Y007250D02*
X000400Y007250D01*
X000400Y007350D02*
X000540Y007350D01*
X000540Y007450D02*
X000400Y007450D01*
X000400Y007550D02*
X000540Y007550D01*
X000540Y007650D02*
X000400Y007650D01*
X000400Y007750D02*
X000540Y007750D01*
X000540Y007850D02*
X000400Y007850D01*
X000400Y007950D02*
X000540Y007950D01*
X000540Y008050D02*
X000400Y008050D01*
X000400Y008150D02*
X000556Y008150D01*
X000550Y008136D02*
X000550Y009628D01*
X000528Y009650D02*
X000400Y009650D01*
X000400Y009550D02*
X000628Y009550D01*
X000650Y009528D02*
X000650Y008288D01*
X000612Y008250D02*
X000400Y008250D01*
X000400Y008350D02*
X000764Y008350D01*
X000750Y008344D02*
X000750Y009510D01*
X000800Y009550D02*
X000900Y009550D01*
X000950Y009510D02*
X000950Y009486D01*
X000936Y009450D02*
X000400Y009450D01*
X000400Y009350D02*
X000934Y009350D01*
X000950Y009284D02*
X000950Y009216D01*
X000934Y009216D02*
X000934Y009057D01*
X000943Y009027D01*
X000958Y008999D01*
X000981Y008977D01*
X001008Y008961D01*
X001039Y008953D01*
X001188Y008953D01*
X001188Y009216D01*
X000934Y009216D01*
X000934Y009150D02*
X000400Y009150D01*
X000400Y009050D02*
X000936Y009050D01*
X000950Y009014D02*
X000950Y008886D01*
X000936Y008850D02*
X000400Y008850D01*
X000400Y008750D02*
X000934Y008750D01*
X000950Y008684D02*
X000950Y008616D01*
X000934Y008550D02*
X000400Y008550D01*
X000400Y008450D02*
X000936Y008450D01*
X000950Y008414D02*
X000950Y008360D01*
X000850Y008360D02*
X000850Y009900D01*
X000800Y009850D02*
X000900Y009850D01*
X000950Y009900D02*
X000950Y010000D01*
X000900Y009950D02*
X001380Y009950D01*
X001380Y009850D02*
X001290Y009850D01*
X001250Y009900D02*
X001250Y010000D01*
X001290Y010050D02*
X001380Y010050D01*
X001385Y010150D02*
X001272Y010150D01*
X001250Y010172D02*
X001250Y010500D01*
X001350Y010500D02*
X001350Y009547D01*
X001422Y009550D02*
X001072Y009550D01*
X001150Y009547D02*
X001150Y009628D01*
X001172Y009650D02*
X001485Y009650D01*
X001450Y009685D02*
X001450Y009577D01*
X001255Y009450D02*
X001188Y009450D01*
X001188Y009350D02*
X001255Y009350D01*
X001250Y009284D02*
X001250Y009728D01*
X001272Y009750D02*
X001385Y009750D01*
X001150Y009900D02*
X001150Y010000D01*
X001050Y010000D02*
X001050Y009900D01*
X000900Y009750D02*
X000800Y009750D01*
X000800Y009650D02*
X000900Y009650D01*
X000650Y009900D02*
X000650Y010000D01*
X000550Y010000D02*
X000550Y009900D01*
X000428Y010150D02*
X000400Y010150D01*
X000450Y010172D02*
X000450Y010500D01*
X000400Y010450D02*
X013350Y010450D01*
X011650Y009350D02*
X011650Y007350D01*
X011888Y007565D02*
X011850Y007603D01*
X011850Y008087D01*
X011850Y007603D01*
X011850Y007650D02*
X011888Y007650D01*
X011888Y007565D02*
X011888Y008087D01*
X011850Y008087D01*
X011850Y008050D02*
X011888Y008050D01*
X011888Y007950D02*
X011850Y007950D01*
X011850Y007850D02*
X011888Y007850D01*
X011888Y007750D02*
X011850Y007750D01*
X011100Y007750D02*
X010855Y007750D01*
X010850Y007738D02*
X010850Y007250D01*
X010750Y007250D02*
X010750Y007597D01*
X010803Y007650D02*
X011100Y007650D01*
X010550Y007850D02*
X010550Y008692D01*
X010513Y008729D01*
X010550Y008766D01*
X011300Y008729D02*
X011300Y007200D01*
X011150Y007050D01*
X006350Y007050D01*
X006150Y007250D01*
X005950Y007450D02*
X005464Y007450D01*
X005450Y007486D02*
X005450Y007550D01*
X005350Y007547D02*
X005350Y007550D01*
X005250Y007547D02*
X005250Y007550D01*
X005150Y007550D02*
X005150Y007284D01*
X005145Y007350D02*
X005212Y007350D01*
X005250Y007284D02*
X005250Y007216D01*
X005350Y007216D02*
X005350Y007284D01*
X005212Y007450D02*
X005145Y007450D01*
X005050Y007547D02*
X005050Y007550D01*
X005962Y007950D02*
X006031Y007979D01*
X006103Y008050D01*
X006150Y008050D01*
X006150Y007933D01*
X006133Y007950D01*
X005962Y007950D01*
X006150Y007950D01*
X006050Y007950D02*
X006050Y007997D01*
X007351Y008729D02*
X007351Y009449D01*
X007350Y009450D01*
X011550Y009450D01*
X011650Y009350D01*
X012088Y008729D02*
X012088Y006988D01*
X011950Y006850D01*
X011867Y007050D02*
X011762Y007050D01*
X011867Y007050D01*
X011888Y007071D01*
X011888Y007135D01*
X011831Y007079D01*
X011762Y007050D01*
X011850Y007050D02*
X011850Y007097D01*
X011538Y007050D02*
X011433Y007050D01*
X011538Y007050D01*
X011469Y007079D01*
X011465Y007082D01*
X011433Y007050D01*
X011450Y007050D02*
X011450Y007067D01*
X010870Y006550D02*
X012650Y006550D01*
X012650Y006850D02*
X012233Y006850D01*
X013050Y006850D02*
X013350Y006850D01*
X013350Y006750D02*
X013050Y006750D01*
X013050Y006650D02*
X013350Y006650D01*
X013350Y006550D02*
X013050Y006550D01*
X013050Y006450D02*
X013350Y006450D01*
X013350Y006350D02*
X013033Y006350D01*
X013050Y006367D02*
X013050Y008087D01*
X013050Y008050D02*
X013350Y008050D01*
X013350Y007950D02*
X013050Y007950D01*
X013050Y007850D02*
X013350Y007850D01*
X013350Y007750D02*
X013050Y007750D01*
X013050Y007650D02*
X013350Y007650D01*
X013350Y007550D02*
X013050Y007550D01*
X013050Y007450D02*
X013350Y007450D01*
X013350Y007350D02*
X013050Y007350D01*
X013050Y007250D02*
X013350Y007250D01*
X013350Y007150D02*
X013050Y007150D01*
X013050Y007050D02*
X013350Y007050D01*
X013350Y006950D02*
X013050Y006950D01*
X013050Y006367D02*
X012933Y006250D01*
X013350Y006250D01*
X013350Y006150D02*
X012833Y006150D01*
X012850Y006167D02*
X012933Y006250D01*
X012933Y006250D01*
X012950Y006267D02*
X012950Y004033D01*
X012933Y004050D02*
X013350Y004050D01*
X013350Y002750D02*
X013194Y002750D01*
X013222Y002650D02*
X013350Y002650D01*
X013350Y002550D02*
X013222Y002550D01*
X013222Y002450D02*
X013350Y002450D01*
X013350Y002350D02*
X013222Y002350D01*
X013222Y002250D02*
X013350Y002250D01*
X013350Y002150D02*
X013222Y002150D01*
X013222Y002050D02*
X013350Y002050D01*
X013350Y001950D02*
X013222Y001950D01*
X013222Y001850D02*
X013350Y001850D01*
X013350Y001750D02*
X013222Y001750D01*
X013222Y001650D02*
X013350Y001650D01*
X013350Y001550D02*
X013158Y001550D01*
X011805Y001550D02*
X011583Y001550D01*
X011550Y001526D02*
X011550Y001315D01*
X011485Y001250D02*
X011215Y001250D01*
X011250Y001215D02*
X011250Y001526D01*
X011350Y001526D02*
X011350Y000400D01*
X011450Y000400D02*
X011450Y000685D01*
X011485Y000650D02*
X011215Y000650D01*
X011250Y000685D02*
X011250Y000400D01*
X011150Y000400D02*
X011150Y000585D01*
X011315Y000750D02*
X011385Y000750D01*
X011380Y000850D02*
X011320Y000850D01*
X011320Y000950D02*
X011380Y000950D01*
X011380Y001050D02*
X011320Y001050D01*
X011315Y001150D02*
X011385Y001150D01*
X011450Y001215D02*
X011450Y001526D01*
X010450Y001526D02*
X010450Y001215D01*
X010485Y001250D02*
X010215Y001250D01*
X010250Y001215D02*
X010250Y001530D01*
X010350Y001526D02*
X010350Y000400D01*
X010250Y000400D02*
X010250Y000685D01*
X010215Y000650D02*
X010485Y000650D01*
X010450Y000685D02*
X010450Y000400D01*
X010150Y000400D02*
X010150Y000585D01*
X010315Y000750D02*
X010385Y000750D01*
X010380Y000850D02*
X010320Y000850D01*
X010320Y000950D02*
X010380Y000950D01*
X010380Y001050D02*
X010320Y001050D01*
X010315Y001150D02*
X010385Y001150D01*
X013350Y000450D02*
X000400Y000450D01*
X000400Y000550D02*
X000628Y000550D01*
X000650Y000528D02*
X000650Y000400D01*
X000550Y000400D02*
X000550Y000628D01*
X000528Y000650D02*
X000400Y000650D01*
X000800Y000650D02*
X000900Y000650D01*
X000900Y000750D02*
X000800Y000750D01*
X000950Y000900D02*
X000950Y001000D01*
X000900Y000950D02*
X001380Y000950D01*
X001380Y000850D02*
X001290Y000850D01*
X001250Y000900D02*
X001250Y001000D01*
X001290Y001050D02*
X001380Y001050D01*
X001385Y001150D02*
X001272Y001150D01*
X001250Y001172D02*
X001250Y001740D01*
X001350Y001740D02*
X001350Y000400D01*
X001250Y000400D02*
X001250Y000728D01*
X001272Y000750D02*
X001385Y000750D01*
X001450Y000685D02*
X001450Y000400D01*
X001485Y000650D02*
X001172Y000650D01*
X001150Y000628D02*
X001150Y000400D01*
X001150Y000900D02*
X001150Y001000D01*
X001050Y001000D02*
X001050Y000900D01*
X000900Y001050D02*
X000800Y001050D01*
X000800Y001150D02*
X000900Y001150D01*
X000900Y001250D02*
X000800Y001250D01*
X001150Y001272D02*
X001150Y001740D01*
X001450Y001740D02*
X001450Y001215D01*
X001485Y001250D02*
X001172Y001250D01*
X001550Y001315D02*
X001550Y001740D01*
X002250Y001723D02*
X002250Y001215D01*
X002215Y001250D02*
X002485Y001250D01*
X002450Y001215D02*
X002450Y001723D01*
X002350Y001723D02*
X002350Y000400D01*
X002450Y000400D02*
X002450Y000685D01*
X002485Y000650D02*
X002215Y000650D01*
X002250Y000685D02*
X002250Y000400D01*
X002150Y000400D02*
X002150Y000585D01*
X002315Y000750D02*
X002385Y000750D01*
X002380Y000850D02*
X002320Y000850D01*
X002320Y000950D02*
X002380Y000950D01*
X002380Y001050D02*
X002320Y001050D01*
X002315Y001150D02*
X002385Y001150D01*
X002550Y001315D02*
X002550Y001723D01*
X004315Y001150D02*
X004385Y001150D01*
X004380Y001050D02*
X004320Y001050D01*
X004320Y000950D02*
X004380Y000950D01*
X004380Y000850D02*
X004320Y000850D01*
X004315Y000750D02*
X004385Y000750D01*
X004450Y000685D02*
X004450Y000400D01*
X004350Y000400D02*
X004350Y001745D01*
X004250Y000685D02*
X004250Y000400D01*
X004215Y000650D02*
X004485Y000650D01*
X004550Y000585D02*
X004550Y000400D01*
X006215Y000650D02*
X006485Y000650D01*
X006450Y000685D02*
X006450Y000400D01*
X006350Y000400D02*
X006350Y001850D01*
X006450Y001850D02*
X006450Y001215D01*
X006485Y001250D02*
X006215Y001250D01*
X006250Y001215D02*
X006250Y001850D01*
X006550Y001850D02*
X006550Y001315D01*
X006385Y001150D02*
X006315Y001150D01*
X006320Y001050D02*
X006380Y001050D01*
X006380Y000950D02*
X006320Y000950D01*
X006320Y000850D02*
X006380Y000850D01*
X006385Y000750D02*
X006315Y000750D01*
X006250Y000685D02*
X006250Y000400D01*
X007283Y001650D02*
X007380Y001650D01*
X005055Y003250D02*
X004988Y003250D01*
X004850Y003416D02*
X004850Y003484D01*
X004988Y003550D02*
X005055Y003550D01*
X005055Y003650D02*
X004988Y003650D01*
X004988Y003750D02*
X005055Y003750D01*
X005950Y004450D02*
X005950Y004623D01*
X007250Y004550D02*
X009750Y004550D01*
X010855Y006450D02*
X010870Y006486D01*
X009650Y007650D02*
X009750Y007750D01*
X009750Y008704D01*
X009726Y008729D01*
X009379Y008750D02*
X009285Y008750D01*
X009285Y008650D02*
X009379Y008650D01*
X009379Y008550D02*
X009285Y008550D01*
X009285Y008450D02*
X009379Y008450D01*
X009379Y008350D02*
X009285Y008350D01*
X009285Y008250D02*
X009379Y008250D01*
X009379Y008174D02*
X009467Y008087D01*
X009550Y008087D01*
X009550Y007850D01*
X009133Y007850D01*
X009138Y007855D01*
X009138Y008087D01*
X009197Y008087D01*
X009285Y008174D01*
X009285Y009250D01*
X009379Y009250D01*
X009379Y008174D01*
X009403Y008150D02*
X009261Y008150D01*
X009250Y008139D02*
X009250Y007850D01*
X009150Y007850D02*
X009150Y008087D01*
X009138Y008050D02*
X009550Y008050D01*
X009550Y007950D02*
X009138Y007950D01*
X009133Y007850D02*
X009550Y007850D01*
X009450Y007850D02*
X009450Y008103D01*
X009350Y007850D02*
X009350Y009250D01*
X009379Y009150D02*
X009285Y009150D01*
X009285Y009050D02*
X009379Y009050D01*
X009379Y008950D02*
X009285Y008950D01*
X009285Y008850D02*
X009379Y008850D01*
X010215Y009650D02*
X010485Y009650D01*
X010450Y009650D02*
X010450Y009685D01*
X010385Y009750D02*
X010315Y009750D01*
X010250Y009685D02*
X010250Y009650D01*
X010350Y009650D02*
X010350Y010500D01*
X010250Y010500D02*
X010250Y010215D01*
X010215Y010250D02*
X010485Y010250D01*
X010450Y010215D02*
X010450Y010500D01*
X010150Y010500D02*
X010150Y010315D01*
X010315Y010150D02*
X010385Y010150D01*
X010380Y010050D02*
X010320Y010050D01*
X010320Y009950D02*
X010380Y009950D01*
X010380Y009850D02*
X010320Y009850D01*
X008485Y009650D02*
X008215Y009650D01*
X008250Y009650D02*
X008250Y009685D01*
X008315Y009750D02*
X008385Y009750D01*
X008450Y009685D02*
X008450Y009650D01*
X008350Y009650D02*
X008350Y010500D01*
X008250Y010500D02*
X008250Y010215D01*
X008215Y010250D02*
X008485Y010250D01*
X008450Y010215D02*
X008450Y010500D01*
X008150Y010500D02*
X008150Y010315D01*
X008315Y010150D02*
X008385Y010150D01*
X008380Y010050D02*
X008320Y010050D01*
X008320Y009950D02*
X008380Y009950D01*
X008380Y009850D02*
X008320Y009850D01*
X007804Y009250D02*
X007698Y009250D01*
X007698Y008250D01*
X007804Y008250D01*
X007698Y008250D01*
X007750Y008250D02*
X007750Y009250D01*
X007804Y009250D02*
X007804Y008250D01*
X007804Y008350D02*
X007698Y008350D01*
X007698Y008450D02*
X007804Y008450D01*
X007804Y008550D02*
X007698Y008550D01*
X007698Y008650D02*
X007804Y008650D01*
X007804Y008750D02*
X007698Y008750D01*
X007698Y008850D02*
X007804Y008850D01*
X007804Y008950D02*
X007698Y008950D01*
X007698Y009050D02*
X007804Y009050D01*
X007804Y009150D02*
X007698Y009150D01*
X007250Y009660D02*
X007250Y009685D01*
X006450Y009660D02*
X006450Y009685D01*
X006385Y009750D02*
X006315Y009750D01*
X006250Y009685D02*
X006250Y009660D01*
X006350Y009660D02*
X006350Y010500D01*
X006450Y010500D02*
X006450Y010215D01*
X006485Y010250D02*
X006215Y010250D01*
X006250Y010215D02*
X006250Y010500D01*
X006150Y010500D02*
X006150Y010315D01*
X006315Y010150D02*
X006385Y010150D01*
X006380Y010050D02*
X006320Y010050D01*
X006320Y009950D02*
X006380Y009950D01*
X006380Y009850D02*
X006320Y009850D01*
X005250Y009685D02*
X005250Y009660D01*
X004450Y009660D02*
X004450Y009685D01*
X004385Y009750D02*
X004315Y009750D01*
X004250Y009685D02*
X004250Y009660D01*
X004350Y009660D02*
X004350Y010500D01*
X004450Y010500D02*
X004450Y010215D01*
X004485Y010250D02*
X004215Y010250D01*
X004250Y010215D02*
X004250Y010500D01*
X004150Y010500D02*
X004150Y010315D01*
X004315Y010150D02*
X004385Y010150D01*
X004380Y010050D02*
X004320Y010050D01*
X004320Y009950D02*
X004380Y009950D01*
X004380Y009850D02*
X004320Y009850D01*
X003250Y009685D02*
X003250Y009660D01*
X002450Y009660D02*
X002450Y009685D01*
X002385Y009750D02*
X002315Y009750D01*
X002250Y009685D02*
X002250Y009644D01*
X002264Y009650D02*
X002215Y009650D01*
X002350Y009660D02*
X002350Y010500D01*
X002450Y010500D02*
X002450Y010215D01*
X002485Y010250D02*
X002215Y010250D01*
X002250Y010215D02*
X002250Y010500D01*
X002150Y010500D02*
X002150Y010315D01*
X002315Y010150D02*
X002385Y010150D01*
X002380Y010050D02*
X002320Y010050D01*
X002320Y009950D02*
X002380Y009950D01*
X002380Y009850D02*
X002320Y009850D01*
X001485Y010250D02*
X001172Y010250D01*
X001150Y010272D02*
X001150Y010500D01*
X001450Y010500D02*
X001450Y010215D01*
X000900Y010250D02*
X000800Y010250D01*
X000800Y010150D02*
X000900Y010150D01*
X000628Y010350D02*
X000400Y010350D01*
X000400Y010250D02*
X000528Y010250D01*
X000550Y010272D02*
X000550Y010500D01*
X000650Y010500D02*
X000650Y010372D01*
X001050Y009284D02*
X001050Y009216D01*
X001150Y009216D02*
X001150Y009284D01*
X001188Y009250D02*
X000400Y009250D01*
X000400Y008950D02*
X001422Y008950D01*
X001350Y008947D02*
X001350Y008953D01*
X001255Y009050D02*
X001188Y009050D01*
X001188Y009150D02*
X001255Y009150D01*
X001250Y009216D02*
X001250Y008684D01*
X001255Y008750D02*
X001188Y008750D01*
X001150Y008684D02*
X001150Y008616D01*
X001188Y008650D02*
X000400Y008650D01*
X001050Y008616D02*
X001050Y008684D01*
X001188Y008850D02*
X001255Y008850D01*
X001150Y008947D02*
X001150Y008953D01*
X001050Y008947D02*
X001050Y008953D01*
X001160Y006050D02*
X001160Y005950D01*
X001604Y005950D01*
X001160Y005950D01*
X001250Y005950D02*
X001250Y006050D01*
X001160Y006050D02*
X001604Y006050D01*
X001604Y006011D01*
X001615Y006000D01*
X001604Y005989D01*
X001604Y005950D01*
X001550Y005950D02*
X001550Y006050D01*
X001450Y006050D02*
X001450Y005950D01*
X001350Y005950D02*
X001350Y006050D01*
X000850Y005750D02*
X001922Y005750D01*
X003431Y005631D02*
X003650Y005950D01*
X003431Y005631D02*
X003431Y005606D01*
D19*
X000850Y004450D02*
X000841Y004341D01*
X000850Y003350D02*
X000926Y003274D01*
X001359Y003274D01*
X007332Y002151D02*
X007350Y002151D01*
X007350Y001850D01*
D20*
X005050Y003450D02*
X005055Y003484D01*
X005050Y003450D02*
X005022Y003450D01*
X005050Y003550D01*
X004988Y003550D02*
X004950Y003550D01*
X005022Y003450D01*
X005050Y003916D02*
X005050Y003950D01*
X005022Y003950D01*
X000950Y002850D02*
X000850Y002850D01*
X002748Y008646D02*
X002750Y008650D01*
X002950Y008650D01*
X002914Y008630D01*
X012850Y008750D02*
X012850Y008704D01*
X012875Y008729D02*
X012850Y008750D01*
D21*
X011650Y007350D03*
X010550Y007850D03*
X010550Y006550D03*
X008550Y005350D03*
X007850Y005650D03*
X009750Y004550D03*
X009350Y004250D03*
X008950Y002950D03*
X008150Y002950D03*
X009750Y002950D03*
X010513Y002950D03*
X011300Y002950D03*
X011750Y004350D03*
X008150Y007350D03*
X005750Y007250D03*
X005850Y006250D03*
X004550Y005650D03*
X003950Y004550D03*
X004350Y004250D03*
X004550Y003750D03*
X004250Y003450D03*
X004850Y002650D03*
X004250Y002050D03*
X003850Y002350D03*
X003350Y002050D03*
X004550Y001550D03*
X005850Y002950D03*
X006050Y003450D03*
X002950Y005750D03*
X002950Y006250D03*
X002750Y008250D03*
X002850Y008950D03*
X003850Y008750D03*
X004850Y008550D03*
X005850Y008250D03*
X000950Y002850D03*
M02*
